<?xml version="1.0" encoding="UTF-8" standalone="no"?>
<svg width="956px" height="141px" viewBox="0 0 956 141" version="1.1" xmlns="http://www.w3.org/2000/svg" xmlns:xlink="http://www.w3.org/1999/xlink" xmlns:sketch="http://www.bohemiancoding.com/sketch/ns">
    <!-- Generator: Sketch 3.3.2 (12043) - http://www.bohemiancoding.com/sketch -->
    <title>infographics</title>
    <desc>Created with Sketch.</desc>
    <defs>
        <path d="M21.655,20.447 C21.241,21.034 20.652,21.478 19.888,21.782 C19.61,21.891 19.282,21.984 18.911,22.058 L18.911,24.387 L16.7,24.387 L16.7,22.239 C16.647,22.239 16.594,22.242 16.538,22.242 L15.283,22.242 L15.283,24.388 L13.072,24.388 L13.072,22.242 L9.701,22.242 L9.701,20.44 L10.216,20.44 C10.563,20.44 10.79,20.409 10.911,20.348 C11.032,20.287 11.118,20.205 11.168,20.097 C11.218,19.988 11.242,19.745 11.242,19.363 L11.242,12.085 C11.242,11.7 11.218,11.452 11.168,11.346 C11.118,11.242 11.032,11.157 10.911,11.095 C10.789,11.033 10.562,11.001 10.216,11.001 L9.701,11.001 L9.701,9.198 L13.072,9.198 L13.072,7.05 L15.283,7.05 L15.283,9.196 L16.701,9.196 L16.701,7.05 L18.912,7.05 L18.912,9.353 C19.238,9.418 19.536,9.492 19.787,9.596 C20.435,9.862 20.935,10.241 21.284,10.735 C21.628,11.232 21.802,11.777 21.802,12.368 C21.802,12.797 21.71,13.209 21.526,13.595 C21.346,13.983 21.076,14.32 20.731,14.618 C20.384,14.914 19.927,15.16 19.356,15.352 C19.968,15.506 20.436,15.68 20.759,15.867 C21.231,16.131 21.597,16.497 21.871,16.969 C22.147,17.442 22.285,17.963 22.285,18.543 C22.286,19.229 22.072,19.867 21.655,20.447 L21.655,20.447 Z M15.995,1.795 C8.307,1.795 2.073,8.029 2.073,15.717 C2.073,23.405 8.306,29.639 15.995,29.639 C23.68,29.639 29.913,23.409 29.913,15.717 C29.912,8.029 23.68,1.795 15.995,1.795 L15.995,1.795 Z M18.628,17.207 C18.808,17.479 18.898,17.805 18.898,18.188 C18.898,18.645 18.767,19.035 18.513,19.356 C18.259,19.678 17.951,19.893 17.588,19.999 C17.221,20.097 16.762,20.157 16.212,20.157 L15.259,20.157 C14.942,20.157 14.746,20.136 14.676,20.101 C14.605,20.07 14.552,20.007 14.521,19.921 C14.494,19.853 14.48,19.622 14.477,19.219 L14.477,16.396 L16.164,16.396 C16.903,16.396 17.452,16.464 17.815,16.604 C18.178,16.738 18.445,16.939 18.628,17.207 L18.628,17.207 Z M15.905,14.478 L14.476,14.478 L14.476,11.296 L15.905,11.296 C16.74,11.296 17.321,11.346 17.642,11.454 C17.966,11.554 18.218,11.732 18.384,11.973 C18.554,12.215 18.645,12.51 18.645,12.851 C18.645,13.183 18.551,13.476 18.372,13.727 C18.189,13.978 17.921,14.167 17.565,14.292 C17.208,14.416 16.654,14.478 15.905,14.478 L15.905,14.478 Z M15.995,31.272 C7.403,31.272 0.439,24.305 0.439,15.714 C0.439,7.125 7.403,0.158 15.995,0.158 C24.583,0.158 31.547,7.125 31.547,15.714 C31.545,24.307 24.583,31.272 15.995,31.272 L15.995,31.272 Z" id="path-1"></path>
        <path d="M24.868,24.184 C24.39,24.861 23.709,25.374 22.826,25.726 C22.504,25.852 22.126,25.96 21.698,26.045 L21.698,28.735 L19.144,28.735 L19.144,26.253 C19.083,26.253 19.021,26.256 18.956,26.256 L17.506,26.256 L17.506,28.735 L14.952,28.735 L14.952,26.256 L11.057,26.256 L11.057,24.174 L11.652,24.174 C12.053,24.174 12.316,24.139 12.456,24.069 C12.595,23.998 12.695,23.903 12.753,23.779 C12.812,23.652 12.839,23.372 12.839,22.931 L12.839,14.522 C12.839,14.079 12.812,13.79 12.753,13.668 C12.695,13.549 12.595,13.45 12.456,13.378 C12.316,13.307 12.053,13.27 11.652,13.27 L11.057,13.27 L11.057,11.186 L14.952,11.186 L14.952,8.705 L17.506,8.705 L17.506,11.186 L19.145,11.186 L19.145,8.705 L21.699,8.705 L21.699,11.366 C22.075,11.442 22.42,11.528 22.71,11.647 C23.46,11.956 24.038,12.393 24.44,12.963 C24.837,13.537 25.039,14.168 25.039,14.85 C25.039,15.345 24.932,15.822 24.72,16.267 C24.512,16.715 24.2,17.105 23.801,17.451 C23.401,17.793 22.872,18.075 22.212,18.298 C22.919,18.477 23.461,18.678 23.833,18.894 C24.378,19.199 24.801,19.621 25.118,20.165 C25.437,20.712 25.597,21.314 25.597,21.984 C25.597,22.773 25.35,23.513 24.868,24.184 L24.868,24.184 Z M18.328,2.632 C9.446,2.632 2.244,9.837 2.244,18.719 C2.244,27.601 9.446,34.802 18.328,34.802 C27.207,34.802 34.409,27.605 34.409,18.719 C34.407,9.837 27.207,2.632 18.328,2.632 L18.328,2.632 Z M21.37,20.438 C21.579,20.754 21.682,21.129 21.682,21.573 C21.682,22.101 21.531,22.551 21.237,22.923 C20.943,23.294 20.587,23.542 20.168,23.665 C19.744,23.778 19.214,23.847 18.578,23.847 L17.477,23.847 C17.111,23.847 16.885,23.823 16.803,23.783 C16.721,23.748 16.66,23.675 16.625,23.574 C16.593,23.497 16.577,23.23 16.574,22.763 L16.574,19.501 L18.522,19.501 C19.376,19.501 20.01,19.581 20.43,19.741 C20.85,19.897 21.159,20.13 21.37,20.438 L21.37,20.438 Z M18.225,17.285 L16.574,17.285 L16.574,13.609 L18.225,13.609 C19.189,13.609 19.86,13.667 20.231,13.791 C20.606,13.906 20.896,14.112 21.088,14.39 C21.284,14.671 21.389,15.012 21.389,15.406 C21.389,15.789 21.281,16.127 21.074,16.42 C20.863,16.709 20.553,16.928 20.141,17.072 C19.73,17.215 19.089,17.285 18.225,17.285 L18.225,17.285 Z M18.328,36.689 C8.402,36.689 0.356,28.64 0.356,18.714 C0.356,8.79 8.401,0.741 18.328,0.741 C28.251,0.741 36.296,8.79 36.296,18.714 C36.294,28.642 28.25,36.689 18.328,36.689 L18.328,36.689 Z" id="path-3"></path>
        <path d="M26.726,25.229 C26.224,25.941 25.509,26.48 24.581,26.849 C24.243,26.982 23.846,27.094 23.395,27.184 L23.395,30.01 L20.712,30.01 L20.712,27.403 C20.648,27.403 20.584,27.407 20.515,27.407 L18.993,27.407 L18.993,30.011 L16.31,30.011 L16.31,27.407 L12.219,27.407 L12.219,25.22 L12.844,25.22 C13.265,25.22 13.541,25.182 13.688,25.108 C13.834,25.035 13.939,24.935 14,24.803 C14.061,24.67 14.09,24.376 14.09,23.912 L14.09,15.08 C14.09,14.613 14.061,14.311 14,14.183 C13.939,14.058 13.834,13.954 13.688,13.878 C13.541,13.803 13.265,13.764 12.844,13.764 L12.219,13.764 L12.219,11.576 L16.31,11.576 L16.31,8.97 L18.993,8.97 L18.993,11.574 L20.714,11.574 L20.714,8.97 L23.397,8.97 L23.397,11.765 C23.792,11.844 24.154,11.934 24.459,12.06 C25.246,12.383 25.853,12.842 26.276,13.443 C26.693,14.046 26.905,14.708 26.905,15.424 C26.905,15.945 26.793,16.445 26.57,16.912 C26.351,17.383 26.024,17.792 25.605,18.154 C25.184,18.513 24.629,18.811 23.936,19.045 C24.679,19.233 25.247,19.443 25.639,19.67 C26.211,19.99 26.656,20.435 26.989,21.007 C27.324,21.581 27.491,22.213 27.491,22.917 C27.491,23.749 27.231,24.524 26.726,25.229 L26.726,25.229 Z M19.855,2.593 C10.525,2.593 2.96,10.158 2.96,19.489 C2.96,28.82 10.525,36.385 19.855,36.385 C29.182,36.385 36.747,28.824 36.747,19.489 C36.746,10.158 29.182,2.593 19.855,2.593 L19.855,2.593 Z M23.051,21.296 C23.27,21.627 23.379,22.022 23.379,22.487 C23.379,23.041 23.221,23.514 22.912,23.904 C22.603,24.295 22.23,24.555 21.789,24.684 C21.344,24.803 20.787,24.875 20.119,24.875 L18.962,24.875 C18.578,24.875 18.34,24.849 18.254,24.807 C18.168,24.769 18.104,24.693 18.066,24.588 C18.033,24.505 18.016,24.226 18.013,23.736 L18.013,20.31 L20.059,20.31 C20.956,20.31 21.622,20.393 22.063,20.562 C22.505,20.728 22.829,20.972 23.051,21.296 L23.051,21.296 Z M19.747,17.983 L18.013,17.983 L18.013,14.122 L19.747,14.122 C20.76,14.122 21.465,14.183 21.854,14.313 C22.248,14.434 22.553,14.651 22.755,14.942 C22.961,15.236 23.071,15.594 23.071,16.008 C23.071,16.41 22.957,16.766 22.74,17.071 C22.517,17.376 22.192,17.605 21.76,17.757 C21.329,17.908 20.656,17.983 19.747,17.983 L19.747,17.983 Z M19.855,38.365 C9.429,38.365 0.978,29.911 0.978,19.484 C0.978,9.061 9.429,0.606 19.855,0.606 C30.278,0.606 38.729,9.061 38.729,19.484 C38.728,29.912 30.278,38.365 19.855,38.365 L19.855,38.365 Z" id="path-5"></path>
        <path d="M25.865,25.458 C25.363,26.17 24.648,26.709 23.72,27.078 C23.382,27.211 22.985,27.323 22.534,27.413 L22.534,30.239 L19.851,30.239 L19.851,27.632 C19.787,27.632 19.723,27.636 19.654,27.636 L18.132,27.636 L18.132,30.24 L15.449,30.24 L15.449,27.636 L11.358,27.636 L11.358,25.449 L11.983,25.449 C12.404,25.449 12.68,25.411 12.827,25.337 C12.973,25.264 13.078,25.164 13.139,25.032 C13.2,24.899 13.229,24.605 13.229,24.141 L13.229,15.31 C13.229,14.843 13.2,14.541 13.139,14.413 C13.078,14.288 12.973,14.184 12.827,14.108 C12.68,14.033 12.404,13.994 11.983,13.994 L11.358,13.994 L11.358,11.806 L15.449,11.806 L15.449,9.201 L18.132,9.201 L18.132,11.805 L19.853,11.805 L19.853,9.201 L22.536,9.201 L22.536,11.996 C22.931,12.075 23.293,12.165 23.598,12.291 C24.385,12.614 24.992,13.073 25.415,13.674 C25.832,14.277 26.044,14.939 26.044,15.655 C26.044,16.176 25.932,16.676 25.709,17.143 C25.49,17.614 25.163,18.023 24.744,18.385 C24.323,18.744 23.768,19.042 23.075,19.276 C23.818,19.464 24.386,19.674 24.778,19.901 C25.35,20.221 25.795,20.666 26.128,21.238 C26.463,21.812 26.63,22.444 26.63,23.148 C26.63,23.979 26.371,24.754 25.865,25.458 L25.865,25.458 Z M18.995,2.822 C9.665,2.822 2.1,10.387 2.1,19.718 C2.1,29.049 9.665,36.614 18.995,36.614 C28.322,36.614 35.887,29.053 35.887,19.718 C35.885,10.388 28.321,2.822 18.995,2.822 L18.995,2.822 Z M22.19,21.525 C22.409,21.856 22.518,22.251 22.518,22.716 C22.518,23.27 22.36,23.743 22.051,24.133 C21.742,24.524 21.369,24.784 20.928,24.913 C20.483,25.032 19.926,25.104 19.258,25.104 L18.101,25.104 C17.717,25.104 17.479,25.078 17.393,25.036 C17.307,24.998 17.243,24.922 17.205,24.817 C17.172,24.734 17.155,24.455 17.152,23.965 L17.152,20.539 L19.198,20.539 C20.095,20.539 20.761,20.622 21.202,20.791 C21.645,20.957 21.968,21.201 22.19,21.525 L22.19,21.525 Z M18.886,18.213 L17.152,18.213 L17.152,14.352 L18.886,14.352 C19.899,14.352 20.604,14.413 20.993,14.543 C21.387,14.664 21.692,14.881 21.894,15.172 C22.1,15.466 22.21,15.824 22.21,16.238 C22.21,16.64 22.096,16.996 21.879,17.301 C21.656,17.606 21.331,17.835 20.899,17.987 C20.468,18.138 19.795,18.213 18.886,18.213 L18.886,18.213 Z M18.995,38.595 C8.569,38.595 0.118,30.141 0.118,19.714 C0.118,9.291 8.569,0.836 18.995,0.836 C29.418,0.836 37.869,9.291 37.869,19.714 C37.867,30.142 29.417,38.595 18.995,38.595 L18.995,38.595 Z" id="path-7"></path>
        <rect id="path-9" x="0.361" y="0.017" width="34.627" height="33.343"></rect>
        <path d="M22.417,7.338 L21.759,10.113 C21.191,9.783 20.323,9.517 19.161,9.517 C16.95,9.517 16.144,11.009 16.144,12.743 C16.144,13.756 16.294,14.56 16.469,15.428 L20.654,15.428 L20.654,17.968 L16.8,17.968 C16.83,18.889 16.83,19.787 16.591,20.623 C16.294,21.64 15.693,22.507 14.861,23.253 L14.861,23.313 L23.252,23.313 L23.252,26.329 L10.174,26.329 L10.174,24.327 C11.966,23.493 13.545,21.701 13.545,19.577 C13.545,19.011 13.519,18.536 13.43,17.969 L10.439,17.969 L10.439,15.429 L13.01,15.429 C12.858,14.593 12.707,13.61 12.707,12.654 C12.707,8.983 15.309,6.593 19.011,6.593 C20.622,6.592 21.754,6.948 22.417,7.338 L22.417,7.338 Z M0.339,16.461 C0.339,25.503 7.668,32.831 16.709,32.831 C25.751,32.831 33.08,25.503 33.08,16.461 C33.08,7.418 25.751,0.089 16.709,0.089 C7.668,0.089 0.339,7.418 0.339,16.461 L0.339,16.461 Z" id="path-11"></path>
        <rect id="path-13" x="0.361" y="0.017" width="34.627" height="33.343"></rect>
        <path d="M18.345,20.332 C14.713,19.017 12.363,17.358 12.363,14.142 C12.363,11.163 14.434,8.878 17.931,8.257 L17.931,4.863 L20.77,4.863 L20.77,8.086 C22.951,8.153 24.437,8.671 25.546,9.226 L24.608,12.412 C23.78,12.029 22.257,11.231 19.905,11.231 C17.48,11.231 16.617,12.479 16.617,13.655 C16.617,15.075 17.858,15.873 20.801,17.049 C24.683,18.499 26.411,20.369 26.411,23.452 C26.411,26.389 24.37,28.984 20.562,29.611 L20.562,33.174 L17.725,33.174 L17.725,29.813 C15.542,29.746 13.362,29.124 12.119,28.294 L13.051,25.041 C14.405,25.839 16.342,26.564 18.449,26.564 C20.63,26.564 22.122,25.492 22.122,23.829 C22.117,22.27 20.904,21.27 18.345,20.332 L18.345,20.332 Z M19.263,37.992 C29.742,37.992 38.238,29.501 38.238,19.021 C38.238,8.541 29.742,0.045 19.263,0.045 C8.783,0.045 0.291,8.54 0.291,19.021 C0.292,29.501 8.783,37.992 19.263,37.992 L19.263,37.992 Z" id="path-15"></path>
        <path d="M9.944,20.057 L11.891,20.057 L11.891,19.497 C11.891,19.083 11.928,18.633 11.957,18.25 L9.943,18.25 L9.943,16.103 L12.273,16.103 C12.687,13.986 13.624,12.179 14.871,10.865 C16.745,8.783 19.276,7.603 22.366,7.603 C24.447,7.603 26.181,8.126 27.326,8.68 L26.461,11.905 C25.557,11.417 24.137,10.968 22.575,10.968 C20.84,10.968 19.312,11.593 18.17,12.877 C17.441,13.637 16.916,14.782 16.642,16.103 L25.733,16.103 L25.733,18.25 L16.224,18.25 C16.156,18.633 16.156,19.046 16.156,19.467 L16.156,20.057 L25.733,20.057 L25.733,22.174 L16.539,22.174 C16.784,23.664 17.3,24.773 18.035,25.574 C19.211,26.852 20.877,27.441 22.678,27.441 C24.381,27.441 25.976,26.852 26.774,26.402 L27.503,29.523 C26.359,30.222 24.418,30.915 22.199,30.915 C19.041,30.915 16.193,29.663 14.357,27.339 C13.25,26.055 12.483,24.321 12.171,22.174 L9.944,22.174 L9.944,20.057 L9.944,20.057 Z M19.936,38.277 C30.442,38.277 38.957,29.761 38.957,19.258 C38.957,8.752 30.442,0.237 19.936,0.237 C9.433,0.237 0.917,8.752 0.917,19.258 C0.917,29.761 9.433,38.277 19.936,38.277 L19.936,38.277 Z" id="path-17"></path>
        <path d="M13.333,7.646 L15.892,13.16 C16.436,14.284 16.773,15.228 17.17,16.203 L17.233,16.203 C17.595,15.291 17.991,14.225 18.508,13.097 L21.156,7.647 L25.114,7.647 L19.784,16.569 L23.562,16.569 L23.562,18.426 L18.782,18.426 L18.782,20.5 L23.562,20.5 L23.562,22.357 L18.782,22.357 L18.782,27.438 L15.278,27.438 L15.278,22.357 L10.531,22.357 L10.531,20.5 L15.278,20.5 L15.278,18.426 L10.531,18.426 L10.531,16.569 L14.34,16.569 L9.285,7.647 L13.333,7.647 L13.333,7.646 Z M17.201,34.232 C26.418,34.232 33.89,26.761 33.89,17.544 C33.89,8.325 26.417,0.849 17.201,0.849 C7.978,0.849 0.508,8.325 0.508,17.544 C0.507,26.762 7.978,34.232 17.201,34.232 L17.201,34.232 Z" id="path-19"></path>
    </defs>
    <g id="Page-1" stroke="none" stroke-width="1" fill="none" fill-rule="evenodd" sketch:type="MSPage">
        <g id="infographics" sketch:type="MSLayerGroup">
            <path d="M789.967237,73.848 L760.886,73.848 L760.886,78.848 L789.895,78.848 L781.958,86.785 L785.316,90.144 L799.148,76.312 L799.138,76.301 L785.388,62.552 L782.031,65.911 L789.967237,73.848 Z" id="arrow" fill="#93C4D2" sketch:type="MSShapeGroup"></path>
            <path d="M608.967237,73.848 L579.886,73.848 L579.886,78.848 L608.895,78.848 L600.958,86.785 L604.316,90.144 L618.148,76.312 L618.138,76.301 L604.388,62.552 L601.031,65.911 L608.967237,73.848 Z" id="arrow" fill="#93C4D2" sketch:type="MSShapeGroup"></path>
            <path d="M370.967,73.848 L341.886,73.848 L341.886,78.848 L370.895,78.848 L362.958,86.785 L366.316,90.144 L380.148,76.312 L380.138,76.301 L366.389,62.552 L363.03,65.911 L370.967,73.848 Z" id="arrow" fill="#93C4D2" sketch:type="MSShapeGroup"></path>
            <path d="M174.967,73.848 L145.886,73.848 L145.886,78.848 L174.895,78.848 L166.958,86.785 L170.316,90.144 L184.148,76.312 L184.138,76.301 L170.389,62.552 L167.03,65.911 L174.967,73.848 Z" id="arrow" fill="#93C4D2" sketch:type="MSShapeGroup"></path>
            <g id="notebook" transform="translate(810.000000, 28.000000)" sketch:type="MSShapeGroup">
                <path d="M70.888,59.416 C70.888,61.481 69.213,63.158 67.145,63.158 C65.08,63.158 63.403,61.481 63.403,59.416 C63.403,57.348 65.08,55.673 67.145,55.673 C69.213,55.673 70.888,57.348 70.888,59.416 L70.888,59.416 L70.888,59.416 Z" id="Shape" fill="#93C4D2"></path>
                <path d="M84.643,59.416 C84.643,61.481 82.966,63.158 80.898,63.158 C78.834,63.158 77.157,61.481 77.157,59.416 C77.157,57.348 78.834,55.673 80.898,55.673 C82.966,55.673 84.643,57.348 84.643,59.416 L84.643,59.416 L84.643,59.416 Z" id="Shape" fill="#93C4D2"></path>
                <path d="M49.243,26.31 L51.885,27.948 L61.007,51.585 C61.285,52.307 61.981,52.783 62.754,52.783 L85.29,52.783 C86.064,52.783 86.76,52.306 87.037,51.585 L94.522,32.121 C94.744,31.545 94.667,30.899 94.32,30.389 C93.97,29.881 93.393,29.577 92.775,29.577 L59.309,29.577 L57.386,24.665 C57.138,24.026 56.688,23.488 56.109,23.128 L52.571,20.938 C51.089,20.02 49.139,20.477 48.218,21.96 C47.3,23.444 47.757,25.391 49.243,26.31 L49.243,26.31 L49.243,26.31 Z" id="Shape" fill="#93C4D2"></path>
                <path d="M143.445,77.349 L135.658,77.349 L135.658,5.945 C135.658,2.913 133.201,0.455 130.17,0.455 L16.227,0.455 C13.196,0.455 10.736,2.913 10.736,5.945 L10.736,77.349 L3.277,77.349 C1.892,77.349 0.77,78.471 0.77,79.857 C0.77,85.809 5.613,90.652 11.564,90.652 L98.404,90.652 L98.404,85.985 C98.404,84.324 99.749,82.976 101.411,82.976 C103.07,82.976 104.417,84.324 104.417,85.985 L104.417,90.652 L109.348,90.652 L109.348,85.985 C109.348,84.324 110.694,82.976 112.353,82.976 C114.014,82.976 115.361,84.324 115.361,85.985 L115.361,90.652 L135.158,90.652 C141.111,90.652 145.954,85.809 145.954,79.857 C145.953,78.471 144.831,77.349 143.445,77.349 L143.445,77.349 L143.445,77.349 Z M126.108,73.591 L20.288,73.591 L20.288,10.005 L126.108,10.005 L126.108,73.591 L126.108,73.591 Z" id="Shape" fill="#F8CF5E"></path>
            </g>
            <g id="bitcoins" transform="translate(204.000000, 27.000000)">
                <g id="Group" transform="translate(82.000000, 13.000000)">
                    <circle id="Oval" fill="#F8CF5E" sketch:type="MSShapeGroup" cx="17.993" cy="17.716" r="17.167"></circle>
                    <g transform="translate(2.000000, 2.000000)">
                        <g id="SVGID_9_-link" fill="#FFFFFF" sketch:type="MSShapeGroup">
                            <path d="M21.655,20.447 C21.241,21.034 20.652,21.478 19.888,21.782 C19.61,21.891 19.282,21.984 18.911,22.058 L18.911,24.387 L16.7,24.387 L16.7,22.239 C16.647,22.239 16.594,22.242 16.538,22.242 L15.283,22.242 L15.283,24.388 L13.072,24.388 L13.072,22.242 L9.701,22.242 L9.701,20.44 L10.216,20.44 C10.563,20.44 10.79,20.409 10.911,20.348 C11.032,20.287 11.118,20.205 11.168,20.097 C11.218,19.988 11.242,19.745 11.242,19.363 L11.242,12.085 C11.242,11.7 11.218,11.452 11.168,11.346 C11.118,11.242 11.032,11.157 10.911,11.095 C10.789,11.033 10.562,11.001 10.216,11.001 L9.701,11.001 L9.701,9.198 L13.072,9.198 L13.072,7.05 L15.283,7.05 L15.283,9.196 L16.701,9.196 L16.701,7.05 L18.912,7.05 L18.912,9.353 C19.238,9.418 19.536,9.492 19.787,9.596 C20.435,9.862 20.935,10.241 21.284,10.735 C21.628,11.232 21.802,11.777 21.802,12.368 C21.802,12.797 21.71,13.209 21.526,13.595 C21.346,13.983 21.076,14.32 20.731,14.618 C20.384,14.914 19.927,15.16 19.356,15.352 C19.968,15.506 20.436,15.68 20.759,15.867 C21.231,16.131 21.597,16.497 21.871,16.969 C22.147,17.442 22.285,17.963 22.285,18.543 C22.286,19.229 22.072,19.867 21.655,20.447 L21.655,20.447 Z M15.995,1.795 C8.307,1.795 2.073,8.029 2.073,15.717 C2.073,23.405 8.306,29.639 15.995,29.639 C23.68,29.639 29.913,23.409 29.913,15.717 C29.912,8.029 23.68,1.795 15.995,1.795 L15.995,1.795 Z M18.628,17.207 C18.808,17.479 18.898,17.805 18.898,18.188 C18.898,18.645 18.767,19.035 18.513,19.356 C18.259,19.678 17.951,19.893 17.588,19.999 C17.221,20.097 16.762,20.157 16.212,20.157 L15.259,20.157 C14.942,20.157 14.746,20.136 14.676,20.101 C14.605,20.07 14.552,20.007 14.521,19.921 C14.494,19.853 14.48,19.622 14.477,19.219 L14.477,16.396 L16.164,16.396 C16.903,16.396 17.452,16.464 17.815,16.604 C18.178,16.738 18.445,16.939 18.628,17.207 L18.628,17.207 Z M15.905,14.478 L14.476,14.478 L14.476,11.296 L15.905,11.296 C16.74,11.296 17.321,11.346 17.642,11.454 C17.966,11.554 18.218,11.732 18.384,11.973 C18.554,12.215 18.645,12.51 18.645,12.851 C18.645,13.183 18.551,13.476 18.372,13.727 C18.189,13.978 17.921,14.167 17.565,14.292 C17.208,14.416 16.654,14.478 15.905,14.478 L15.905,14.478 Z M15.995,31.272 C7.403,31.272 0.439,24.305 0.439,15.714 C0.439,7.125 7.403,0.158 15.995,0.158 C24.583,0.158 31.547,7.125 31.547,15.714 C31.545,24.307 24.583,31.272 15.995,31.272 L15.995,31.272 Z" id="SVGID_9_"></path>
                        </g>
                        <g id="Clipped">
                            <mask id="mask-2" sketch:name="SVGID_9_" fill="white">
                                <use xlink:href="#path-1"></use>
                            </mask>
                            <g id="SVGID_9_"></g>
                            <rect id="Rectangle-path" fill="#FFFFFF" sketch:type="MSShapeGroup" mask="url(#mask-2)" x="-0.339" y="-0.62" width="32.665" height="32.67"></rect>
                        </g>
                    </g>
                </g>
                <g id="Group" transform="translate(55.000000, 45.000000)">
                    <circle id="Oval" fill="#F8CF5E" sketch:type="MSShapeGroup" cx="20.326" cy="20.717" r="19.834"></circle>
                    <g transform="translate(2.000000, 2.000000)">
                        <g id="SVGID_11_-link" fill="#FFFFFF" sketch:type="MSShapeGroup">
                            <path d="M24.868,24.184 C24.39,24.861 23.709,25.374 22.826,25.726 C22.504,25.852 22.126,25.96 21.698,26.045 L21.698,28.735 L19.144,28.735 L19.144,26.253 C19.083,26.253 19.021,26.256 18.956,26.256 L17.506,26.256 L17.506,28.735 L14.952,28.735 L14.952,26.256 L11.057,26.256 L11.057,24.174 L11.652,24.174 C12.053,24.174 12.316,24.139 12.456,24.069 C12.595,23.998 12.695,23.903 12.753,23.779 C12.812,23.652 12.839,23.372 12.839,22.931 L12.839,14.522 C12.839,14.079 12.812,13.79 12.753,13.668 C12.695,13.549 12.595,13.45 12.456,13.378 C12.316,13.307 12.053,13.27 11.652,13.27 L11.057,13.27 L11.057,11.186 L14.952,11.186 L14.952,8.705 L17.506,8.705 L17.506,11.186 L19.145,11.186 L19.145,8.705 L21.699,8.705 L21.699,11.366 C22.075,11.442 22.42,11.528 22.71,11.647 C23.46,11.956 24.038,12.393 24.44,12.963 C24.837,13.537 25.039,14.168 25.039,14.85 C25.039,15.345 24.932,15.822 24.72,16.267 C24.512,16.715 24.2,17.105 23.801,17.451 C23.401,17.793 22.872,18.075 22.212,18.298 C22.919,18.477 23.461,18.678 23.833,18.894 C24.378,19.199 24.801,19.621 25.118,20.165 C25.437,20.712 25.597,21.314 25.597,21.984 C25.597,22.773 25.35,23.513 24.868,24.184 L24.868,24.184 Z M18.328,2.632 C9.446,2.632 2.244,9.837 2.244,18.719 C2.244,27.601 9.446,34.802 18.328,34.802 C27.207,34.802 34.409,27.605 34.409,18.719 C34.407,9.837 27.207,2.632 18.328,2.632 L18.328,2.632 Z M21.37,20.438 C21.579,20.754 21.682,21.129 21.682,21.573 C21.682,22.101 21.531,22.551 21.237,22.923 C20.943,23.294 20.587,23.542 20.168,23.665 C19.744,23.778 19.214,23.847 18.578,23.847 L17.477,23.847 C17.111,23.847 16.885,23.823 16.803,23.783 C16.721,23.748 16.66,23.675 16.625,23.574 C16.593,23.497 16.577,23.23 16.574,22.763 L16.574,19.501 L18.522,19.501 C19.376,19.501 20.01,19.581 20.43,19.741 C20.85,19.897 21.159,20.13 21.37,20.438 L21.37,20.438 Z M18.225,17.285 L16.574,17.285 L16.574,13.609 L18.225,13.609 C19.189,13.609 19.86,13.667 20.231,13.791 C20.606,13.906 20.896,14.112 21.088,14.39 C21.284,14.671 21.389,15.012 21.389,15.406 C21.389,15.789 21.281,16.127 21.074,16.42 C20.863,16.709 20.553,16.928 20.141,17.072 C19.73,17.215 19.089,17.285 18.225,17.285 L18.225,17.285 Z M18.328,36.689 C8.402,36.689 0.356,28.64 0.356,18.714 C0.356,8.79 8.401,0.741 18.328,0.741 C28.251,0.741 36.296,8.79 36.296,18.714 C36.294,28.642 28.25,36.689 18.328,36.689 L18.328,36.689 Z" id="SVGID_11_"></path>
                        </g>
                        <g id="Clipped">
                            <mask id="mask-4" sketch:name="SVGID_11_" fill="white">
                                <use xlink:href="#path-3"></use>
                            </mask>
                            <g id="SVGID_11_"></g>
                            <rect id="Rectangle-path" fill="#FFFFFF" sketch:type="MSShapeGroup" mask="url(#mask-4)" x="-0.543" y="-0.157" width="37.739" height="37.747"></rect>
                        </g>
                    </g>
                </g>
                <g id="Group" transform="translate(0.000000, 40.000000)">
                    <circle id="Oval" fill="#F8CF5E" sketch:type="MSShapeGroup" cx="20.854" cy="21.486" r="20.833"></circle>
                    <g transform="translate(1.000000, 2.000000)">
                        <g id="SVGID_13_-link" fill="#FFFFFF" sketch:type="MSShapeGroup">
                            <path d="M26.726,25.229 C26.224,25.941 25.509,26.48 24.581,26.849 C24.243,26.982 23.846,27.094 23.395,27.184 L23.395,30.01 L20.712,30.01 L20.712,27.403 C20.648,27.403 20.584,27.407 20.515,27.407 L18.993,27.407 L18.993,30.011 L16.31,30.011 L16.31,27.407 L12.219,27.407 L12.219,25.22 L12.844,25.22 C13.265,25.22 13.541,25.182 13.688,25.108 C13.834,25.035 13.939,24.935 14,24.803 C14.061,24.67 14.09,24.376 14.09,23.912 L14.09,15.08 C14.09,14.613 14.061,14.311 14,14.183 C13.939,14.058 13.834,13.954 13.688,13.878 C13.541,13.803 13.265,13.764 12.844,13.764 L12.219,13.764 L12.219,11.576 L16.31,11.576 L16.31,8.97 L18.993,8.97 L18.993,11.574 L20.714,11.574 L20.714,8.97 L23.397,8.97 L23.397,11.765 C23.792,11.844 24.154,11.934 24.459,12.06 C25.246,12.383 25.853,12.842 26.276,13.443 C26.693,14.046 26.905,14.708 26.905,15.424 C26.905,15.945 26.793,16.445 26.57,16.912 C26.351,17.383 26.024,17.792 25.605,18.154 C25.184,18.513 24.629,18.811 23.936,19.045 C24.679,19.233 25.247,19.443 25.639,19.67 C26.211,19.99 26.656,20.435 26.989,21.007 C27.324,21.581 27.491,22.213 27.491,22.917 C27.491,23.749 27.231,24.524 26.726,25.229 L26.726,25.229 Z M19.855,2.593 C10.525,2.593 2.96,10.158 2.96,19.489 C2.96,28.82 10.525,36.385 19.855,36.385 C29.182,36.385 36.747,28.824 36.747,19.489 C36.746,10.158 29.182,2.593 19.855,2.593 L19.855,2.593 Z M23.051,21.296 C23.27,21.627 23.379,22.022 23.379,22.487 C23.379,23.041 23.221,23.514 22.912,23.904 C22.603,24.295 22.23,24.555 21.789,24.684 C21.344,24.803 20.787,24.875 20.119,24.875 L18.962,24.875 C18.578,24.875 18.34,24.849 18.254,24.807 C18.168,24.769 18.104,24.693 18.066,24.588 C18.033,24.505 18.016,24.226 18.013,23.736 L18.013,20.31 L20.059,20.31 C20.956,20.31 21.622,20.393 22.063,20.562 C22.505,20.728 22.829,20.972 23.051,21.296 L23.051,21.296 Z M19.747,17.983 L18.013,17.983 L18.013,14.122 L19.747,14.122 C20.76,14.122 21.465,14.183 21.854,14.313 C22.248,14.434 22.553,14.651 22.755,14.942 C22.961,15.236 23.071,15.594 23.071,16.008 C23.071,16.41 22.957,16.766 22.74,17.071 C22.517,17.376 22.192,17.605 21.76,17.757 C21.329,17.908 20.656,17.983 19.747,17.983 L19.747,17.983 Z M19.855,38.365 C9.429,38.365 0.978,29.911 0.978,19.484 C0.978,9.061 9.429,0.606 19.855,0.606 C30.278,0.606 38.729,9.061 38.729,19.484 C38.728,29.912 30.278,38.365 19.855,38.365 L19.855,38.365 Z" id="SVGID_13_"></path>
                        </g>
                        <g id="Clipped">
                            <mask id="mask-6" sketch:name="SVGID_13_" fill="white">
                                <use xlink:href="#path-5"></use>
                            </mask>
                            <g id="SVGID_13_"></g>
                            <rect id="Rectangle-path" fill="#FFFFFF" sketch:type="MSShapeGroup" mask="url(#mask-6)" x="0.033" y="-0.338" width="39.641" height="39.648"></rect>
                        </g>
                    </g>
                </g>
                <g id="Group" transform="translate(31.000000, 0.000000)">
                    <circle id="Oval" fill="#F8CF5E" sketch:type="MSShapeGroup" cx="20.993" cy="21.716" r="20.833"></circle>
                    <g transform="translate(2.000000, 2.000000)">
                        <g id="SVGID_15_-link" fill="#F8CF5E" sketch:type="MSShapeGroup">
                            <path d="M25.865,25.458 C25.363,26.17 24.648,26.709 23.72,27.078 C23.382,27.211 22.985,27.323 22.534,27.413 L22.534,30.239 L19.851,30.239 L19.851,27.632 C19.787,27.632 19.723,27.636 19.654,27.636 L18.132,27.636 L18.132,30.24 L15.449,30.24 L15.449,27.636 L11.358,27.636 L11.358,25.449 L11.983,25.449 C12.404,25.449 12.68,25.411 12.827,25.337 C12.973,25.264 13.078,25.164 13.139,25.032 C13.2,24.899 13.229,24.605 13.229,24.141 L13.229,15.31 C13.229,14.843 13.2,14.541 13.139,14.413 C13.078,14.288 12.973,14.184 12.827,14.108 C12.68,14.033 12.404,13.994 11.983,13.994 L11.358,13.994 L11.358,11.806 L15.449,11.806 L15.449,9.201 L18.132,9.201 L18.132,11.805 L19.853,11.805 L19.853,9.201 L22.536,9.201 L22.536,11.996 C22.931,12.075 23.293,12.165 23.598,12.291 C24.385,12.614 24.992,13.073 25.415,13.674 C25.832,14.277 26.044,14.939 26.044,15.655 C26.044,16.176 25.932,16.676 25.709,17.143 C25.49,17.614 25.163,18.023 24.744,18.385 C24.323,18.744 23.768,19.042 23.075,19.276 C23.818,19.464 24.386,19.674 24.778,19.901 C25.35,20.221 25.795,20.666 26.128,21.238 C26.463,21.812 26.63,22.444 26.63,23.148 C26.63,23.979 26.371,24.754 25.865,25.458 L25.865,25.458 Z M18.995,2.822 C9.665,2.822 2.1,10.387 2.1,19.718 C2.1,29.049 9.665,36.614 18.995,36.614 C28.322,36.614 35.887,29.053 35.887,19.718 C35.885,10.388 28.321,2.822 18.995,2.822 L18.995,2.822 Z M22.19,21.525 C22.409,21.856 22.518,22.251 22.518,22.716 C22.518,23.27 22.36,23.743 22.051,24.133 C21.742,24.524 21.369,24.784 20.928,24.913 C20.483,25.032 19.926,25.104 19.258,25.104 L18.101,25.104 C17.717,25.104 17.479,25.078 17.393,25.036 C17.307,24.998 17.243,24.922 17.205,24.817 C17.172,24.734 17.155,24.455 17.152,23.965 L17.152,20.539 L19.198,20.539 C20.095,20.539 20.761,20.622 21.202,20.791 C21.645,20.957 21.968,21.201 22.19,21.525 L22.19,21.525 Z M18.886,18.213 L17.152,18.213 L17.152,14.352 L18.886,14.352 C19.899,14.352 20.604,14.413 20.993,14.543 C21.387,14.664 21.692,14.881 21.894,15.172 C22.1,15.466 22.21,15.824 22.21,16.238 C22.21,16.64 22.096,16.996 21.879,17.301 C21.656,17.606 21.331,17.835 20.899,17.987 C20.468,18.138 19.795,18.213 18.886,18.213 L18.886,18.213 Z M18.995,38.595 C8.569,38.595 0.118,30.141 0.118,19.714 C0.118,9.291 8.569,0.836 18.995,0.836 C29.418,0.836 37.869,9.291 37.869,19.714 C37.867,30.142 29.417,38.595 18.995,38.595 L18.995,38.595 Z" id="SVGID_15_"></path>
                        </g>
                        <g id="Clipped">
                            <mask id="mask-8" sketch:name="SVGID_15_" fill="white">
                                <use xlink:href="#path-7"></use>
                            </mask>
                            <g id="SVGID_15_"></g>
                            <rect id="Rectangle-path" fill="#FFFFFF" sketch:type="MSShapeGroup" mask="url(#mask-8)" x="-0.828" y="-0.108" width="39.641" height="39.648"></rect>
                        </g>
                    </g>
                </g>
            </g>
            <g id="center-arrow" transform="translate(393.000000, 0.000000)" sketch:type="MSShapeGroup">
                <path d="M87.715,5 C123.829,5 153.21,34.381 153.21,70.495 C153.21,106.609 123.829,135.99 87.715,135.99 C51.601,135.99 22.22,106.609 22.22,70.495 C22.22,34.381 51.601,5 87.715,5 L87.715,5 Z M87.715,0 C48.781,0 17.22,31.562 17.22,70.495 C17.22,109.428 48.782,140.99 87.715,140.99 C126.648,140.99 158.21,109.428 158.21,70.495 C158.21,31.562 126.649,0 87.715,0 L87.715,0 L87.715,0 Z" id="Shape" fill="#93C4D2"></path>
                <rect id="Rectangle-path" fill="#FFFFFF" x="0.886" y="53.574" width="38.668" height="16.667"></rect>
                <rect id="Rectangle-path" fill="#FFFFFF" x="141.886" y="77.24" width="23.334" height="16.666"></rect>
                <path d="M20.506,66.095 L20.506,66.095 L6.757,79.844 L10.117,83.203 L20.517,72.801 L30.991,83.275 L34.349,79.916 L20.517,66.084 L20.506,66.095 Z" id="Shape" fill="#93C4D2"></path>
                <path d="M156.267,82.6 L156.267,82.6 L170.016,68.85 L166.657,65.492 L156.256,75.893 L145.783,65.418 L142.424,68.778 L156.256,82.609 L156.267,82.6 Z" id="Shape" fill="#93C4D2"></path>
            </g>
            <g id="men" transform="translate(0.000000, 14.000000)" fill="#F8CF5E" sketch:type="MSShapeGroup">
                <path d="M16.47,29.517 C22.0977816,29.517 26.66,24.9547816 26.66,19.327 C26.66,13.6992184 22.0977816,9.137 16.47,9.137 C10.8422184,9.137 6.28,13.6992184 6.28,19.327 C6.28,24.9547816 10.8422184,29.517 16.47,29.517 Z M20.344,32.674 L12.594,32.674 C1.113,31.813 0.969,37.301 0.969,43.008 L0.969,68.268 C0.969,72.212 3.457,75.638 7.113,77.38 C6.904,78.178 6.781,79.011 6.781,79.875 L6.781,105.493 C6.781,110.931 11.191,115.342 16.63,115.342 C22.069,115.342 26.479,110.932 26.479,105.493 L26.479,79.875 C26.479,78.958 26.344,78.074 26.11,77.232 C29.608,75.45 31.969,72.107 31.969,68.267 L31.969,43.007 C31.97,37.301 32.4,31.813 20.344,32.674 Z" id="Oval" opacity="0.597014925"></path>
                <path d="M101.22,29.517 C106.847782,29.517 111.41,24.9547816 111.41,19.327 C111.41,13.6992184 106.847782,9.137 101.22,9.137 C95.5922184,9.137 91.03,13.6992184 91.03,19.327 C91.03,24.9547816 95.5922184,29.517 101.22,29.517 Z M105.094,32.674 L97.344,32.674 C85.863,31.813 85.719,37.3 85.719,43.007 L85.719,68.267 C85.719,72.211 88.207,75.637 91.863,77.379 C91.654,78.177 91.531,79.01 91.531,79.874 L91.531,105.492 C91.531,110.93 95.941,115.341 101.38,115.341 C106.819,115.341 111.229,110.931 111.229,105.492 L111.229,79.875 C111.229,78.958 111.094,78.074 110.86,77.232 C114.358,75.45 116.719,72.107 116.719,68.267 L116.719,43.007 C116.72,37.301 117.15,31.813 105.094,32.674 Z" id="Oval" opacity="0.6"></path>
                <path d="M58.845,24.239 C65.3801854,24.239 70.678,18.9411854 70.678,12.406 C70.678,5.87081456 65.3801854,0.573 58.845,0.573 C52.3098146,0.573 47.012,5.87081456 47.012,12.406 C47.012,18.9411854 52.3098146,24.239 58.845,24.239 Z M63.344,27.906 L54.344,27.906 C41.011,26.906 40.844,33.279 40.844,39.906 L40.844,69.239 C40.844,73.82 43.733,77.799 47.979,79.821 C47.736,80.748 47.594,81.716 47.594,82.718 L47.594,112.468 C47.594,118.784 52.715,123.906 59.032,123.906 C65.349,123.906 70.47,118.785 70.47,112.468 L70.47,82.718 C70.47,81.654 70.313,80.627 70.041,79.65 C74.103,77.581 76.845,73.699 76.845,69.239 L76.845,39.906 C76.844,33.279 77.344,26.906 63.344,27.906 Z" id="Oval"></path>
            </g>
            <g id="money" transform="translate(636.000000, 30.000000)">
                <g id="Clipped" transform="translate(51.000000, 45.000000)">
                    <g>
                        <mask id="mask-10" sketch:name="SVGID_3_" fill="white">
                            <use xlink:href="#path-9"></use>
                        </mask>
                        <g id="SVGID_3_"></g>
                        <g mask="url(#mask-10)">
                            <g transform="translate(1.000000, 0.000000)">
                                <mask id="mask-12" sketch:name="SVGID_5_" fill="white">
                                    <use xlink:href="#path-11"></use>
                                </mask>
                                <g id="SVGID_5_"></g>
                                <g id="Clipped" stroke="none" stroke-width="1" fill="none" fill-rule="evenodd" sketch:type="MSLayerGroup" mask="url(#mask-12)">
                                    <g transform="translate(-1.000000, 0.000000)">
                                        <mask id="mask-14" sketch:name="SVGID_7_" fill="white">
                                            <use xlink:href="#path-13"></use>
                                        </mask>
                                        <g id="SVGID_7_"></g>
                                        <rect id="Rectangle-path" stroke="none" fill="#F8CF5E" fill-rule="evenodd" sketch:type="MSShapeGroup" mask="url(#mask-14)" x="-5.073" y="-6.325" width="45.566" height="45.569"></rect>
                                    </g>
                                </g>
                            </g>
                        </g>
                    </g>
                </g>
                <g id="Group" transform="translate(0.000000, 35.000000)">
                    <g id="SVGID_17_-link" fill="#F8CF5E" sketch:type="MSShapeGroup">
                        <path d="M18.345,20.332 C14.713,19.017 12.363,17.358 12.363,14.142 C12.363,11.163 14.434,8.878 17.931,8.257 L17.931,4.863 L20.77,4.863 L20.77,8.086 C22.951,8.153 24.437,8.671 25.546,9.226 L24.608,12.412 C23.78,12.029 22.257,11.231 19.905,11.231 C17.48,11.231 16.617,12.479 16.617,13.655 C16.617,15.075 17.858,15.873 20.801,17.049 C24.683,18.499 26.411,20.369 26.411,23.452 C26.411,26.389 24.37,28.984 20.562,29.611 L20.562,33.174 L17.725,33.174 L17.725,29.813 C15.542,29.746 13.362,29.124 12.119,28.294 L13.051,25.041 C14.405,25.839 16.342,26.564 18.449,26.564 C20.63,26.564 22.122,25.492 22.122,23.829 C22.117,22.27 20.904,21.27 18.345,20.332 L18.345,20.332 Z M19.263,37.992 C29.742,37.992 38.238,29.501 38.238,19.021 C38.238,8.541 29.742,0.045 19.263,0.045 C8.783,0.045 0.291,8.54 0.291,19.021 C0.292,29.501 8.783,37.992 19.263,37.992 L19.263,37.992 Z" id="SVGID_17_"></path>
                    </g>
                    <g id="Clipped">
                        <mask id="mask-16" sketch:name="SVGID_17_" fill="white">
                            <use xlink:href="#path-15"></use>
                        </mask>
                        <g id="SVGID_17_"></g>
                        <rect id="Rectangle-path" fill="#F8CF5E" sketch:type="MSShapeGroup" mask="url(#mask-16)" x="-6.339" y="-6.584" width="51.208" height="51.208"></rect>
                    </g>
                </g>
                <g id="Group" transform="translate(29.000000, 0.000000)">
                    <g id="SVGID_19_-link" fill="#F8CF5E" sketch:type="MSShapeGroup">
                        <path d="M9.944,20.057 L11.891,20.057 L11.891,19.497 C11.891,19.083 11.928,18.633 11.957,18.25 L9.943,18.25 L9.943,16.103 L12.273,16.103 C12.687,13.986 13.624,12.179 14.871,10.865 C16.745,8.783 19.276,7.603 22.366,7.603 C24.447,7.603 26.181,8.126 27.326,8.68 L26.461,11.905 C25.557,11.417 24.137,10.968 22.575,10.968 C20.84,10.968 19.312,11.593 18.17,12.877 C17.441,13.637 16.916,14.782 16.642,16.103 L25.733,16.103 L25.733,18.25 L16.224,18.25 C16.156,18.633 16.156,19.046 16.156,19.467 L16.156,20.057 L25.733,20.057 L25.733,22.174 L16.539,22.174 C16.784,23.664 17.3,24.773 18.035,25.574 C19.211,26.852 20.877,27.441 22.678,27.441 C24.381,27.441 25.976,26.852 26.774,26.402 L27.503,29.523 C26.359,30.222 24.418,30.915 22.199,30.915 C19.041,30.915 16.193,29.663 14.357,27.339 C13.25,26.055 12.483,24.321 12.171,22.174 L9.944,22.174 L9.944,20.057 L9.944,20.057 Z M19.936,38.277 C30.442,38.277 38.957,29.761 38.957,19.258 C38.957,8.752 30.442,0.237 19.936,0.237 C9.433,0.237 0.917,8.752 0.917,19.258 C0.917,29.761 9.433,38.277 19.936,38.277 L19.936,38.277 Z" id="SVGID_19_"></path>
                    </g>
                    <g id="Clipped">
                        <mask id="mask-18" sketch:name="SVGID_19_" fill="white">
                            <use xlink:href="#path-17"></use>
                        </mask>
                        <g id="SVGID_19_"></g>
                        <rect id="Rectangle-path" fill="#F8CF5E" sketch:type="MSShapeGroup" mask="url(#mask-18)" x="-5.708" y="-6.388" width="51.29" height="51.29"></rect>
                    </g>
                </g>
                <g id="Group" transform="translate(71.000000, 13.000000)">
                    <g id="SVGID_21_-link" fill="#F8CF5E" sketch:type="MSShapeGroup">
                        <path d="M13.333,7.646 L15.892,13.16 C16.436,14.284 16.773,15.228 17.17,16.203 L17.233,16.203 C17.595,15.291 17.991,14.225 18.508,13.097 L21.156,7.647 L25.114,7.647 L19.784,16.569 L23.562,16.569 L23.562,18.426 L18.782,18.426 L18.782,20.5 L23.562,20.5 L23.562,22.357 L18.782,22.357 L18.782,27.438 L15.278,27.438 L15.278,22.357 L10.531,22.357 L10.531,20.5 L15.278,20.5 L15.278,18.426 L10.531,18.426 L10.531,16.569 L14.34,16.569 L9.285,7.647 L13.333,7.647 L13.333,7.646 Z M17.201,34.232 C26.418,34.232 33.89,26.761 33.89,17.544 C33.89,8.325 26.417,0.849 17.201,0.849 C7.978,0.849 0.508,8.325 0.508,17.544 C0.507,26.762 7.978,34.232 17.201,34.232 L17.201,34.232 Z" id="SVGID_21_"></path>
                    </g>
                    <g id="Clipped">
                        <mask id="mask-20" sketch:name="SVGID_21_" fill="white">
                            <use xlink:href="#path-19"></use>
                        </mask>
                        <g id="SVGID_21_"></g>
                        <rect id="Rectangle-path" fill="#F8CF5E" sketch:type="MSShapeGroup" mask="url(#mask-20)" x="-6.247" y="-5.904" width="46.89" height="46.89"></rect>
                    </g>
                </g>
            </g>
            <g id="logo-simple" transform="translate(436.000000, 32.000000)" sketch:type="MSShapeGroup">
                <path d="M4.18604651,37.6744186 L25.1691981,73.9268817 L67.131505,73.9268817 L51.3956399,46.7365377 L40.9050632,46.7365377 L35.6597749,37.6744186" id="Fill-1-Copy" fill="#F9CF5E"></path>
                <path d="M35.6597749,38.3474797 L4.18604651,38.3474797 L25.1691981,2.09302326 L67.131505,2.09302326 L51.3956399,29.2833673 L40.9050632,29.2833673 L35.6597749,38.3474797" id="Fill-2-Copy" fill="#F9CF5E"></path>
                <path d="M66.5371356,75.4974514 C66.0196004,75.4974514 65.5160528,75.2283388 65.2383022,74.7499163 L49.9360477,48.3071074 L40.3106938,48.3071074 C39.7751748,48.3071074 39.2796199,48.0220473 39.0138587,47.5595723 L34.1981844,39.2449883 L3.59167707,39.2449883 C2.76442017,39.2449883 2.09302326,38.5751969 2.09302326,37.7499181 C2.09302326,36.9246393 2.76442017,36.2548479 3.59167707,36.2548479 L34.1981844,36.2548479 L39.0138587,27.9382705 C39.2796199,27.4757955 39.7751748,27.1907354 40.3106938,27.1907354 L49.9360477,27.1907354 L65.2383022,0.747926522 C65.6539289,0.0322862367 66.571105,-0.212905282 67.2864625,0.20172753 C68.0018199,0.614366915 68.2475991,1.52735647 67.8339707,2.24299676 L52.1001038,29.4333408 C51.8323443,29.8958158 51.3367894,30.1808759 50.8012705,30.1808759 L41.1759166,30.1808759 L36.795851,37.7499181 L41.1759166,45.3169669 L50.8012705,45.3169669 C51.3367894,45.3169669 51.8323443,45.602027 52.1001038,46.064502 L67.8339707,73.254846 C68.2475991,73.9704863 68.0018199,74.8834759 67.2864625,75.2961153 C67.0486761,75.4336617 66.7929058,75.4974514 66.5371356,75.4974514" id="Fill-3-Copy" fill="#343558"></path>
                <path d="M39.7674419,29.3023256 L45.0127302,38.3664381" id="Stroke-4-Copy" stroke="#FFFFFF" stroke-width="2" stroke-linejoin="round"></path>
                <path d="M25.0194627,77.5900832 C24.681766,77.5900832 24.3380748,77.5043659 24.0223584,77.322964 C23.3809345,76.9521866 23.0232558,76.2823951 23.0232558,75.5946628 C23.0232558,75.2557803 23.1091786,74.9129108 23.2910153,74.5999428 L43.6946875,39.3441932 L23.2910153,4.08645024 L26.7519065,2.09302326 L47.1555787,37.3507662 L87.9649212,37.3507662 L87.9649212,41.3376202 L47.1555787,41.3376202 L26.7519065,76.5933698 C26.3822386,77.2332598 25.7108417,77.5900832 25.0194627,77.5900832" id="Fill-5-Copy-2" fill="#343558"></path>
                <path d="M65.9427661,78.4872005 L23.9804593,78.4872005 C22.9094213,78.4872005 21.9203098,77.9170803 21.3847909,76.9921302 L0.401639223,40.7396672 C-0.133879741,39.8147171 -0.133879741,38.6724834 0.401639223,37.7495267 L21.3847909,1.49507023 C21.9203098,0.570120116 22.9094213,0 23.9804593,0 L65.8848182,0 C66.9778364,0.0199342698 67.9729425,0.518291015 68.5364363,1.49507023 L89.519588,37.7495267 C90.0551069,38.6724834 90.0551069,39.8147171 89.519588,40.7396672 L68.5364363,76.9921302 C68.0029156,77.9170803 67.0118058,78.4872005 65.9427661,78.4872005 L65.9427661,78.4872005 Z M25.7109049,72.5069195 L64.2103223,72.5069195 L83.4630283,39.2445969 L64.2103223,5.98028094 L25.7109049,5.98028094 L6.45819885,39.2445969 L25.7109049,72.5069195 L25.7109049,72.5069195 Z" id="Fill-6-Copy" fill="#343558"></path>
            </g>
        </g>
    </g>
</svg>