<?xml version="1.0" encoding="UTF-8" standalone="no"?>
<svg width="143px" height="39px" viewBox="0 0 143 39" version="1.1" xmlns="http://www.w3.org/2000/svg" xmlns:xlink="http://www.w3.org/1999/xlink" xmlns:sketch="http://www.bohemiancoding.com/sketch/ns">
    <!-- Generator: Sketch 3.3.2 (12043) - http://www.bohemiancoding.com/sketch -->
    <title>logo</title>
    <desc>Created with Sketch.</desc>
    <defs></defs>
    <g id="Page-1" stroke="none" stroke-width="1" fill="none" fill-rule="evenodd" sketch:type="MSPage">
        <g id="logo" sketch:type="MSLayerGroup">
            <path d="M1.7079547,19.3787903 L11.7332383,36.6994115 L31.781896,36.6994115 L24.2636493,23.7084694 L19.2514849,23.7084694 L16.7454027,19.3787903" id="Fill-1" fill="#F9CF5E" sketch:type="MSShapeGroup"></path>
            <path d="M16.7454027,19.3787903 L1.7079547,19.3787903 L11.7332383,2.05721664 L31.781896,2.05721664 L24.2636493,15.0481588 L19.2514849,15.0481588 L16.7454027,19.3787903" id="Fill-2" fill="#F9CF5E" sketch:type="MSShapeGroup"></path>
            <path d="M31.781896,37.4137229 C31.5346292,37.4137229 31.2940453,37.2851468 31.1613423,37.0565672 L23.8502651,24.4227807 L19.2514849,24.4227807 C18.9956258,24.4227807 18.7588607,24.2865854 18.6318859,24.0656251 L16.3310638,20.0931016 L1.7079547,20.0931016 C1.31270973,20.0931016 0.991931208,19.7730901 0.991931208,19.3787903 C0.991931208,18.9844904 1.31270973,18.664479 1.7079547,18.664479 L16.3310638,18.664479 L18.6318859,14.6910031 C18.7588607,14.4700428 18.9956258,14.3338474 19.2514849,14.3338474 L23.8502651,14.3338474 L31.1613423,1.70006098 C31.3599195,1.35814395 31.7981258,1.24099689 32.1399077,1.43909923 C32.4816896,1.63624916 32.5991174,2.07245528 32.401495,2.41437231 L24.884203,15.4053144 C24.7562735,15.6262747 24.5195084,15.7624701 24.2636493,15.7624701 L19.6648691,15.7624701 L17.5721711,19.3787903 L19.6648691,22.9941581 L24.2636493,22.9941581 C24.5195084,22.9941581 24.7562735,23.1303534 24.884203,23.3513137 L32.401495,36.3422559 C32.5991174,36.6841729 32.4816896,37.120379 32.1399077,37.3175289 C32.0262987,37.3832456 31.9040973,37.4137229 31.781896,37.4137229" id="Fill-3" fill="#FFFFFF" sketch:type="MSShapeGroup"></path>
            <path d="M19.2514849,15.0481588 L21.7575671,19.3787903" id="Stroke-4" stroke="#FFFFFF" stroke-width="2" stroke-linejoin="round" sketch:type="MSShapeGroup"></path>
            <path d="M11.7322836,37.6518266 C11.5709396,37.6518266 11.4067315,37.6108728 11.2558893,37.524203 C10.9494312,37.3470538 10.7785403,37.0270423 10.7785403,36.6984591 C10.7785403,36.5365485 10.8195923,36.3727331 10.9064698,36.223204 L20.6548909,19.3787903 L10.9064698,2.5334242 L12.5600067,1.58100909 L22.3084279,18.4263752 L41.8062248,18.4263752 L41.8062248,20.3312054 L22.3084279,20.3312054 L12.5600067,37.1756191 C12.3833876,37.4813443 12.0626091,37.6518266 11.7322836,37.6518266" id="Fill-5" fill="#FFFFFF" sketch:type="MSShapeGroup"></path>
            <path d="M31.781896,38.1280342 L11.7332383,38.1280342 C11.2215201,38.1280342 10.7489446,37.8556435 10.4930856,37.4137229 L0.467802013,20.0931016 C0.211942953,19.651181 0.211942953,19.1054472 0.467802013,18.664479 L10.4930856,1.34290531 C10.7489446,0.900984696 11.2215201,0.628593974 11.7332383,0.628593974 L31.7542097,0.628593974 C32.2764295,0.638118125 32.7518691,0.876221903 33.021094,1.34290531 L43.0463775,18.664479 C43.3022366,19.1054472 43.3022366,19.651181 43.0463775,20.0931016 L33.021094,37.4137229 C32.7661896,37.8556435 32.2926594,38.1280342 31.781896,38.1280342 L31.781896,38.1280342 Z M12.5600067,35.2707889 L30.9541728,35.2707889 L40.1526879,19.3787903 L30.9541728,3.48583931 L12.5600067,3.48583931 L3.36149161,19.3787903 L12.5600067,35.2707889 L12.5600067,35.2707889 Z" id="Fill-6" fill="#FFFFFF" sketch:type="MSShapeGroup"></path>
            <path d="M62.4277013,25.8837855 C61.5493792,26.2837999 60.5373993,26.483807 59.3917617,26.483807 C58.3482768,26.483807 57.3830772,26.3123723 56.4990268,25.9695029 C55.6140218,25.6266334 54.8473993,25.1409017 54.1982047,24.5123077 C53.5490101,23.8837138 53.040156,23.1313058 52.6706879,22.2550839 C52.3012198,21.378862 52.1169631,20.4140655 52.1169631,19.359742 C52.1169631,18.2806557 52.3050386,17.3025253 52.6802349,16.4263034 C53.0554312,15.5500815 53.5747869,14.8043405 54.2363926,14.1881279 C54.8979983,13.5719154 55.6741678,13.098565 56.5658557,12.7690294 C57.4565889,12.4385414 58.4179698,12.2737736 59.4490436,12.2737736 C60.4037416,12.2737736 61.3422097,12.442351 62.2654027,12.7785536 C63.1885956,13.1147561 63.9361242,13.6071547 64.508943,14.254797 L62.2940436,16.4644 C61.9885403,16.0453374 61.5875671,15.7338977 61.0911242,15.5310332 C60.5946812,15.3281688 60.0858272,15.2262604 59.5636074,15.2262604 C58.9907886,15.2262604 58.4657047,15.3310261 57.9883557,15.5405574 C57.5110067,15.7500887 57.1004866,16.0386705 56.7567953,16.4072551 C56.413104,16.7758398 56.1457886,17.2101411 55.954849,17.7120638 C55.7639094,18.2139866 55.6684396,18.7625777 55.6684396,19.359742 C55.6684396,19.9692877 55.7639094,20.5283553 55.954849,21.0359926 C56.1457886,21.5436298 56.4092852,21.9788835 56.7472483,22.3408013 C57.0842567,22.702719 57.4890487,22.9855863 57.9597148,23.1884507 C58.4303809,23.3913152 58.9459178,23.4932236 59.5063255,23.4932236 C60.1555201,23.4932236 60.721656,23.3665524 61.2056879,23.1122575 C61.6897198,22.8579627 62.0773272,22.5284271 62.3704195,22.1217458 L64.6426007,24.2551557 C64.044005,24.9399421 63.3060235,25.4837712 62.4277013,25.8837855" id="Fill-7" fill="#FFFFFF" sketch:type="MSShapeGroup"></path>
            <path d="M81.8558054,23.2551198 C81.581807,23.9218104 81.1903809,24.4932594 80.6815268,24.969467 C80.1726728,25.4456746 79.5578473,25.8171165 78.8389597,26.0837927 C78.1200721,26.3504689 77.3209899,26.483807 76.4426678,26.483807 C75.5519346,26.483807 74.7490336,26.3504689 74.0368289,26.0837927 C73.3236695,25.8171165 72.7193456,25.4456746 72.2229027,24.969467 C71.7264597,24.4932594 71.3445805,23.9218104 71.0772651,23.2551198 C70.8099497,22.5884292 70.6762919,21.8484027 70.6762919,21.0359926 L70.6762919,12.6356913 L73.9222651,12.6356913 L73.9222651,20.7693164 C73.9222651,21.137901 73.97,21.4864849 74.0654698,21.816973 C74.1609396,22.1465086 74.3070084,22.4427097 74.5046309,22.702719 C74.7022534,22.9627284 74.9628859,23.1694024 75.2874832,23.3217889 C75.6120805,23.4741753 76.0035067,23.5503685 76.4617617,23.5503685 C76.9200168,23.5503685 77.311443,23.4741753 77.6360403,23.3217889 C77.9606376,23.1694024 78.2250889,22.9627284 78.4284396,22.702719 C78.6317903,22.4427097 78.7788138,22.1465086 78.8676007,21.816973 C78.9563876,21.4864849 79.0012584,21.137901 79.0012584,20.7693164 L79.0012584,12.6356913 L82.2663255,12.6356913 L82.2663255,21.0359926 C82.2663255,21.8484027 82.128849,22.5884292 81.8558054,23.2551198" id="Fill-8" fill="#FFFFFF" sketch:type="MSShapeGroup"></path>
            <path d="M100.214648,22.197939 C100.214648,22.9341559 100.067624,23.5532257 99.7754866,24.0551485 C99.4823943,24.5570713 99.0938322,24.9589904 98.610755,25.2647157 C98.1267232,25.5694885 97.5758624,25.788544 96.9591275,25.9218821 C96.3414379,26.0552202 95.7084732,26.1218893 95.0592785,26.1218893 L89.6747819,26.1218893 L89.6747819,12.6356913 L95.0592785,12.6356913 C95.5805436,12.6356913 96.1151745,12.689979 96.6631711,12.7966495 C97.2102131,12.9052248 97.706656,13.0899933 98.1525,13.3500026 C98.5973893,13.610012 98.9601745,13.9624055 99.2408557,14.4071834 C99.5205822,14.8519613 99.6609228,15.415791 99.6609228,16.1024823 C99.6609228,16.852033 99.4566174,17.4711028 99.0499161,17.9596918 C98.6422601,18.4482807 98.1076292,18.8006743 97.4460235,19.0168725 L97.4460235,19.0549692 C97.8279027,19.118781 98.1868691,19.235928 98.5248322,19.4073627 C98.8618406,19.5787975 99.1549329,19.7978529 99.4031544,20.0645292 C99.6513758,20.3312054 99.8480436,20.6426451 99.9950671,20.997896 C100.141136,21.3531468 100.214648,21.7531612 100.214648,22.197939 L100.214648,22.197939 Z M96.5104195,16.5405933 C96.5104195,16.083434 96.334755,15.7500887 95.9853356,15.5405574 C95.6349614,15.3310261 95.1165604,15.2262604 94.4291779,15.2262604 L92.8252852,15.2262604 L92.8252852,18.0073125 L94.5819295,18.0073125 C95.1929362,18.0073125 95.6664664,17.8834986 96.0044295,17.6358706 C96.3414379,17.3882427 96.5104195,17.0234677 96.5104195,16.5405933 L96.5104195,16.5405933 Z M96.9495805,21.8931662 C96.9495805,21.3340985 96.739547,20.947418 96.3194799,20.7312198 C95.8994128,20.5150215 95.339005,20.4073986 94.6392114,20.4073986 L92.8252852,20.4073986 L92.8252852,23.4932236 L94.6583054,23.4932236 C94.9132097,23.4932236 95.1767064,23.471318 95.4507047,23.4265545 C95.7237483,23.381791 95.9719698,23.3027406 96.1953691,23.1884507 C96.4178138,23.0741609 96.5992064,22.9122504 96.739547,22.702719 C96.8789329,22.4931877 96.9495805,22.2236542 96.9495805,21.8931662 L96.9495805,21.8931662 Z" id="Fill-9" fill="#FFFFFF" sketch:type="MSShapeGroup"></path>
            <path d="M107.1448,12.6356913 L110.428961,12.6356913 L110.428961,26.1218893 L107.1448,26.1218893 L107.1448,12.6356913 Z" id="Fill-10" fill="#FFFFFF" sketch:type="MSShapeGroup"></path>
            <path d="M123.318339,15.415791 L123.318339,26.1218893 L120.053272,26.1218893 L120.053272,15.415791 L116.23448,15.415791 L116.23448,12.6356913 L127.137131,12.6356913 L127.137131,15.415791 L123.318339,15.415791" id="Fill-11" fill="#FFFFFF" sketch:type="MSShapeGroup"></path>
            <path d="M140.082836,16.1405789 C139.802154,15.7853281 139.436505,15.5024608 138.984933,15.2929295 C138.532406,15.0833981 138.097064,14.9786325 137.676997,14.9786325 C137.46028,14.9786325 137.2407,14.9976808 137.018255,15.0357774 C136.79581,15.073874 136.595324,15.1472099 136.416795,15.2548329 C136.238267,15.3624558 136.088379,15.5024608 135.968087,15.6729431 C135.846841,15.8453302 135.786695,16.0643857 135.786695,16.3310619 C135.786695,16.5596416 135.83443,16.7501246 135.929899,16.902511 C136.025369,17.0548974 136.164755,17.1882355 136.349966,17.3025253 C136.534223,17.4168152 136.753804,17.5215808 137.008708,17.6168223 C137.262658,17.7120638 137.550022,17.8101626 137.867936,17.912071 C138.326191,18.0644574 138.80354,18.2330349 139.299983,18.416851 C139.796426,18.6006671 140.247998,18.8454378 140.655654,19.1502107 C141.06331,19.4549835 141.400319,19.8330923 141.667634,20.2835846 C141.93495,20.734077 142.068607,21.2960019 142.068607,21.9693594 C142.068607,22.7436729 141.925403,23.4132207 141.638993,23.9789553 C141.352584,24.5437374 140.967841,25.0104209 140.483809,25.3790055 C139.999777,25.7475901 139.446052,26.0199809 138.822634,26.1980825 C138.199216,26.3752317 137.55575,26.4647587 136.894144,26.4647587 C135.926081,26.4647587 134.991431,26.2961813 134.087332,25.9599787 C133.183233,25.6237762 132.432841,25.143759 131.834245,24.5218319 L133.972768,22.3503254 C134.304049,22.7570067 134.739391,23.0960665 135.280705,23.3694096 C135.822018,23.6427527 136.359513,23.7789481 136.894144,23.7789481 C137.135683,23.7789481 137.371493,23.7532329 137.600621,23.7027549 C137.829748,23.6522769 138.030235,23.5694168 138.202081,23.455127 C138.373926,23.3408372 138.510448,23.1884507 138.612601,22.9979677 C138.713799,22.8074847 138.765352,22.5779527 138.765352,22.3122288 C138.765352,22.057934 138.701388,21.8426882 138.574413,21.6645866 C138.447438,21.4864849 138.266045,21.3245744 138.030235,21.1788549 C137.794424,21.0321829 137.501332,20.8997972 137.151913,20.7788405 C136.801539,20.6578838 136.40343,20.5283553 135.95854,20.3883503 C135.526062,20.2483453 135.102176,20.0835775 134.688792,19.8930945 C134.275408,19.701659 133.90594,19.4578407 133.581342,19.1597348 C133.256745,18.8616289 132.996112,18.4997111 132.79849,18.0739816 C132.600867,17.648252 132.502534,17.1310906 132.502534,16.521545 C132.502534,15.7719943 132.655285,15.1310189 132.960789,14.5976664 C133.266292,14.064314 133.667265,13.626203 134.163708,13.2833336 C134.660151,12.9404641 135.220559,12.689979 135.843977,12.5309256 C136.467394,12.3718723 137.097495,12.2928219 137.734279,12.2928219 C138.498037,12.2928219 139.278025,12.4328269 140.073289,12.7118845 C140.868552,12.9909421 141.565482,13.4042903 142.164077,13.9500242 L140.082836,16.1405789" id="Fill-12" fill="#FFFFFF" sketch:type="MSShapeGroup"></path>
        </g>
    </g>
</svg>