<?xml version="1.0" encoding="UTF-8" standalone="no"?>
<svg width="140px" height="123px" viewBox="0 0 140 123" version="1.1" xmlns="http://www.w3.org/2000/svg" xmlns:xlink="http://www.w3.org/1999/xlink" xmlns:sketch="http://www.bohemiancoding.com/sketch/ns">
    <!-- Generator: Sketch 3.3.2 (12043) - http://www.bohemiancoding.com/sketch -->
    <title>logo-simple</title>
    <desc>Created with Sketch.</desc>
    <defs></defs>
    <g id="Page-1" stroke="none" stroke-width="1" fill="none" fill-rule="evenodd" sketch:type="MSPage">
        <g id="logo-simple" sketch:type="MSLayerGroup" transform="translate(0.000000, 0.418435)">
            <path d="M6.51162791,58.6046512 L39.152086,114.997371 L104.426786,114.997371 L79.9487732,72.7012808 L63.6300983,72.7012808 L55.4707609,58.6046512" id="Fill-1-Copy" fill="#F9CF5E" sketch:type="MSShapeGroup"></path>
            <path d="M55.4707609,59.6516351 L6.51162791,59.6516351 L39.152086,3.25581395 L104.426786,3.25581395 L79.9487732,45.5519046 L63.6300983,45.5519046 L55.4707609,59.6516351" id="Fill-2-Copy" fill="#F9CF5E" sketch:type="MSShapeGroup"></path>
            <path d="M103.502211,117.44048 C102.697156,117.44048 101.91386,117.02186 101.481803,116.277648 L77.6782964,75.1443893 L62.7055236,75.1443893 C61.8724941,75.1443893 61.101631,74.7009625 60.6882246,73.9815569 L53.1971757,61.0477597 L5.58705322,61.0477597 C4.30020915,61.0477597 3.25581395,60.0058618 3.25581395,58.7220948 C3.25581395,57.4383279 4.30020915,56.39643 5.58705322,56.39643 L53.1971757,56.39643 L60.6882246,43.4595319 C61.101631,42.7401263 61.8724941,42.2966995 62.7055236,42.2966995 L77.6782964,42.2966995 L101.481803,1.16344126 C102.128334,0.0502230349 103.555052,-0.331185994 104.66783,0.31379838 C105.780609,0.955681867 106.162932,2.37588784 105.51951,3.48910607 L81.0446059,45.7851967 C80.6280912,46.5046024 79.857228,46.9480291 79.0241985,46.9480291 L64.0514258,46.9480291 L57.2379905,58.7220948 L64.0514258,70.4930597 L79.0241985,70.4930597 C79.857228,70.4930597 80.6280912,70.9364864 81.0446059,71.6558921 L105.51951,113.951983 C106.162932,115.065201 105.780609,116.485407 104.66783,117.12729 C104.297941,117.341252 103.900076,117.44048 103.502211,117.44048" id="Fill-3-Copy" fill="#343558" sketch:type="MSShapeGroup"></path>
            <path d="M61.8604651,45.5813953 L70.0198026,59.6811259" id="Stroke-4-Copy" stroke="#FFFFFF" stroke-width="2" stroke-linejoin="round" sketch:type="MSShapeGroup"></path>
            <path d="M38.9191642,120.695685 C38.3938583,120.695685 37.8592274,120.562347 37.368113,120.280166 C36.3703426,119.703401 35.8139535,118.661504 35.8139535,117.591698 C35.8139535,117.064547 35.9476112,116.531195 36.2304682,116.044355 L67.9695138,61.2020783 L36.2304682,6.35670037 L41.6140768,3.25581395 L73.3531224,58.1011919 L136.834322,58.1011919 L136.834322,64.3029648 L73.3531224,64.3029648 L41.6140768,119.145242 C41.0390378,120.140626 39.9946426,120.695685 38.9191642,120.695685" id="Fill-5-Copy-2" fill="#343558" sketch:type="MSShapeGroup"></path>
            <path d="M102.577636,122.091201 L37.3029366,122.091201 C35.6368776,122.091201 34.0982597,121.204347 33.2652302,119.765536 L0.624772124,63.3728156 C-0.208257375,61.9340043 -0.208257375,60.1571964 0.624772124,58.721486 L33.2652302,2.32566481 C34.0982597,0.886853514 35.6368776,0 37.3029366,0 L102.487495,0 C104.187745,0.0310088641 105.735688,0.806230467 106.612234,2.32566481 L139.252692,58.721486 C140.085722,60.1571964 140.085722,61.9340043 139.252692,63.3728156 L106.612234,119.765536 C105.782313,121.204347 104.240587,122.091201 102.577636,122.091201 L102.577636,122.091201 Z M39.9947409,112.788541 L99.8827236,112.788541 L129.831377,61.0471508 L99.8827236,9.30265924 L39.9947409,9.30265924 L10.0460871,61.0471508 L39.9947409,112.788541 L39.9947409,112.788541 Z" id="Fill-6-Copy" fill="#343558" sketch:type="MSShapeGroup"></path>
        </g>
    </g>
</svg>