<?xml version="1.0" encoding="UTF-8" standalone="no"?>
<svg width="131px" height="83px" viewBox="0 0 131 83" version="1.1" xmlns="http://www.w3.org/2000/svg" xmlns:xlink="http://www.w3.org/1999/xlink" xmlns:sketch="http://www.bohemiancoding.com/sketch/ns">
    <!-- Generator: Sketch 3.3.2 (12043) - http://www.bohemiancoding.com/sketch -->
    <title>verification</title>
    <desc>Created with Sketch.</desc>
    <defs></defs>
    <g id="Page-1" stroke="none" stroke-width="1" fill="none" fill-rule="evenodd" sketch:type="MSPage">
        <g id="verification" sketch:type="MSLayerGroup" transform="translate(1.000000, 0.000000)">
            <path d="M101.546503,74.7481226 C91.0633696,79.3174654 78.2868323,82 64.5,82 C28.8776336,82 0,64.09139 0,42 C0,19.90861 28.8776336,2 64.5,2 C100.122366,2 129,19.90861 129,42 C129,52.4360173 122.555561,61.9385901 112,69.0607005 L112,79 L101.546503,74.7481217 Z" id="Oval-11" stroke="#93C4D2" sketch:type="MSShapeGroup"></path>
            <text id="IDENT-CODE" sketch:type="MSTextLayer" font-family="Avenir Next" font-size="12" font-weight="260" sketch:alignment="middle" fill="#343558">
                <tspan x="26.11" y="41">IDENT-CODE</tspan>
                <tspan x="46" y="57">#####</tspan>
            </text>
            <path d="M106,24 C112.627417,24 118,18.627417 118,12 C118,5.372583 112.627417,0 106,0 C99.372583,0 94,5.372583 94,12 C94,18.627417 99.372583,24 106,24 Z" id="Oval-12" fill="#93C4D2" sketch:type="MSShapeGroup"></path>
            <text id="1" sketch:type="MSTextLayer" font-family="Avenir Next" font-size="10" font-weight="526" fill="#FFFFFF">
                <tspan x="103" y="15">1</tspan>
            </text>
        </g>
    </g>
</svg>