<svg width="143" height="39" viewBox="0 0 143 39" xmlns="http://www.w3.org/2000/svg">
    <title>
        logo
    </title>
    <g fill="none" fill-rule="evenodd">
        <path d="M1.708 19.38L11.733 36.7h20.05l-7.52-12.992h-5.012l-2.505-4.33" fill="#F9CF5E"/>
        <path d="M16.745 19.38H1.708L11.733 2.056h20.05l-7.52 12.99h-5.012l-2.505 4.332" fill="#F9CF5E"/>
        <path d="M31.782 37.414c-.247 0-.488-.13-.62-.357L23.85 24.423h-4.6c-.254 0-.49-.136-.618-.357l-2.3-3.973H1.707c-.395 0-.716-.32-.716-.714 0-.396.32-.716.716-.716H16.33l2.302-3.973c.127-.22.364-.356.62-.356h4.598L31.16 1.7c.2-.342.638-.46.98-.26.342.196.46.632.26.974l-7.516 12.99c-.128.222-.364.358-.62.358h-4.6l-2.092 3.617 2.093 3.614h4.6c.255 0 .49.136.62.357L32.4 36.343c.2.342.082.778-.26.976-.114.065-.236.096-.358.096" fill="#FFF"/>
        <path d="M19.25 15.048l2.508 4.33" stroke="#FFF" stroke-width="2" stroke-linejoin="round"/>
        <path d="M11.732 37.652c-.16 0-.325-.04-.476-.128-.307-.177-.477-.497-.477-.826 0-.16.04-.325.126-.475l9.75-16.844-9.75-16.847 1.654-.952 9.748 16.846h19.498v1.905H22.308L12.56 37.177c-.177.305-.497.476-.828.476" fill="#FFF"/>
        <path d="M31.782 38.128h-20.05c-.51 0-.983-.272-1.24-.714L.47 20.094c-.256-.443-.256-.99 0-1.43l10.025-17.32c.256-.443.73-.715 1.24-.715h20.02c.523.008 1 .246 1.268.713l10.026 17.32c.256.442.256.988 0 1.43L33.02 37.413c-.254.443-.727.715-1.238.715zM12.56 35.27h18.394l9.2-15.89-9.2-15.894H12.56L3.36 19.38l9.2 15.89z" fill="#FFF"/>
        <path d="M62.428 25.884c-.88.4-1.89.6-3.036.6-1.044 0-2.01-.172-2.893-.514-.886-.343-1.653-.83-2.302-1.458-.65-.628-1.158-1.38-1.527-2.257-.37-.876-.553-1.84-.553-2.895 0-1.08.188-2.057.563-2.934.375-.876.895-1.622 1.556-2.238.662-.616 1.438-1.09 2.33-1.42.89-.33 1.852-.494 2.883-.494.954 0 1.892.168 2.815.505.924.335 1.67.827 2.244 1.475l-2.216 2.21c-.305-.42-.706-.73-1.203-.934-.495-.202-1.004-.304-1.526-.304-.573 0-1.098.105-1.576.315-.477.21-.888.5-1.23.867-.345.37-.612.803-.803 1.305-.19.502-.287 1.05-.287 1.648 0 .61.096 1.168.287 1.676.19.508.454.943.792 1.305.337.363.742.646 1.213.848.47.203.986.305 1.546.305.65 0 1.216-.126 1.7-.38.484-.255.87-.585 1.164-.99l2.273 2.132c-.6.685-1.337 1.23-2.215 1.63" fill="#FFF"/>
        <path d="M81.856 23.255c-.274.667-.666 1.238-1.174 1.714-.51.476-1.124.847-1.843 1.114-.72.266-1.52.4-2.397.4-.89 0-1.694-.134-2.406-.4-.713-.267-1.318-.638-1.814-1.115-.497-.477-.878-1.048-1.146-1.715-.267-.667-.4-1.407-.4-2.22v-8.4h3.245v8.134c0 .368.048.716.143 1.047.096.33.242.626.44.886.197.26.458.466.782.62.325.15.717.227 1.175.227.458 0 .85-.076 1.174-.228.325-.153.59-.36.792-.62.204-.26.35-.555.44-.885.088-.33.133-.68.133-1.048v-8.134h3.266v8.4c0 .812-.137 1.552-.41 2.22" fill="#FFF"/>
        <path d="M100.215 22.198c0 .736-.147 1.355-.44 1.857-.293.502-.68.904-1.164 1.21-.483.304-1.034.524-1.65.657-.62.133-1.252.2-1.9.2h-5.385V12.636h5.384c.52 0 1.055.054 1.603.16.547.11 1.044.294 1.49.554.444.26.807.612 1.088 1.057.28.445.42 1.01.42 1.695 0 .75-.203 1.37-.61 1.858-.408.488-.942.84-1.604 1.057v.038c.382.064.74.18 1.08.352.336.172.63.39.877.658.248.266.445.578.592.933.146.355.22.755.22 1.2zM96.51 16.54c0-.457-.175-.79-.525-1-.35-.21-.868-.314-1.556-.314h-1.605v2.78h1.757c.61 0 1.084-.123 1.422-.37.337-.248.506-.613.506-1.095zm.44 5.353c0-.56-.21-.946-.63-1.162-.42-.215-.98-.323-1.68-.323h-1.815v3.086h1.833c.255 0 .52-.022.793-.066.274-.045.522-.124.745-.24.223-.113.404-.275.545-.484.14-.21.21-.48.21-.81z" fill="#FFF"/>
        <path d="M107.145 12.636h3.284v13.486h-3.285V12.636z" fill="#FFF"/>
        <path d="M123.318 15.416v10.706h-3.265V15.416h-3.82v-2.78h10.904v2.78h-3.82" fill="#FFF"/>
        <path d="M140.083 16.14c-.28-.355-.646-.638-1.098-.847-.453-.21-.888-.314-1.308-.314-.217 0-.436.018-.66.056-.22.038-.422.11-.6.22-.18.106-.33.246-.45.417-.12.172-.18.39-.18.658 0 .23.047.42.143.573.095.152.235.285.42.4.184.114.404.22.66.314.253.095.54.193.858.295.458.152.936.32 1.432.505.496.184.948.428 1.356.733.407.305.744.683 1.012 1.134.267.45.4 1.012.4 1.685 0 .774-.143 1.443-.43 2.01-.285.564-.67 1.03-1.154 1.4-.484.368-1.038.64-1.66.818-.625.177-1.268.267-1.93.267-.968 0-1.903-.17-2.807-.505-.904-.336-1.654-.816-2.253-1.438l2.14-2.172c.33.407.765.746 1.307 1.02.542.273 1.08.41 1.614.41.242 0 .477-.027.707-.077.23-.05.43-.134.602-.248.172-.114.308-.267.41-.457.102-.19.153-.42.153-.686 0-.254-.064-.47-.19-.647-.128-.18-.31-.34-.545-.486-.236-.148-.53-.28-.878-.4-.35-.122-.75-.252-1.193-.392-.434-.14-.858-.304-1.27-.495-.415-.19-.784-.435-1.11-.733-.323-.298-.584-.66-.782-1.086-.197-.426-.295-.943-.295-1.552 0-.75.152-1.39.458-1.924.306-.534.707-.972 1.204-1.315.496-.343 1.057-.593 1.68-.752.623-.158 1.253-.237 1.89-.237.764 0 1.544.14 2.34.42.795.278 1.49.69 2.09 1.237l-2.08 2.19" fill="#FFF"/>
    </g>
</svg>
