<svg width="140" height="123" viewBox="0 0 140 123" xmlns="http://www.w3.org/2000/svg">
    <title>
        logo-simple
    </title>
    <g fill="none" fill-rule="evenodd">
        <path d="M6.512 59.023l32.64 56.393h65.275L79.95 73.12H63.63l-8.16-14.097" fill="#F9CF5E"/>
        <path d="M55.47 60.07H6.513l32.64-56.396h65.275L79.95 45.97H63.63l-8.16 14.1" fill="#F9CF5E"/>
        <path d="M103.502 117.86c-.805 0-1.588-.42-2.02-1.164L77.678 75.563H62.706c-.834 0-1.604-.444-2.018-1.163l-7.49-12.934H5.587c-1.288 0-2.332-1.042-2.332-2.325 0-1.283 1.044-2.325 2.33-2.325h47.61l7.492-12.937c.414-.72 1.184-1.163 2.018-1.163h14.972l23.804-41.133c.646-1.113 2.073-1.495 3.186-.85 1.113.642 1.495 2.062.852 3.176L81.045 46.204c-.417.72-1.188 1.162-2.02 1.162H64.05L57.24 59.14l6.813 11.77h14.974c.833 0 1.604.445 2.02 1.164l24.476 42.296c.643 1.114.26 2.534-.852 3.176-.37.214-.768.313-1.166.313" fill="#343558"/>
        <path d="M61.86 46l8.16 14.1" stroke="#FFF" stroke-width="2" stroke-linejoin="round"/>
        <path d="M38.92 121.114c-.526 0-1.06-.133-1.552-.415-.998-.578-1.554-1.62-1.554-2.69 0-.527.134-1.06.416-1.547L67.97 61.62 36.23 6.776l5.384-3.1 31.74 54.845h63.48v6.2h-63.48l-31.74 54.844c-.575.995-1.62 1.55-2.695 1.55" fill="#343558"/>
        <path d="M102.578 122.51H37.303c-1.666 0-3.205-.887-4.038-2.326L.625 63.79c-.833-1.438-.833-3.214 0-4.65l32.64-56.396c.833-1.44 2.372-2.326 4.038-2.326h65.184c1.7.03 3.25.807 4.125 2.326l32.64 56.396c.834 1.436.834 3.212 0 4.65l-32.64 56.394c-.83 1.44-2.37 2.326-4.034 2.326zm-62.583-9.303h59.888l29.948-51.74L99.884 9.72H39.995l-29.95 51.746 29.95 51.74z" fill="#343558"/>
    </g>
</svg>
