<svg width="956" height="141" viewBox="0 0 956 141" xmlns="http://www.w3.org/2000/svg" xmlns:xlink="http://www.w3.org/1999/xlink">
    <title>
        infographics
    </title>
    <defs>
        <path d="M21.655 20.447c-.414.587-1.003 1.03-1.767 1.335-.278.11-.606.202-.977.276v2.33H16.7v-2.15c-.053 0-.106.004-.162.004h-1.255v2.146h-2.21v-2.146H9.7V20.44h.516c.347 0 .574-.03.695-.092.122-.06.208-.143.258-.25.05-.11.074-.353.074-.735v-7.278c0-.385-.024-.633-.074-.74-.05-.103-.136-.188-.257-.25-.12-.062-.348-.094-.694-.094H9.7V9.2h3.372V7.05h2.21v2.146h1.42V7.05h2.21v2.303c.326.065.624.14.875.243.648.266 1.148.645 1.497 1.14.344.496.518 1.04.518 1.632 0 .43-.092.84-.276 1.227-.18.388-.45.725-.795 1.023-.346.296-.803.542-1.374.734.612.154 1.08.328 1.403.515.47.264.837.63 1.11 1.102.277.472.415.993.415 1.573 0 .686-.213 1.324-.63 1.904zm-5.66-18.652c-7.688 0-13.922 6.234-13.922 13.922 0 7.688 6.233 13.922 13.922 13.922 7.685 0 13.918-6.23 13.918-13.923 0-7.688-6.233-13.922-13.918-13.922zm2.633 15.412c.18.272.27.598.27.98 0 .458-.13.848-.385 1.17-.254.32-.562.536-.925.642-.367.097-.826.157-1.376.157h-.953c-.318 0-.514-.02-.584-.056-.07-.03-.124-.093-.155-.18-.026-.067-.04-.298-.043-.7v-2.824h1.687c.74 0 1.288.068 1.65.208.364.134.63.335.814.603zm-2.723-2.73h-1.43v-3.18h1.43c.835 0 1.416.05 1.737.157.324.1.576.278.742.52.17.24.26.536.26.877 0 .333-.093.626-.272.877-.183.25-.45.44-.807.565-.357.124-.91.186-1.66.186zm.09 16.795C7.403 31.272.44 24.305.44 15.714.44 7.124 7.402.158 15.994.158c8.588 0 15.552 6.967 15.552 15.556-.002 8.593-6.964 15.558-15.552 15.558z" id="a"/>
        <path d="M24.868 24.184c-.478.677-1.16 1.19-2.042 1.542-.322.126-.7.234-1.128.32v2.69h-2.554v-2.483c-.06 0-.123.003-.188.003h-1.45v2.48h-2.554v-2.48h-3.895v-2.082h.595c.4 0 .664-.035.804-.105.14-.072.24-.167.297-.29.06-.128.086-.408.086-.85v-8.408c0-.443-.028-.732-.087-.854-.058-.12-.158-.218-.297-.29-.14-.07-.403-.108-.804-.108h-.595v-2.084h3.895v-2.48h2.554v2.48h1.64v-2.48h2.553v2.66c.375.076.72.162 1.01.28.75.31 1.328.747 1.73 1.317.397.574.6 1.205.6 1.887 0 .495-.108.972-.32 1.417-.208.448-.52.838-.92 1.184-.4.343-.928.625-1.588.848.707.18 1.25.38 1.62.596.546.305.97.727 1.286 1.27.32.548.48 1.15.48 1.82 0 .79-.248 1.53-.73 2.2zm-6.54-21.552c-8.882 0-16.084 7.205-16.084 16.087 0 8.88 7.202 16.082 16.084 16.082 8.88 0 16.08-7.197 16.08-16.083 0-8.883-7.2-16.088-16.08-16.088zm3.042 17.806c.21.316.312.69.312 1.135 0 .528-.15.978-.445 1.35-.294.37-.65.62-1.07.742-.423.113-.953.182-1.59.182h-1.1c-.366 0-.592-.024-.674-.064-.082-.035-.143-.108-.178-.21-.032-.076-.048-.343-.05-.81V19.5h1.947c.854 0 1.488.08 1.908.24.42.157.73.39.94.698zm-3.145-3.153h-1.65V13.61h1.65c.964 0 1.635.057 2.006.18.376.116.666.322.858.6.196.28.3.622.3 1.016 0 .383-.107.72-.314 1.014-.21.29-.52.508-.933.652-.41.143-1.05.213-1.915.213zm.103 19.404C8.402 36.69.356 28.64.356 18.713.356 8.79 8.4.74 18.328.74c9.923 0 17.968 8.05 17.968 17.974-.002 9.928-8.046 17.975-17.968 17.975z" id="c"/>
        <path d="M26.726 25.23c-.502.71-1.217 1.25-2.145 1.62-.337.132-.734.244-1.185.334v2.826h-2.683v-2.607c-.064 0-.128.004-.197.004h-1.522v2.604H16.31v-2.603h-4.09V25.22h.624c.42 0 .697-.038.844-.112.146-.073.25-.173.312-.305.06-.133.09-.427.09-.89V15.08c0-.467-.03-.77-.09-.897-.06-.125-.166-.23-.312-.305-.147-.075-.423-.114-.844-.114h-.625v-2.188h4.09V8.97h2.683v2.604h1.72V8.97h2.684v2.795c.395.08.757.17 1.062.295.786.323 1.393.782 1.816 1.383.417.603.63 1.265.63 1.98 0 .522-.113 1.022-.336 1.49-.22.47-.546.88-.965 1.24-.42.36-.976.658-1.67.892.744.188 1.312.398 1.704.625.57.32 1.016.765 1.35 1.337.334.574.5 1.206.5 1.91 0 .832-.26 1.607-.764 2.312zm-6.87-22.637c-9.33 0-16.896 7.565-16.896 16.896 0 9.33 7.565 16.895 16.895 16.895 9.327 0 16.892-7.56 16.892-16.896 0-9.332-7.565-16.897-16.892-16.897zm3.195 18.703c.22.33.33.726.33 1.19 0 .555-.16 1.028-.468 1.418-.31.39-.682.65-1.123.78-.446.12-1.003.19-1.67.19H18.96c-.384 0-.622-.025-.708-.067-.086-.038-.15-.114-.188-.22-.033-.082-.05-.36-.053-.85V20.31h2.046c.896 0 1.562.083 2.003.252.442.166.766.41.988.734zm-3.303-3.313h-1.734v-3.86h1.734c1.013 0 1.718.06 2.107.19.394.12.7.338.9.63.207.293.317.65.317 1.065 0 .402-.113.758-.33 1.063-.223.306-.548.535-.98.687-.43.15-1.104.226-2.013.226zm.108 20.382C9.43 38.365.978 29.91.978 19.485.978 9.06 9.428.604 19.855.604c10.423 0 18.874 8.456 18.874 18.88-.002 10.427-8.452 18.88-18.875 18.88z" id="e"/>
        <path d="M25.865 25.458c-.502.712-1.217 1.25-2.145 1.62-.338.133-.735.245-1.186.335v2.826H19.85V27.63c-.063 0-.127.004-.196.004h-1.522v2.604H15.45v-2.604h-4.092V25.45h.625c.42 0 .697-.04.844-.113.146-.073.25-.173.312-.305.06-.133.09-.427.09-.89V15.31c0-.467-.03-.77-.09-.897-.062-.125-.167-.23-.313-.305-.147-.075-.423-.114-.844-.114h-.625v-2.188h4.09V9.2h2.684v2.605h1.72V9.2h2.684v2.796c.395.08.757.17 1.062.295.787.324 1.394.783 1.817 1.384.417.603.63 1.265.63 1.98 0 .522-.113 1.022-.336 1.49-.22.47-.547.88-.966 1.24-.42.36-.976.658-1.67.892.744.188 1.312.398 1.704.625.572.32 1.017.766 1.35 1.338.335.574.502 1.206.502 1.91 0 .83-.26 1.606-.765 2.31zm-6.87-22.636C9.665 2.822 2.1 10.387 2.1 19.718c0 9.33 7.565 16.896 16.895 16.896 9.327 0 16.892-7.56 16.892-16.896-.002-9.33-7.566-16.896-16.892-16.896zm3.195 18.703c.22.33.328.726.328 1.19 0 .555-.158 1.028-.467 1.418-.308.39-.68.65-1.122.78-.445.12-1.002.19-1.67.19H18.1c-.383 0-.62-.025-.707-.067-.086-.038-.15-.114-.188-.22-.033-.082-.05-.36-.053-.85v-3.427h2.046c.897 0 1.563.082 2.004.25.443.167.766.41.988.735zm-3.304-3.312h-1.734v-3.86h1.734c1.013 0 1.718.06 2.107.19.394.12.7.338.9.63.207.293.317.65.317 1.065 0 .402-.114.758-.33 1.063-.224.306-.55.535-.98.687-.432.15-1.105.226-2.014.226zm.11 20.382C8.568 38.595.117 30.14.117 19.715.118 9.29 8.568.834 18.995.834c10.423 0 18.874 8.456 18.874 18.88-.003 10.427-8.453 18.88-18.875 18.88z" id="g"/>
        <path id="i" d="M.36.017H34.99V33.36H.36z"/>
        <path d="M22.417 7.338l-.658 2.775c-.57-.33-1.437-.596-2.6-.596-2.21 0-3.016 1.492-3.016 3.226 0 1.013.15 1.817.325 2.685h4.184v2.54H16.8c.03.92.03 1.82-.21 2.655-.296 1.017-.897 1.884-1.73 2.63v.06h8.392v3.016H10.174v-2.003c1.792-.834 3.37-2.626 3.37-4.75 0-.566-.025-1.04-.114-1.608h-2.99v-2.54h2.57c-.152-.837-.303-1.82-.303-2.776 0-3.67 2.602-6.06 6.304-6.06 1.612-.002 2.744.354 3.407.744zM.34 16.46c0 9.043 7.328 16.37 16.37 16.37 9.04 0 16.37-7.327 16.37-16.37C33.08 7.42 25.75.09 16.71.09 7.667.09.34 7.417.34 16.46z" id="k"/>
        <path id="m" d="M.36.017H34.99V33.36H.36z"/>
        <path d="M18.345 20.332c-3.632-1.315-5.982-2.974-5.982-6.19 0-2.98 2.07-5.264 5.568-5.885V4.863h2.84v3.223c2.18.067 3.667.585 4.776 1.14l-.938 3.186c-.828-.383-2.35-1.18-4.703-1.18-2.425 0-3.288 1.247-3.288 2.423 0 1.42 1.24 2.218 4.184 3.394 3.883 1.45 5.61 3.32 5.61 6.402 0 2.937-2.04 5.532-5.848 6.16v3.562h-2.837v-3.36c-2.183-.068-4.363-.69-5.606-1.52l.93-3.253c1.355.8 3.292 1.524 5.4 1.524 2.18 0 3.672-1.072 3.672-2.735-.005-1.56-1.218-2.56-3.777-3.498zm.918 17.66c10.48 0 18.975-8.49 18.975-18.97C38.238 8.54 29.742.044 19.263.044 8.783.045.29 8.54.29 19.02.293 29.5 8.784 37.993 19.264 37.993z" id="o"/>
        <path d="M9.944 20.057h1.947v-.56c0-.414.038-.864.067-1.247H9.943v-2.147h2.33c.414-2.117 1.35-3.924 2.598-5.238 1.875-2.082 4.406-3.262 7.496-3.262 2.08 0 3.815.523 4.96 1.077l-.865 3.225c-.903-.488-2.323-.937-3.885-.937-1.735 0-3.263.625-4.405 1.91-.73.76-1.254 1.904-1.528 3.225h9.09v2.147h-9.508c-.068.383-.068.796-.068 1.217v.59h9.577v2.117H16.54c.244 1.49.76 2.6 1.495 3.4 1.176 1.278 2.842 1.867 4.643 1.867 1.703 0 3.298-.588 4.096-1.038l.73 3.12c-1.145.7-3.086 1.393-5.305 1.393-3.16 0-6.007-1.252-7.843-3.576-1.107-1.285-1.874-3.02-2.186-5.166H9.945v-2.117zm9.992 18.22c10.506 0 19.02-8.516 19.02-19.02 0-10.505-8.514-19.02-19.02-19.02C9.433.237.916 8.752.916 19.257c0 10.504 8.517 19.02 19.02 19.02z" id="q"/>
        <path d="M13.333 7.646l2.56 5.514c.543 1.124.88 2.068 1.277 3.043h.063c.362-.912.758-1.978 1.275-3.106l2.648-5.45h3.958l-5.33 8.922h3.778v1.856h-4.78V20.5h4.78v1.857h-4.78v5.08h-3.504v-5.08H10.53V20.5h4.748v-2.074H10.53V16.57h3.81L9.285 7.646h4.048zM17.2 34.232c9.218 0 16.69-7.47 16.69-16.688C33.89 8.324 26.417.85 17.2.85 7.98.85.51 8.324.51 17.543c0 9.218 7.47 16.688 16.693 16.688z" id="s"/>
    </defs>
    <g fill="none" fill-rule="evenodd">
        <path d="M789.967 73.848h-29.08v5h29.008l-7.937 7.937 3.358 3.36 13.832-13.833-.01-.01-13.75-13.75-3.357 3.36 7.937 7.936z" id="arrow" fill="#93C4D2"/>
        <path d="M608.967 73.848h-29.08v5h29.008l-7.937 7.937 3.358 3.36 13.832-13.833-.01-.01-13.75-13.75-3.357 3.36 7.937 7.936z" id="arrow" fill="#93C4D2"/>
        <path d="M370.967 73.848h-29.08v5h29.008l-7.937 7.937 3.358 3.36 13.832-13.833-.01-.01-13.75-13.75-3.358 3.36 7.937 7.936z" id="arrow" fill="#93C4D2"/>
        <path d="M174.967 73.848h-29.08v5h29.008l-7.937 7.937 3.358 3.36 13.832-13.833-.01-.01-13.75-13.75-3.358 3.36 7.937 7.936z" fill="#93C4D2"/>
        <path d="M880.888 87.416c0 2.065-1.675 3.742-3.743 3.742-2.065 0-3.742-1.677-3.742-3.742 0-2.068 1.677-3.743 3.742-3.743 2.068 0 3.743 1.675 3.743 3.743z" id="Shape" fill="#93C4D2"/>
        <path d="M894.643 87.416c0 2.065-1.677 3.742-3.745 3.742-2.064 0-3.74-1.677-3.74-3.742 0-2.068 1.676-3.743 3.74-3.743 2.068 0 3.745 1.675 3.745 3.743z" id="Shape" fill="#93C4D2"/>
        <path d="M859.243 54.31l2.642 1.638 9.122 23.637c.278.722.974 1.198 1.747 1.198h22.536c.774 0 1.47-.477 1.747-1.198l7.485-19.464c.222-.575.145-1.22-.202-1.73-.35-.51-.927-.813-1.545-.813H869.31l-1.924-4.912c-.248-.64-.698-1.177-1.277-1.537l-3.54-2.19c-1.48-.918-3.43-.46-4.352 1.022-.918 1.484-.46 3.43 1.025 4.35z" id="Shape" fill="#93C4D2"/>
        <path d="M953.445 105.35h-7.787V33.944c0-3.032-2.457-5.49-5.488-5.49H826.227c-3.03 0-5.49 2.458-5.49 5.49v71.404h-7.46c-1.385 0-2.507 1.12-2.507 2.507 0 5.952 4.843 10.795 10.794 10.795h86.84v-4.667c0-1.66 1.345-3.01 3.007-3.01 1.66 0 3.007 1.35 3.007 3.01v4.667h4.93v-4.667c0-1.66 1.347-3.01 3.006-3.01 1.66 0 3.008 1.35 3.008 3.01v4.667h19.798c5.953 0 10.796-4.843 10.796-10.795 0-1.386-1.123-2.508-2.51-2.508zm-17.337-3.76h-105.82V38.006h105.82v63.586z" id="Shape" fill="#F8CF5E"/>
        <g id="Group" transform="translate(286 40)">
            <circle id="Oval" fill="#F8CF5E" cx="17.993" cy="17.716" r="17.167"/>
            <g fill="#FFF">
                <path d="M23.655 22.447c-.414.587-1.003 1.03-1.767 1.335-.278.11-.606.202-.977.276v2.33H18.7v-2.15c-.053 0-.106.004-.162.004h-1.255v2.146h-2.21v-2.146H11.7V22.44h.516c.347 0 .574-.03.695-.092.122-.06.208-.143.258-.25.05-.11.074-.353.074-.735v-7.278c0-.385-.024-.633-.074-.74-.05-.103-.136-.188-.257-.25-.12-.062-.348-.094-.694-.094H11.7V11.2h3.372V9.05h2.21v2.146h1.42V9.05h2.21v2.303c.326.065.624.14.875.243.648.266 1.148.645 1.497 1.14.344.496.518 1.04.518 1.632 0 .43-.092.84-.276 1.227-.18.388-.45.725-.795 1.023-.346.296-.803.542-1.374.734.612.154 1.08.328 1.403.515.47.264.837.63 1.11 1.102.277.472.415.993.415 1.573 0 .686-.213 1.324-.63 1.904zm-5.66-18.652c-7.688 0-13.922 6.234-13.922 13.922 0 7.688 6.233 13.922 13.922 13.922 7.685 0 13.918-6.23 13.918-13.923 0-7.688-6.233-13.922-13.918-13.922zm2.633 15.412c.18.272.27.598.27.98 0 .458-.13.848-.385 1.17-.254.32-.562.536-.925.642-.367.097-.826.157-1.376.157h-.953c-.318 0-.514-.02-.584-.056-.07-.03-.124-.093-.155-.18-.026-.067-.04-.298-.043-.7v-2.824h1.687c.74 0 1.288.068 1.65.208.364.134.63.335.814.603zm-2.723-2.73h-1.43v-3.18h1.43c.835 0 1.416.05 1.737.157.324.1.576.278.742.52.17.24.26.536.26.877 0 .333-.093.626-.272.877-.183.25-.45.44-.807.565-.357.124-.91.186-1.66.186zm.09 16.795c-8.592 0-15.556-6.967-15.556-15.558 0-8.59 6.963-15.556 15.555-15.556 8.588 0 15.552 6.967 15.552 15.556-.002 8.593-6.964 15.558-15.552 15.558z" id="SVGID_9_"/>
            </g>
            <g id="Clipped" transform="translate(2 2)">
                <mask id="b" fill="#fff">
                    <use xlink:href="#a"/>
                </mask>
                <path id="Rectangle-path" fill="#FFF" mask="url(#b)" d="M-.34-.62h32.666v32.67H-.34z"/>
            </g>
        </g>
        <g id="Group" transform="translate(259 72)">
            <circle id="Oval" fill="#F8CF5E" cx="20.326" cy="20.717" r="19.834"/>
            <g fill="#FFF">
                <path d="M26.868 26.184c-.478.677-1.16 1.19-2.042 1.542-.322.126-.7.234-1.128.32v2.69h-2.554v-2.483c-.06 0-.123.003-.188.003h-1.45v2.48h-2.554v-2.48h-3.895v-2.082h.595c.4 0 .664-.035.804-.105.14-.072.24-.167.297-.29.06-.128.086-.408.086-.85v-8.408c0-.443-.028-.732-.087-.854-.058-.12-.158-.218-.297-.29-.14-.07-.403-.108-.804-.108h-.595v-2.084h3.895v-2.48h2.554v2.48h1.64v-2.48h2.553v2.66c.375.076.72.162 1.01.28.75.31 1.328.747 1.73 1.317.397.574.6 1.205.6 1.887 0 .495-.108.972-.32 1.417-.208.448-.52.838-.92 1.184-.4.343-.928.625-1.588.848.707.18 1.25.38 1.62.596.546.305.97.727 1.286 1.27.32.548.48 1.15.48 1.82 0 .79-.248 1.53-.73 2.2zm-6.54-21.552c-8.882 0-16.084 7.205-16.084 16.087 0 8.88 7.202 16.082 16.084 16.082 8.88 0 16.08-7.197 16.08-16.083 0-8.883-7.2-16.088-16.08-16.088zm3.042 17.806c.21.316.312.69.312 1.135 0 .528-.15.978-.445 1.35-.294.37-.65.62-1.07.742-.423.113-.953.182-1.59.182h-1.1c-.366 0-.592-.024-.674-.064-.082-.035-.143-.108-.178-.21-.032-.076-.048-.343-.05-.81V21.5h1.947c.854 0 1.488.08 1.908.24.42.157.73.39.94.698zm-3.145-3.153h-1.65V15.61h1.65c.964 0 1.635.057 2.006.18.376.116.666.322.858.6.196.28.3.622.3 1.016 0 .383-.107.72-.314 1.014-.21.29-.52.508-.933.652-.41.143-1.05.213-1.915.213zm.103 19.404c-9.926 0-17.972-8.05-17.972-17.976C2.356 10.79 10.4 2.74 20.328 2.74c9.923 0 17.968 8.05 17.968 17.974-.002 9.928-8.046 17.975-17.968 17.975z" id="SVGID_11_"/>
            </g>
            <g id="Clipped" transform="translate(2 2)">
                <mask id="d" fill="#fff">
                    <use xlink:href="#c"/>
                </mask>
                <path id="Rectangle-path" fill="#FFF" mask="url(#d)" d="M-.543-.157h37.74V37.59H-.544z"/>
            </g>
        </g>
        <g id="Group" transform="translate(204 67)">
            <circle id="Oval" fill="#F8CF5E" cx="20.854" cy="21.486" r="20.833"/>
            <g fill="#FFF">
                <path d="M27.726 27.23c-.502.71-1.217 1.25-2.145 1.62-.337.132-.734.244-1.185.334v2.826h-2.683v-2.607c-.064 0-.128.004-.197.004h-1.522v2.604H17.31v-2.603h-4.09V27.22h.624c.42 0 .697-.038.844-.112.146-.073.25-.173.312-.305.06-.133.09-.427.09-.89V17.08c0-.467-.03-.77-.09-.897-.06-.125-.166-.23-.312-.305-.147-.075-.423-.114-.844-.114h-.625v-2.188h4.09V10.97h2.683v2.604h1.72V10.97h2.684v2.795c.395.08.757.17 1.062.295.786.323 1.393.782 1.816 1.383.417.603.63 1.265.63 1.98 0 .522-.113 1.022-.336 1.49-.22.47-.546.88-.965 1.24-.42.36-.976.658-1.67.892.744.188 1.312.398 1.704.625.57.32 1.016.765 1.35 1.337.334.574.5 1.206.5 1.91 0 .832-.26 1.607-.764 2.312zm-6.87-22.637c-9.33 0-16.896 7.565-16.896 16.896 0 9.33 7.565 16.895 16.895 16.895 9.327 0 16.892-7.56 16.892-16.896 0-9.332-7.565-16.897-16.892-16.897zm3.195 18.703c.22.33.33.726.33 1.19 0 .555-.16 1.028-.468 1.418-.31.39-.682.65-1.123.78-.446.12-1.003.19-1.67.19H19.96c-.384 0-.622-.025-.708-.067-.086-.038-.15-.114-.188-.22-.033-.082-.05-.36-.053-.85V22.31h2.046c.896 0 1.562.083 2.003.252.442.166.766.41.988.734zm-3.303-3.313h-1.734v-3.86h1.734c1.013 0 1.718.06 2.107.19.394.12.7.338.9.63.207.293.317.65.317 1.065 0 .402-.113.758-.33 1.063-.223.306-.548.535-.98.687-.43.15-1.104.226-2.013.226zm.108 20.382c-10.426 0-18.877-8.454-18.877-18.88 0-10.424 8.45-18.88 18.877-18.88 10.423 0 18.874 8.456 18.874 18.88-.002 10.427-8.452 18.88-18.875 18.88z" id="SVGID_13_"/>
            </g>
            <g id="Clipped" transform="translate(1 2)">
                <mask id="f" fill="#fff">
                    <use xlink:href="#e"/>
                </mask>
                <path id="Rectangle-path" fill="#FFF" mask="url(#f)" d="M.033-.338h39.64V39.31H.034z"/>
            </g>
        </g>
        <g id="Group" transform="translate(235 27)">
            <circle id="Oval" fill="#F8CF5E" cx="20.993" cy="21.716" r="20.833"/>
            <g fill="#F8CF5E">
                <path d="M27.865 27.458c-.502.712-1.217 1.25-2.145 1.62-.338.133-.735.245-1.186.335v2.826H21.85V29.63c-.063 0-.127.004-.196.004h-1.522v2.604H17.45v-2.604h-4.092V27.45h.625c.42 0 .697-.04.844-.113.146-.073.25-.173.312-.305.06-.133.09-.427.09-.89V17.31c0-.467-.03-.77-.09-.897-.062-.125-.167-.23-.313-.305-.147-.075-.423-.114-.844-.114h-.625v-2.188h4.09V11.2h2.684v2.605h1.72V11.2h2.684v2.796c.395.08.757.17 1.062.295.787.324 1.394.783 1.817 1.384.417.603.63 1.265.63 1.98 0 .522-.113 1.022-.336 1.49-.22.47-.547.88-.966 1.24-.42.36-.976.658-1.67.892.744.188 1.312.398 1.704.625.572.32 1.017.766 1.35 1.338.335.574.502 1.206.502 1.91 0 .83-.26 1.606-.765 2.31zm-6.87-22.636c-9.33 0-16.895 7.565-16.895 16.896 0 9.33 7.565 16.896 16.895 16.896 9.327 0 16.892-7.56 16.892-16.896-.002-9.33-7.566-16.896-16.892-16.896zm3.195 18.703c.22.33.328.726.328 1.19 0 .555-.158 1.028-.467 1.418-.308.39-.68.65-1.122.78-.445.12-1.002.19-1.67.19H20.1c-.383 0-.62-.025-.707-.067-.086-.038-.15-.114-.188-.22-.033-.082-.05-.36-.053-.85v-3.427h2.046c.897 0 1.563.082 2.004.25.443.167.766.41.988.735zm-3.304-3.312h-1.734v-3.86h1.734c1.013 0 1.718.06 2.107.19.394.12.7.338.9.63.207.293.317.65.317 1.065 0 .402-.114.758-.33 1.063-.224.306-.55.535-.98.687-.432.15-1.105.226-2.014.226zm.11 20.382c-10.427 0-18.878-8.454-18.878-18.88 0-10.424 8.45-18.88 18.877-18.88 10.423 0 18.874 8.456 18.874 18.88-.003 10.427-8.453 18.88-18.875 18.88z" id="SVGID_15_"/>
            </g>
            <g id="Clipped" transform="translate(2 2)">
                <mask id="h" fill="#fff">
                    <use xlink:href="#g"/>
                </mask>
                <path id="Rectangle-path" fill="#FFF" mask="url(#h)" d="M-.828-.108h39.64V39.54H-.827z"/>
            </g>
        </g>
        <g>
            <path d="M480.715 5c36.114 0 65.495 29.38 65.495 65.495 0 36.114-29.38 65.495-65.495 65.495-36.114 0-65.495-29.38-65.495-65.495C415.22 34.38 444.6 5 480.715 5zm0-5C441.78 0 410.22 31.562 410.22 70.495c0 38.933 31.562 70.495 70.495 70.495 38.933 0 70.495-31.562 70.495-70.495C551.21 31.562 519.65 0 480.715 0z" id="Shape" fill="#93C4D2"/>
            <path id="Rectangle-path" fill="#FFF" d="M393.886 53.574h38.668V70.24h-38.668z"/>
            <path id="Rectangle-path" fill="#FFF" d="M534.886 77.24h23.334v16.666h-23.334z"/>
            <path d="M413.506 66.095l-13.75 13.75 3.36 3.358 10.4-10.402 10.475 10.475 3.36-3.36-13.833-13.83-.01.01z" id="Shape" fill="#93C4D2"/>
            <path d="M549.267 82.6l13.75-13.75-3.36-3.358-10.4 10.4-10.474-10.474-3.36 3.36 13.833 13.83.01-.008z" fill="#93C4D2"/>
        </g>
        <g fill="#F8CF5E">
            <path d="M16.47 43.517c5.628 0 10.19-4.562 10.19-10.19 0-5.628-4.562-10.19-10.19-10.19-5.628 0-10.19 4.562-10.19 10.19 0 5.628 4.562 10.19 10.19 10.19zm3.874 3.157h-7.75C1.114 45.814.97 51.3.97 57.008v25.26c0 3.944 2.487 7.37 6.143 9.112-.21.798-.332 1.63-.332 2.495v25.618c0 5.438 4.41 9.85 9.85 9.85 5.44 0 9.85-4.41 9.85-9.85V93.875c0-.917-.136-1.8-.37-2.643 3.498-1.782 5.86-5.125 5.86-8.965v-25.26c0-5.706.43-11.194-11.626-10.333z" id="Oval" opacity=".597"/>
            <path d="M101.22 43.517c5.628 0 10.19-4.562 10.19-10.19 0-5.628-4.562-10.19-10.19-10.19-5.628 0-10.19 4.562-10.19 10.19 0 5.628 4.562 10.19 10.19 10.19zm3.874 3.157h-7.75c-11.48-.86-11.625 4.626-11.625 10.333v25.26c0 3.944 2.487 7.37 6.143 9.112-.21.797-.332 1.63-.332 2.494v25.618c0 5.438 4.41 9.85 9.85 9.85 5.44 0 9.85-4.41 9.85-9.85V93.875c0-.917-.136-1.8-.37-2.643 3.498-1.782 5.86-5.125 5.86-8.965v-25.26c0-5.706.43-11.194-11.626-10.333z" id="Oval" opacity=".6"/>
            <path d="M58.845 38.24c6.535 0 11.833-5.3 11.833-11.834 0-6.535-5.298-11.833-11.833-11.833S47.012 19.87 47.012 26.406 52.31 38.24 58.845 38.24zm4.5 3.666h-9c-13.334-1-13.5 5.373-13.5 12V83.24c0 4.58 2.888 8.56 7.134 10.58-.244.928-.386 1.896-.386 2.898v29.75c0 6.316 5.12 11.438 11.438 11.438 6.317 0 11.438-5.12 11.438-11.438v-29.75c0-1.064-.157-2.09-.43-3.068 4.063-2.07 6.805-5.95 6.805-10.41V53.905c0-6.627.5-13-13.5-12z"/>
        </g>
        <g>
            <g transform="translate(687 75)" id="Clipped">
                <mask id="j" fill="#fff">
                    <use xlink:href="#i"/>
                </mask>
                <g transform="translate(1)" mask="url(#j)">
                    <mask id="l" fill="#fff">
                        <use xlink:href="#k"/>
                    </mask>
                    <g transform="translate(-1)" id="Clipped" mask="url(#l)">
                        <mask id="n" fill="#fff">
                            <use xlink:href="#m"/>
                        </mask>
                        <path id="Rectangle-path" fill="#F8CF5E" mask="url(#n)" d="M-5.073-6.325h45.566v45.57H-5.073z"/>
                    </g>
                </g>
            </g>
            <g id="Group">
                <g fill="#F8CF5E">
                    <path d="M654.345 85.332c-3.632-1.315-5.982-2.974-5.982-6.19 0-2.98 2.07-5.264 5.568-5.885v-3.394h2.84v3.223c2.18.067 3.667.585 4.776 1.14l-.938 3.186c-.828-.383-2.35-1.18-4.703-1.18-2.425 0-3.288 1.247-3.288 2.423 0 1.42 1.24 2.218 4.184 3.394 3.883 1.45 5.61 3.32 5.61 6.402 0 2.937-2.04 5.532-5.848 6.16v3.562h-2.837v-3.36c-2.183-.068-4.363-.69-5.606-1.52l.93-3.253c1.355.8 3.292 1.524 5.4 1.524 2.18 0 3.672-1.072 3.672-2.735-.005-1.56-1.218-2.56-3.777-3.498zm.918 17.66c10.48 0 18.975-8.49 18.975-18.97 0-10.48-8.496-18.977-18.975-18.977-10.48 0-18.972 8.495-18.972 18.976.002 10.48 8.493 18.972 18.973 18.972z" id="SVGID_17_"/>
                </g>
                <g id="Clipped" transform="translate(636 65)">
                    <mask id="p" fill="#fff">
                        <use xlink:href="#o"/>
                    </mask>
                    <path id="Rectangle-path" fill="#F8CF5E" mask="url(#p)" d="M-6.34-6.584h51.21v51.208H-6.34z"/>
                </g>
            </g>
            <g id="Group">
                <g fill="#F8CF5E">
                    <path d="M674.944 50.057h1.947v-.56c0-.414.038-.864.067-1.247h-2.014v-2.147h2.33c.414-2.117 1.35-3.924 2.598-5.238 1.875-2.082 4.406-3.262 7.496-3.262 2.08 0 3.815.523 4.96 1.077l-.865 3.225c-.903-.488-2.323-.937-3.885-.937-1.735 0-3.263.625-4.405 1.91-.73.76-1.254 1.904-1.528 3.225h9.09v2.147h-9.508c-.068.383-.068.796-.068 1.217v.59h9.577v2.117h-9.194c.244 1.49.76 2.6 1.495 3.4 1.176 1.278 2.842 1.867 4.643 1.867 1.703 0 3.298-.588 4.096-1.038l.73 3.12c-1.145.7-3.086 1.393-5.305 1.393-3.16 0-6.007-1.252-7.843-3.576-1.107-1.285-1.874-3.02-2.186-5.166h-2.226v-2.117zm9.992 18.22c10.506 0 19.02-8.516 19.02-19.02 0-10.505-8.514-19.02-19.02-19.02-10.503 0-19.02 8.515-19.02 19.02 0 10.504 8.517 19.02 19.02 19.02z" id="SVGID_19_"/>
                </g>
                <g id="Clipped" transform="translate(665 30)">
                    <mask id="r" fill="#fff">
                        <use xlink:href="#q"/>
                    </mask>
                    <path id="Rectangle-path" fill="#F8CF5E" mask="url(#r)" d="M-5.708-6.388h51.29v51.29h-51.29z"/>
                </g>
            </g>
            <g fill="#F8CF5E">
                <path d="M720.333 50.646l2.56 5.514c.543 1.124.88 2.068 1.277 3.043h.063c.362-.912.758-1.978 1.275-3.106l2.648-5.45h3.958l-5.33 8.922h3.778v1.856h-4.78V63.5h4.78v1.857h-4.78v5.08h-3.504v-5.08h-4.747V63.5h4.748v-2.074h-4.747V59.57h3.81l-5.055-8.923h4.048zm3.868 26.586c9.218 0 16.69-7.47 16.69-16.688 0-9.22-7.473-16.695-16.69-16.695-9.222 0-16.692 7.475-16.692 16.694 0 9.218 7.47 16.688 16.693 16.688z" id="SVGID_21_"/>
            </g>
            <g transform="translate(707 43)">
                <mask id="t" fill="#fff">
                    <use xlink:href="#s"/>
                </mask>
                <path fill="#F8CF5E" mask="url(#t)" d="M-6.247-5.904h46.89v46.89h-46.89z"/>
            </g>
        </g>
        <g>
            <path d="M440.186 69.674l20.983 36.253h41.962l-15.736-27.19h-10.49l-5.246-9.063" fill="#F9CF5E"/>
            <path d="M471.66 70.347h-31.474l20.983-36.254h41.962l-15.736 27.19h-10.49l-5.246 9.064" fill="#F9CF5E"/>
            <path d="M502.537 107.497c-.517 0-1.02-.27-1.3-.747l-15.3-26.443h-9.626c-.535 0-1.03-.285-1.296-.747l-4.816-8.315h-30.606c-.828 0-1.5-.67-1.5-1.495 0-.825.672-1.495 1.5-1.495h30.606l4.816-8.317c.266-.462.76-.747 1.297-.747h9.626l15.302-26.442c.416-.716 1.333-.96 2.048-.546.716.412.962 1.325.548 2.04L488.1 61.433c-.268.464-.763.75-1.3.75h-9.624l-4.38 7.568 4.38 7.567h9.625c.537 0 1.032.285 1.3.748l15.734 27.19c.414.715.168 1.628-.548 2.04-.237.14-.493.202-.75.202" fill="#343558"/>
            <path d="M475.767 61.302l5.246 9.064" stroke="#FFF" stroke-width="2" stroke-linejoin="round"/>
            <path d="M461.02 109.59c-.338 0-.682-.086-.998-.267-.64-.37-1-1.04-1-1.728 0-.34.087-.682.27-.995l20.403-35.256-20.404-35.258 3.462-1.993 20.404 35.258h40.81v3.988h-40.81l-20.404 35.255c-.37.64-1.04.997-1.733.997" fill="#343558"/>
            <path d="M501.943 110.487H459.98c-1.07 0-2.06-.57-2.595-1.495L436.402 72.74c-.536-.925-.536-2.068 0-2.99l20.983-36.255C457.92 32.57 458.91 32 459.98 32h41.905c1.093.02 2.088.518 2.65 1.495L525.52 69.75c.535.922.535 2.065 0 2.99l-20.984 36.252c-.533.925-1.524 1.495-2.593 1.495zm-40.232-5.98h38.5l19.253-33.262L500.21 37.98h-38.5L442.46 71.245l19.253 33.262z" fill="#343558"/>
        </g>
    </g>
</svg>
