<?xml version="1.0" encoding="utf-8"?>
<!-- Generator: Adobe Illustrator 19.0.0, SVG Export Plug-In . SVG Version: 6.00 Build 0)  -->
<!DOCTYPE svg PUBLIC "-//W3C//DTD SVG 1.1//EN" "http://www.w3.org/Graphics/SVG/1.1/DTD/svg11.dtd" [
	<!ENTITY ns_extend "http://ns.adobe.com/Extensibility/1.0/">
	<!ENTITY ns_ai "http://ns.adobe.com/AdobeIllustrator/10.0/">
	<!ENTITY ns_graphs "http://ns.adobe.com/Graphs/1.0/">
	<!ENTITY ns_vars "http://ns.adobe.com/Variables/1.0/">
	<!ENTITY ns_imrep "http://ns.adobe.com/ImageReplacement/1.0/">
	<!ENTITY ns_sfw "http://ns.adobe.com/SaveForWeb/1.0/">
	<!ENTITY ns_custom "http://ns.adobe.com/GenericCustomNamespace/1.0/">
	<!ENTITY ns_adobe_xpath "http://ns.adobe.com/XPath/1.0/">
]>
<svg version="1.1" id="Слой_1" xmlns:x="&ns_extend;" xmlns:i="&ns_ai;" xmlns:graph="&ns_graphs;"
	 xmlns="http://www.w3.org/2000/svg" xmlns:xlink="http://www.w3.org/1999/xlink" x="0px" y="0px" width="1774px" height="2002px"
	 viewBox="0 0 1774 2002" enable-background="new 0 0 1774 2002" xml:space="preserve">
<metadata>
	<sfw  xmlns="&ns_sfw;">
		<slices></slices>
		<sliceSourceBounds  height="2010.476" width="1783.489" bottomLeftOrigin="true" x="-4.619" y="-4.247"></sliceSourceBounds>
	</sfw>
</metadata>
<g>
	<defs>
		<path id="SVGID_1_" d="M1661.589,850.568H112.65v-91.209h1548.939V850.568z M1746.37,1076.002h-132.902H1512.65h-146.646h-100.817
			h-146.643H655.691H509.052H408.235H261.589H160.771H27.873V878.064h71.032h1576.435h71.036v197.938H1746.37z M1746.37,1973.755
			H27.869v-45.821h132.895h100.817h146.646h100.821h146.643h462.85h146.646h100.817h146.646h100.818h132.902V1973.755z
			 M147.023,1900.434H27.873v-796.94h119.15V1900.434z M394.487,1900.434h-119.15v-796.94h119.15V1900.434z M641.951,1900.434
			H522.804v-796.94h119.147V1900.434z M1251.439,1900.434h-119.158v-796.94h119.158V1900.434z M1498.903,1900.434h-119.155v-796.94
			h119.155V1900.434z M1746.37,1900.434h-119.154v-796.94h119.154V1900.434z M1599.727,1103.494v796.948h-73.321v-796.948H1599.727z
			 M1352.264,1103.494v796.948h-73.318v-796.948H1352.264z M1104.796,1103.494v796.948h-435.35v-796.948H1104.796z
			 M495.304,1103.494v796.948h-73.321v-796.948H495.304z M247.841,1103.494v796.948h-73.321v-796.948H247.841z M27.869,707.418
			H1746.37v24.438h-71.033H98.898H27.869V707.418z M351.331,421.009c0-42.115,34.264-76.379,76.375-76.379
			c42.115,0,76.379,34.264,76.379,76.379v258.913H351.331V421.009z M762.933,442.694c0-68.476,55.708-124.195,124.192-124.195
			c68.472,0,124.184,55.716,124.184,124.195v237.221H762.933V442.694z M842.823,72.564c0-24.43,19.872-44.298,44.298-44.298
			c24.43,0,44.298,19.872,44.298,44.298c0,24.427-19.872,44.302-44.298,44.302S842.823,96.995,842.823,72.564z M1270.157,421.009
			c0-42.115,34.264-76.379,76.375-76.379c42.119,0,76.38,34.264,76.38,76.379v258.913h-152.755V421.009z M1760.114,759.355
			c7.602,0,13.748-6.153,13.748-13.747v-51.942c0-7.594-6.15-13.747-13.748-13.747h-309.71V420.998
			c0-57.27-46.591-103.871-103.872-103.871c-57.269,0-103.867,46.594-103.867,103.871v258.921h-203.852V442.69
			c0-79.003-60.723-144.058-137.932-151.034V143.004c33.028-6.432,58.046-35.557,58.046-70.44c0-39.588-32.206-71.793-71.798-71.793
			c-39.577,0-71.787,32.205-71.787,71.793c0,34.883,25.015,64.008,58.042,70.44V291.66
			c-77.216,6.975-137.936,72.031-137.936,151.034v237.228H531.593V421.001c0-57.273-46.598-103.871-103.875-103.871
			c-57.277,0-103.875,46.595-103.875,103.871v258.921H14.129c-7.594,0-13.748,6.154-13.748,13.748v51.941
			c0,7.594,6.158,13.748,13.748,13.748h71.029v91.209H14.129c-7.594,0-13.748,6.158-13.748,13.748v225.43v824.443v73.313
			c0,7.587,6.158,13.744,13.748,13.744h1745.993c7.598,0,13.748-6.157,13.748-13.744v-73.313v-824.443V864.308
			c0-7.59-6.154-13.747-13.748-13.747h-71.033v-91.209L1760.114,759.355z"/>
	</defs>
	<clipPath id="SVGID_2_">
		<use xlink:href="#SVGID_1_"  overflow="visible"/>
	</clipPath>
	<rect x="-4.619" y="-4.229" clip-path="url(#SVGID_2_)" width="1783.489" height="2010.476"/>
</g>
</svg>
