<?xml version="1.0" encoding="utf-8"?>
<!-- Generator: Adobe Illustrator 19.0.0, SVG Export Plug-In . SVG Version: 6.00 Build 0)  -->
<!DOCTYPE svg PUBLIC "-//W3C//DTD SVG 1.1//EN" "http://www.w3.org/Graphics/SVG/1.1/DTD/svg11.dtd" [
	<!ENTITY ns_extend "http://ns.adobe.com/Extensibility/1.0/">
	<!ENTITY ns_ai "http://ns.adobe.com/AdobeIllustrator/10.0/">
	<!ENTITY ns_graphs "http://ns.adobe.com/Graphs/1.0/">
	<!ENTITY ns_vars "http://ns.adobe.com/Variables/1.0/">
	<!ENTITY ns_imrep "http://ns.adobe.com/ImageReplacement/1.0/">
	<!ENTITY ns_sfw "http://ns.adobe.com/SaveForWeb/1.0/">
	<!ENTITY ns_custom "http://ns.adobe.com/GenericCustomNamespace/1.0/">
	<!ENTITY ns_adobe_xpath "http://ns.adobe.com/XPath/1.0/">
]>
<svg version="1.1" id="Layer_1" xmlns:x="&ns_extend;" xmlns:i="&ns_ai;" xmlns:graph="&ns_graphs;"
	 xmlns="http://www.w3.org/2000/svg" xmlns:xlink="http://www.w3.org/1999/xlink" x="0px" y="0px" width="1440px" height="2000px"
	 viewBox="0 0 1440 2000" enable-background="new 0 0 1440 2000" xml:space="preserve">
<metadata>
	<sfw  xmlns="&ns_sfw;">
		<slices></slices>
		<sliceSourceBounds  height="248" width="222.888" x="608.232" y="875" bottomLeftOrigin="true"></sliceSourceBounds>
	</sfw>
</metadata>
<g>
	<g>
		<defs>
			<rect id="SVGID_1_" x="609.232" y="878" width="220.415" height="246"/>
		</defs>
		<clipPath id="SVGID_2_">
			<use xlink:href="#SVGID_1_"  display="none" overflow="visible"/>
		</clipPath>
		<path clip-path="url(#SVGID_2_)" fill="none" stroke="#EACF66" stroke-width="2" stroke-miterlimit="10" d="M743.571,1010.961
			c-1.121-1.921-2.626-3.395-4.516-4.452c-1.346-0.768-3.235-1.473-5.703-2.081c2.307-0.802,4.165-1.795,5.574-3.011
			c1.41-1.185,2.498-2.595,3.235-4.165c0.769-1.57,1.12-3.203,1.12-4.969c0-2.402-0.672-4.608-2.113-6.626
			c-1.408-2.026-3.427-3.56-6.087-4.649c-0.991-0.42-2.24-0.736-3.554-0.993v-9.357h-8.969v8.749h-5.766v-8.749h-8.997v8.749
			h-13.678v7.331h2.074c1.377,0,2.346,0.1,2.855,0.356c0.481,0.26,0.837,0.612,1.025,1.024c0.196,0.449,0.289,1.441,0.289,3.007
			v29.574c0,1.568-0.092,2.562-0.289,2.978c-0.188,0.449-0.544,0.802-1.025,1.025c-0.508,0.256-1.445,0.384-2.855,0.384h-2.074
			v7.336h13.678v8.712h8.961v-8.712h5.129c0.223,0,0.448-0.032,0.673-0.032v8.744h8.969v-9.48c1.505-0.288,2.851-0.642,3.971-1.121
			c3.108-1.218,5.478-3.043,7.176-5.414c1.698-2.369,2.562-4.964,2.562-7.751C745.237,1014.997,744.692,1012.884,743.571,1010.961
			L743.571,1010.961z M713.494,987.959h5.83c3.395,0,5.734,0.192,7.047,0.608c1.312,0.416,2.338,1.125,3.043,2.114
			c0.673,0.993,1.024,2.174,1.024,3.551c0,1.346-0.352,2.571-1.089,3.563c-0.736,1.025-1.825,1.794-3.298,2.307
			c-1.441,0.512-3.686,0.768-6.728,0.768h-5.83V987.959z M729.926,1020.7c-1.024,1.312-2.306,2.178-3.78,2.626
			c-1.473,0.384-3.362,0.607-5.604,0.607h-3.872c-1.289,0-2.081-0.062-2.378-0.19c-0.289-0.16-0.477-0.386-0.609-0.737
			c-0.088-0.288-0.156-1.25-0.188-2.883v-11.468h6.854c3.012,0,5.253,0.288,6.728,0.833c1.441,0.545,2.562,1.378,3.3,2.467
			c0.736,1.089,1.087,2.435,1.087,4.004C731.463,1017.817,730.952,1019.386,729.926,1020.7L729.926,1020.7z M820.639,1046.612
			c-0.705-9.769-5.286-20.948-13.709-32.928c-1.826-2.595-3.876-5.19-6.023-7.784c2.146-2.594,4.196-5.189,6.023-7.815
			c13.9-19.667,17.488-37.38,10.09-49.876c-6.15-10.351-18.931-15.796-36.997-15.796c-6.116,0-12.651,0.616-19.475,1.83
			c-6.471-17.261-15.278-30.173-25.497-36.712c0.257-1.182,0.481-2.403,0.481-3.68c0-8.745-7.111-15.852-15.856-15.852
			c-8.781,0-15.855,7.107-15.855,15.852c0,1.277,0.196,2.498,0.48,3.68c-10.25,6.539-19.055,19.451-25.533,36.712
			c-6.79-1.214-13.349-1.83-19.475-1.83c-18.066,0-30.842,5.445-36.956,15.796c-7.408,12.496-3.848,30.209,10.086,49.876
			c1.826,2.627,3.844,5.222,5.994,7.815c-2.15,2.595-4.168,5.189-5.994,7.784c-8.456,11.948-13.041,23.159-13.71,32.928
			c-5.569,2.466-9.481,8.008-9.481,14.51c0,8.745,7.111,15.855,15.86,15.855c3.327,0,6.402-1.024,8.928-2.754
			c6.603,3.396,15.055,5.188,25.273,5.188c6.15,0,12.685-0.64,19.475-1.857c9.554,25.465,24.192,41.512,40.908,41.512
			c16.688,0,31.327-16.047,40.872-41.512c6.823,1.218,13.358,1.857,19.475,1.857c10.219,0,18.707-1.825,25.273-5.188
			c2.561,1.729,5.639,2.754,8.97,2.754c8.743,0,15.854-7.11,15.854-15.855C830.088,1054.62,826.213,1049.078,820.639,1046.612
			L820.639,1046.612z M780.022,938.952c10.892,0,25.178,2.178,31.327,12.584c5.927,9.998,2.339,25.569-9.802,42.77
			c-1.537,2.21-3.204,4.38-4.996,6.598c-7.433-8.268-16.241-16.303-26.138-23.898c-1.568-13.289-4.163-25.557-7.688-36.424
			C768.812,939.557,774.643,938.952,780.022,938.952L780.022,938.952z M743.092,1045.396c-7.721,4.581-15.567,8.616-23.416,12.139
			c-7.848-3.522-15.728-7.557-23.418-12.139c-7.46-4.389-14.471-9.161-21.073-14.062c-0.893-8.2-1.441-16.687-1.441-25.434
			c0-8.712,0.548-17.2,1.441-25.4c6.602-4.937,13.613-9.678,21.073-14.098c7.727-4.549,15.571-8.585,23.418-12.143
			c7.848,3.559,15.727,7.595,23.416,12.143c7.431,4.42,14.445,9.161,21.075,14.098c0.897,8.2,1.41,16.688,1.41,25.4
			c0,8.746-0.513,17.233-1.41,25.434C757.537,1036.234,750.522,1041.007,743.092,1045.396L743.092,1045.396z M763.014,1040.271
			c-1.665,10.699-4.003,20.66-6.949,29.597c-9.065-2.018-18.579-4.965-28.283-8.905c6.214-3.011,12.459-6.245,18.641-9.93
			C752.188,1047.637,757.696,1044.018,763.014,1040.271L763.014,1040.271z M711.568,1060.994
			c-9.702,3.908-19.247,6.855-28.279,8.873c-2.947-8.937-5.317-18.866-6.947-29.564c5.313,3.715,10.791,7.334,16.557,10.763
			C699.08,1054.717,705.327,1057.984,711.568,1060.994L711.568,1060.994z M668.01,1025.728
			c-7.848-6.374-14.867-13.036-20.917-19.827c6.05-6.79,13.069-13.42,20.917-19.831c-0.517,6.434-0.837,13.041-0.837,19.831
			C667.173,1012.691,667.493,1019.29,668.01,1025.728L668.01,1025.728z M676.342,971.527c1.63-10.698,4-20.664,6.947-29.569
			c9.033,1.995,18.578,4.969,28.279,8.873c-6.242,2.987-12.456,6.25-18.67,9.93C687.165,964.156,681.655,967.78,676.342,971.527
			L676.342,971.527z M727.781,950.831c9.704-3.904,19.218-6.879,28.283-8.873c2.946,8.905,5.284,18.871,6.949,29.569
			c-5.317-3.747-10.826-7.371-16.56-10.767C740.24,957.081,733.995,953.818,727.781,950.831L727.781,950.831z M771.343,986.07
			c7.848,6.41,14.862,13.041,20.916,19.831c-6.054,6.791-13.068,13.453-20.916,19.827c0.513-6.438,0.801-13.036,0.801-19.827
			C772.144,999.11,771.822,992.504,771.343,986.07L771.343,986.07z M707.216,903.557c2.919,3.716,7.372,6.15,12.46,6.15
			c5.061,0,9.546-2.434,12.429-6.15c8.454,5.733,15.951,17.073,21.717,32.128c-10.924,2.471-22.455,6.31-34.146,11.399
			c-11.724-5.089-23.223-8.928-34.177-11.399C691.265,920.629,698.792,909.29,707.216,903.557L707.216,903.557z M637.768,994.306
			c-12.135-17.201-15.727-32.772-9.797-42.77c6.182-10.406,20.433-12.584,31.323-12.584c5.385,0,11.219,0.605,17.301,1.629
			c-3.491,10.867-6.118,23.135-7.691,36.424c-9.862,7.595-18.703,15.631-26.134,23.898
			C641.007,998.686,639.31,996.516,637.768,994.306L637.768,994.306z M659.293,1072.846c-6.471,0-14.154-0.801-20.625-3.651
			c1.409-2.369,2.274-5.124,2.274-8.072c0-8.615-6.854-15.567-15.411-15.822c1.029-8.168,5.093-17.681,12.235-27.804
			c1.542-2.179,3.239-4.389,5.001-6.566c7.431,8.232,16.273,16.272,26.134,23.863c1.573,13.294,4.2,25.593,7.691,36.419
			C670.512,1072.236,664.679,1072.846,659.293,1072.846L659.293,1072.846z M719.676,1112.502c-13.421,0-25.689-14.255-34.177-36.356
			c10.955-2.468,22.454-6.31,34.177-11.436c11.691,5.126,23.222,8.968,34.146,11.436
			C745.333,1098.247,733.098,1112.502,719.676,1112.502L719.676,1112.502z M780.022,1072.846c-5.38,0-11.21-0.609-17.264-1.634
			c3.492-10.826,6.087-23.125,7.655-36.419c9.896-7.591,18.738-15.631,26.138-23.863c1.792,2.178,3.459,4.355,4.996,6.566
			c7.143,10.09,11.243,19.636,12.27,27.804c-8.555,0.224-15.44,7.207-15.44,15.822c0,2.948,0.865,5.703,2.273,8.072
			C794.182,1072.014,786.524,1072.846,780.022,1072.846L780.022,1072.846z M780.022,1072.846"/>
		
			<use xlink:href="#SVGID_1_"  display="none" overflow="visible" fill="none" stroke="#EACF66" stroke-width="2" stroke-miterlimit="10"/>
	</g>
</g>
</svg>
