<?xml version="1.0" encoding="utf-8"?>
<!-- Generator: Adobe Illustrator 19.0.0, SVG Export Plug-In . SVG Version: 6.00 Build 0)  -->
<!DOCTYPE svg PUBLIC "-//W3C//DTD SVG 1.1//EN" "http://www.w3.org/Graphics/SVG/1.1/DTD/svg11.dtd" [
	<!ENTITY ns_extend "http://ns.adobe.com/Extensibility/1.0/">
	<!ENTITY ns_ai "http://ns.adobe.com/AdobeIllustrator/10.0/">
	<!ENTITY ns_graphs "http://ns.adobe.com/Graphs/1.0/">
	<!ENTITY ns_vars "http://ns.adobe.com/Variables/1.0/">
	<!ENTITY ns_imrep "http://ns.adobe.com/ImageReplacement/1.0/">
	<!ENTITY ns_sfw "http://ns.adobe.com/SaveForWeb/1.0/">
	<!ENTITY ns_custom "http://ns.adobe.com/GenericCustomNamespace/1.0/">
	<!ENTITY ns_adobe_xpath "http://ns.adobe.com/XPath/1.0/">
]>
<svg version="1.1" id="Слой_1" xmlns:x="&ns_extend;" xmlns:i="&ns_ai;" xmlns:graph="&ns_graphs;"
	 xmlns="http://www.w3.org/2000/svg" xmlns:xlink="http://www.w3.org/1999/xlink" x="0px" y="0px" width="430px" height="430px"
	 viewBox="0 0 430 430" enable-background="new 0 0 430 430" xml:space="preserve">
<metadata>
	<sfw  xmlns="&ns_sfw;">
		<slices></slices>
		<sliceSourceBounds  height="439.536" width="439.403" bottomLeftOrigin="true" y="-4.536" x="-4.934"></sliceSourceBounds>
	</sfw>
</metadata>
<g>
	<defs>
		<path id="SVGID_1_" d="M325.152,117.597l-2.957,0.256l-0.597,2.853l-2.275,1.422l-3.649,0.294
			c-0.142-0.853-0.199-1.517-0.199-1.517h-1.422v-3.052h5.962l1.242-3.185l2.37-0.057l2.701,0.578L325.152,117.597z
			 M309.987,122.914l-4.332,0.36l0.227-3.005l1.924-2.408l2.597,2.038L309.987,122.914z M160.808,92.584l-0.872,5.44h-3.886
			c-0.445,0-0.872-5.981-0.872-6.312L160.808,92.584z M97.437,319.228h-9.346v-9.848l-5.346,0.512l-5.014,5.355l-13.829,0.872
			l-0.171-6.388h4.151l-0.171-3.128l-6.407-3.355l-11.402-1.649l-5.279-6.493l7.867-7.867l5.535,3.298l-0.445,6.028l5.791-0.161
			l6.237-3.298l22.293,10.123l0.853,11.999h4.682V319.228z M214.692,0C142.051,0,77.76,36.292,38.861,91.664l29.269,1.507
			l22.027,9.327l-3.109,2.635l-16.331-2.635l-0.256,3.156l5.962,4.113l-7.772,1.545v4.673l-16.066,1.033l12.18,11.402l2.076,9.327
			L61.4,140.6l-17.127-13.999v-6.483l4.161-6.483l-3.109-3.886l-18.682,12.445l-5.516-0.493c-1.81,3.791-3.497,7.658-5.109,11.573
			l9.071,1.099l8.644,9.848l-2.152,2.863l-6.758-6.749l-3.09,3.365l5.26,6.938l-1.128,13.052l-13.81-0.019l-0.701,10.53l11.677,7.09
			l4.038,5.346l-6.123,1.649L3.64,175.092c-1.147,6.237-2.095,12.559-2.701,18.975l7.327,7.687l1.185,12.028l-7.943,6.625
			l-1.441,0.54c0.445,15.421,2.502,30.416,6.019,44.851c1.649,6.72,3.611,13.307,5.867,19.753c0.815,2.332,1.668,4.625,2.569,6.919
			l8.701-3.384l0.133,16.833l-2.967,0.265c0.701,1.479,1.441,2.957,2.171,4.426h2.929l-0.777,2.72l-0.891-0.275
			c0.408,0.777,0.777,1.554,1.185,2.313c0.464,0.882,0.929,1.754,1.403,2.606c2.133,3.877,4.407,7.677,6.777,11.393l3.242-0.228
			v3.782h3.46l8.483-12.028h11.791l10.019,6.038l-4.701,4.587l-5.592-1.128l0.37,7.573l2.948,1.782l10.549,0.796l2.256-19.099
			l5.535,0.246l6.123,10.511l0.701,15.213l9.308,7.981l2.502,10.218l-6.038,13.8l-7.867,7.393
			c7.308,5.478,15.033,10.464,23.032,14.995l7.09-0.986l6.038-4.142l0.872-13.241l6.891-0.408l0.114,8.474l3.753-0.739l2.54,4.54
			l-6.919,3.924l-6.891,3.052l-5.668,3.715c29.307,15.014,62.462,23.544,97.579,23.544c32.036,0,62.452-7.109,89.797-19.762
			l-10.663-9.308l-9.611-16.852l1.365-16.284l-7.289-9.677l2.967-16.397l-4.332-1.223v-35.6c0,0-12.075-9.175-12.786-9.175
			c-0.692,0-6.407-1.545-6.407-1.545l-1.223-6.739l-15.715-19.705l1.554-7.08l0.521-11.592l10.862-7.611l-1.535-12.938
			l-15.895-1.204l-12.445-14.18l-8.824-2.388l-5.706-1.043l0.701-5.185l-7.279-1.033v2.948l-18.141-4.502l-7.308-11.165l2.976-5.421
			l-11.497-16.777l-1.962-12.265h-4.682l1.573,11.914l7.924,12.274l-0.853,4.853l-6.739-1.033l-8.293-14.142v-16.445l-8.625-4.151
			V130.79l16.066-19.535l-1.052-11.668l4.502-3.194l-5.327-5.014l0.332-8.815l-6.388-5.706h-17.81l-2.929,3.109l-21.269-0.171
			l-7.772-6.568l6.057-4.313h15.554v-2.91l-7.26-1.071l4.682-3.63l10.18-1.564l15.203-10.36h26.264l14.369,4.313l4.834,2.768
			l4.313,0.341l6.407-6.218l20.738-0.18l4.663,2.597l8.815,1.896l0.682,3.45l13.999,0.521l-1.886-4.493l-12.445-0.341l2.948-2.768
			l-1.024-3.289h-11.26l12.293-9.156h11.753l5.497,7.602l9.184,0.521l5.516-5.355l4.161,2.076l-7.611,7.431
			c0,0-10.53,0.18-10.037,0.18c0.54,0,0.872,7.26,0.872,7.26l12.777-0.341l1.384-3.46l8.815-0.521l1.033-5.185l-5.175-0.872
			l1.734-4.663l3.981-1.204l13.81,0.682l-7.611,6.919l1.223,5.346l7.962,1.213l-0.55-9.687l7.621-3.962l13.497-1.554l19.516,8.644
			v7.421l6.237,1.555l-3.109,5.886h-8.815l-2.607,6.729l-20.16-4.749l15.829-8.445l-6.038-5.128l-13.658,1.734l-1.185,1.232
			l-0.047-0.019l-0.237,0.294l-3.905,4.085l-6.521,0.55l0.54,3.242l2.256,0.938l-0.095,1.071l-5.298,0.749l-0.37,3.071l-5.052,0.256
			l-0.91-6.095l-9.071,2.758l-18.549,10.853l2.095,7.649l5.185,3.365l10.35,1.431v11.782l4.796-0.768l4.426-9.213l11.014-3.488
			V74.509l6.123-4.625l14.824,3.497l-1.033,9.346h3.962l10.9-5.355l0.521,12.274l7.943,4.834l-0.351,7.26l-7.592,2.588l0.521,2.408
			l9.147,4.161l-0.171,5.014l-2.663,0.218c0-0.095-0.038-0.133-0.038-0.133l-11.535-3.573l-0.502-3.697l3.355-2.322v-3.384
			l-3.63-0.91l-0.919,3.118l-6.369,0.986l-0.616-0.218v0.313l-2.189,0.332l-1.81-3.63l-2.076-0.91h-4.549l-2.057,1.687v3.763
			l3.886,1.289l3.829,0.54l-0.862,0.379l-3.488,3.877l-1.555-1.943l-3.365-0.891l-9.222,8.663l1.204,0.986l-13.601,7.535
			l-12.805,13.307l-0.872,5.924l-12.834,8.426l-6.331,6.388l0.692,12.796l-8.815-4.104l0.057-7.488l-24.53,0.01l-12.691,6.436
			l-5.535,10.161l-2.171,8.076l3.554,7.82l10.018,1.213l15.904-10.625l1.403,5.279l-4.853,9.165l12.104,2.066l1.223,18.701
			l16.587,2.815l10.521-12.18l12.805,2.597l4.502,6.237l12.274-0.711l0.351-3.64l6.72,3.298l7.63,11.914l13.127,0.19l4.834,8.483
			l0.682,10.369l14.53,5.535l18.312,0.18l5.365,8.805l8.104,2.597l-1.554,7.241l-8.891,11.307l-2.597,25.032l-8.028,6.35
			l-11.943-0.341l-3.981,6.91l2.957,12.976l-12.957,16.587l-4.152,7.611l-12.35,5.943l-8.142,1.232l-0.322,3.45l5.706,1.63
			l-0.682,3.725l-5.09,4.938l3.09,3.905l6.142,0.171l-0.37,4.749l-1.63,4.644l-0.55,3.791l5.194,4.369
			c67.608-36.254,113.673-107.559,113.673-189.461C429.47,96.356,333.113,0,214.692,0z"/>
	</defs>
	<clipPath id="SVGID_2_">
		<use xlink:href="#SVGID_1_"  overflow="visible"/>
	</clipPath>
	<rect x="-4.934" y="-5" clip-path="url(#SVGID_2_)" width="439.403" height="439.536"/>
</g>
</svg>
