<?xml version="1.0" encoding="utf-8"?>
<!-- Generator: Adobe Illustrator 19.0.0, SVG Export Plug-In . SVG Version: 6.00 Build 0)  -->
<!DOCTYPE svg PUBLIC "-//W3C//DTD SVG 1.1//EN" "http://www.w3.org/Graphics/SVG/1.1/DTD/svg11.dtd" [
	<!ENTITY ns_extend "http://ns.adobe.com/Extensibility/1.0/">
	<!ENTITY ns_ai "http://ns.adobe.com/AdobeIllustrator/10.0/">
	<!ENTITY ns_graphs "http://ns.adobe.com/Graphs/1.0/">
	<!ENTITY ns_vars "http://ns.adobe.com/Variables/1.0/">
	<!ENTITY ns_imrep "http://ns.adobe.com/ImageReplacement/1.0/">
	<!ENTITY ns_sfw "http://ns.adobe.com/SaveForWeb/1.0/">
	<!ENTITY ns_custom "http://ns.adobe.com/GenericCustomNamespace/1.0/">
	<!ENTITY ns_adobe_xpath "http://ns.adobe.com/XPath/1.0/">
]>
<svg version="1.1" id="Слой_1" xmlns:x="&ns_extend;" xmlns:i="&ns_ai;" xmlns:graph="&ns_graphs;"
	 xmlns="http://www.w3.org/2000/svg" xmlns:xlink="http://www.w3.org/1999/xlink" x="0px" y="0px" width="562px" height="1639px"
	 viewBox="0 0 562 1639" enable-background="new 0 0 562 1639" xml:space="preserve">
<metadata>
	<sfw  xmlns="&ns_sfw;">
		<slices></slices>
		<sliceSourceBounds  height="1648.293" width="570.479" x="-4.094" y="-4.293" bottomLeftOrigin="true"></sliceSourceBounds>
	</sfw>
</metadata>
<g>
	<defs>
		<path id="SVGID_1_" d="M540.674,1617.572H21.619v-62.975h67.297h384.484h67.265v62.975H540.674z M99.276,878.581h363.768v655.295
			H99.276V878.581z M180.948,391.083h200.43l70.763,90.428H110.182L180.948,391.083z M216.05,279.516h130.223h29.787v90.849H186.257
			v-90.849H216.05z M242.809,182.461h76.701h16.403v76.335H226.401v-76.335H242.809z M309.151,112.181v49.562h-55.985v-49.562
			H309.151z M99.276,502.232h363.768V857.86H99.276V502.232z M551.028,1533.876h-67.265V491.871c0-0.096-0.029-0.187-0.029-0.286
			c-0.018-0.5-0.067-1-0.149-1.494c-0.035-0.161-0.058-0.322-0.085-0.485c-0.126-0.573-0.304-1.137-0.52-1.684
			c-0.059-0.123-0.12-0.237-0.178-0.36c-0.199-0.426-0.424-0.839-0.669-1.236c-0.102-0.158-0.21-0.316-0.318-0.471
			c-0.085-0.123-0.161-0.254-0.251-0.371l-84.787-108.337V269.153c0-5.721-4.635-10.36-10.36-10.36h-29.787v-86.692
			c0-5.721-4.635-10.361-10.359-10.361h-16.403v-59.92c0-5.721-4.635-10.357-10.359-10.357h-28.025V10.36
			c0-5.724-4.635-10.36-10.354-10.36s-10.354,4.636-10.354,10.36v81.1h-27.96c-5.722,0-10.357,4.636-10.357,10.357v59.923H216.05
			c-5.719,0-10.354,4.64-10.354,10.361v86.695h-29.79c-5.722,0-10.357,4.639-10.357,10.36V377.15L80.766,485.487
			c-0.094,0.123-0.169,0.251-0.257,0.377c-0.108,0.152-0.216,0.307-0.313,0.468c-0.257,0.403-0.482,0.818-0.675,1.245
			c-0.056,0.12-0.123,0.228-0.169,0.348c-0.228,0.549-0.4,1.117-0.529,1.69c-0.035,0.154-0.056,0.312-0.079,0.473
			c-0.088,0.5-0.143,1.006-0.155,1.512c0,0.093-0.029,0.181-0.029,0.274v1042.002H11.262c-5.716,0-10.357,4.639-10.357,10.36v83.696
			c0,5.724,4.641,10.36,10.357,10.36h539.763c5.725,0,10.359-4.636,10.359-10.36v-83.696
			C561.385,1538.516,556.753,1533.876,551.028,1533.876z"/>
	</defs>
	<clipPath id="SVGID_2_">
		<use xlink:href="#SVGID_1_"  overflow="visible"/>
	</clipPath>
	<rect x="-4.094" y="-5" clip-path="url(#SVGID_2_)" width="570.479" height="1648.293"/>
</g>
<g>
	<defs>
		<path id="SVGID_3_" d="M281.126,801.855c-70.401,0-127.671-57.309-127.671-127.745c0-70.426,57.277-127.715,127.671-127.715
			c70.421,0,127.715,57.292,127.715,127.715C408.839,744.548,351.553,801.855,281.126,801.855z M281.126,525.671
			c-81.818,0-148.382,66.588-148.382,148.439c0,81.863,66.564,148.462,148.382,148.462c81.841,0,148.428-66.6,148.428-148.462
			C429.552,592.262,362.968,525.671,281.126,525.671z"/>
	</defs>
	<clipPath id="SVGID_4_">
		<use xlink:href="#SVGID_3_"  overflow="visible"/>
	</clipPath>
	<rect x="127.745" y="520.671" clip-path="url(#SVGID_4_)" width="306.81" height="306.901"/>
</g>
<g>
	<defs>
		<path id="SVGID_5_" d="M177.444,946.002c-5.719,0-10.357,4.636-10.357,10.363v526.557c0,5.724,4.638,10.36,10.357,10.36
			c5.722,0,10.356-4.637,10.356-10.36v-526.56C187.8,950.639,183.163,946.002,177.444,946.002z"/>
	</defs>
	<clipPath id="SVGID_6_">
		<use xlink:href="#SVGID_5_"  overflow="visible"/>
	</clipPath>
	<rect x="162.087" y="941.002" clip-path="url(#SVGID_6_)" width="30.713" height="557.281"/>
</g>
<g>
	<defs>
		<path id="SVGID_7_" d="M246.132,946.002c-5.722,0-10.356,4.636-10.356,10.363v526.557c0,5.724,4.635,10.36,10.356,10.36
			c5.719,0,10.357-4.637,10.357-10.36v-526.56C256.488,950.639,251.851,946.002,246.132,946.002z"/>
	</defs>
	<clipPath id="SVGID_8_">
		<use xlink:href="#SVGID_7_"  overflow="visible"/>
	</clipPath>
	<rect x="230.775" y="941.002" clip-path="url(#SVGID_8_)" width="30.713" height="557.281"/>
</g>
<g>
	<defs>
		<path id="SVGID_9_" d="M314.808,946.002c-5.725,0-10.359,4.636-10.359,10.363v526.557c0,5.724,4.635,10.36,10.359,10.36
			c5.713,0,10.359-4.637,10.359-10.36v-526.56C325.162,950.639,320.522,946.002,314.808,946.002z"/>
	</defs>
	<clipPath id="SVGID_10_">
		<use xlink:href="#SVGID_9_"  overflow="visible"/>
	</clipPath>
	<rect x="299.449" y="941.002" clip-path="url(#SVGID_10_)" width="30.719" height="557.281"/>
</g>
<g>
	<defs>
		<path id="SVGID_11_" d="M383.491,946.002c-5.719,0-10.354,4.636-10.354,10.363v526.557c0,5.724,4.635,10.36,10.354,10.36
			c5.725,0,10.359-4.637,10.359-10.36v-526.56C393.85,950.639,389.216,946.002,383.491,946.002z"/>
	</defs>
	<clipPath id="SVGID_12_">
		<use xlink:href="#SVGID_11_"  overflow="visible"/>
	</clipPath>
	<rect x="368.137" y="941.002" clip-path="url(#SVGID_12_)" width="30.713" height="557.281"/>
</g>
<g>
	<defs>
		<path id="SVGID_13_" d="M281.129,663.753h-82.75c-5.716,0-10.357,4.637-10.357,10.36s4.641,10.36,10.357,10.36h72.397v77.776
			c0,5.724,4.635,10.36,10.354,10.36c5.722,0,10.356-4.637,10.356-10.36v-88.136C291.486,668.389,286.851,663.753,281.129,663.753z"
			/>
	</defs>
	<clipPath id="SVGID_14_">
		<use xlink:href="#SVGID_13_"  overflow="visible"/>
	</clipPath>
	<rect x="183.022" y="658.753" clip-path="url(#SVGID_14_)" width="113.463" height="118.857"/>
</g>
</svg>
