<?xml version="1.0" encoding="utf-8"?>
<!-- Generator: Adobe Illustrator 19.0.0, SVG Export Plug-In . SVG Version: 6.00 Build 0)  -->
<!DOCTYPE svg PUBLIC "-//W3C//DTD SVG 1.1//EN" "http://www.w3.org/Graphics/SVG/1.1/DTD/svg11.dtd" [
	<!ENTITY ns_extend "http://ns.adobe.com/Extensibility/1.0/">
	<!ENTITY ns_ai "http://ns.adobe.com/AdobeIllustrator/10.0/">
	<!ENTITY ns_graphs "http://ns.adobe.com/Graphs/1.0/">
	<!ENTITY ns_vars "http://ns.adobe.com/Variables/1.0/">
	<!ENTITY ns_imrep "http://ns.adobe.com/ImageReplacement/1.0/">
	<!ENTITY ns_sfw "http://ns.adobe.com/SaveForWeb/1.0/">
	<!ENTITY ns_custom "http://ns.adobe.com/GenericCustomNamespace/1.0/">
	<!ENTITY ns_adobe_xpath "http://ns.adobe.com/XPath/1.0/">
]>
<svg version="1.1" id="Слой_1" xmlns:x="&ns_extend;" xmlns:i="&ns_ai;" xmlns:graph="&ns_graphs;"
	 xmlns="http://www.w3.org/2000/svg" xmlns:xlink="http://www.w3.org/1999/xlink" x="0px" y="0px" width="255px" height="301px"
	 viewBox="0 0 255 301" enable-background="new 0 0 255 301" xml:space="preserve">
<metadata>
	<sfw  xmlns="&ns_sfw;">
		<slices></slices>
		<sliceSourceBounds  height="310.908" width="263.333" bottomLeftOrigin="true" y="-4.915" x="-4.212"></sliceSourceBounds>
	</sfw>
</metadata>
<g>
	<defs>
		<path id="SVGID_1_" d="M82.701,300.915c0,0-7.796-5.989-9.559-18.661c-1.762-12.708-8.455-32.474-7.387-35.273
			c1.068-2.852,2.51-6.024,2.51-6.024s-9.238,0-8.099-3.226c1.05-3.173,4.557-15.881,4.557-23.295
			c0-7.379-1.816-13.047-1.816-13.047s-7.743-3.903-10.876-8.11c-3.186-4.189-5.981-11.282-5.981-11.282s-1.816,12.708-7.796,18.02
			c-5.981,5.258-6.693,15.881-10.911,20.087c-4.219,4.224-12.691,11.639-15.166,17.307s-8.135,12.726-9.897,14.473
			c-1.744,1.729-2.083-3.208-0.356-10.587c1.78-7.415,10.591-41.636,11.979-49.05c1.388-7.415,10.235-32.136,18.708-41.315
			c8.473-9.161,17.248-7.735,17.248-7.735s11.321-15.524,21.146-18.002c9.879-2.513,14.454,0,18.726-2.513
			c4.201-2.442,10.182-7.7,10.182-7.7s3.898-12.352,9.203-21.905c5.269-9.536,9.487-15.56,8.775-19.071
			c-0.676-3.511-8.099-16.576-11.267-17.61c0,0-8.473,2.121-18.316,2.816c-9.915,0.695-11.997-0.695-13.047-1.034
			c-1.086-0.41-2.795-2.852-2.795-2.852s-2.1,3.208-2.812,1.426c-0.712-1.782,0.338-7.807-1.816-10.231
			c-2.1-2.477-2.1-4.955-1.709-7.432c0.338-2.478-9.559-4.599-10.947-9.5c-1.371-4.973-0.694-9.928,1.78-12.708
			c2.474-2.887,5.66-9.536,8.811-10.962c3.168-1.39,7.156-2.959,9.612-1.497c2.492,1.39,5.927,3.583,7.957,4.01
			c3.346,0.553,5.963,3.476,11.196,1.355c5.34-2.121,6.016-6.363,7.405-5.329c1.442,1.087,0,7.058-3.151,11.657
			c-3.186,4.598-7.316,7.842-11.196,10.979c-3.845,3.19-7.779,8.11-7.049,9.536c0.712,1.426,0.338,2.852-0.73,4.937
			c-1.015,2.085,2.51,5.294,4.592,5.294c2.118,0,5.322-1.087,8.099-2.121c2.848-1.087,3.204-2.477,3.204-2.477
			s1.406-7.415,3.204-9.161c1.744-1.818,4.895-3.511,8.811-2.816c3.809,0.695,6.995,1.355,6.995,1.355s0.712-3.85,0.374-5.953
			c-0.374-2.157,0.712-3.547,0.712-3.547s-3.364-3.333-3.364-9.019c0-5.632,1.905-10.73,5.607-12.191
			c3.702-1.39,8.811-1.052,11.321,0c2.456,1.087,3.845,1.462,3.845,2.513c0,1.087,2.492,3.903,2.652,5.81
			c0.178,1.943-0.196,2.513,1.193,4.082c1.388,1.604,3.756,3.547,2.812,4.206c-0.837,0.731-2.439,0.535-2.439,0.535
			s-0.16,2.477,0,4.082c0.196,1.604,0.712,4.242-0.516,5.151c-1.21,0.82-4.575,0.481-4.575,0.481s0.73,3.511,1.406,4.812
			c0.712,1.176,2.474,1.747,2.83,3.137c0.356,1.426,10.395,5.151,12.513,7.628c2.1,2.442,4.877,5.294,5.821,7.379
			c0.872,2.121-0.374,5.294-0.374,5.294s5.625,10.266,6.693,11.835c1.05,1.604,1.958,2.513,2.634,2.264
			c0.694-0.16,0.534-1.765,1.62-0.855c1.032,0.838,0.872,2.994,2.1,2.994c1.21,0,1.922-0.374,2.99,1.39
			c1.05,1.765,3.382,3.725,3.507,4.777c0.231,1.051,0.516,2.638,0.516,2.638s4.254-6.167,6.533-12.191
			c2.278-5.989,4.076-12.494,7.049-15.667c2.99-3.208,5.322-6.363,6.372-7.807c1.05-1.39,5.785-8.288,12.318-10.926
			c6.479-2.638,9.47-3.208,11.962-2.852c2.474,0.374,3.88,1.461,3.88,1.461s2.1-5.151,3.186-4.42c1.104,0.695,0.676,8.11,0.676,8.11
			s3.542-0.517,6.533,1.248c2.99,1.747,4.041,3.511,4.041,3.511s1.816-3.511,3.044-5.846c1.21-2.264,1.388-4.741,2.474-4.901
			c1.05-0.214,1.602,6.719,1.406,9.535c-0.16,2.781-0.89,4.599-2.278,6.506c-1.424,1.907-1.94,3.173-1.816,4.937
			c0.214,1.747-1.21,7.414,0.374,9.5c1.584,2.121,2.812,6.024,1.21,8.538c-1.602,2.442-4.201,2.959-5.304,6.506
			c-1.05,3.511-1.175,5.81-2.278,8.466c-1.05,2.638-3.88,11.461-3.346,14.972c0.498,3.547,2.474,8.324,1.922,9.892
			c-0.516,1.604-0.374,3.939-1.922,4.812c-1.584,0.838-2.99,3.315-3.88,4.349c-0.89,1.087-1.05,0.909-3.72,0.553
			c-2.599-0.356-4.877-0.695-5.589-1.604c-0.712-0.873-1.442-2.264-1.442-2.264s-0.676,0.695-1.762,0.143
			c-1.086-0.517,0.498,2.335,0.498,4.081c0,1.782,2.314,10.962,4.076,13.225c1.762,2.335,2.118,5.329,2.278,9.892
			c0.196,4.598-3.667,16.433-1.744,18.002c1.905,1.604,10.555,6.541,14.258,7.058c3.72,0.553,12.175,1.782,15.005,6.31
			c2.812,4.616,5.091,9.036,3.702,11.692c-1.424,2.602-0.374,13.867,0.338,18.251c0.712,4.456,2.296,9.25,0.926,11.87
			c-1.424,2.638-3.702,7.236-3.934,11.104c-0.16,3.903-0.872,6.363-2.599,9.019c-1.762,2.656-3.151,6.327-4.806,8.627
			c-1.566,2.299-2.439,2.638-4.165,2.299c-1.816-0.374-8.651-4.42-8.847-11.461c-0.16-7.058,1.086-10.961,2.314-11.496
			c1.228-0.553,5.5-0.374,7.209-1.39c1.798-1.105,3.186-2.495,3.346-3.921c0.16-1.408-1.905-2.513-1.406-4.224
			c0.516-1.747,1.228-12.352,0.89-18.002c-0.374-5.632-1.21-11.799-5.091-12.904c-3.898-1.069-10.751,0.374-14.632,0.499
			c-3.863,0.232-16.216,0.553-16.216,0.553s8.117,2.121,7.245,4.081c-0.89,1.889-8.473,6.862-13.065,7.557s-4.041,2.994-4.895,4.082
			c-0.89,1.052-6.515,1.747-7.921,1.747c-1.388,0-2.83-4.563-3.88-9.892c-1.086-5.294-1.78-9.678-1.78-9.678l-8.313,2.994
			c0,0-5.785,13.742-5.073,21.37c0.712,7.557-1.442,13.742-3.88,22.885c-2.51,9.215-3.364,24.703-1.816,28.268
			c1.62,3.476,4.076,2.46,6.212,6.007c2.1,3.458,7.921,8.431,6.301,9.714c-1.584,1.194-17.266,3.832-17.266,3.832
			s-1.94-3.333-2.314-8.252c-0.32-4.937-4.379-5.882-4.895-9.5c-0.498-3.689-3.026-5.472-0.178-14.829
			c2.812-9.322,3.702-22.618,3.542-31.565c-0.214-8.983-0.374-22.422-0.374-22.422s-12.175,5.632-19.562,5.846
			c-7.387,0.143-14.08,0-14.08,0s-3.542,11.104-11.801,19.214c-8.295,8.11-13.724,18.34-13.724,18.34s9.843,2.068,11.57,5.614
			c1.816,3.529,0.552,9.91,1.994,13.403c1.388,3.529,1.762,4.795,0.837,10.017c-0.837,5.365-4.041,8.876-4.041,8.876
			s-4.219,1.426-8.099-4.242c-3.916-5.614-3.026-7.914-3.026-8.466c0-0.553,2.492-4.242,2.652-6.506
			c0.16-2.299,0.516-4.42-1.922-5.65c-2.51-1.194-8.651-3.03-8.651-3.03s-4.717,10.944-4.895,14.348
			c-0.214,3.333,0.712,14.651,2.278,18.857c1.584,4.278,2.617,10.266,6.319,11.87c3.72,1.568,13.243,6.862,13.243,6.862
			L82.701,300.915z"/>
	</defs>
	<clipPath id="SVGID_2_">
		<use xlink:href="#SVGID_1_"  overflow="visible"/>
	</clipPath>
	<rect x="-4.212" y="-4.993" clip-path="url(#SVGID_2_)" width="263.333" height="310.908"/>
</g>
</svg>
