<?xml version="1.0" encoding="utf-8"?>
<!-- Generator: Adobe Illustrator 18.1.1, SVG Export Plug-In . SVG Version: 6.00 Build 0)  -->
<!DOCTYPE svg PUBLIC "-//W3C//DTD SVG 1.1//EN" "http://www.w3.org/Graphics/SVG/1.1/DTD/svg11.dtd" [
	<!ENTITY ns_extend "http://ns.adobe.com/Extensibility/1.0/">
	<!ENTITY ns_ai "http://ns.adobe.com/AdobeIllustrator/10.0/">
	<!ENTITY ns_graphs "http://ns.adobe.com/Graphs/1.0/">
	<!ENTITY ns_vars "http://ns.adobe.com/Variables/1.0/">
	<!ENTITY ns_imrep "http://ns.adobe.com/ImageReplacement/1.0/">
	<!ENTITY ns_sfw "http://ns.adobe.com/SaveForWeb/1.0/">
	<!ENTITY ns_custom "http://ns.adobe.com/GenericCustomNamespace/1.0/">
	<!ENTITY ns_adobe_xpath "http://ns.adobe.com/XPath/1.0/">
]>
<svg version="1.1" id="Layer_1" xmlns:x="&ns_extend;" xmlns:i="&ns_ai;" xmlns:graph="&ns_graphs;"
	 xmlns="http://www.w3.org/2000/svg" xmlns:xlink="http://www.w3.org/1999/xlink" x="0px" y="0px" width="570.892px"
	 height="136.408px" viewBox="0 0 570.892 136.408" enable-background="new 0 0 570.892 136.408" xml:space="preserve">
<metadata>
	<sfw  xmlns="&ns_sfw;">
		<slices></slices>
		<sliceSourceBounds  height="136.408" width="570.892" x="114.554" y="254.776" bottomLeftOrigin="true"></sliceSourceBounds>
	</sfw>
</metadata>
<g>
	<path fill="#CF4D16" d="M564.19,10.104h-8.713c-5.575,0-9.714,3.691-12.922,8.195l-8.619,12.117
		c-0.005,0.005-0.005,0.01-0.01,0.015l0,0l-18.67,26.228l-16.187-22.725c-0.074-0.114-0.113-0.217-0.197-0.336l-10.904-15.27
		c-3.216-4.499-7.396-8.185-12.971-8.185h-8.077c-5.575,0-9.187,3.681-5.96,8.17l10.968,15.299c0.024,0.03,0.055,0.06,0.079,0.094
		l31.22,43.476v30.338v11.082v7.8c0,5.511,4.564,10.01,10.14,10.005l3.779-0.01c5.576-0.005,10.139-4.524,10.139-10.035v-7.761
		v-11.082V77.134l33.258-46.303c0.103-0.133,0.237-0.261,0.335-0.399l8.693-12.147C572.799,13.785,569.765,10.104,564.19,10.104z"/>
	<path fill="#DF6210" d="M200.264,69.285l31.327-29.746c0.145-0.128,22.145-21.018,22.145-21.018
		c3.959-3.765-0.301-8.417-5.726-8.417h-11.913c-5.422,0-8.163,3.088-12.115,6.868l-23.189,22.173
		c-0.02,0.02-0.032,0.039-0.054,0.064l-14.922,14.268V37.299h-0.064c0.015-0.217,0.064-0.429,0.064-0.646V20.13
		c0-5.511-4.436-10.026-9.86-10.026h-4.428c-5.422,0-9.86,4.515-9.86,10.026v16.523c0,0.217,0.049,0.429,0.064,0.646h-0.064v70.094
		v0.676v18.314c0,5.511,4.438,10.025,9.86,10.025h4.428c5.425,0,9.86-4.514,9.86-10.025v-18.314v-0.676v-20.9l21.259,21.576h0.025
		l20.926,21.26c3.838,3.893,6.483,7.08,11.908,7.08h11.927c5.422,0,7.734-6.522,3.895-10.415L200.264,69.285z"/>
	<path fill="#CF4D16" d="M482.995,123.906h0.06l-40.694-99.805h-0.02l-1.909-4.687c-2.082-5.121-8.373-9.31-13.978-9.31h-4.045
		c-5.605,0-11.891,4.194-13.957,9.32l-1.885,4.677h-0.069l-40.54,99.277h0.015l-1.529,3.73c-2.097,5.116,0.784,9.3,6.389,9.3h9.073
		c5.605,0,8.24-4.228,10.188-9.399l1.367-3.631h0.054l8.194-21.496h49.555l0.671,1.727l0.498,1.026l7.307,19.271h0.025l1.174,3.103
		c1.954,5.171,5.378,9.399,10.988,9.399h8.022c5.61,0,8.477-4.179,6.37-9.29L482.995,123.906z M436.109,81.649h-23.342
		c-2.802,0-4.228-2.087-3.177-4.643l12.892-31.167c1.056-2.556,2.788-2.556,3.849-0.005l12.951,31.176
		C440.343,79.562,438.912,81.649,436.109,81.649z"/>
	<path fill="#CF4D16" d="M380.871,66.068c2.072-4.924,3.094-10.563,3.094-16.869c0-6.256-1.022-11.861-3.094-16.755
		c-2.062-4.895-5.18-9.079-9.31-12.433c-8.199-6.656-20.14-9.907-35.326-9.907h-6.542h-4.569h-21.753
		c-5.689,0-10.347,4.515-10.347,10.026v13.671v8.526v65.861v1.988v16.207c0,5.511,4.658,10.025,10.347,10.025h4.045
		c5.689,0,10.347-4.514,10.347-10.025v-16.207v-1.988V88.373h18.472c15.186,0,27.126-3.227,35.321-9.867
		C375.676,75.171,378.809,70.982,380.871,66.068z M356.864,57.483c-0.938,2.339-2.304,4.288-4.135,5.891l0.02-0.02l-0.015,0.02
		c-3.67,3.192-9.137,4.934-16.499,4.934h-9.547h-0.553h-3.197c-2.847,0-5.175-2.255-5.175-5.013V35.182
		c0-2.753,2.329-5.012,5.175-5.012h3.197h0.553h9.547c7.361,0,12.828,1.741,16.494,4.943c1.835,1.599,3.197,3.533,4.135,5.876
		c0.927,2.339,1.411,5.067,1.411,8.21C358.274,52.372,357.791,55.125,356.864,57.483z"/>
	<path fill="#DF6210" d="M134.443,18.748C122.981,6.296,107.388-0.035,88.504,0C69.534-0.035,53.909,6.296,42.43,18.748
		c-8.451,9.127-13.792,20.683-15.995,34.334v0.035l-1.024,10.755v0.069c-0.069,1.367-0.151,2.763-0.151,4.298
		c0,2.264,0.101,4.46,0.235,6.591v0.069l1.394,10.756v0.034c2.42,12.621,7.558,23.411,15.541,32.036
		c11.479,12.388,27.104,18.718,46.074,18.684c18.884,0.035,34.477-6.295,45.939-18.748c11.389-12.359,17.122-29.075,17.122-49.421
		C151.565,47.858,145.852,31.102,134.443,18.748z M115.741,103.372c-3.395,4.194-7.277,7.257-11.762,9.29
		c-4.485,2.033-9.608,3.064-15.475,3.064c-5.881,0-11.007-1.031-15.509-3.064c-4.52-2.033-8.419-5.126-11.844-9.325
		c-4.019-4.894-6.855-11.022-8.57-18.25L51,74.564c-0.049-0.631-0.084-1.963-0.101-3.394c-0.032-1.5-0.05-3.167-0.05-4.529
		c0-1.17,0.018-2.132,0.035-2.531l1.226-10.523c1.596-8.229,4.618-15.122,9.041-20.549l-0.02,0.034h0.02
		c3.424-4.233,7.324-7.296,11.844-9.324c4.502-2.033,9.628-3.064,15.509-3.064c5.866,0,10.99,1.031,15.475,3.064
		c4.485,2.028,8.368,5.091,11.762,9.29c6.789,8.393,10.314,20.179,10.314,35.203C126.055,83.222,122.53,94.98,115.741,103.372z"/>
	<polygon fill="#DF6210" points="88.171,60.626 5.052,60.626 12.872,45.47 95.991,45.47 	"/>
	<polygon fill="#DF6210" points="72.598,90.939 0,90.939 8.237,75.782 80.834,75.782 	"/>
</g>
</svg>
