<?xml version="1.0" encoding="utf-8"?>
<!-- Generated by IcoMoon.io -->
<!DOCTYPE svg PUBLIC "-//W3C//DTD SVG 1.1//EN" "http://www.w3.org/Graphics/SVG/1.1/DTD/svg11.dtd">
<svg version="1.1" xmlns="http://www.w3.org/2000/svg" xmlns:xlink="http://www.w3.org/1999/xlink" width="2048" height="1024" viewBox="0 0 2048 1024"><g id="icomoon-ignore">
</g>
<path d="M572.456 203.754c-5.326 3.912-10.732 7.722-15.954 11.776-20.11 15.626-38.216 33.362-52.346 54.578-6.596 9.912-14.766 13.19-26.010 13.106-38.788-0.286-77.598 0.266-116.388-0.308-14.378-0.224-24.7 4.548-32.562 16.63-3.686 5.692-3.912 10.424-0.798 15.75 4.874 8.334 11.818 14.048 21.216 16.956 14.234 4.404 28.242 9.504 42.476 13.866 33.75 10.342 47.268 49.254 39.3 77.66-6.716 23.9-13.086 47.738-27.71 68.238-15.258 21.402-34.386 37.478-59.372 47.616-23.408 9.502-47.002 13.27-72.008 15.052-77.516 5.51-155.034 0.922-232.53 2.602-6.534 0.144-13.086 0.020-20.828 0.020 5.53-15.932 10.568-30.946 15.954-45.834 4.014-11.142 8.97-21.954 12.452-33.238 2.232-7.21 6.512-10.138 13.354-10.506 4.136-0.226 8.274-0.122 12.41-0.122 67.256 0 134.512 0.102 201.748-0.164 7.598-0.020 15.402-1.332 22.734-3.4 11.060-3.112 16.834-11.324 18.062-22.692 1.29-11.878-6.062-18.452-15.462-22.508-9.87-4.26-20.214-7.864-30.678-10.322-16.384-3.87-30.598-11.12-43.746-21.668-18.574-14.91-22.752-35-17.49-55.726 8.498-33.444 21.278-65.618 44.524-92.2 12.738-14.562 28.384-24.228 47.084-30.7 20.132-6.984 40.488-7.782 61.030-7.926 67.256-0.43 134.492-0.226 201.748-0.206 2.99 0 6 0.552 8.99 0.84 0.308 0.922 0.552 1.864 0.798 2.826zM1352.724 557.26c8.97-24.392 17.060-45.938 24.822-67.584 8.684-24.188 16.856-48.558 25.642-72.704 5.612-15.402 12.164-30.454 17.878-45.814 5.898-15.852 11.122-31.97 16.958-47.842 11.326-30.842 22.896-61.604 34.324-92.406 2.846-7.68 5.836-15.318 8.172-23.164 1.844-6.164 5.878-7.782 11.674-7.7 10.876 0.184 21.73 0 32.604 0.062 32.092 0.204 64.184 0.144 96.256 0.798 22.364 0.452 44.422 3.85 63.96 15.544 20.768 12.412 30.596 31.52 29.020 55.686-3.708 56.442-33.894 94.802-83.006 119.972-5.038 2.58-10.076 5.222-14.99 8.008-9.83 5.572-9.174 5.96-4.67 16.63 6.962 16.508 13.006 33.404 18.884 50.34 3.892 11.162 6.962 22.63 10.116 34.038 4.362 15.832 8.48 31.724 12.554 47.636 0.492 1.884 0.060 3.994 0.060 5.898-11.55 3.318-96.644 3.706-111.492 0.472-5.652-23.696-11.47-47.636-17.038-71.62-2.662-11.488-4.464-23.182-7.454-34.59-0.902-3.442-4.506-6.164-6.882-9.236-2.806 2.54-7.004 4.548-8.212 7.7-8.172 21.094-15.646 42.476-23.47 63.714-4.792 12.964-9.932 25.806-14.704 38.788-1.864 5.1-5.262 7.352-10.528 7.352-32.522 0.020-65.044 0.020-100.474 0.020zM1577.718 269.494c-0.124 0.492-0.224 1.004-0.348 1.496-2.58 0-5.182 0.246-7.722-0.042-10.712-1.188-16.692 2.702-20.316 13.702-7.332 22.302-16.508 43.972-24.72 65.986-2.52 6.738-0.634 9.788 6.348 10.712 45.158 5.94 74.772-21.872 82.678-60.662 2.396-11.756-1.494-20.132-12.534-25.334-7.126-3.338-15.544-3.994-23.388-5.858zM691.282 194.188c29.982-0.102 54.108 5.264 76.124 19.764 13.702 9.010 23.368 21.216 27.956 36.066 7.004 22.732 9.318 45.692 4.548 70.204-5.468 28.118-13.722 54.948-24.986 80.916-13.374 30.802-28.16 61.030-51.59 85.792-12.718 13.454-25.334 27.362-39.834 38.706-16.956 13.292-36.476 22.324-57.446 29.042-15.668 5.018-31.498 6.246-47.164 7.23-26.768 1.7-53.024-1.188-77.354-15.402-29.040-16.956-40.060-43.15-42.004-74.628-1.74-28.18 4.73-54.844 13.23-81.776 13.272-42.046 34.468-79.34 61.522-113.418 26.828-33.812 60.764-59.146 101.928-72.418 18.842-6.042 38.36-13.516 55.072-10.076zM597.422 484.72c6.534-1.966 15.216-3.482 22.856-7.148 17.060-8.212 27.976-23.224 35.758-39.506 12.616-26.42 24.188-53.474 34.182-80.978 5.734-15.79 8.11-32.912 10.956-49.604 4.854-28.406-23.798-41.206-44.196-33.628-21.258 7.884-35.144 22.916-47.328 40.306-14.562 20.766-23.9 44.134-32.706 67.85-8.13 21.874-13.866 44.176-16.896 67.196-1.658 12.656 5.674 26.604 17.038 31.52 5.49 2.356 11.94 2.438 20.336 3.994zM1399.48 295.38c1.576 32.296-9.482 61.768-20.398 91.32-8.806 23.818-20.54 46.182-33.546 67.87-21.606 36.064-49.376 66.13-86.876 86.16-20.624 11.018-42.538 17.182-65.988 20.050-19.292 2.356-38.258 1.638-57.038-1.004-33.034-4.648-65.7-25.312-74.628-67.83-6.226-29.614-1.924-58.184 5.57-86.938 10.016-38.34 26.992-73.34 49.010-105.902 24.7-36.558 56.176-66.048 96.092-85.566 32.194-15.75 66.52-22.692 102.194-18.556 13.598 1.576 27.586 5.49 39.876 11.47 30.066 14.644 44.77 40.038 45.692 73.4 0.164 5.18 0.040 10.362 0.040 15.524zM1160.008 445.664c0 5.162-0.43 10.362 0.102 15.484 0.982 9.564 10.26 20.316 19.374 21.688 22.18 3.38 41.902-1.188 57.364-18.882 16.138-18.472 26.276-40.49 35.082-62.812 9.586-24.288 16.856-49.522 24.352-74.568 2.602-8.704 3.502-18.062 4.076-27.198 0.634-10.26-5.49-17.366-13.742-22.508-17.060-10.608-32.768-4.484-47.676 4.894-20.378 12.82-33.178 32.358-43.152 53.412-9.216 19.436-16.958 39.63-24.392 59.844-6.042 16.322-12.104 32.808-11.386 50.646zM1174.304 200.99c-12.308 9.462-22.304 15.932-30.864 23.962-15.77 14.808-31.232 30.024-45.772 46.020-7.968 8.786-16.096 12.718-28.18 12.39-30.494-0.84-61.072 0.328-91.566-0.512-13.6-0.37-21.812 5.816-26.788 16.876-4.404 9.788-7.68 20.192-10.404 30.618-2.99 11.428 0.042 15.094 12.226 15.298 20.174 0.328 40.366 0.062 60.538 0.144 4.976 0.020 9.974 0.452 17.184 0.798-8.438 23.594-16.138 45.158-23.982 67.134-4.812 0.328-8.846 0.798-12.882 0.818-23.286 0.082-46.572-0.082-69.856 0.102-13.476 0.102-14.418 0.798-19.026 13.352-12.41 33.812-24.596 67.708-37.006 101.54-1.23 3.36-3.644 6.288-4.792 9.646-6.268 18.144-6.184 18.166-25.722 18.144-27.852-0.020-55.726 0-85.462 0 5.12-15.094 9.932-29.962 15.196-44.666 6.226-17.368 12.902-34.57 19.332-51.876 8.928-24.024 17.92-48.026 26.664-72.132 5.612-15.462 10.528-31.19 16.282-46.592 9.36-25.028 17.756-50.566 29.082-74.712 17.614-37.56 47.514-60.212 89.518-64.86 12.82-1.414 25.764-2.212 38.646-2.272 57.426-0.246 114.872-0.164 172.298-0.124 4.076 0 8.090 0.452 15.34 0.902zM1713.788 554.514c6.124-16.978 12.084-33.26 17.878-49.602 8.766-24.658 17.326-49.398 26.174-74.034 5.202-14.5 10.752-28.878 16.138-43.316 8.786-23.552 17.53-47.124 26.318-70.676 2.15-5.776 4.67-11.408 6.676-17.224 4.384-12.616 2.048-16.24-11.038-16.548-12.412-0.286-24.822-0.082-37.252-0.082-5.612 0-10.404-0.962-10.936-7.988-2.088-27.238-7.926-53.042-32.134-73.974 118.62 0 233.554 0 349.572 0-0.37 4.034-0.042 7.126-0.984 9.748-7.126 19.926-14.438 39.792-21.852 59.596-3.932 10.486-6.984 12.574-18.432 12.616-31.56 0.102-63.118 0.020-94.66 0.040-4.136 0-8.274 0.060-12.412 0.266-5.796 0.266-9.052 3.112-11.142 8.846-11.448 31.356-23.654 62.444-34.96 93.838-10.732 29.838-20.356 60.088-31.068 89.948-8.684 24.166-18.372 47.964-27.382 72.008-1.966 5.244-4.076 9.34-10.588 9.278-27.914-0.204-55.848-0.266-83.762-0.472-0.902 0-1.782-0.922-4.156-2.272zM867.88 781.31c5.408-7.106 9.85-11.94 13.168-17.448 20.768-34.468 41.246-69.1 61.87-103.65 7.086-11.858 20.070-16.896 32.686-12.78 5.14 1.68 6.102 5.572 3.952 9.83-3.010 5.98-6.534 11.734-10.096 17.428-28.262 45.036-56.544 90.052-84.91 135.026-10.096 16.036-31.274 23.122-48.742 16.588-5.572-2.090-8.274-5.796-7.578-11.878 1.842-15.914 3.706-31.826 5.346-47.76 1.618-15.83 2.948-31.702 4.466-48.128-5.938-1.004-8.376 1.454-10.63 5.262-16.856 28.406-33.852 56.73-50.77 85.074-10.014 16.772-32.196 24.78-49.418 17.1-3.114-1.394-6.020-5.652-6.88-9.114-1.066-4.342-0.144-9.236 0.328-13.844 2.682-25.682 5.572-51.322 8.254-77.004 2.15-20.542 3.994-41.104 6.226-61.644 1.576-14.644 4.608-17.080 20.028-17.306 21.134-0.328 21.792 1.024 18.002 22.118-3.196 17.756-5.038 35.778-7.456 53.678-2.376 17.778-4.71 35.574-7.086 53.596 7.822-0.144 10.138-5.222 13.086-10.18 20.87-35.020 41.902-69.96 63.018-104.818 7.802-12.882 27.034-19.436 40.202-13.414 2.5 1.148 5.12 5.468 5.038 8.232-0.348 10.814-1.476 21.648-2.846 32.4-3.644 28.672-7.598 57.324-11.346 85.974-0.102 0.882 0.572 1.884 2.090 6.656zM1674.424 764.578c3.932-5.222 6.696-7.558 7.74-10.486 10.65-30.126 20.932-60.376 31.498-90.542 6.084-17.346 17.428-21.298 35.982-12.144-0.982 4.65-1.516 9.748-3.154 14.438-7.538 21.402-15.34 42.702-23.182 64-8.91 24.206-17.9 48.374-26.952 72.52-1.802 4.832-3.604 9.748-6.204 14.152-1.74 2.908-4.854 6.962-7.454 7.044-11.612 0.39-23.41 0.452-34.856-1.25-6.39-0.962-6.492-8.602-7.394-14.152-3.134-19.354-6.246-38.728-9.174-58.122-2.068-13.742-3.728-27.546-5.776-41.288-0.43-2.806-1.782-5.49-3.194-9.668-7.168 7.046-8.99 14.99-11.674 22.488-10.814 30.044-21.422 60.15-32.584 90.070-4.75 12.78-10.916 16.424-23.346 15.974-10.096-0.37-13.148-3.85-9.974-13.62 5.734-17.612 12.228-34.98 18.534-52.388 10.894-30.024 21.974-59.966 32.768-90.010 3.154-8.766 5.57-18.268 15.258-21.894 12-4.486 24.516-3.872 36.494 0.308 2.744 0.962 5.304 4.792 6.328 7.844 2.436 7.332 4.444 14.908 5.632 22.548 3.644 23.47 6.718 47.022 10.24 70.492 0.594 3.644 2.314 7.168 4.444 13.682zM332.8 729.352c3.072 3.462 4.218 5.202 5.774 6.432 11.428 9.114 12.472 20.726 8.008 33.504-10.24 29.286-30.966 47.206-61.112 52.88-14.048 2.642-28.734 2.048-43.152 2.56-10.322 0.368-20.664 0.492-30.966 0-10.342-0.472-12.658-4.24-9.236-14.090 6.246-17.962 12.554-35.88 19.128-53.72 11.366-30.862 22.918-61.664 34.448-92.466 5.222-13.926 9.482-17.47 23.798-17.306 18.534 0.204 37.070 1.25 55.604 1.966 11.224 0.43 22.508 3.072 27.628 13.456 6.204 12.616 4.936 26.624-2.56 38.646-4.526 7.25-11.53 12.984-17.572 19.25-2.744 2.846-5.836 5.326-9.788 8.888zM275.21 747.376c-3.236 1.166-12.248 1.618-14.438 5.714-6.164 11.51-9.974 24.392-13.804 37.008-1.576 5.16 1.926 9.462 7.598 8.908 11.162-1.086 22.938-1.25 33.116-5.222 9.788-3.83 17.798-12.062 20.132-23.716 2.438-12.144-1.7-18.472-14.008-20.726-4.998-0.9-10.118-1.086-18.596-1.966zM272.752 717.35c21.198 9.216 47.76-2.108 54.15-22.118 0.758-2.356 0.942-5.14 0.552-7.578-2.396-14.46-15.544-11.162-24.536-13.988-8.356-2.622-15.278 0.758-17.94 7.762-4.526 11.858-8.234 24.002-12.226 35.922zM1871.79 751.204c-7.27-0.288-12.76-0.41-18.228-0.758-4.956-0.328-9.892-0.9-17.080-1.576 2.806-7.68 4.096-13.804 7.23-18.76 1.802-2.866 6.512-5.326 10.016-5.448 17.572-0.594 35.164-0.594 52.736-0.288 7.352 0.124 9.81 3.564 8.786 11.264-0.614 4.568-2.008 9.094-3.584 13.434-6.328 17.408-13.292 34.592-19.19 52.142-3.462 10.28-9.932 17.798-19.826 19.948-17.572 3.83-35.492 7.126-53.392 7.946-11.49 0.532-23.736-2.356-34.714-6.288-16.036-5.734-26.010-17.756-28.59-35.348-3.994-27.076 4.792-51.22 17.756-73.892 15.502-27.076 36.904-48.456 66.682-59.844 27.71-10.588 55.952-13.824 84.746-4.096 18.126 6.124 21.914 23.49 7.27 35.778-2.252 1.884-7.7 1.332-11.1 0.206-7.74-2.58-14.972-6.698-22.692-9.318-25.128-8.54-46.858 0.492-66.252 15.318-22.404 17.12-33.424 41.39-37.97 68.75-2.13 12.76 7.946 29.368 20.746 35.040 12.636 5.59 25.128 4.976 37.54-0.634 1.844-0.84 4.178-1.7 5.14-3.256 7.168-11.858 11.836-24.576 13.968-40.326zM624.148 645.958c13.844 1.29 27.75 2.212 41.534 3.972 18.72 2.396 28.058 14.582 26.072 33.424-2.478 23.532-15.688 39.812-35.39 51.528-2.642 1.576-5.816 2.314-8.316 4.076-4.158 2.928-6.102 6.472-3.236 11.898 10.916 20.604 8.15 43.11 8.5 65.168 0.020 1.946-0.512 4.424-1.76 5.774-7.352 7.988-17.1 6.042-26.174 5.264-8.008-0.676-11.244-6.778-11.756-14.132-0.962-13.906-1.76-27.812-2.314-41.738-0.37-9.052-5.284-14.276-13.25-17.162-9.318-3.4-14.212-1.782-18.452 7.598-4.874 10.752-8.746 21.954-12.924 33.014-2.908 7.7-5.222 15.648-8.52 23.182-4.158 9.504-25.068 13.456-32.91 6.636-3.748-3.256-3.502-6.922-1.924-11.202 6.596-17.92 12.964-35.9 19.456-53.862 10.834-30.024 21.442-60.13 32.626-90.030 7.946-21.258 10.732-22.076 30.004-22.262 6.206-0.062 12.41 0 18.636 0 0.042-0.41 0.062-0.778 0.102-1.148zM629.884 675.408c-18.39-0.020-20.952 1.74-25.99 15.626-2.274 6.308-4.668 12.554-6.922 18.862-4.75 13.27-0.492 18.022 13.884 15.626 3.564-0.594 7.188-0.922 10.712-1.68 13.784-2.948 22.732-11.836 28.284-24.228 4.608-10.302-1.372-21.402-12.432-23.696-3.482-0.716-7.168-0.492-7.538-0.512zM1411.788 830.666c-8.58-1.576-17.49-2.172-25.682-4.894-21.646-7.23-31.458-25.518-24.986-47.596 6.368-21.73 14.008-43.11 21.462-64.512 5.92-17.038 12.576-33.834 18.534-50.852 5.018-14.294 21.362-21.196 34.918-14.336 4.648 2.356 4.874 5.878 3.214 10.404-6.922 18.862-13.66 37.806-20.46 56.71-5.59 15.502-11.57 30.864-16.608 46.55-3.174 9.872-6.062 20.85 3.134 29.042 9.010 8.028 19.702 9.338 31.866 6.062 18.208-4.894 29.594-17.080 36.74-32.91 8.274-18.268 14.396-37.5 21.362-56.34 5.878-15.932 11.306-32.050 17.55-47.862 4.67-11.858 25.088-18.452 35.204-11.386 1.864 1.31 2.602 6.574 1.638 9.236-10.24 28.59-20.562 57.14-31.622 85.422-5.796 14.808-11.592 29.962-20.050 43.274-18.104 28.508-49.192 43.11-86.222 43.99zM208.282 652.060c-6.698 18.76-12.842 36.21-19.15 53.596-7.044 19.394-13.884 38.872-21.462 58.040-9.646 24.372-25.558 44.074-49.54 54.99-25.456 11.592-52.224 16.2-79.584 5.162-13.722-5.53-20.664-15.872-21.298-30.884-0.492-12.084 1.76-23.326 6.104-34.714 12.33-32.276 24.208-64.738 35.286-97.464 3.482-10.28 9.462-13.968 19.332-13.722 2.068 0.060 4.138-0.082 6.204-0.020 13.026 0.288 15.136 2.888 10.894 14.684-10.486 29.102-21.422 58.040-31.764 87.204-2.744 7.722-4.894 15.872-5.652 23.982-1.556 16.794 8.008 27.26 24.74 26.174 19.004-1.23 35.614-8.97 43.786-27.116 10.322-22.918 19.108-46.552 28.1-70.042 5.694-14.868 10.424-30.106 15.974-45.014 0.984-2.642 3.36-5.632 5.836-6.676 10.18-4.32 20.54-5.774 32.194 1.824zM1338.634 684.010c-7.25-3.36-13.598-6.738-20.256-9.298-14.624-5.612-27.648-2.254-37.888 9.236-8.252 9.258-7.74 19.272 2.172 26.522 6.616 4.832 14.008 8.58 21.094 12.78 18.144 10.692 23.020 23.654 18.842 44.114-4.894 23.942-20.398 38.972-40.326 50.052-23.572 13.106-48.682 16.486-74.608 7.026-17.202-6.288-20.582-22.098-7.558-34.816 3.972-3.872 8.396-2.866 12.84-0.554 5.92 3.072 11.674 6.758 17.94 8.826 18.492 6.124 37.478-0.328 47.984-15.586 6.696-9.728 6.288-15.134-2.192-22.98-2.232-2.068-5.12-3.442-7.782-4.976-3.114-1.802-6.308-3.482-9.502-5.182-35.778-19.026-30.68-49.418-14.172-71.374 22.732-30.27 58.778-40.674 93.902-29.532 12.616 4.014 13.496 6.39 10.712 19.086-1.494 6.862-3.83 12.74-11.202 16.65zM498.442 719.992c2.294 17.736-5.878 28.262-20.644 28.16-10.322-0.082-20.644-0.452-30.966-0.472-11.1-0.020-14.766 2.376-18.206 12.942-3.768 11.592-10.424 22.446-10.24 37.048 19.948 3.726 40.080-0.020 59.332 2.192 4.588 16.22-0.594 24.864-14.972 25.006-25.866 0.288-51.752 0.164-77.62-0.102-12.78-0.124-15.114-4.362-10.63-16.712 11.796-32.462 23.326-65.004 35.204-97.444 6.022-16.466 12.842-32.626 18.698-49.152 3.462-9.728 10.2-14.132 19.866-14.234 25.866-0.246 51.752-0.348 77.618-0.060 10.014 0.124 12 3.604 8.582 12.616-5.448 14.396-7.106 15.586-22.734 15.666-11.388 0.062-22.774-0.082-34.162-0.020-17.736 0.082-17.92 0.042-24.412 17.060-2.888 7.558-4.834 15.482-7.64 24.7 18.33 4.22 35.512 0.204 52.92 2.806zM1069.814 801.442c-6.020 22.816-6.84 23.45-25.62 23.408-22.774-0.040-45.528 0.124-68.302-0.082-14.808-0.144-17.572-4.014-12.514-18.022 12.41-34.366 25.19-68.588 37.746-102.892 5.326-14.52 10.528-29.062 15.708-43.622 2.97-8.356 9.318-12.718 17.654-12.82 28.856-0.348 57.732-0.144 86.222-0.144 4.67 16.896-2.826 27.852-18.432 28.16-13.968 0.288-27.954 0.348-41.902-0.082-8.868-0.266-14.644 2.13-17.202 11.57-2.642 9.748-6.696 19.128-10.854 30.72 7.394 0.654 12.348 1.352 17.306 1.454 9.318 0.206 18.636-0.204 27.934 0.124 9.646 0.348 12.576 5.408 8.602 14.336-4.384 9.83-11.406 15.626-22.876 15.054-10.3-0.512-20.644-0.41-30.966-0.654-7.474-0.164-13.086 2.436-15.626 9.974-3.114 9.298-6.492 18.514-9.34 27.874-3.134 10.322-1.27 13.026 9.688 13.354 12.412 0.388 24.842-0.102 37.252 0.164 4.814 0.164 9.586 1.29 15.524 2.13zM1189.602 647.228c2.58 0 5.182-0.184 7.74 0.040 4.998 0.452 7.558 3.564 6.962 8.356-0.512 4.036-1.844 8.008-3.214 11.878-11.49 32.010-23 64.020-34.692 95.97-6.368 17.388-12.964 34.692-19.784 51.916-4.136 10.486-21.75 16.18-31.436 10.466-5.51-3.236-5.612-8.376-3.952-13.578 2.99-9.318 6.184-18.576 9.606-27.73 10.814-28.876 21.874-57.672 32.644-86.568 4.32-11.572 7.762-23.45 12.288-34.94 6.104-15.586 7.414-16.178 23.838-15.81zM137.38 601.188c-1.986 26.644-15.912 35.328-37.17 24.166 1.332-23.982 12.636-31.58 37.17-24.166zM184.402 598.076c12.636 0.082 16.732 6.41 11.592 17.818-4.568 10.116-13.354 13.906-23.492 14.746-7.372 0.614-12.268-5.49-11.53-13.046 1.146-11.55 10.794-19.598 23.43-19.518z"></path>
</svg>
