<?xml version="1.0" encoding="UTF-8" standalone="no"?>
<svg width="122px" height="137px" viewBox="0 0 122 137" version="1.1" xmlns="http://www.w3.org/2000/svg" xmlns:xlink="http://www.w3.org/1999/xlink" xmlns:sketch="http://www.bohemiancoding.com/sketch/ns">
    <!-- Generator: Sketch 3.3.2 (12043) - http://www.bohemiancoding.com/sketch -->
    <title>berlin</title>
    <desc>Created with Sketch.</desc>
    <defs></defs>
    <g id="Page-1" stroke="none" stroke-width="1" fill="none" fill-rule="evenodd" sketch:type="MSPage">
        <path d="M113.969373,58.0150665 L8.32020735,58.0150665 L8.32020735,51.793934 L113.969373,51.793934 L113.969373,58.0150665 L113.969373,58.0150665 Z M119.752068,73.3913427 L110.687162,73.3913427 L103.810624,73.3913427 L93.8082761,73.3913427 L86.9318066,73.3913427 L76.9296628,73.3913427 L45.3596442,73.3913427 L35.3577733,73.3913427 L28.4813037,73.3913427 L18.4789554,73.3913427 L11.6024176,73.3913427 L2.53778514,73.3913427 L2.53778514,59.8904983 L7.38269608,59.8904983 L114.907293,59.8904983 L119.752477,59.8904983 L119.752477,73.3913427 L119.752068,73.3913427 L119.752068,73.3913427 Z M119.752068,134.624777 L2.53751231,134.624777 L2.53751231,131.499444 L11.6019402,131.499444 L18.4784097,131.499444 L28.4807581,131.499444 L35.3575005,131.499444 L45.3596442,131.499444 L76.9294582,131.499444 L86.9318066,131.499444 L93.8082761,131.499444 L103.810624,131.499444 L110.687162,131.499444 L119.752068,131.499444 L119.752068,134.624777 L119.752068,134.624777 Z M10.6647017,129.62374 L2.53778514,129.62374 L2.53778514,75.2665017 L10.6647017,75.2665017 L10.6647017,129.62374 L10.6647017,129.62374 Z M27.5435879,129.62374 L19.4166713,129.62374 L19.4166713,75.2665017 L27.5435879,75.2665017 L27.5435879,129.62374 L27.5435879,129.62374 Z M44.422474,129.62374 L36.295762,129.62374 L36.295762,75.2665017 L44.422474,75.2665017 L44.422474,129.62374 L44.422474,129.62374 Z M85.9940907,129.62374 L77.8666284,129.62374 L77.8666284,75.2665017 L85.9940907,75.2665017 L85.9940907,129.62374 L85.9940907,129.62374 Z M102.872977,129.62374 L94.7457192,129.62374 L94.7457192,75.2665017 L102.872977,75.2665017 L102.872977,129.62374 L102.872977,129.62374 Z M119.752068,129.62374 L111.624878,129.62374 L111.624878,75.2665017 L119.752068,75.2665017 L119.752068,129.62374 L119.752068,129.62374 Z M109.749924,75.2665017 L109.749924,129.624285 L104.748886,129.624285 L104.748886,75.2665017 L109.749924,75.2665017 L109.749924,75.2665017 Z M92.8711059,75.2665017 L92.8711059,129.624285 L87.8702727,129.624285 L87.8702727,75.2665017 L92.8711059,75.2665017 L92.8711059,75.2665017 Z M75.9919469,75.2665017 L75.9919469,129.624285 L46.2978376,129.624285 L46.2978376,75.2665017 L75.9919469,75.2665017 L75.9919469,75.2665017 Z M34.4200574,75.2665017 L34.4200574,129.624285 L29.4190196,129.624285 L29.4190196,75.2665017 L34.4200574,75.2665017 L34.4200574,75.2665017 Z M17.5412395,75.2665017 L17.5412395,129.624285 L12.5402017,129.624285 L12.5402017,75.2665017 L17.5412395,75.2665017 L17.5412395,75.2665017 Z M2.53751231,48.2511714 L119.752068,48.2511714 L119.752068,49.9180248 L114.907088,49.9180248 L7.38221863,49.9180248 L2.53751231,49.9180248 L2.53751231,48.2511714 L2.53751231,48.2511714 Z M24.6000275,28.7159464 C24.6000275,25.8433901 26.9370873,23.5063303 29.8093708,23.5063303 C32.6819272,23.5063303 35.0189869,25.8433901 35.0189869,28.7159464 L35.0189869,46.3757396 L24.6000275,46.3757396 L24.6000275,28.7159464 L24.6000275,28.7159464 Z M52.6743466,30.1950248 C52.6743466,25.5244521 56.4740467,21.7240017 61.1451651,21.7240017 C65.815465,21.7240017 69.6154379,25.5242475 69.6154379,30.1950248 L69.6154379,46.3752621 L52.6743466,46.3752621 L52.6743466,30.1950248 L52.6743466,30.1950248 Z M58.123439,4.94940474 C58.123439,3.28309696 59.4788573,1.92795152 61.1448922,1.92795152 C62.8112,1.92795152 64.1663455,3.28336979 64.1663455,4.94940474 C64.1663455,6.61550789 62.8109272,7.97113078 61.1448922,7.97113078 C59.4788573,7.97113078 58.123439,6.61578072 58.123439,4.94940474 L58.123439,4.94940474 Z M87.2707975,28.7159464 C87.2707975,25.8433901 89.6078573,23.5063303 92.4801408,23.5063303 C95.35297,23.5063303 97.6898252,25.8433901 97.6898252,28.7159464 L97.6898252,46.3757396 L87.2707975,46.3757396 L87.2707975,28.7159464 L87.2707975,28.7159464 Z M120.689511,51.7936612 C121.208024,51.7936612 121.627227,51.3739808 121.627227,50.8560135 L121.627227,47.3131826 C121.627227,46.7952153 121.207751,46.3755349 120.689511,46.3755349 L99.5649841,46.3755349 L99.5649841,28.7151962 C99.5649841,24.808956 96.3871313,21.6304211 92.4801408,21.6304211 C88.5739689,21.6304211 85.3956386,24.8084786 85.3956386,28.7151962 L85.3956386,46.3755349 L71.4914154,46.3755349 L71.4914154,30.194752 C71.4914154,24.8061595 67.3496549,20.3689245 62.0834266,19.8931094 L62.0834266,9.75393687 C64.336182,9.31522661 66.0425957,7.32868489 66.0425957,4.94940474 C66.0425957,2.24920857 63.8459069,0.0525879369 61.1454379,0.0525879369 C58.445992,0.0525879369 56.2490304,2.24920857 56.2490304,4.94940474 C56.2490304,7.32868489 57.9552395,9.31522661 60.2079266,9.75393687 L60.2079266,19.8933822 C54.9412209,20.3691291 50.7996651,24.8064324 50.7996651,30.1950248 L50.7996651,46.3757396 L36.8952372,46.3757396 L36.8952372,28.7154008 C36.8952372,24.808956 33.7169069,21.6306257 29.8101893,21.6306257 C25.9034717,21.6306257 22.7251414,24.8087514 22.7251414,28.7154008 L22.7251414,46.3757396 L1.60034208,46.3757396 C1.08237477,46.3757396 0.662626182,46.7954882 0.662626182,47.3134555 L0.662626182,50.8562182 C0.662626182,51.3741855 1.0826476,51.793934 1.60034208,51.793934 L6.44504839,51.793934 L6.44504839,58.0150665 L1.60034208,58.0150665 C1.08237477,58.0150665 0.662626182,58.4350879 0.662626182,58.9527824 L0.662626182,74.3287858 L0.662626182,130.561933 L0.662626182,135.562425 C0.662626182,136.079915 1.0826476,136.499868 1.60034208,136.499868 L120.690056,136.499868 C121.208296,136.499868 121.627772,136.079915 121.627772,135.562425 L121.627772,130.561933 L121.627772,74.3287858 L121.627772,58.9522368 C121.627772,58.4345423 121.208024,58.0145891 120.690056,58.0145891 L115.845077,58.0145891 L115.845077,51.7934566 L120.689511,51.7936612 L120.689511,51.7936612 Z" id="berlin" fill="#000000" sketch:type="MSShapeGroup"></path>
    </g>
</svg>