<?xml version="1.0" encoding="UTF-8" standalone="no"?>
<svg width="224px" height="244px" viewBox="0 0 224 244" version="1.1" xmlns="http://www.w3.org/2000/svg" xmlns:xlink="http://www.w3.org/1999/xlink" xmlns:sketch="http://www.bohemiancoding.com/sketch/ns">
    <!-- Generator: Sketch 3.3.2 (12043) - http://www.bohemiancoding.com/sketch -->
    <title>btc-galaxy</title>
    <desc>Created with Sketch.</desc>
    <defs></defs>
    <g id="Page-1" stroke="none" stroke-width="1" fill="none" fill-rule="evenodd" sketch:type="MSPage">
        <path d="M136.434697,133.940087 C135.228861,131.873707 133.597891,130.268471 131.543111,129.119316 C130.085608,128.287653 128.093162,127.556494 125.591202,126.940128 L125.680362,128.85565 C128.119826,128.0076 130.078686,126.952262 131.579354,125.65715 C133.081556,124.394774 134.262928,122.87126 135.066223,121.160034 C135.884667,119.4894 136.281,117.710619 136.281,115.766098 C136.281,113.119853 135.523704,110.718261 133.981815,108.558974 C132.470306,106.383889 130.299842,104.728328 127.459877,103.565651 C126.485323,103.152539 125.25362,102.816853 123.718949,102.516693 L124.527,103.498098 L124.527,94.1410978 L124.527,93.1410978 L123.527,93.1410978 L114.558,93.1410978 L113.558,93.1410978 L113.558,94.1410978 L113.558,102.890098 L114.558,101.890098 L108.792,101.890098 L109.792,102.890098 L109.792,94.1410978 L109.792,93.1410978 L108.792,93.1410978 L99.795,93.1410978 L98.795,93.1410978 L98.795,94.1410978 L98.795,102.890098 L99.795,101.890098 L86.117,101.890098 L85.117,101.890098 L85.117,102.890098 L85.117,110.221098 L85.117,111.221098 L86.117,111.221098 L88.191,111.221098 C89.4798406,111.221098 90.293862,111.318167 90.5966815,111.470469 C90.872692,111.620161 91.070396,111.817149 91.1612395,112.016231 C91.2739661,112.274807 91.36,113.175461 91.36,114.608098 L91.36,144.182098 C91.36,145.607888 91.2737401,146.507165 91.1672179,146.732105 C91.0606563,146.983898 90.888137,147.156042 90.6253875,147.277857 C90.2649284,147.458908 89.4488387,147.569098 88.191,147.569098 L86.117,147.569098 L85.117,147.569098 L85.117,148.569098 L85.117,155.905098 L85.117,156.905098 L86.117,156.905098 L99.795,156.905098 L98.795,155.905098 L98.795,164.617098 L98.795,165.617098 L99.795,165.617098 L108.756,165.617098 L109.756,165.617098 L109.756,164.617098 L109.756,155.905098 L108.756,156.905098 L113.885,156.905098 C114.009602,156.905098 114.099303,156.90029 114.291839,156.886568 C114.43622,156.876278 114.495812,156.873098 114.558,156.873098 L114.558,156.873098 L114.558,155.873098 L113.558,155.873098 L113.558,164.617098 L113.558,165.617098 L114.558,165.617098 L123.527,165.617098 L124.527,165.617098 L124.527,164.617098 L124.527,155.137098 L123.714952,156.119276 C125.397288,155.797341 126.760219,155.419247 127.891226,154.93554 C131.10905,153.675005 133.652074,151.746558 135.487015,149.184341 C137.309133,146.642175 138.236,143.843177 138.236,140.851098 C138.237076,138.300755 137.644111,136.014754 136.434926,133.940478 L136.434697,133.940087 Z M134.707074,134.947717 C135.734321,136.70989 136.236929,138.647546 136.236,140.850676 C136.236,143.418869 135.443576,145.811871 133.861218,148.01953 C132.256413,150.260397 130.027187,151.950882 127.133126,153.085041 C126.124863,153.515743 124.892123,153.85772 123.339048,154.15492 L122.527,154.310315 L122.527,155.137098 L122.527,164.617098 L123.527,163.617098 L114.558,163.617098 L115.558,164.617098 L115.558,155.873098 L115.558,154.873098 L114.558,154.873098 L114.558,154.873098 C114.432605,154.873098 114.341285,154.877971 114.149661,154.891628 C114.004689,154.90196 113.946148,154.905098 113.885,154.905098 L108.756,154.905098 L107.756,154.905098 L107.756,155.905098 L107.756,164.617098 L108.756,163.617098 L99.795,163.617098 L100.795,164.617098 L100.795,155.905098 L100.795,154.905098 L99.795,154.905098 L86.117,154.905098 L87.117,155.905098 L87.117,148.569098 L86.117,149.569098 L88.191,149.569098 C89.7421613,149.569098 90.8070456,149.425316 91.496024,149.078114 C92.1700311,148.766221 92.7069451,148.230473 92.993407,147.546317 C93.2580641,146.989891 93.36,145.92719 93.36,144.182098 L93.36,114.608098 C93.36,112.890313 93.2577813,111.820228 92.987485,111.201029 C92.6978725,110.566018 92.1872555,110.05725 91.521517,109.697391 C90.820665,109.344411 89.7865629,109.221098 88.191,109.221098 L86.117,109.221098 L87.117,110.221098 L87.117,102.890098 L86.117,103.890098 L99.795,103.890098 L100.795,103.890098 L100.795,102.890098 L100.795,94.1410978 L99.795,95.1410978 L108.792,95.1410978 L107.792,94.1410978 L107.792,102.890098 L107.792,103.890098 L108.792,103.890098 L114.558,103.890098 L115.558,103.890098 L115.558,102.890098 L115.558,94.1410978 L114.558,95.1410978 L123.527,95.1410978 L122.527,94.1410978 L122.527,103.498098 L122.527,104.321459 L123.335051,104.479503 C124.74546,104.755359 125.855971,105.058015 126.690784,105.411821 C129.199221,106.438853 131.058611,107.857137 132.346831,109.710782 C133.651998,111.5387 134.281,113.533439 134.281,115.766098 C134.281,117.411253 133.951758,118.888926 133.262942,120.295221 C132.576863,121.756422 131.575082,123.048332 130.282617,124.134553 C128.979984,125.258642 127.240034,126.196043 125.023638,126.966546 L121.835783,128.074764 L125.112798,128.882068 C127.448981,129.457594 129.274426,130.127469 130.559417,130.860658 C132.309178,131.839271 133.681084,133.18953 134.707303,134.948109 L134.707074,134.947717 Z M105.494,112.442098 L111.324,112.442098 C114.664476,112.442098 116.898314,112.632495 118.068965,113.003395 C119.184986,113.357255 120.027412,113.941715 120.599711,114.744557 C121.150765,115.558128 121.438,116.546632 121.438,117.715098 C121.438,118.882651 121.135051,119.889257 120.546289,120.681729 C119.923557,121.548759 119.001821,122.195046 117.722106,122.640731 C116.405837,123.108392 114.261556,123.353098 111.323,123.353098 L105.493,123.353098 L106.493,124.353098 L106.493,111.442098 L105.493,111.442098 L105.493,112.442098 L105.494,112.442098 L105.494,112.442098 Z M105.494,110.442098 L105.493,110.442098 L104.493,110.442098 L104.493,111.442098 L104.493,124.353098 L104.493,125.353098 L105.493,125.353098 L111.323,125.353098 C114.470194,125.353098 116.814991,125.085509 118.385803,124.527386 C120.03078,123.954512 121.294585,123.06838 122.161285,121.861358 C123.008916,120.72067 123.438,119.294956 123.438,117.715098 C123.438,116.156514 123.036943,114.776295 122.241794,113.603065 C121.394566,112.414061 120.188501,111.577315 118.673244,111.096867 C117.249469,110.64577 114.859884,110.442098 111.324,110.442098 L105.494,110.442098 L105.494,110.442098 Z M121.137684,143.567827 C120.255447,144.698194 119.155189,145.457202 117.8552,145.852314 C116.463482,146.214296 114.641672,146.416098 112.542,146.416098 L108.67,146.416098 C107.533108,146.416098 106.804844,146.358204 106.687784,146.307754 C106.701257,146.309649 106.669429,146.271192 106.619,146.137098 C106.588452,146.030298 106.523613,145.056446 106.494808,143.586506 L106.495,132.138098 L105.495,133.138098 L112.349,133.138098 C115.221482,133.138098 117.370728,133.406724 118.730411,133.909115 C119.984562,134.383478 120.935163,135.093042 121.549184,135.999097 C122.156334,136.89745 122.464,138.042104 122.464,139.442098 C122.463118,141.080299 122.023925,142.432817 121.137812,143.567663 L121.137684,143.567827 Z M122.714188,144.798532 C123.88266,143.302068 124.462884,141.515238 124.464,139.442636 C124.464,137.663967 124.05176,136.130252 123.205522,134.878142 C122.347988,133.612755 121.061639,132.652576 119.430754,132.035759 C117.800936,131.433524 115.437261,131.138098 112.349,131.138098 L105.495,131.138098 L104.495,131.138098 L104.495,132.138098 L104.495,143.606098 C104.52874,145.337677 104.596498,146.355368 104.726648,146.781316 C104.959774,147.406883 105.302976,147.821568 105.807643,148.100968 C106.370424,148.348814 107.216813,148.416098 108.67,148.416098 L112.542,148.416098 C114.802149,148.416098 116.790768,148.195818 118.398261,147.776757 C120.132445,147.250516 121.579636,146.252177 122.714316,144.798369 L122.714188,144.798532 Z M213.636406,170.023118 C212.911139,159.973285 208.200935,148.614456 199.748043,136.591941 C198.054529,134.185221 196.101576,131.67442 193.677359,128.745488 L193.677505,130.020532 C196.139792,127.044217 198.069532,124.555849 199.750873,122.139208 C213.852375,102.187152 217.516568,84.0807689 209.880504,71.1826541 C203.527018,60.4891665 190.419736,54.8960978 172.023,54.8960978 C165.853915,54.8960978 159.261515,55.5160521 152.372849,56.7415563 L153.484363,57.3750635 C146.873676,39.7414577 137.910958,26.7760337 127.589986,20.171783 L128.028169,21.2265618 C128.370524,19.651997 128.532,18.5294491 128.532,17.3340978 C128.532,8.03749657 120.973969,0.482097793 111.676,0.482097793 C102.354279,0.482097793 94.821,8.0252333 94.821,17.3340978 C94.821,18.5971192 94.9951182,19.8594763 95.3286725,21.2477196 L95.7631722,20.1710431 C85.4201027,26.7694169 76.4560552,39.7239249 69.8317622,57.3747307 L70.9440014,56.7417079 C64.0989632,55.5178675 57.481158,54.8960978 51.293,54.8960978 C32.8921672,54.8960978 19.7913726,60.4915691 13.4759824,71.1835226 C5.82305269,84.0926737 9.48031374,102.207185 23.6070383,122.146204 C25.3485006,124.651653 27.3355185,127.233388 29.6471993,130.021382 L29.6469576,128.745105 C27.3682999,131.495392 25.3681334,134.086222 23.6051771,136.591628 C15.1271419,148.570756 10.4043865,159.965001 9.71533667,170.026776 L10.3081111,169.180732 C4.23209624,171.871242 0.232,177.860187 0.232,184.605098 C0.232,193.90287 7.79120253,201.460098 17.092,201.460098 C20.5331794,201.460098 23.8181591,200.426135 26.5850585,198.531149 L25.5626337,198.595376 C32.3880191,202.105752 41.0287033,203.894098 51.293,203.894098 C57.4389019,203.894098 64.0224411,203.262068 70.9444228,202.021412 L69.8317267,201.38837 C79.7852995,227.918382 94.8693654,243.549098 111.676,243.549098 C128.460224,243.549098 143.543441,227.909407 153.484382,201.38808 L152.372264,202.021535 C159.323032,203.262344 165.906337,203.894098 172.023,203.894098 C182.242433,203.894098 190.932374,202.088981 197.751868,198.596145 L196.736455,198.534898 C199.543119,200.429752 202.82801,201.460098 206.266,201.460098 C215.561785,201.460098 223.12,193.901883 223.12,184.605098 C223.086717,177.839879 219.10528,171.862359 213.043585,169.180597 L213.636406,170.023118 L213.636406,170.023118 Z M211.641594,170.167078 L211.68485,170.766464 L212.234415,171.009598 C217.581096,173.37503 221.09065,178.644091 221.120012,184.610019 C221.12,192.797313 214.457215,199.460098 206.266,199.460098 C203.231839,199.460098 200.335622,198.551665 197.855545,196.877298 L197.36593,196.546745 L196.840132,196.81605 C190.324541,200.153232 181.943908,201.894098 172.023,201.894098 C166.029473,201.894098 159.562894,201.273545 152.723736,200.05266 L151.903911,199.90631 L151.611618,200.686115 C141.930421,226.514474 127.430742,241.549098 111.676,241.549098 C95.8984259,241.549098 81.397953,226.523124 71.7042733,200.685825 L71.4116233,199.905803 L70.5915772,200.052783 C63.7818161,201.273325 57.3155383,201.894098 51.293,201.894098 C41.3276349,201.894098 32.996931,200.169908 26.4773663,196.816819 L25.9470012,196.544046 L25.4549415,196.881047 C23.0181899,198.549923 20.1264929,199.460098 17.092,199.460098 C8.89565508,199.460098 2.232,192.798183 2.232,184.605098 C2.232,178.661056 5.75710916,173.383262 11.1178889,171.009464 L11.6694504,170.765228 L11.7106633,170.16342 C12.3718457,160.508575 16.956016,149.448685 25.2392554,137.744789 C26.971484,135.283058 28.9400742,132.733129 31.1870424,130.021091 L31.7158336,129.382852 L31.1868007,128.744813 C28.9090638,125.997757 26.9558356,123.459925 25.2441218,120.997345 C11.5203387,101.626983 8.02286488,84.3039028 15.1972021,72.2020511 C21.1013466,62.2063389 33.5343259,56.8960978 51.293,56.8960978 C57.3594463,56.8960978 63.8599209,57.5068438 70.5919986,58.7104877 L71.4116664,58.857038 L71.7042378,58.0774649 C78.1895798,40.7969016 86.9139822,28.1887199 96.8388278,21.8571525 L97.43989,21.4737042 L97.2733275,20.7804759 C96.9741155,19.535164 96.821,18.4250764 96.821,17.3340978 C96.821,9.12921782 103.459434,2.48209779 111.676,2.48209779 C119.869555,2.48209779 126.532,9.14222207 126.532,17.3340978 C126.532,18.3565493 126.388384,19.3549355 126.073831,20.8016338 L125.926021,21.4814437 L126.512014,21.8564126 C136.416032,28.1938601 145.139572,40.8132899 151.611637,58.0771321 L151.903781,58.8564066 L152.723151,58.7106393 C159.499701,57.5050809 165.975437,56.8960978 172.023,56.8960978 C189.778979,56.8960978 202.220018,62.2048707 208.160295,72.2028879 C215.316886,84.291126 211.812412,101.60827 198.113373,120.990932 C196.464115,123.361411 194.566299,125.808613 192.136495,128.745664 L191.609027,129.383246 L192.136641,130.020708 C194.530262,132.912675 196.452884,135.384482 198.112177,137.742568 C206.37188,149.490311 210.945349,160.519399 211.641594,170.167078 L211.641594,170.167078 Z M172.022,63.4350978 C186.372213,63.4350978 197.463451,67.0246194 202.488073,75.5278271 C208.163567,85.1015734 204.679188,100.283214 192.730012,117.212443 C191.301014,119.267109 189.702302,121.370891 187.773151,123.758646 L189.294661,123.718541 C181.853376,115.441325 173.012373,107.362582 163.0218,99.6957741 L163.406111,100.371918 C161.833359,87.0426477 159.228228,74.7068443 155.676208,63.7565481 L154.891054,65.0512145 C161.215948,63.986155 166.918343,63.4350978 172.022,63.4350978 L172.022,63.4350978 Z M172.022,61.4350978 C166.797257,61.4350978 160.986611,61.996616 154.558946,63.0789811 L153.416249,63.2714018 L153.773792,64.3736474 C157.283773,75.1943456 159.861943,87.4024815 161.419889,100.606277 L161.469349,101.025455 L161.8042,101.282422 C171.700438,108.876836 180.451045,116.872977 187.807339,125.055655 L188.591618,125.928037 L189.328849,125.015549 C191.28606,122.593063 192.912889,120.452281 194.367973,118.360064 C206.71794,100.863048 210.378155,84.9152838 204.209206,74.5091515 C198.72329,65.2252905 187.012,61.4350978 172.022,61.4350978 L172.022,61.4350978 Z M134.581737,168.01908 C127.053521,172.485697 119.258494,176.518605 111.26651,180.105783 L112.085436,180.105759 C103.998417,176.476493 96.1908623,172.44175 88.7698648,168.020032 C81.7640815,163.898247 74.8452371,159.258255 67.781062,154.014159 L68.1791224,154.708835 C67.2353484,146.042602 66.744,137.663 66.744,129.383098 C66.744,121.133171 67.2358739,112.752769 68.1791224,104.09136 L67.7838737,104.783941 C74.6043508,99.6835633 81.5815444,95.003199 88.7677392,90.7454268 C96.2963148,86.3132467 104.090587,82.279483 112.088955,78.6528494 L111.262993,78.6528256 C119.372729,82.3305207 127.176236,86.3648056 134.582897,90.7458036 C141.73904,95.0023204 148.718115,99.6831133 155.569752,104.785154 L155.17293,104.091839 C156.098619,112.554105 156.577,120.984353 156.577,129.383098 C156.577,137.810962 156.099133,146.240366 155.172929,154.708369 L155.572643,154.012896 C148.463524,159.266996 141.548046,163.903985 134.583396,168.018097 L134.581737,168.01908 Z M135.600604,169.740098 C142.627905,165.588978 149.599717,160.914215 156.761357,155.621299 L157.113466,155.361068 L157.161071,154.925826 C158.095024,146.38698 158.577,137.885105 158.577,129.383098 C158.577,120.910167 158.094507,112.407444 157.16107,103.874356 L157.113693,103.441254 L156.764248,103.181041 C149.858519,98.0387208 142.822231,93.3195558 135.603209,89.0256416 C128.130541,84.6055971 120.262955,80.5381844 112.089007,76.83137 L111.676032,76.6440892 L111.263045,76.8313462 C103.200849,80.4869211 95.3435682,84.5532937 87.7506729,89.0233443 C80.4991361,93.3198266 73.4626453,98.039968 66.5861263,103.182254 L66.2379465,103.442624 L66.1908776,103.874835 C65.2400874,112.605496 64.744,121.057688 64.744,129.383098 C64.744,137.73844 65.2395585,146.189843 66.1908776,154.92536 L66.2381723,155.359645 L66.588938,155.620036 C73.7076595,160.904625 80.6850429,165.583874 87.7509142,169.740993 C95.2348766,174.200246 103.110784,178.270312 111.266564,181.930436 L111.676032,182.114196 L112.08549,181.930413 C120.14584,178.312549 128.00817,174.24482 135.602263,169.739116 L135.600604,169.740098 Z M154.025894,163.600327 C152.368503,174.250427 150.042562,184.157781 147.11527,193.038028 L148.282295,192.374992 C139.072475,190.324753 129.614806,187.359113 120.158193,183.519556 L120.218057,185.346017 C127.237634,181.944673 133.242982,178.768012 138.935021,175.375071 C144.439269,172.132688 149.928896,168.560294 155.589977,164.571564 L154.025894,163.600327 L154.025894,163.600327 Z M156.002106,163.907869 L156.364488,161.579267 L154.438023,162.936632 C148.819465,166.895401 143.374971,170.438424 137.915444,173.654479 C132.273549,177.017514 126.317381,180.168162 119.345943,183.546179 L117.322344,184.526716 L119.405807,185.372639 C128.964503,189.253643 138.528388,192.252589 147.847705,194.327204 L148.731324,194.52391 L149.01473,193.664168 C151.977576,184.676065 154.328443,174.662541 156.002106,163.907869 L156.002106,163.907869 Z M103.194369,183.549521 C93.7406551,187.35751 84.2503865,190.323219 75.0709485,192.374161 L76.2386985,193.036932 C73.2610307,184.00693 70.9271748,174.114156 69.3305907,163.635471 L67.7689622,164.605627 C73.5690623,168.661221 78.9748051,172.189489 84.3878621,175.408597 C90.2591498,178.87666 96.4319655,182.145656 103.13359,185.377813 L103.194369,183.549521 L103.194369,183.549521 Z M103.941631,185.404675 L106.040388,184.559288 L104.00241,183.576383 C97.3489769,180.367468 91.2252159,177.124451 85.4075838,173.688085 C80.0424584,170.497477 74.6771376,166.995592 68.9150378,162.966569 L67.0017545,161.628747 L67.3534093,163.936724 C68.9664971,174.523727 71.3259886,184.525165 74.3393015,193.663263 L74.6229865,194.52356 L75.5070515,194.326035 C84.793675,192.251145 94.387924,189.252942 103.941631,185.404675 L103.941631,185.404675 Z M60.6404437,148.434863 C52.8572972,142.113536 45.8719235,135.489983 39.8396688,128.718902 L39.8396201,130.049348 C45.8006739,123.359174 52.7634846,116.763995 60.6426411,110.327543 L59.0132129,109.473002 C58.4602762,116.354229 58.173,122.918626 58.173,129.384098 C58.173,135.84723 58.4599913,142.402141 59.0132089,149.291145 L60.6404437,148.434863 L60.6404437,148.434863 Z M59.3795563,149.987333 L61.1938883,151.4609 L61.0067911,149.131051 C60.4576733,142.293101 60.173,135.791133 60.173,129.384098 C60.173,122.974722 60.4579573,116.463313 61.0067871,109.633194 L61.1947489,107.294034 L59.3773589,108.778653 C51.4192924,115.279566 44.3802397,121.946962 38.3463799,128.718847 L37.7536744,129.384049 L38.3463312,130.049294 C44.4517344,136.902483 51.5149517,143.599847 59.3795563,149.987333 L59.3795563,149.987333 Z M69.3305907,95.1607243 C70.9327795,84.6452545 73.272334,74.7177792 76.2383634,65.7552779 L75.0733402,66.4175664 C84.1359161,68.4190984 93.6313084,71.3931866 103.194665,75.2417942 L103.136345,73.412059 C96.5632874,76.5574808 90.3744824,79.8386617 84.3884405,83.3836623 C78.8879409,86.640979 73.3888497,90.2271261 67.7656611,94.192887 L69.3305907,95.1607243 L69.3305907,95.1607243 Z M67.3534093,94.8594712 L66.9997856,97.1803707 L68.9183389,95.8273086 C74.4998542,91.8909379 79.9548103,88.3335727 85.4075432,85.1045429 C91.3410833,81.5906344 97.478059,78.3369324 103.999655,75.2161366 L106.04998,74.2349892 L103.941335,73.3864014 C94.2778342,69.4974921 84.6772755,66.4904643 75.5046598,64.4646292 L74.6232359,64.2699607 L74.3396366,65.1269177 C71.3374476,74.1986831 68.9721385,84.2354437 67.3534093,94.8594712 L67.3534093,94.8594712 Z M120.154236,75.2418342 C129.767064,71.3745136 139.230332,68.4081193 148.278831,66.417749 L147.114605,65.7551818 C150.037315,74.5897835 152.365055,84.4990306 154.024896,95.163883 L155.589049,94.1926828 C149.95085,90.2193269 144.456092,86.636244 138.962588,83.3826795 C133.068861,79.8927352 126.897567,76.6254196 120.214236,73.4128171 L120.154236,75.2418342 L120.154236,75.2418342 Z M119.407764,73.3863614 L117.303727,74.2328328 L119.347764,75.2153785 C125.981449,78.4041163 132.10226,81.6447045 137.943482,85.103558 C143.389287,88.3288722 148.840162,91.8833396 154.436951,95.8275128 L156.363571,97.1852419 L156.001104,94.8563126 C154.324916,84.0864235 151.972093,74.0703957 149.013395,65.1270138 L148.730096,64.2706719 L147.849169,64.4644465 C138.689625,66.4792431 129.120806,69.4787236 119.407764,73.3863614 L119.407764,73.3863614 Z M162.710418,110.327591 C170.573841,116.750188 177.536065,123.346478 183.512598,130.049593 L183.51255,128.718657 C177.466512,135.500724 170.483603,142.123363 162.712556,148.434863 L164.33984,149.290529 C164.871572,142.61745 165.144,136.006885 165.144,129.384098 C165.144,123.053504 164.86916,116.583388 164.34024,109.478855 L162.710418,110.327591 L162.710418,110.327591 Z M163.975582,108.778604 L162.172961,107.30628 L162.34576,109.627341 C162.87122,116.685402 163.144,123.107025 163.144,129.384098 C163.144,135.952881 162.873753,142.510521 162.34616,149.131666 L162.160659,151.459643 L163.973444,149.987333 C171.825906,143.609709 178.886515,136.91338 185.00545,130.049539 L185.598717,129.384049 L185.005402,128.718602 C178.956311,121.934109 171.917933,115.265668 163.975582,108.778604 L163.975582,108.778604 Z M98.4296082,27.6578259 C101.648027,31.7549977 106.445889,34.1900978 111.676,34.1900978 C116.895901,34.1900978 121.724796,31.7393919 124.895096,27.6530812 L123.543743,27.8677392 C131.6868,33.3898761 139.106386,44.4296029 144.888149,59.5257589 L145.601375,58.1927392 C134.578065,60.686203 122.985578,64.5534955 111.276881,69.6501986 L112.074174,69.6497878 C100.280557,64.5305692 88.7232924,60.6749429 77.7190504,58.1926093 L78.4328594,59.5257382 C84.1995804,44.4678555 91.6439035,33.40294 99.778624,27.8668107 L98.4296082,27.6578259 L98.4296082,27.6578259 Z M100.002392,26.4223697 L99.4254731,25.6879299 L98.653376,26.2133849 C90.1277324,32.015559 82.4648394,43.4053473 76.5651406,58.8104574 L76.1519535,59.8893589 L77.2789496,60.1435863 C88.1566859,62.5973827 99.5954597,66.4134795 111.277826,71.4844078 L111.676562,71.6574857 L112.075119,71.4839969 C123.671913,66.4360042 135.145497,62.6083781 146.042625,60.1434564 L147.168826,59.8887108 L146.755851,58.8104367 C140.84081,43.3662896 133.202633,32.001319 124.666257,26.2124564 L123.889903,25.6859788 L123.314904,26.4271144 C120.517235,30.0331288 116.267121,32.1900978 111.676,32.1900978 C107.072805,32.1900978 102.849185,30.0464473 100.002392,26.4223697 L100.002392,26.4223697 Z M30.5851219,117.212633 C18.6387128,100.278955 15.1550104,85.0991294 20.831093,75.529235 C25.8848878,67.0223141 36.959525,63.4350978 51.294,63.4350978 C56.4028412,63.4350978 62.1083424,63.9860418 68.4289711,65.0502187 L67.6429213,63.7582446 C64.0914284,74.8135507 61.4739797,87.1656357 59.9109328,100.37055 L60.2938429,99.6958174 C50.258484,107.424326 41.4087574,115.504588 34.02629,123.717595 L35.552691,123.763687 C33.3048455,120.936987 31.910955,119.112798 30.5881027,117.216881 L30.5851219,117.212633 Z M28.9478973,118.361314 C30.3004644,120.299818 31.7153778,122.151519 33.987309,125.008508 L34.7232596,125.933978 L35.51371,125.0546 C42.8112701,116.936052 51.5715754,108.937436 61.5141571,101.280378 L61.847596,101.023588 L61.8970672,100.605646 C63.4453846,87.5251694 66.0361625,75.2989473 69.5470787,64.369951 L69.9004923,63.2698234 L68.7610289,63.0779769 C62.3376227,61.9964958 56.5238611,61.4350978 51.294,61.4350978 C36.3215078,61.4350978 24.6275634,65.2229155 19.11127,74.5083491 C12.9403463,84.9125468 16.5998308,100.858322 28.9508781,118.365563 L28.9478973,118.361314 Z M51.293,195.329098 C43.6540014,195.329098 36.6766316,194.231767 31.0710656,191.762927 L31.5274713,193.189282 C33.0907658,190.560861 33.942,187.624795 33.942,184.606098 C33.942,175.478158 26.6861976,168.05648 17.5607869,167.784542 L18.5231578,168.909089 C19.5480627,160.773596 23.6483933,151.385778 30.5831065,141.556584 C32.0455156,139.490056 33.7049471,137.3158 35.5443031,135.043224 L34.0247021,135.084168 C41.4334154,143.291479 50.295659,151.375083 60.2910058,159.069504 L59.9079276,158.394602 C61.4742663,171.632305 64.0963826,184.013024 67.6402591,195.003 L68.4260757,193.709959 C62.0859322,194.77673 56.3893793,195.329098 51.293,195.329098 L51.293,195.329098 Z M51.293,197.329098 C56.5107068,197.329098 62.3152468,196.766259 68.7579243,195.682236 L69.8988004,195.490276 L69.5437409,194.389195 C66.0409607,183.526663 63.4456408,171.272467 61.8940724,158.159593 L61.8446023,157.741503 L61.5109942,157.484692 C51.6077232,149.861152 42.8340927,141.858374 35.5092979,133.744028 L34.7255526,132.875801 L33.9896969,133.784971 C32.1246258,136.089319 30.4394257,138.297338 28.9497179,140.402444 C21.8385169,150.481788 17.6088269,160.165778 16.5388422,168.659106 L16.4013016,169.750877 L17.5012131,169.783654 C25.5489018,170.023477 31.942,176.562727 31.942,184.606098 C31.942,187.254854 31.1925138,189.839972 29.8085287,192.166914 L29.2310169,193.137904 L30.2649344,193.593269 C36.1629212,196.190899 43.4001495,197.329098 51.293,197.329098 L51.293,197.329098 Z M111.676,234.985098 C99.1904269,234.985098 87.0810373,221.789526 78.4325208,199.270574 L77.7187771,200.604648 C88.7573477,198.117821 100.31778,194.251014 112.076634,189.109336 L111.274446,189.108933 C122.95079,194.228507 134.545205,198.106596 145.60163,200.604514 L144.888493,199.270538 C136.232856,221.805377 124.154678,234.985098 111.676,234.985098 L111.676,234.985098 Z M111.676,236.985098 C125.212736,236.985098 137.835272,223.211372 146.755507,199.987658 L147.170031,198.908448 L146.04237,198.653682 C135.113739,196.184635 123.640122,192.34695 112.077554,187.277263 L111.676548,187.101439 L111.275366,187.27686 C99.6296598,192.369062 88.1896529,196.195589 77.2792229,198.653548 L76.1507585,198.907774 L76.5654792,199.987621 C85.4785208,223.195342 98.1331853,236.985098 111.676,236.985098 L111.676,236.985098 Z M172.022,195.329098 C166.922996,195.329098 161.223477,194.775533 154.924934,193.70913 L155.709715,195.00208 C159.233033,184.078988 161.835469,171.709671 163.406116,158.393234 L163.021637,159.069547 C173.048216,151.378382 181.912345,143.293983 189.294689,135.081623 L187.778783,135.048457 C189.607935,137.271612 191.246098,139.421162 192.725906,141.54989 C199.675387,151.366595 203.803546,160.785455 204.824812,168.90785 L205.790825,167.78344 C196.669873,168.022259 189.377,175.471933 189.377,184.605098 C189.377,187.62324 190.227914,190.559139 191.790369,193.188014 L192.250341,191.760434 C186.614676,194.217542 179.602752,195.329098 172.022,195.329098 L172.022,195.329098 Z M172.022,197.329098 C179.85482,197.329098 187.125962,196.17645 193.049659,193.593762 L194.088825,193.140693 L193.509631,192.166182 C192.126261,189.838623 191.377,187.253457 191.377,184.605098 C191.377,176.558294 197.80386,169.993253 205.843175,169.782755 L206.946931,169.753855 L206.809188,168.658345 C205.742709,160.176361 201.484384,150.460511 194.36318,140.4013 C192.856139,138.233333 191.185435,136.041082 189.323217,133.777739 L188.584543,132.879954 L187.807311,133.744572 C180.510503,141.861778 171.736849,149.863661 161.804363,157.482649 L161.469343,157.739635 L161.419884,158.158962 C159.863918,171.350934 157.288127,183.593608 153.806285,194.388116 L153.45147,195.488121 L154.591066,195.681066 C160.992926,196.764962 166.801287,197.329098 172.022,197.329098 L172.022,197.329098 Z" id="btc-galaxy" fill="#000000" sketch:type="MSShapeGroup"></path>
    </g>
</svg>