<?xml version="1.0" encoding="UTF-8" standalone="no"?>
<svg width="90px" height="83px" viewBox="0 0 90 83" version="1.1" xmlns="http://www.w3.org/2000/svg" xmlns:xlink="http://www.w3.org/1999/xlink" xmlns:sketch="http://www.bohemiancoding.com/sketch/ns">
    <!-- Generator: Sketch 3.3.2 (12043) - http://www.bohemiancoding.com/sketch -->
    <title>cart</title>
    <desc>Created with Sketch.</desc>
    <defs></defs>
    <g id="Page-1" stroke="none" stroke-width="1" fill="none" fill-rule="evenodd" sketch:type="MSPage">
        <path d="M18.3020594,13.2428114 L18.3020594,49.1619301 L18.3269981,49.0059917 L14.932115,59.3483928 L15.4007252,59.0043728 C12.4463658,59.0424936 9.61085666,60.1594724 7.4188017,62.2175866 C2.64120125,66.7044642 2.41191951,74.2198103 6.90598853,78.9945485 C11.3943971,83.7635876 18.9042271,83.9943076 23.6819921,79.5106364 C25.1455543,78.1245448 26.2140164,76.4332411 26.8250382,74.5727141 L26.35,74.9167053 L64.941241,74.9167053 L64.4662527,74.5728658 C65.0098589,76.2263347 65.8896399,77.7307643 67.0854978,78.9982111 C71.5734957,83.7668144 79.0834679,83.9975866 83.8564467,79.5136755 C88.6321358,75.0119886 88.8617294,67.5034479 84.3674818,62.7303049 C79.8757756,57.9612292 72.3705268,57.7305383 67.5976486,62.2178166 C66.1332732,63.5906678 65.0667482,65.2800093 64.448712,67.1531608 L64.9235342,66.8098258 L26.3387321,66.8098258 L26.8140137,67.1545605 C26.278714,65.5159581 25.3967903,64.0144766 24.1958458,62.7313882 C23.6680275,62.1701616 23.0917347,61.6677524 22.475337,61.2296515 L22.6624553,61.787799 L24.3993348,56.289022 L23.922554,56.6384229 L80.463696,56.6384229 C82.3113594,56.6384229 83.8080576,55.1440643 83.8080576,53.2940614 C86.2081821,39.7902325 87.841673,30.5668119 89.4923485,21.2400747 C89.5,19.3096669 88.0019812,17.813405 86.1556385,17.813405 C77.5394829,16.6694602 70.5939094,15.750851 54.9662186,13.6839804 C39.3385296,11.61711 32.3929571,10.698501 23.7112436,9.55023971 L23.9992369,9.69236957 L15.7671686,1.46030123 C15.0518561,0.744988767 14.3000303,0.433342027 13.288795,0.433342027 L6.95779682,0.433342027 C6.72628663,0.433342027 6.5618145,0.426589457 6.0029693,0.39807045 C5.35573894,0.365040968 4.99986189,0.354455694 4.59028831,0.365118464 C2.74498513,0.413158774 1.4858004,0.976282274 0.847238084,2.41963583 C-0.324855069,5.07290725 1.62343708,7.10435821 4.59312956,7.10435821 L10.9241278,7.10435821 C11.6700525,7.10435821 12.167552,7.31058165 12.6953945,7.83842419 L18.4483577,13.5962165 L18.3020594,13.2428114 L18.3020594,13.2428114 Z M19.3020594,13.2428114 L19.3020594,13.0358275 L19.1557611,12.8894064 L13.4026496,7.13146576 C12.6871888,6.41600495 11.9353631,6.10435821 10.9241278,6.10435821 L4.59312956,6.10435821 C2.26409182,6.10435821 0.92809673,4.71133894 1.76184879,2.82397131 C2.21118445,1.80833027 3.11563562,1.40384814 4.61631332,1.36477976 C4.99268579,1.35498134 5.32932968,1.36499454 5.95200358,1.39677085 C6.53072274,1.42630407 6.70214606,1.43334203 6.95779682,1.43334203 L13.288795,1.43334203 C14.0347197,1.43334203 14.5322192,1.63956547 15.0600618,2.16740801 L23.2921301,10.3994763 L23.4120272,10.5193734 L23.5801234,10.5416062 C32.2618391,11.6898677 39.2074126,12.6084769 54.8351034,14.6753475 C70.4627924,16.7422179 77.4083649,17.660827 86.0900784,18.8090882 C87.449959,18.813405 88.5,19.8622145 88.5,21.1529373 C86.8569881,30.3924684 85.2235058,39.6158406 82.815724,53.2068396 C82.8080576,54.591429 81.7594245,55.6384229 80.463696,55.6384229 L23.922554,55.6384229 L23.5561373,55.6384229 L23.4457732,55.9878238 L21.7088937,61.4866008 L21.5992229,61.8338072 L21.896012,62.0447482 C22.4585168,62.444545 22.9848567,62.9034054 23.4665731,63.4156103 C24.5661537,64.5904036 25.3732124,65.9644269 25.8634504,67.4650911 L25.9760685,67.8098258 L26.3387321,67.8098258 L64.9235342,67.8098258 L65.2850748,67.8098258 L65.3983564,67.4664908 C65.9645403,65.7504934 66.9404688,64.2046539 68.2821055,62.9468696 C72.6532641,58.8372734 79.5261319,59.0485267 83.6394738,63.4158736 C87.7549875,67.78678 87.5447363,74.6627566 83.1711388,78.7854225 C78.8010257,82.8908659 71.9234225,82.6795256 67.8132764,78.3123992 C66.7196471,77.1533003 65.914783,75.7769789 65.4162293,74.2605447 L65.3031862,73.9167053 L64.941241,73.9167053 L26.35,73.9167053 L25.9879332,73.9167053 L25.8749619,74.2606964 C25.3155534,75.964064 24.3370639,77.5129469 22.9960226,78.7830098 C18.62213,82.8876616 11.7443821,82.6763607 7.63418476,78.3091798 C3.51882496,73.9368024 3.72878052,67.0549257 8.10333349,62.9465696 C10.1110224,61.0615561 12.706268,60.0392232 15.4136274,60.0042896 L15.7708263,59.9996806 L15.8822376,59.6602696 L19.2771207,49.3178685 L19.3020594,49.1619301 L19.3020594,13.2428114 L19.3020594,13.2428114 Z" id="cart" fill="#FFFFFF" sketch:type="MSShapeGroup"></path>
    </g>
</svg>