<?xml version="1.0" encoding="UTF-8" standalone="no"?>
<svg width="72px" height="82px" viewBox="0 0 72 82" version="1.1" xmlns="http://www.w3.org/2000/svg" xmlns:xlink="http://www.w3.org/1999/xlink" xmlns:sketch="http://www.bohemiancoding.com/sketch/ns">
    <!-- Generator: Sketch 3.3.2 (12043) - http://www.bohemiancoding.com/sketch -->
    <title>crowdfunding</title>
    <desc>Created with Sketch.</desc>
    <defs></defs>
    <g id="Page-1" stroke="none" stroke-width="1" fill="none" fill-rule="evenodd" sketch:type="MSPage">
        <path d="M33.2240814,38.0322045 C32.1339258,37.6514845 31.8701068,37.4795128 31.8701068,37.3338338 C31.8701068,36.9428785 32.2710357,36.7083185 32.7766058,36.7083185 C33.3414171,36.7083185 33.4020631,36.7693899 33.4020631,37.1558698 L33.4020631,37.1998532 C33.4020631,37.8848327 33.9577831,38.4405677 34.6427486,38.4405677 L34.8333145,38.4405677 C35.5178187,38.4405677 36.0733184,37.8855264 36.0733184,37.2005348 L36.0751451,35.9165462 C36.0751456,35.5691648 35.9294248,35.2383782 35.6748209,35.0029297 C35.1201603,34.4944656 34.4106315,34.2161205 33.5382378,34.1530439 L34.0021806,34.6517421 L34.0021806,33.8088637 C34.0021806,33.1240761 33.446638,32.5679172 32.7621767,32.5679172 L32.583299,32.5679172 C31.8990096,32.5679172 31.3435272,33.1241362 31.3435272,33.8088637 L31.3435272,34.7096907 L31.7103657,34.2277487 C30.2770438,34.6237784 29.1668029,35.8939876 29.1668029,37.392928 C29.1668029,38.8956344 30.0265508,39.6337108 31.7799538,40.2585863 C31.8943927,40.2993699 31.9851059,40.3307428 32.1870568,40.3998768 C33.4170968,40.8217288 33.698201,41.0173523 33.698201,41.3029311 C33.698201,41.724673 33.2626253,41.9731114 32.6728466,41.9731114 C32.1949331,41.9731114 31.662527,41.8274242 31.607708,41.7503047 C31.5908617,41.7259741 31.5515471,41.563943 31.5311917,41.307157 C31.4789681,40.662036 30.9409109,40.1657293 30.2948107,40.1657293 L30.1445592,40.1657293 C29.8135358,40.1657293 29.4971332,40.2976257 29.2637634,40.532524 C29.0303425,40.7690383 28.9005999,41.0867253 28.9036633,41.4165974 L28.9153316,42.8726648 C28.9199444,43.4252361 29.288543,43.9078763 29.8201544,44.0574823 C29.8645444,44.069766 29.9154812,44.0816299 29.9716884,44.0933548 L29.9970213,44.0993212 C30.8568873,44.339988 31.336214,44.4558557 31.7803998,44.5123887 L31.8435272,44.0163898 L31.3435272,44.0163898 L31.3435272,45.2422274 C31.3435272,45.9272235 31.8992632,46.4820428 32.5842126,46.4820428 L32.7621767,46.4820428 C33.4471382,46.4820428 34.0021806,45.9272108 34.0021806,45.2422274 L34.0021806,43.9896053 L33.605315,44.4788529 C35.1747522,44.1480121 36.4015194,42.8632964 36.4015194,41.2733767 C36.4015194,39.7469466 35.5248526,38.9063661 33.8807882,38.2704689 C33.6942399,38.1983151 33.5461327,38.145057 33.2245793,38.0323787 L33.2240814,38.0322045 Z M32.893877,38.9761138 C33.2054467,39.0852936 33.3467015,39.1360877 33.5200481,39.2031353 C34.8219057,39.7066725 35.4015194,40.2624275 35.4015194,41.2733767 C35.4015194,42.3534902 34.535054,43.2608846 33.3990461,43.5003576 L33.0021806,43.5840177 L33.0021806,43.9896053 L33.0021806,45.2422274 C33.0021806,45.3748412 32.8949383,45.4820428 32.7621767,45.4820428 L32.5842126,45.4820428 C32.4511787,45.4820428 32.3435272,45.3745688 32.3435272,45.2422274 L32.3435272,44.0163898 L32.3435272,43.5759931 L31.9066546,43.5203909 C31.5274526,43.4721286 31.0782091,43.3635329 30.244011,43.1305687 L30.1862932,43.1167119 C30.1388474,43.1066988 30.1070187,43.0992855 30.0889002,43.0942738 C29.9877404,43.0658002 29.9161967,42.9721215 29.9152981,42.8644841 L29.9036257,41.4079475 C29.9030383,41.3446526 29.9283029,41.2827899 29.9743448,41.236137 C30.0189826,41.1912108 30.0801096,41.1657293 30.1445592,41.1657293 L30.2948107,41.1657293 C30.4198936,41.1657293 30.5242658,41.2620027 30.5343856,41.3870124 C30.5676066,41.8061081 30.6419801,42.1126314 30.7894031,42.3250613 C31.0941584,42.7538465 31.8954503,42.9731114 32.6728466,42.9731114 C33.7416828,42.9731114 34.698201,42.4275441 34.698201,41.3029311 C34.698201,40.4001078 34.1423493,40.0132843 32.5112009,39.4538691 C32.3129243,39.3859929 32.2248559,39.3555347 32.1156517,39.3166167 C30.718747,38.8187895 30.1668029,38.3449565 30.1668029,37.392928 C30.1668029,36.373814 30.9528368,35.4745249 31.9766887,35.1916326 L32.3435272,35.0902744 L32.3435272,34.7096907 L32.3435272,33.8088637 C32.3435272,33.6761245 32.4515912,33.5679172 32.583299,33.5679172 L32.7621767,33.5679172 C32.8941049,33.5679172 33.0021806,33.6761128 33.0021806,33.8088637 L33.0021806,34.6517421 L33.0021806,35.1168959 L33.4661233,35.1504403 C34.1241753,35.1980193 34.6199421,35.3925065 34.9974775,35.7385934 C35.0465171,35.7839499 35.0751456,35.8489368 35.0751456,35.9158351 L35.0733189,37.1998237 C35.0733184,37.3330567 34.9657186,37.4405677 34.8333145,37.4405677 L34.6427486,37.4405677 C34.5100739,37.4405677 34.4020631,37.332554 34.4020631,37.1998532 L34.4020631,37.1558698 C34.4020631,36.2186639 33.8952726,35.7083185 32.7766058,35.7083185 C31.7914455,35.7083185 30.8701068,36.2473398 30.8701068,37.3338338 C30.8701068,38.1174452 31.3720504,38.4446396 32.8943749,38.9762879 L32.893877,38.9761138 Z M32.6522398,47.1551978 C28.6139998,47.1551978 25.3275786,43.8688902 25.3275786,39.8301741 C25.3275786,35.7922486 28.6141374,32.506064 32.6522398,32.506064 C33.2379153,32.506064 33.816408,32.5764157 34.3814332,32.7138468 L33.9996031,32.2276432 C33.9984404,33.80579 35.2569851,34.6984784 37.1047986,34.5157831 C37.3578868,34.4915913 37.6094359,34.4560637 37.8601698,34.4094718 L37.7688223,33.9178869 L37.44133,34.295708 C39.0404778,35.6818368 39.9768864,37.681804 39.9768864,39.8301741 C39.9768864,43.8692124 36.6910566,47.1551978 32.6522398,47.1551978 L32.6522398,47.1551978 Z M32.6522398,48.1551978 C37.243352,48.1551978 40.9768864,44.4214866 40.9768864,39.8301741 C40.9768864,37.3882449 39.9120085,35.113895 38.0963146,33.5400659 L37.9142978,33.3822951 L37.6774748,33.4263021 C37.4554683,33.4675559 37.2331125,33.4989604 37.0080214,33.5204784 C35.6993264,33.6498678 34.9989215,33.1530692 34.9996028,32.2283799 L34.9998925,31.8351193 L34.6177727,31.7421763 C33.9759292,31.5860607 33.3181275,31.506064 32.6522398,31.506064 C28.0618781,31.506064 24.3275786,35.2399383 24.3275786,39.8301741 C24.3275786,44.4211827 28.0617228,48.1551978 32.6522398,48.1551978 L32.6522398,48.1551978 Z M40.9725233,53.5001521 C41.7076713,53.5001521 42.3066029,54.0989039 42.3066029,54.8343187 C42.3066029,55.570293 41.7080543,56.1691815 40.9725233,56.1691815 L24.3328699,56.1691815 C23.597084,56.1691815 22.9978621,55.5700381 22.9978621,54.8343187 C22.9978621,54.0987994 23.5968984,53.5001521 24.3328699,53.5001521 L40.9725233,53.5001521 L40.9725233,53.5001521 Z M40.9725233,52.5001521 L24.3328699,52.5001521 C23.044759,52.5001521 21.9978621,53.5463692 21.9978621,54.8343187 C21.9978621,56.1223521 23.0448285,57.1691815 24.3328699,57.1691815 L40.9725233,57.1691815 C42.2604662,57.1691815 43.3066029,56.1224507 43.3066029,54.8343187 C43.3066029,53.546552 42.2598888,52.5001521 40.9725233,52.5001521 L40.9725233,52.5001521 Z M39.6803066,24.9507763 C37.6094644,26.4127635 36.0579487,27.9193309 35.1177606,29.3310665 L35.5339175,29.6082188 L35.6697698,29.1270285 C35.1677495,28.9852954 34.6534397,28.8787118 34.1282964,28.8076494 L34.538901,29.1553257 C34.0843136,27.6862875 33.3116439,25.7814923 32.1690095,23.3200415 C32.136355,23.2425434 32.0716214,23.0570175 32.0053868,22.7991565 C31.8472867,22.1836493 31.7811843,21.5214154 31.8586847,20.8619381 C32.330371,19.07721 34.0717618,17.7673475 37.5938451,17.3134446 C43.7634656,16.5170428 45.3178205,19.1486826 42.0710967,22.9302299 C41.4117818,23.6123022 40.6015232,24.3006158 39.6803677,24.9507332 L39.6803066,24.9507763 Z M40.2569857,25.767747 C41.2283389,25.082202 42.0865503,24.3531526 42.8102661,23.6031229 C46.6902782,19.0852625 44.5201486,15.4110698 37.4659258,16.32166 C33.5657997,16.8242826 31.4745405,18.3973138 30.8783685,20.6770818 C30.7721797,21.5394818 30.850242,22.321534 31.0368282,23.0479419 C31.1163822,23.3576574 31.197437,23.5899597 31.2553428,23.7261775 C32.3873325,26.1653308 33.1444199,28.0317125 33.5835941,29.4509413 L33.6779378,29.7558211 L33.9941987,29.7986175 C34.4730204,29.8634116 34.9413452,29.9604655 35.3980652,30.0894092 L35.748331,30.1882982 L35.9500744,29.8853712 C36.8159545,28.5852126 38.2804091,27.163184 40.2570467,25.7677039 L40.2569857,25.767747 Z M71.8023427,14.5889635 L71.8023427,0.861499276 L71.8023427,0.0963435436 L71.1015779,0.403576266 C66.583048,2.3846121 59.658441,4.52466653 56.6829133,4.69442767 C55.5492655,4.7588683 55.1041555,4.71965596 47.3425735,3.94867509 C46.3367841,3.84876706 45.4901193,3.76700248 44.679599,3.69222495 C38.5463439,3.12637898 34.7711455,3.00231314 32.879672,3.47562819 C31.1456891,3.90986192 26.1679282,7.16935769 18.0192255,12.9821597 C17.709584,13.2030397 17.3949408,13.4279154 17.0746718,13.6572182 C15.216186,14.9878371 5.8553383,21.7735981 4.39336083,22.7907755 C0.0611641787,25.8047285 -1.09274919,28.1936488 0.948379886,29.4936706 C2.39447477,30.4147073 5.47929993,30.382808 7.63583421,29.5560739 C9.07184606,29.0056561 11.7224227,27.7002052 15.2543718,25.8409783 C15.4882483,25.717865 15.7251675,25.5927457 15.9649544,25.4657238 C17.7592915,24.5152123 19.6416248,23.4970444 21.4974222,22.4789062 C22.1469141,22.1225783 22.7467253,21.7916905 23.2825197,21.494713 C23.6041267,21.3164542 23.8330244,21.1890572 23.9548725,21.1209942 L23.2112365,20.6704559 C23.1567665,22.6118617 23.5777832,24.5425938 24.7082132,26.4743563 C24.7765943,26.5737239 24.858932,26.6875349 24.9755423,26.846156 C25.1692373,27.1096329 25.3888604,27.4029966 25.6302683,27.7188213 C26.3201829,28.6214103 27.0471458,29.5241498 27.7784891,30.3680198 C27.8314203,30.4290194 27.8314203,30.4290194 27.8846178,30.4900167 L28.053802,29.7061945 C24.116812,31.5012556 21.530866,35.4361856 21.530866,39.8310877 C21.530866,43.5495047 23.3800239,46.9647876 26.4021898,49.0256882 L26.6838893,48.1125957 L8.32374755,48.1125957 C7.03039791,48.1125957 5.98256209,49.1603973 5.98256209,50.4538826 L5.98256209,78.7351868 C5.98256209,80.0286605 7.03040076,81.0764592 8.32374755,81.0764592 L56.9814136,81.0764592 C58.2742872,81.0764592 59.3226136,80.0284522 59.3226136,78.7351868 L59.3226136,50.4538826 C59.3226136,49.1606056 58.27429,48.1125957 56.9814136,48.1125957 L38.6212719,48.1125957 L38.9029723,49.0256875 C41.9255015,46.9645286 43.7745272,43.5500012 43.7745272,39.8310877 C43.7745272,37.1164492 42.7904173,34.5474942 41.0373868,32.534763 C40.9816484,32.4799877 40.9874785,32.4857438 40.9692629,32.467021 L40.606531,32.8111512 L40.8294657,33.2587003 C41.7600899,32.7951346 45.8192661,30.3204065 45.4213666,30.554726 C47.7505052,29.1831168 50.0641557,28.0171001 52.9917678,26.8197427 C54.6976593,26.1218881 56.2917524,25.3871372 57.7899989,24.6148417 C61.1895873,22.8624686 63.8612767,21.0676558 66.6282905,18.8443862 C67.2830366,18.3183039 69.1695022,16.7486197 69.3980522,16.563056 C70.3096022,15.822953 70.9503464,15.3588952 71.5465061,15.025294 L71.8023427,14.882132 L71.8023427,14.5889635 L71.8023427,14.5889635 Z M70.8023427,14.5889635 L71.0581793,14.1526331 C70.4006743,14.5205622 69.7202144,15.013384 68.7677322,15.7867206 C68.5321558,15.9779891 66.6483449,17.5454644 66.0019377,18.0648465 C63.2839219,20.2487466 60.6667329,22.0069466 57.3318212,23.725981 C55.8596112,24.4848557 54.2920622,25.2073718 52.6131782,25.8941781 C49.6389508,27.1106006 47.2827294,28.2980718 44.9139266,29.6930389 C45.2699372,29.4833874 41.269425,31.9223502 40.3835964,32.3636022 L39.7786185,32.6649559 L40.2437992,33.1552815 C40.2768759,33.1906208 40.3061895,33.219562 40.3445991,33.2508441 C41.8794937,35.0241978 42.7745272,37.3606246 42.7745272,39.8310877 C42.7745272,43.2154885 41.0920121,46.3225269 38.3395714,48.1995039 L37.0005933,49.1125957 L38.6212719,49.1125957 L56.9814136,49.1125957 C57.7220723,49.1125957 58.3226136,49.7129573 58.3226136,50.4538826 L58.3226136,78.7351868 C58.3226136,79.4760992 57.7220706,80.0764592 56.9814136,80.0764592 L8.32374755,80.0764592 C7.58267698,80.0764592 6.98256209,79.4763672 6.98256209,78.7351868 L6.98256209,50.4538826 C6.98256209,49.7126893 7.58267535,49.1125957 8.32374755,49.1125957 L26.6838893,49.1125957 L28.3045748,49.1125957 L26.9655888,48.1995032 C24.2135314,46.3227973 22.530866,43.215016 22.530866,39.8310877 C22.530866,35.8318388 24.8846302,32.2502104 28.468662,30.6160798 L29.0792222,30.3376964 L28.6378462,29.8322576 C28.585898,29.7726928 28.585898,29.7726928 28.5341829,29.7130948 C27.817612,28.88627 27.1030898,27.9989793 26.4247537,27.1115381 C26.1872739,26.8008523 25.9713697,26.5124562 25.7812488,26.253841 C25.6675695,26.0992068 25.5880302,25.989264 25.5468247,25.9314911 C24.5423444,24.2109451 24.1613195,22.4636107 24.2108431,20.6985018 L24.2355252,19.8187894 L23.4672071,20.2479635 C23.3462891,20.315507 23.118347,20.4423722 22.7977328,20.6200806 C22.2631589,20.9163817 21.6646054,21.2465757 21.0164288,21.602182 C19.1646021,22.6181418 17.286406,23.6340718 15.496848,24.5820516 C15.2578171,24.7086732 15.0216639,24.8333879 14.7885652,24.9560917 C11.293498,26.795904 8.66338611,28.0912757 7.27790152,28.6223265 C5.38962718,29.3462199 2.62327089,29.3748259 1.48558519,28.650219 C0.337690217,27.9191097 1.12962161,26.2795924 4.96446963,23.6116499 C6.43586062,22.587923 15.8054446,15.7958289 17.6568161,14.4703037 C17.9766216,14.2413327 18.2907935,14.0167939 18.5999543,13.7962569 C26.5412082,8.13143645 31.5799948,4.83198036 33.1225097,4.44569512 C34.8544994,4.01228871 38.5966755,4.13526933 44.5877305,4.6879961 C45.395622,4.7625311 46.2400792,4.84408248 47.243727,4.94377778 C55.1672753,5.73084724 55.5215547,5.76205778 56.7397692,5.69281005 C59.8619226,5.51468358 66.8843712,3.34439113 71.5031076,1.31942229 L70.8023427,0.861499276 L70.8023427,14.5889635 L70.8023427,14.5889635 Z" id="crowdfunding" fill="#FFFFFF" sketch:type="MSShapeGroup"></path>
    </g>
</svg>