<?xml version="1.0" encoding="UTF-8" standalone="no"?>
<svg width="123px" height="123px" viewBox="0 0 123 123" version="1.1" xmlns="http://www.w3.org/2000/svg" xmlns:xlink="http://www.w3.org/1999/xlink" xmlns:sketch="http://www.bohemiancoding.com/sketch/ns">
    <!-- Generator: Sketch 3.3.2 (12043) - http://www.bohemiancoding.com/sketch -->
    <title>earth</title>
    <desc>Created with Sketch.</desc>
    <defs></defs>
    <g id="Page-1" stroke="none" stroke-width="1" fill="none" fill-rule="evenodd" sketch:type="MSPage">
        <path d="M92.5685079,33.6738052 L91.7432986,33.7452471 L91.0029528,33.8093419 L90.85075,34.5367032 L90.6841453,35.3328892 L91.6629456,35.5377065 L91.1329131,34.6897291 L90.4980294,35.0865664 L91.0280618,35.9345437 L90.9477521,34.9377738 L89.9294265,35.0198203 L90.0097363,36.0165902 L90.9961614,35.8523788 C90.9713275,35.7032003 90.9564046,35.5760647 90.9505371,35.5077126 L90.8720358,34.5932414 L89.9542014,34.5932414 L89.5573642,34.5932414 L89.5573642,35.5932414 L90.5573642,35.5932414 L90.5573642,34.7415205 L89.5573642,34.7415205 L89.5573642,35.7415205 L91.2211781,35.7415205 L91.9045673,35.7415205 L92.1528475,35.1048277 L92.4994522,34.2159904 L91.5677828,33.8526833 L91.5918264,34.8523942 L92.2532218,34.8364872 L92.2291781,33.8367763 L92.019921,34.8146369 L92.7736884,34.9759393 L92.9829456,33.9980786 L92.084378,33.5592433 L91.756192,34.2312433 L92.6547595,34.6700786 L92.5685079,33.6738052 L92.5685079,33.6738052 Z M92.7410111,35.666352 L93.3049327,35.6175309 L93.553327,35.1089139 L93.8815131,34.4369139 L94.4426995,33.2878178 L93.1922027,33.0202179 L92.4384352,32.8589156 L92.3230737,32.8342289 L92.2051344,32.8370654 L91.5437391,32.8529723 L90.8780375,32.8689829 L90.6361134,33.4893761 L90.2895087,34.3782133 L91.2211781,34.7415205 L91.2211781,33.7415205 L89.5573642,33.7415205 L88.5573642,33.7415205 L88.5573642,34.7415205 L88.5573642,35.5932414 L88.5573642,36.5932414 L89.5573642,36.5932414 L89.9542014,36.5932414 L89.9542014,35.5932414 L88.9578657,35.6787702 C88.9679051,35.7957205 88.9887032,35.9729104 89.0233111,36.1808017 L89.1741922,37.0871505 L90.090046,37.0133602 L91.1083716,36.9313137 L91.3513697,36.9117353 L91.5580943,36.7825211 L92.192978,36.3856839 L92.5544397,36.1597505 L92.6417458,35.7425238 L92.8083504,34.9463378 L91.8295502,34.7415205 L91.9158018,35.7377939 L92.7410111,35.666352 L92.7410111,35.666352 Z M88.3398495,35.1573278 L87.1309192,35.2577929 L87.2137363,36.2543577 L88.2108952,36.3296838 L88.274244,35.4910792 L87.2770851,35.415753 L88.0583336,36.0399732 L88.5952638,35.3679732 L87.8140153,34.743753 L87.1966621,35.5304391 L87.9214063,36.0991833 L88.5387595,35.3124972 L87.5481445,35.1758153 L87.4320515,36.0172107 L88.4226665,36.1538926 L88.3398495,35.1573278 L88.3398495,35.1573278 Z M88.5054835,37.1504573 L89.3037912,37.084116 L89.4132815,36.2905744 L89.5293745,35.4491791 L89.6078634,34.8803232 L89.1561127,34.5258111 L88.4313685,33.9570669 L87.6515431,33.3450977 L87.0327668,34.1195329 L86.4958366,34.7915329 L86.3031751,35.0326602 L86.2799261,35.3404269 L86.2165773,36.1790315 L86.1282718,37.3480095 L87.2965533,37.2509224 L88.5054835,37.1504573 L88.5054835,37.1504573 Z M45.8039224,27.5314329 L45.5605735,29.0495724 L46.5479688,28.207846 L45.4635037,28.207846 C45.8857294,28.207846 46.1305041,28.4079012 46.2870644,28.6571016 C46.3298555,28.7252132 46.3514579,28.7754776 46.3668812,28.8221452 C46.3697665,28.8308753 46.364319,28.8073053 46.3570449,28.7671889 C46.3358969,28.6505579 46.3125229,28.4724242 46.2897228,28.2566566 C46.2559818,27.9373509 46.2201549,27.4742937 46.2201549,27.4463577 L45.2201549,27.4463577 L45.0670953,28.4345746 L46.6382581,28.6779235 L45.8039224,27.5314329 L45.8039224,27.5314329 Z M47.7787129,27.8479802 L47.9378243,26.8553591 L46.9443772,26.7014895 L45.3732144,26.4581407 L44.2201549,26.2795496 L44.2201549,27.4463577 C44.2201549,27.5661258 44.2598948,28.0797576 44.3007963,28.4668262 C44.3283476,28.7275566 44.3574186,28.9491075 44.389134,29.1240177 C44.411626,29.2480608 44.4357644,29.352501 44.4679034,29.4497464 C44.4987304,29.5430217 44.535614,29.6288428 44.5935467,29.7210555 C44.7657446,29.9951464 45.0259902,30.207846 45.4635037,30.207846 L46.5479688,30.207846 L47.4004403,30.207846 L47.5353641,29.3661197 L47.7787129,27.8479802 L47.7787129,27.8479802 Z M29.1063874,89.9391949 L26.4982014,89.9391949 L27.4982014,90.9391949 L27.4982014,88.1909158 L27.4982014,87.0905676 L26.4028651,87.1954707 L24.9109581,87.3383544 L24.5346826,87.3743913 L24.276328,87.6503165 L22.8770722,89.1447351 L23.5441077,88.8302003 L19.6848519,89.0735491 L20.7474247,90.0448076 L20.6997037,88.2621099 L19.7000618,89.2888693 L20.8584804,89.2888693 L21.9146411,89.2888693 L21.8569895,88.2342833 L21.8092686,87.3613531 L21.7782391,86.7937489 L21.2746528,86.530048 L19.4866528,85.5937689 L19.3351503,85.5144352 L19.1658941,85.4899568 L15.9839406,85.0297707 L16.6167189,85.3886339 L15.1435096,83.5766339 L15.0747035,84.9145807 L17.2701454,82.7191389 L16.05117,82.8710959 L17.5958212,83.791468 L17.1104035,82.8587824 L16.9862175,84.5410149 L16.9047178,85.6450153 L18.0112947,85.6142505 L19.6273877,85.5693203 L19.8607085,85.5628335 L20.0670481,85.4537253 L21.8076062,84.5333532 L20.9266966,84.5598575 L27.1479989,87.3848807 L26.5639745,86.545268 L26.802021,89.8938261 L26.8680693,90.8229158 L27.7995037,90.8229158 L29.1061084,90.8229158 L28.1061084,89.8229158 L28.1061084,90.9391949 L28.1061084,91.9391949 L29.1061084,91.9391949 L29.1063874,91.9391949 L29.1063874,90.9391949 L29.1063874,89.9391949 L29.1063874,89.9391949 Z M29.1063874,91.9391949 L29.1063874,89.9391949 L29.1061084,89.9391949 L29.1061084,90.9391949 L30.1061084,90.9391949 L30.1061084,89.8229158 L30.1061084,88.8229158 L29.1061084,88.8229158 L27.7995037,88.8229158 L28.7969864,89.7520055 L28.5589399,86.4034474 L28.5167431,85.8098724 L27.9749155,85.5638346 L21.7536131,82.7388113 L21.3066531,82.5358518 L20.8727035,82.7653156 L19.1321454,83.6856877 L19.5718057,83.5700928 L17.9557127,83.615023 L18.9807899,84.6882586 L19.104976,83.006026 L19.1504756,82.3896846 L18.6195583,82.0733404 L17.0749071,81.1529683 L16.4062842,80.7545729 L15.8559318,81.3049253 L13.6604899,83.5003672 L13.0225542,84.1383029 L13.5916838,84.838314 L15.0648931,86.650314 L15.3112191,86.953287 L15.6976714,87.0091772 L18.8796249,87.4693632 L18.5588662,87.3655511 L20.3468662,88.3018301 L20.8107595,87.4159391 L19.8122504,87.4705251 L19.8599714,88.3434553 L20.8584804,88.2888693 L20.8584804,87.2888693 L19.7000618,87.2888693 L18.6729347,87.2888693 L18.7004199,88.3156287 L18.7481409,90.0983263 L18.7758872,91.1348368 L19.8107137,91.0695849 L23.6699695,90.826236 L24.0658737,90.8012719 L24.337005,90.5117012 L25.7362608,89.0172826 L25.1016307,89.3292447 L26.5935377,89.1863609 L25.4982014,88.1909158 L25.4982014,90.9391949 L25.4982014,91.9391949 L26.4982014,91.9391949 L29.1063874,91.9391949 L29.1063874,91.9391949 Z M61.828713,0.852311161 C41.7593805,0.852311161 23.3003811,10.6887265 11.9413282,26.8581262 L10.9012863,28.3386064 L12.7081769,28.4316395 L20.8762699,28.8521976 L20.5377702,28.7743694 L26.68484,31.3772531 L26.4282015,29.6935394 L25.5605736,30.4288882 L26.3664211,30.2045211 L21.8089327,29.4691723 L20.740423,29.2967687 L20.6529169,30.3755544 L20.5814751,31.2562986 L20.5347618,31.8321858 L21.0103491,32.1602788 L22.674163,33.3080928 L23.04704,31.5041542 L20.8781097,31.935317 L20.0730851,32.0953482 L20.0730851,32.9161251 L20.0730851,34.2202181 L21.0089203,33.2222788 L16.5253854,33.5105579 L14.2186941,33.6588719 L15.9061436,35.2385351 L19.3052134,38.4204886 L19.0125068,37.9077136 L19.5918557,40.5105973 L20.1035848,39.4077005 L18.5851662,40.2038865 L19.6824088,40.3152531 L14.9027809,36.4085554 L15.2699223,37.1828228 L15.2699223,35.3736135 L15.1114928,35.9137608 L16.2727021,34.1045515 L16.6605177,33.5003197 L16.2119808,32.9396846 L15.3443529,31.8552195 L14.7718233,31.1396036 L14.0091017,31.6476901 L8.79552027,35.1207133 L9.43894381,34.9569326 L7.89959498,34.8193512 L7.20752533,34.7574966 L6.90815343,35.3845236 C6.42156254,36.4036761 5.94707894,37.4816671 5.46012304,38.6643174 L4.95968672,39.8797071 L6.26453022,40.0377959 L8.79597208,40.3444935 L8.16469324,40.0114239 L10.5769723,42.7597029 L11.328527,42.1000321 L10.529164,41.4991836 L9.92860585,42.2981604 L10.7279688,42.8990088 L11.4346043,42.1914311 L9.54865079,40.3079892 L8.81077876,39.5710998 L8.10545206,40.3391983 L7.24312648,41.2782681 L6.67831746,41.8933433 L7.18281544,42.5587819 L8.65072241,44.4949679 L8.45131045,43.8047202 L8.13651975,47.4471388 L9.13418184,46.5332423 L5.28022835,46.52794 L4.34329654,46.526651 L4.28106109,47.4615144 L4.08543319,50.400119 L4.04509118,51.0061123 L4.56422548,51.3213185 L7.82292316,53.2999231 L7.54396884,53.0478674 L8.67085256,54.5397744 L9.20875903,52.9714594 L7.50001485,53.4316454 L8.36635147,53.6019975 L3.53677007,49.919951 L2.24155555,48.9324865 L1.94697333,50.5343254 C1.59852213,52.4290858 1.34364343,54.1960538 1.18114391,55.9165109 L1.13826875,56.3704498 L1.45285953,56.7004975 L3.49760372,58.8457068 L3.22627525,58.2537985 L3.55697292,61.6104496 L3.91163768,60.7444603 L1.69498652,62.5932976 L2.3355037,63.3612414 L1.98459391,62.4248321 L1.58245438,62.5755298 L0.913163721,62.8263396 L0.933780261,63.5407838 C1.05872007,67.8704397 1.63296812,72.1258196 2.64150696,76.2652163 C3.10699015,78.1621577 3.66254953,80.0312897 4.3065245,81.8712997 C4.53535788,82.5260723 4.77738515,83.177608 5.03653657,83.8374231 L5.40089694,84.7651064 L6.32978976,84.4038407 L8.75797581,83.4594686 L7.39553491,82.5353749 L7.43265119,87.2329562 L8.43261998,87.2250553 L8.3436583,86.2290203 L7.5156583,86.3029738 L6.08639763,86.4306294 L6.70098169,87.7273053 C6.83721637,88.0147391 6.96691306,88.2792137 7.19009142,88.7280883 C7.25273492,88.8540391 7.25273492,88.8540391 7.31495864,88.9791893 L7.59074974,89.5341716 L8.21048044,89.5341716 L9.02787579,89.5341716 L9.02787579,88.5341716 L8.06633851,88.2594972 L7.8495013,89.018567 L8.81103858,89.2932414 L9.10595327,88.3377178 L8.85730211,88.2609736 L6.55862551,87.5515055 L7.67702469,89.6813981 L7.68918972,89.7038634 C7.71902355,89.7613812 7.73668865,89.7962231 7.83435233,89.9904192 C7.91143861,90.1436988 7.95820958,90.2348777 8.01227885,90.3354625 C8.1631727,90.6223768 8.28755156,90.8539558 8.41075314,91.0754067 C8.99725906,92.1414793 9.63847046,93.2178162 10.3327566,94.30641 L10.652631,94.8079514 L11.2460295,94.7662194 L12.1507737,94.7025915 L12.08062,93.7050553 L11.08062,93.7050553 L11.08062,94.7604972 L11.08062,95.7604972 L12.08062,95.7604972 L13.0462014,95.7604972 L13.5646163,95.7604972 L13.8634045,95.3368469 L16.2307534,91.9801958 L15.4135502,92.403846 L18.7040618,92.403846 L18.187895,92.2603341 L20.983895,93.9453574 L20.8016866,92.3731375 L19.4897796,93.6532305 L20.3858888,93.3887066 L18.8253307,93.0739159 L17.5661005,92.8199081 L17.6287881,94.1029712 L17.7320439,96.2163665 L17.7580189,96.7480112 L18.213542,97.0233647 L19.0362396,97.520667 L19.2404099,97.6440834 L19.4783067,97.6620345 L22.4222137,97.884174 L23.3781029,97.9563029 L23.490553,97.0043147 L24.1201344,91.6743612 L23.082638,92.5560692 L24.6272891,92.6247203 L23.8076099,92.1290612 L25.516354,95.0623635 L25.3814939,94.605039 L25.5771218,98.8505274 L25.5970174,99.2822983 L25.9251429,99.5636444 L28.5227243,101.7909 L28.2023379,101.269589 L28.9005704,104.121124 L28.9557306,103.482441 L27.2707074,107.333604 L27.5020399,107.005732 L25.306598,109.068894 L24.4393088,109.883928 L25.3916209,110.597771 C27.4207318,112.118771 29.6031151,113.536536 31.9260785,114.852369 L32.2209862,115.019418 L32.5566891,114.972733 L34.5352937,114.69757 L34.7688135,114.665094 L34.9632325,114.531725 L36.6482558,113.375818 L37.0485155,113.101244 L37.080412,112.616909 L37.3237608,108.921746 L36.3850265,109.854284 L38.3080962,109.740423 L37.2490826,108.755623 L37.2808965,111.120461 L37.2970328,112.319925 L38.4740053,112.088168 L39.5213541,111.881936 L38.4554522,111.389028 L39.1642895,112.656005 L39.5436718,111.297905 L37.6127881,112.392975 L35.7780823,113.200208 L35.6348593,113.278183 L34.0530918,114.314927 L32.6151651,115.257393 L34.1453208,116.041293 C42.6708594,120.408933 52.0977493,122.721707 61.83262,122.721707 C70.7254256,122.721707 79.3694482,120.789523 87.3121877,117.114282 L88.7110494,116.467004 L87.5498667,115.453379 L84.5741458,112.855798 L84.7851853,113.113737 L82.1030458,108.410853 L82.2308925,108.989796 L82.6118228,104.445424 L82.6437035,104.065098 L82.4140778,103.760243 L80.3799383,101.059685 L80.5651984,101.839391 L81.3931984,97.2634837 L81.5549085,96.3697996 L80.6808757,96.1230448 L79.4719455,95.7817424 L80.2002479,96.7441251 L80.2002479,86.8092414 L80.2002479,86.3131505 L79.8052476,86.0130157 C79.6987684,85.9321091 79.5124852,85.7911576 79.2718737,85.6101094 C78.870828,85.3083426 78.4665906,85.0065207 78.0844186,84.7244381 C78.0446099,84.6950636 78.0446099,84.6950636 78.0047646,84.6656971 C77.5277752,84.3142583 77.1237352,84.0222978 76.8134327,83.8063849 C76.63093,83.6793968 76.4812238,83.5789527 76.3630533,83.5049574 C76.2890457,83.4586157 76.2245475,83.4207548 76.1641901,83.389264 C75.9796297,83.2929718 75.8666657,83.2487763 75.6320618,83.2487763 C75.6825114,83.2487763 75.3091565,83.1645465 74.9927947,83.0845325 C74.9527095,83.0743801 74.9527095,83.0743801 74.9126528,83.0641818 C74.6010601,82.9847542 74.3001465,82.9050141 74.1050347,82.8522673 L74.8279901,83.6390493 L74.4866878,81.7583981 L74.4416919,81.510461 L74.2845758,81.3134534 L69.8989944,75.8143837 L70.0939267,76.6522806 L70.5276011,74.6764666 L70.549844,74.5069781 L70.6952394,71.2720013 L70.2700947,72.0460645 L73.3013506,69.9220645 L73.7909771,69.5789834 L73.7205391,68.9852854 L73.292167,65.3746808 L73.1952154,64.5575082 L72.3746623,64.4953537 L67.9388484,64.1593537 L68.6149085,64.4968676 L65.1418852,60.5396583 L64.9428231,60.3128442 L64.651523,60.2340109 L62.1890114,59.5675923 L60.5152215,59.2580983 L61.3263949,60.3757783 L61.5220228,58.9288016 L61.6551214,57.9443274 L60.6715458,57.8047431 L58.640197,57.5164641 L57.4996897,57.3546089 L57.4996897,58.5065437 L57.4996897,59.3292414 L58.4996897,59.3292414 L58.7405507,58.3586818 L53.6779461,57.1023097 L54.2737866,57.5252101 L52.2343448,54.4093962 L52.2742378,55.4382849 L53.1047495,53.9254477 L53.400734,53.3862904 L53.0530494,52.8789316 L49.8445843,48.1969781 L50.0071354,48.6043055 L49.4596005,45.1815149 L49.3249014,44.339474 L48.4721549,44.339474 L47.1655502,44.339474 L46.0248424,44.339474 L46.1741538,45.4703676 L46.6131305,48.7952048 L46.6425384,49.0179415 L46.7643953,49.2066937 L48.9757441,52.631996 L48.830974,51.9164997 L48.5929275,53.2708253 L49.7293464,52.4554844 L47.8486952,52.1672054 L48.5597999,52.6498106 L46.2454743,48.7032059 L46.3828525,49.2090553 L46.3828525,44.619753 L46.3828525,43.9912419 L45.8165174,43.7186788 L43.4095406,42.5602602 L43.9758758,43.4613344 L43.9758758,38.351846 L43.7482258,38.9870432 L48.2317607,33.5354153 L48.4921868,33.2187575 L48.4553708,32.8104213 L48.1617894,29.5542352 L47.7444597,30.459622 L49.0008318,29.5682731 L49.9969229,28.8615839 L49.1075917,28.0245073 L47.620987,26.6252515 L47.9348882,27.3910638 L48.0275394,24.9310638 L48.0452435,24.4609981 L47.6944214,24.1476307 L45.9117237,22.5552586 L45.6271373,22.3010553 L45.2455502,22.3010553 L40.2753177,22.3010553 L39.8435365,22.3010553 L39.5474545,22.6153329 L38.7300592,23.4829608 L39.4659619,23.1687156 L33.530427,23.1209946 L34.1678538,23.3571736 L31.9989235,21.5242434 L31.9334989,23.1026189 L33.6238245,21.898991 L33.0437828,22.0844042 L37.3844339,22.0844042 L38.3844339,22.0844042 L38.3844339,21.0844042 L38.3844339,20.2723112 L38.3844339,19.4090092 L37.5303751,19.2830179 L35.5043286,18.9841342 L35.971112,20.763724 L37.2777166,19.7507007 L36.816845,19.9488073 L39.6577752,19.5123422 L39.881772,19.4779285 L40.0690483,19.3503101 L44.311746,16.4591473 L43.74862,16.6327763 L51.0781084,16.6327763 L50.7906198,16.5905604 L54.8005733,17.7941883 L54.5911498,17.7042051 L55.940173,18.4766702 L56.1347485,18.5880862 L56.3582678,18.6057584 L57.5618957,18.7009212 L58.0126675,18.7365607 L58.3371561,18.4216441 L60.1251561,16.6863882 L59.4373924,16.9687386 L65.2247412,16.9185061 L64.7294965,16.7921879 L66.0307989,17.5169321 L66.1611818,17.5895473 L66.3070853,17.6209294 L68.7670853,18.1500456 L68.9773642,17.1724042 L67.9963485,17.3663325 L68.186674,18.3291232 L68.3400672,19.1050856 L69.1304986,19.1345031 L73.0371962,19.2798984 L74.6028487,19.3381672 L73.9964472,17.8935427 L73.4701216,16.6396822 L73.2204017,16.0447769 L72.5754521,16.027105 L69.1024289,15.9319422 L69.7595389,17.6605796 L70.5822365,16.8881144 L71.0386343,16.4595836 L70.8525308,15.8618353 L70.5667634,14.9439749 L70.3479737,14.2412414 L69.6119688,14.2412414 L66.4696432,14.2412414 L67.0669781,16.0432333 L70.4975828,13.4880705 L69.9002479,13.6860786 L73.1801549,13.6860786 L72.3698131,13.2720361 L73.9038596,15.3935245 L74.1826097,15.7790181 L74.6575633,15.8059618 L77.2205401,15.9513571 L77.6587878,15.9762185 L77.9737362,15.6704627 L79.5130851,14.1760441 L78.3700877,14.3533577 L79.531297,14.9327065 L79.2791411,13.3223754 L77.1551411,15.3961429 L77.8366447,15.1118061 C77.7489136,15.1133057 77.7489136,15.1133057 77.3981226,15.1193365 C76.9596352,15.1269006 76.9596352,15.1269006 76.4334,15.1360675 C76.4087609,15.1364984 76.4087609,15.1364984 76.3841305,15.1369294 C75.9802927,15.1439981 75.6491093,15.1498892 75.4139487,15.1542127 C75.2336155,15.1575577 75.2336155,15.1575577 75.1131287,15.159943 C75.0660641,15.1609234 75.0660641,15.1609234 75.0351616,15.1616753 C75.0236245,15.1619113 75.0236245,15.1619113 74.986448,15.1636845 C74.9743987,15.1644328 74.9743987,15.1644328 74.946556,15.1669615 C74.9230548,15.1696428 74.9230548,15.1696428 74.9229927,15.1696518 L74.792042,15.1951314 L74.9047816,17.1515085 C74.9923838,17.1603378 74.9923838,17.1603378 75.0125137,17.1612086 C75.044309,17.1619443 75.044309,17.1619443 75.052713,17.1618926 C74.6249754,17.1618926 74.3774428,16.9553784 74.2241428,16.7013944 C74.1830947,16.6333867 74.16354,16.5851314 74.1502196,16.5416094 C74.150077,16.5411435 74.1575808,16.5774135 74.1664586,16.6338519 C74.1892689,16.7788635 74.212544,16.9949464 74.2343193,17.2575523 C74.2519358,17.4700043 74.2675561,17.6995659 74.2809155,17.9293981 C74.2889377,18.0674105 74.2943875,18.1741795 74.2971058,18.2336214 L74.3419276,19.2137596 L75.3227409,19.1875831 L78.8884153,19.0924203 L79.5459309,19.0748722 L79.7902129,18.464167 L80.1764455,17.4985856 L79.3069697,18.1254528 L81.7669697,17.9800575 L82.5378171,17.9344975 L82.6886947,17.1771881 L82.9769738,15.7302114 L83.1782572,14.7198971 L82.1624079,14.548724 L80.7182219,14.3053752 L81.489354,15.6400188 L81.9732609,14.3387165 L81.3254557,14.9473536 L82.4364324,14.6113536 L82.0976212,14.6529544 L85.9515747,14.84328 L85.3282311,13.1045527 L83.2042311,15.0354365 L82.7717346,15.4286099 L82.9020824,15.9983889 L83.2433848,17.4902959 L83.3950885,18.1534263 L84.0675905,18.255881 L86.289544,18.5943927 L87.5084382,18.7800896 L87.4385469,17.5491137 L87.2850586,14.8457649 L86.7479349,15.7897113 L88.8747256,14.6840369 L88.5278382,14.7902132 L92.2944429,14.3565388 L91.7750887,14.2774304 L97.2214143,16.6897095 L96.6263874,15.7753809 L96.6263874,17.8463577 L96.6263874,18.6276504 L97.3844741,18.8166555 L99.1250323,19.250609 L98.4827159,17.8132588 L97.615088,19.4558635 L98.4993177,18.9229158 L96.0393177,18.9229158 L95.354318,18.9229158 L95.1068534,19.5616535 L94.3793185,21.4395139 L95.5410724,20.827418 L89.9150259,19.5021157 L90.1564489,21.3577605 L94.5738442,19.0010164 L95.871568,18.308662 L94.7504648,17.3565227 L93.0654416,15.9254529 L92.7294563,15.6401047 L92.2921608,15.6956231 L88.4806259,16.1795301 L88.1305102,16.2239803 L87.8858528,16.4783414 L87.5551552,16.8221553 L88.2758758,17.5153809 L88.650665,16.5882709 L88.6375487,16.5829685 L87.9497912,16.3049389 L87.4842213,16.8824814 L87.4180817,16.964528 L86.3839993,18.0411235 L87.022808,17.7356631 L85.2029941,17.8891515 L84.1224669,17.9802863 L84.3006282,19.0499138 L84.4513259,19.954658 L84.5423369,20.5010611 L85.0538185,20.713725 L85.6833999,20.9754924 L86.0673177,20.0521251 L85.0712286,19.9637699 L85.044717,20.2626536 L86.040806,20.3510088 L85.9008239,19.3608548 L84.4223123,19.5698781 L83.6613976,19.6774517 L83.5694743,20.4404152 L83.4662185,21.2974385 L84.4590386,21.4170553 L84.4084305,20.4183368 L82.9985701,20.4897786 L84.0382154,21.3408313 L83.7842619,19.639901 L83.6131289,18.4936862 L82.5043274,18.8308127 L79.9728856,19.6004871 L79.860322,19.6347116 L79.7587752,19.6941265 L74.5823101,22.7228707 L73.9201939,23.1102741 L74.1228396,23.8501484 L74.7074907,25.9847531 L74.8080999,26.3520847 L75.1275777,26.5594217 L76.5745544,27.4984915 L76.7613732,27.6197345 L76.9819875,27.6502369 L79.8703596,28.0495857 L79.0073177,27.0590088 L79.0073177,30.3470088 L79.0073177,31.5198825 L80.1654366,31.3344289 L81.5038552,31.1201033 L82.0205297,31.0373665 L82.2471158,30.5657133 L83.4822785,27.9946435 L82.8828091,28.5149499 L85.9564835,27.5415546 L86.6545735,27.3204779 L86.6545735,26.5882181 L86.6545735,22.6455205 L86.2573015,23.4434672 L87.9660457,22.1527695 L87.1337185,22.3281081 L91.2706487,23.304015 L90.5063008,22.2208702 L90.2180217,24.8290563 L90.0953505,25.9389158 L91.2119688,25.9389158 L92.3176432,25.9389158 L92.5500209,25.9389158 L92.7585878,25.8364501 L95.8004483,24.3420315 L94.3604034,23.4869065 L94.5057987,26.9122088 L94.5284647,27.4461862 L94.9850203,27.7240396 L97.2016715,29.0730629 L96.7227169,28.1705321 L96.6247634,30.1965786 L97.3009431,29.2983522 L95.1822454,30.0205847 L94.3391521,30.3079828 L94.5275144,31.1785709 L94.6729097,31.8505709 L94.7791071,32.3414028 L95.2362216,32.5493456 L97.7888727,33.7105549 L97.2035266,32.7662265 L97.1558057,34.1654823 L98.1552246,34.199567 L98.073635,33.202901 L97.3304722,33.2637382 L97.4120618,34.2604042 L98.4120618,34.2604042 C98.3965007,34.0355179 98.3965007,34.0355179 98.3205711,33.8257657 C98.2219202,33.6412434 98.2219202,33.6412434 98.108564,33.5161811 L97.9336416,33.3412588 L97.6973406,33.2680639 L94.4782709,32.2709476 L95.1732941,33.0916206 L95.0332011,32.0598997 L94.6113897,33.0167223 L95.5476687,32.3687223 L95.9785735,32.0704925 L95.9785735,31.5464507 L95.9785735,30.6020786 L95.9785735,29.8218236 L95.2217378,29.6320935 L94.2087145,29.37814 L93.277703,29.1447459 L93.0063465,30.0654092 L92.7498814,30.9355487 L93.7090851,31.2182646 L93.5560952,30.2300369 L91.7786999,30.5051997 L91.9316897,31.4934274 L92.2653102,30.55072 L92.0934033,30.4898828 L90.7597828,30.0179197 L90.7597828,31.4325902 L90.7597828,31.5199391 L91.7597828,31.5199391 L91.6098302,30.5312459 L90.9989465,30.623897 L91.148899,31.6125902 L92.0438188,31.166363 L91.5387025,30.1533398 L91.3770462,29.8291341 L91.0452495,29.6836934 L90.4659007,29.4297399 L90.2739816,29.3456135 L90.0644339,29.3456135 L88.7949456,29.3456135 L88.437326,29.3456135 L88.1608075,29.5723936 L87.586761,30.0431843 L87.220899,30.3432374 L87.220899,30.8164042 L87.220899,31.8665437 L87.220899,32.5884185 L87.9060638,32.8156901 L88.990529,33.175411 L89.1657171,33.216466 L90.2342752,33.3671637 L90.3739223,32.3769623 L89.9714328,31.4615377 L89.7308747,31.5673052 L89.5338767,31.6539203 L89.3899461,31.8139028 L88.4165507,32.8958563 L89.1599688,33.5646833 L89.94072,32.9398412 L89.5067665,32.3976086 L89.3007323,32.1401652 L88.981979,32.0557643 L88.0429092,31.8071131 L87.5066196,31.6651119 L87.1022739,32.0449479 L84.5286925,34.4625293 L83.6979636,35.2429028 L84.5797765,35.9650518 L84.9157765,36.2402146 L85.5493642,35.4665437 L85.0647591,34.5918107 L81.2691312,36.6946014 L81.1375057,36.7675223 L81.0331686,36.8759498 L77.4596802,40.5895312 L77.2375596,40.8203597 L77.1909086,41.1372872 L76.9475597,42.7904965 L77.3880747,42.1001874 L73.8064933,44.4516293 L73.6450491,44.5836362 L71.8782584,46.3663338 L71.5660345,46.6813688 L71.589986,47.1242651 L71.7831023,50.6952419 L73.2037122,49.7346777 L70.7437122,48.5893753 L71.3216143,49.503551 L71.3375212,47.4138766 L71.3451945,46.4058538 L70.3371425,46.4062647 L63.4915612,46.4090554 L63.2527039,46.4091528 L63.0396745,46.5171866 L59.4980001,48.3132796 L59.2208066,48.4538531 L59.0721314,48.7267868 L57.5274803,51.5624147 L57.4707276,51.6665996 L57.4399283,51.7811716 L56.8340678,54.0349391 L56.7408928,54.3815449 L56.8893924,54.708294 L57.8812063,56.8906196 L58.1136556,57.4020866 L58.6713926,57.4696185 L61.4671135,57.8081301 L61.8348314,57.8526542 L62.142826,57.6468919 L66.5811515,54.6817756 L65.0591929,54.1071182 L65.4507278,55.5803275 L65.5334277,54.8555153 L64.1791022,57.4131898 L63.532458,58.6343918 L64.8945985,58.866892 L68.272459,59.4434502 L67.4428446,58.5229647 L67.7841469,63.7418484 L67.8357091,64.5302902 L68.6146966,64.6624931 L73.2436268,65.4480745 L73.7992875,65.5423763 L74.1677099,65.1158594 L77.1038029,61.7167897 L76.1482738,62.0431491 L79.7217622,62.7678933 L79.1096935,62.373123 L80.3660656,64.1136811 L80.6871112,64.5584527 L81.2347294,64.5267306 L84.6600318,64.328312 L85.5153503,64.2787657 L85.5975843,63.4259689 L85.6955378,62.410155 L84.2595795,63.2118873 L86.1349284,64.1322594 L85.7333941,63.7738501 L87.8626964,67.0986873 L88.1526844,67.5514943 L88.6903336,67.5592762 L92.3536824,67.6122995 L91.4993199,67.107506 L92.8483431,69.4748548 L92.7193342,69.0453842 L92.9096597,71.9390586 L92.9517807,72.5794573 L93.5515217,72.8079203 L97.6064055,74.3525714 L97.7736252,74.4162715 L97.9525583,74.4180303 L103.062884,74.4682629 L102.218749,73.9886427 L103.715958,76.445852 L103.909865,76.7640917 L104.26475,76.8778176 L106.526331,77.6025618 L105.853767,76.4404313 L105.420092,78.4611755 L105.611745,78.0528895 L103.130536,81.2083314 L102.951798,81.435638 L102.921959,81.7232574 L102.197214,88.7089318 L102.571503,88.0278179 L100.331131,89.7999109 L100.980044,89.5846255 L97.6471141,89.4894627 L97.0501928,89.4724192 L96.7520874,89.9898541 L95.6411107,91.9182261 L95.445553,92.2576643 L95.5325925,92.6396136 L96.3578018,96.2608229 L96.5447449,95.4230397 L92.9288379,100.05197 L92.8390299,100.188666 L91.6803323,102.312666 L92.124581,101.890471 L88.6780694,103.548983 L88.9620786,103.461334 L86.6898926,103.805148 L85.9165183,103.92217 L85.843831,104.700963 L85.7539705,105.663754 L85.6768335,106.490222 L86.4749666,106.71822 L88.0673387,107.173104 L87.3583659,106.031473 L87.1680403,107.071008 L87.455381,106.53336 L86.0349158,107.911406 L85.3861273,108.54082 L85.9470363,109.249671 L86.8093619,110.339439 L87.0990521,110.705536 L87.5657199,110.718528 L89.2797664,110.766249 L88.310618,109.688961 L88.2073622,111.014263 L88.2607743,110.760756 L87.8058906,112.056756 L87.7598181,112.244362 L87.6063297,113.302315 L87.5264392,113.852978 L87.9522551,114.211159 L89.4017435,115.430415 L89.9205617,115.866825 L90.5180374,115.546436 C110.202403,104.990925 122.768155,84.4778292 122.768155,61.7923112 C122.766736,28.1902401 95.4288951,0.852311161 61.828713,0.852311161 L61.828713,0.852311161 Z M61.828713,2.85231116 C94.3243382,2.85231116 120.766783,29.2948407 120.768155,61.7923534 C120.768155,83.7327559 108.614597,103.572961 89.572877,113.783861 L90.6891709,113.899882 L89.2396825,112.680626 L89.5856079,113.58947 L89.7390963,112.531516 L89.6930238,112.719122 L90.1479075,111.423122 L90.1911723,111.299857 L90.2013196,111.169615 L90.3045754,109.844312 L90.3862288,108.79628 L89.335427,108.767024 L87.6213805,108.719303 L88.3777385,109.098393 L87.515413,108.008625 L87.4275334,109.346891 L88.8479985,107.968844 L89.0777026,107.746 L89.1353392,107.431196 L89.3256648,106.391661 L89.4890568,105.499234 L88.6166919,105.25003 L87.0243198,104.795147 L86.7496432,105.756683 L87.7453159,105.849613 L87.8351764,104.886822 L86.8395037,104.793893 L86.9891148,105.782637 L89.2613009,105.438824 L89.4098915,105.41634 L89.5453101,105.351174 L92.9918217,103.692663 L93.2819027,103.553071 L93.4360705,103.270468 L94.5947682,101.146468 L94.5049602,101.283164 L98.1208671,96.6542338 L98.4133899,96.2797585 L98.3078103,95.8164506 L97.482601,92.1952413 L97.3740828,92.9166287 L98.4850595,90.9882566 L97.5900328,91.488648 L100.922963,91.5838108 L101.286576,91.5941927 L101.571876,91.3685254 L103.812248,89.5964324 L104.143017,89.3348005 L104.186537,88.9153184 L104.911281,81.929644 L104.702704,82.44457 L107.183914,79.2891282 L107.326995,79.1071669 L107.375566,78.8808422 L107.809241,76.860098 L107.99932,75.9744094 L107.136676,75.6979675 L104.875095,74.9732233 L105.423887,75.405189 L103.926677,72.9479797 L103.637764,72.4738171 L103.082542,72.4683595 L97.9722166,72.4181269 L98.3183694,72.4835858 L94.2634857,70.9389346 L94.9053477,71.8077963 L94.7150221,68.9141219 L94.6999222,68.6845459 L94.5860131,68.4846512 L93.2369899,66.1173024 L92.9540486,65.6207797 L92.3826273,65.6125089 L88.7192785,65.5594857 L89.5469156,66.0200745 L87.4176133,62.6952373 L87.2669197,62.4599341 L87.016079,62.3368281 L85.1407302,61.416456 L83.843474,60.7797966 L83.7047719,62.2181883 L83.6068184,63.2340022 L84.544371,62.3316592 L81.1190687,62.5300778 L81.9877325,62.9431272 L80.7313604,61.2025691 L80.5025071,60.8855193 L80.1192917,60.8077988 L76.5458033,60.0830546 L75.9725992,59.9668023 L75.5902743,60.4094141 L72.6541812,63.8084838 L73.5782643,63.4762688 L68.9493341,62.6906874 L69.7798837,63.6113321 L69.4385814,58.3924483 L69.3870695,57.6047751 L68.608967,57.4719628 L65.2311065,56.8954047 L65.9466029,58.349107 L67.3009285,55.7914326 L67.4842503,55.4452253 L67.3836285,55.0666204 L66.9920936,53.5934111 L66.632912,52.2419361 L65.4701349,53.0187537 L61.0318093,55.9838699 L61.7075218,55.8226317 L58.9118008,55.4841201 L59.7019871,56.063119 L58.7101732,53.8807934 L58.7654977,54.5541484 L59.3713582,52.3003809 L59.2838062,52.5191379 L60.8284574,49.68351 L60.4025887,50.0970171 L63.9442631,48.3009241 L63.4923765,48.4090553 L70.3379579,48.4062646 L69.3375792,47.3986527 L69.3216722,49.4883271 L69.3167788,50.1311707 L69.8995743,50.4025028 L72.3595743,51.5478051 L73.8701641,52.2510905 L73.7801841,50.5872409 L73.5870679,47.0162642 L73.2987955,47.7741955 L75.0655862,45.9914978 L74.904142,46.1235047 L78.4857234,43.7720628 L78.860882,43.5257572 L78.9262384,43.0817537 L79.1695872,41.4285444 L78.9008156,41.9763004 L82.4743039,38.262719 L82.2383413,38.4440675 L86.0339692,36.3412768 L87.3234728,35.6268875 L86.1829518,34.6928728 L85.8469518,34.41771 L85.2133642,35.1913809 L85.8980358,35.9202326 L88.4716172,33.5026512 L87.7869456,32.7737995 L87.5309819,33.7404859 L88.4700517,33.9891371 L88.7260153,33.0224507 L87.9452641,33.6472927 L88.3792176,34.1895253 L89.1153913,35.1093873 L89.9033869,34.2335103 L90.8767822,33.1515568 L90.1333642,32.4827298 L90.5358536,33.3981544 L90.7764118,33.2923869 L93.9941562,31.8776246 L90.5135694,31.386761 L89.4450113,31.2360633 L89.6201994,31.2771183 L88.5357343,30.9173974 L89.220899,31.8665437 L89.220899,30.8164042 L88.220899,30.8164042 L88.8550371,31.5896241 L89.4290836,31.1188334 L88.7949456,30.3456135 L88.7949456,31.3456135 L90.0644339,31.3456135 L90.0644339,30.3456135 L89.6629672,31.2614871 L90.242316,31.5154406 L90.6437828,30.599567 L89.7488631,31.0457942 L90.2539793,32.0588174 L90.5789105,32.710475 L91.2988516,32.6012834 L91.9097353,32.5086323 L92.7597828,32.3797078 L92.7597828,31.5199391 L92.7597828,31.4325902 L91.7597828,31.4325902 L91.4261623,32.3752977 L91.5980692,32.4361349 L91.8356387,32.5202098 L92.0846796,32.4816552 L93.862075,32.2064924 L94.48895,32.1094444 L94.6682888,31.5009806 L94.9247539,30.630841 L93.9655502,30.3481251 L93.7223859,31.3181102 L94.7354092,31.5720637 L94.9785735,30.6020786 L93.9785735,30.6020786 L93.9785735,31.5464507 L94.9785735,31.5464507 L94.4094782,30.7241791 L93.4731991,31.3721791 L92.9688613,31.721232 L93.0513877,32.3290017 L93.1914808,33.3607227 L93.277293,33.9926908 L93.886504,34.1813957 L97.1055737,35.178512 L97.4014572,34.2232879 L96.6943504,34.9303947 C96.5836453,34.8079835 96.5836453,34.8079835 96.492948,34.6380427 C96.4249718,34.4494997 96.4249718,34.4494997 96.4120618,34.2604042 L96.4120618,35.3456119 L97.4936515,35.2570702 L98.2368143,35.196233 L99.124293,35.1235817 L99.1546436,34.2336517 L99.2023645,32.8343959 L99.2251359,32.166702 L98.6170184,31.8900674 L96.0643672,30.7288581 L95.6502944,31.6391019 L96.6276791,31.4276328 L96.4822837,30.7556328 L95.504899,30.9671019 L95.8275527,31.913619 L97.9462503,31.1913864 L98.5896064,30.9720759 L98.62243,30.29316 L98.7203835,28.2671135 L98.7490814,27.673533 L98.2414289,27.3645827 L96.0247778,26.0155594 L96.5039994,26.8273903 L96.358604,23.4020879 L96.2936307,21.8714116 L94.9185591,22.5469629 L91.8766986,24.0413815 L92.3176432,23.9389158 L91.2119688,23.9389158 L92.2059159,25.0487754 L92.494195,22.4405893 L92.5914482,21.5606973 L91.7298471,21.3574445 L87.5929169,20.3815375 L87.1355562,20.2736456 L86.7605897,20.5568761 L85.0518455,21.8475738 L84.6545735,22.1476526 L84.6545735,22.6455205 L84.6545735,26.5882181 L85.3526634,25.6348817 L82.278989,26.6082771 L81.8667632,26.738824 L81.6795196,27.1285835 L80.4443568,29.6996532 L81.1876173,29.1452632 L79.8491987,29.3595888 L81.0073177,30.3470088 L81.0073177,27.0590088 L81.0073177,26.1877569 L80.1442757,26.068432 L77.2559036,25.6690831 L77.6633367,25.8208285 L76.2163599,24.8817587 L76.6364469,25.4564274 L76.0517957,23.3218227 L75.5923253,24.4491005 L80.7687904,21.4203563 L80.55468,21.5139957 L83.0861218,20.7443213 L81.8061873,19.9352329 L82.0601408,21.6361632 L82.1940577,22.5331118 L83.0997862,22.4872158 L84.5096467,22.4157739 L85.3510799,22.373136 L85.4518587,21.5366722 L85.5551145,20.679649 L84.5622944,20.5600321 L84.7022765,21.5501861 L86.1807882,21.3411629 L86.9667598,21.2300468 L87.0368951,20.4393641 L87.0634067,20.1404804 L87.1281824,19.410219 L86.4512354,19.1287578 L85.821654,18.8669904 L85.4377363,19.7903577 L86.4241466,19.6260574 L86.2734489,18.7213132 L85.2870386,18.8856135 L85.3710831,19.8820755 L87.190897,19.7285871 L87.5681191,19.6967711 L87.8297057,19.4231268 L88.9194732,18.2831268 L89.0412978,18.1376758 L88.2627595,17.5100786 L87.8879703,18.4371887 L87.9010866,18.442491 L88.5279062,18.6958862 L88.9965964,18.2086065 L89.3272941,17.8647926 L88.6065735,17.171567 L88.732521,18.1636039 L92.5440559,17.6796969 L91.7707751,17.4498671 L93.4557984,18.8809369 L93.632419,17.2364432 L89.2150236,19.5931874 L86.8761589,20.8410055 L89.4564467,21.4488322 L95.0824932,22.7741345 L95.9297772,22.9737254 L96.244247,22.1620386 L96.9717819,20.2841781 L96.0393177,20.9229158 L98.4993177,20.9229158 L99.102043,20.9229158 L99.3835473,20.3899681 L100.251175,18.7473635 L100.847297,17.6187788 L99.6088589,17.3100133 L97.8683007,16.8760598 L98.6263874,17.8463577 L98.6263874,15.7753809 L98.6263874,15.1246008 L98.0313606,14.8610524 L92.585035,12.4487733 L92.3361258,12.3385268 L92.0656808,12.3696649 L88.2990761,12.8033393 L88.1158405,12.8244365 L87.9521888,12.9095156 L85.8253981,14.0151901 L85.2516163,14.3134873 L85.2882744,14.9591365 L85.4417628,17.6624854 L86.5907657,16.6172064 L84.3688122,16.2786948 L85.193018,17.0442799 L84.8517157,15.5523729 L84.549567,16.5153254 L86.673567,14.5844417 L88.4555272,12.9644991 L86.0502234,12.8457144 L82.19627,12.6553888 L82.0232613,12.6468449 L81.8574587,12.6969896 L80.746482,13.0329896 L80.2715989,13.1766116 L80.0986767,13.6416268 L79.6147697,14.9429291 L79.193199,16.0765994 L80.3859018,16.2775728 L81.8300879,16.5209216 L81.015522,15.3394342 L80.7272429,16.7864109 L81.648968,15.9835416 L79.188968,16.1289369 L78.5552571,16.1663917 L78.3194921,16.7558042 L77.9332596,17.7213856 L78.8350572,17.0931322 L75.2693828,17.188295 L76.2950179,18.1422568 C76.2919454,18.0750707 76.2860842,17.9602409 76.2775454,17.8133405 C76.263303,17.5683181 76.2466123,17.323025 76.2274788,17.0922793 C76.2020041,16.7850596 76.1741309,16.5262879 76.1421651,16.3230727 C76.1199201,16.1816551 76.0954954,16.0635972 76.0626526,15.956289 C76.0320738,15.8563781 75.9950804,15.765089 75.9364174,15.6678976 C75.7649056,15.3837406 75.4989935,15.1618926 75.052713,15.1618926 C75.0554189,15.1618285 75.0554189,15.1618285 75.0844743,15.1625036 C75.1041467,15.1633557 75.1041467,15.1633557 75.1197175,15.1644017 L75.2978594,15.1935209 L75.3040734,17.1284767 C75.1732113,17.1539366 75.1732113,17.1539366 75.1732956,17.1539271 C75.1223603,17.1590991 75.1223603,17.1590991 75.1108389,17.1598124 C75.0810586,17.1612545 75.0810586,17.1612545 75.0878326,17.1609816 C75.1093742,17.160458 75.1093742,17.160458 75.1540084,17.1595252 C75.2713959,17.1572013 75.2713959,17.1572013 75.4507128,17.1538748 C75.6851546,17.1495645 76.0158353,17.1436823 76.4191327,17.1366231 C76.4437441,17.1361924 76.4437441,17.1361924 76.4683647,17.1357618 C76.9942699,17.1266006 76.9942699,17.1266006 77.4325662,17.1190399 C77.7832021,17.1130118 77.7832021,17.1130118 77.8708278,17.1115139 L78.268062,17.1047236 L78.5523314,16.8271771 L80.6763314,14.7534097 L81.6826064,13.7709331 L80.4241755,13.1430786 L79.2629662,12.5637298 L78.6286172,12.2472413 L78.1199688,12.7410433 L76.58062,14.2354619 L77.3338161,13.9545675 L74.7708394,13.8091722 L75.5245432,14.2216095 L73.9904967,12.1001211 L73.6911029,11.6860786 L73.1801549,11.6860786 L69.9002479,11.6860786 L69.568762,11.6860786 L69.302913,11.8840867 L65.8723083,14.4392495 L63.4529236,16.2412414 L66.4696432,16.2412414 L69.6119688,16.2412414 L69.6119688,15.2412414 L68.6571743,15.5385079 L68.9429417,16.4563684 L69.8977363,16.1591019 L69.213236,15.4300893 L68.3905383,16.2025544 L66.6203246,17.8646818 L69.0476483,17.9311918 L72.5206716,18.0263546 L71.6260021,17.4137773 L72.1523277,18.6676378 L73.1115786,17.2812821 L69.2048809,17.1358867 L69.1676897,18.1351949 L70.1487054,17.9412666 L69.9583799,16.9784759 L69.8308009,16.3330982 L69.187643,16.1947627 L66.727643,15.6656465 L67.0039295,15.7696437 L65.7026271,15.0448995 L65.4716994,14.9162872 L65.2073824,14.9185814 L59.4200336,14.9688139 L59.0196213,14.9722894 L58.7322699,15.2511643 L56.9442699,16.9864201 L57.7195303,16.707143 L56.5159024,16.6119802 L56.9339972,16.7410684 L55.5849739,15.9686033 L55.4854234,15.9115996 L55.3755504,15.8786201 L51.3655969,14.6749922 L51.2249522,14.6327763 L51.0781084,14.6327763 L43.74862,14.6327763 L43.4402894,14.6327763 L43.185494,14.8064052 L38.9427963,17.697568 L39.3540694,17.535536 L36.5131392,17.9720011 L36.257038,18.0113471 L36.0522675,18.1701077 L34.7456629,19.1831309 L32.8918773,20.6203888 L35.2124462,20.9627207 L37.2384927,21.2616044 L37.3844339,20.2723112 L36.3844339,20.2723112 L36.3844339,21.0844042 L37.3844339,21.0844042 L37.3844339,20.0844042 L33.0437828,20.0844042 L32.7241278,20.0844042 L32.463741,20.2698174 L30.7734155,21.4734453 L29.7242801,22.2205017 L30.7079909,23.0518208 L32.8769211,24.884751 L33.1529566,25.1180245 L33.5143478,25.12093 L39.4498827,25.1686509 L39.8864273,25.1721607 L40.1857854,24.8544057 L41.0031808,23.9867778 L40.2753177,24.3010553 L45.2455502,24.3010553 L44.5793767,24.0468521 L46.3620744,25.6392242 L46.0289564,24.8557911 L45.9363052,27.3157911 L45.9191967,27.7700428 L46.2502064,28.0816034 L47.7368111,29.4808592 L47.843571,27.9370934 L46.5871989,28.8284422 L46.1182361,29.1611537 L46.1698692,29.733829 L46.4634506,32.990015 L46.6870606,32.265021 L42.2035257,37.7166489 L41.9758758,37.9934535 L41.9758758,38.351846 L41.9758758,43.4613344 L41.9758758,44.0898455 L42.542211,44.3624087 L44.9491877,45.5208273 L44.3828525,44.619753 L44.3828525,49.2090553 L44.3828525,49.4806346 L44.5202307,49.7149048 L46.8345563,53.6615094 L47.0752784,54.0720112 L47.545661,54.1441146 L49.4263122,54.4323937 L50.3933655,54.5806302 L50.5627311,53.6170529 L50.8007776,52.2627273 L50.8686461,51.8766009 L50.6560074,51.547231 L48.4446586,48.1219286 L48.5959234,48.5334175 L48.1569466,45.2085803 L47.1655502,46.339474 L48.4721549,46.339474 L47.4847092,45.4974331 L48.0322441,48.9202238 L48.0677457,49.1421543 L48.1947952,49.3275512 L51.4032603,54.0095047 L51.3515603,52.9629886 L50.5210486,54.4758258 L50.232055,55.0022487 L50.5609417,55.5047145 L52.6003836,58.6205285 L52.815318,58.9489006 L53.1962241,59.0434289 L58.2588287,60.299801 L59.4996897,60.6077419 L59.4996897,59.3292414 L59.4996897,58.5065437 L58.4996897,58.5065437 L58.3591825,59.4966234 L60.3905313,59.7849024 L59.5400544,58.660844 L59.3444265,60.1078208 L59.2165259,61.0538474 L60.1555999,61.2255007 L61.747972,61.5165705 L64.1290658,62.1645649 L63.6387036,61.8589175 L67.1117268,65.8161268 L67.3808942,66.1228197 L67.7877869,66.1536407 L72.2236009,66.4896407 L71.3060962,65.6103137 L71.7344683,69.2209183 L72.1536568,68.2841392 L69.122401,70.4081392 L68.7193534,70.6905546 L68.6972564,71.1822024 L68.551861,74.4171791 L68.574104,74.2476906 L68.1404295,76.2235045 L68.0382809,76.6888923 L68.3353619,77.0614014 L72.7209433,82.5604712 L72.5188313,82.1155265 L72.8601336,83.9961777 L72.9729868,84.6180239 L73.583089,84.7829596 C73.6349086,84.7969675 73.7239961,84.820845 73.8401276,84.8516191 C74.0336279,84.9028954 74.2302595,84.9541898 74.4186336,85.0022079 C74.4604297,85.012849 74.4604297,85.012849 74.5023978,85.0234783 C75.1546593,85.1884479 75.4220696,85.2487763 75.6320618,85.2487763 C75.4211435,85.2487763 75.3547973,85.2228193 75.239059,85.1624342 C75.2453389,85.1657107 75.2682262,85.1791456 75.3016244,85.2000587 C75.3873432,85.2537337 75.5128714,85.3379557 75.6711241,85.4480703 C75.9636998,85.6516487 76.3547348,85.9342117 76.8184256,86.2758523 C76.8575699,86.3047021 76.8575699,86.3047021 76.8967051,86.3335796 C77.2733718,86.6115988 77.6728749,86.9098859 78.0693692,87.208228 C78.3072816,87.3872452 78.4911169,87.5263446 78.5952482,87.6054671 L78.2002479,86.8092414 L78.2002479,96.7441251 L78.2002479,97.5008952 L78.9285503,97.7065078 L80.1374805,98.0478101 L79.4251578,96.9073712 L78.5971578,101.483278 L78.5192842,101.913643 L78.782418,102.262984 L80.8165575,104.963542 L80.6188125,104.278361 L80.2378823,108.822733 L80.2119542,109.132046 L80.365729,109.401676 L83.0478686,114.10456 L83.1315926,114.251362 L83.2589081,114.362499 L86.2346291,116.960081 L86.4723081,115.299178 C78.7908418,118.853524 70.4331386,120.721707 61.83262,120.721707 C52.4175502,120.721707 43.3028521,118.485526 35.0572215,114.261283 L35.1494505,115.987649 L36.7312179,114.950905 L36.5879949,115.02888 L38.5110646,114.177159 L40.5303123,113.037601 L41.3951149,112.547142 L40.9096947,111.679501 L40.2008575,110.412524 L39.8466825,109.779471 L39.1349556,109.919617 L38.0876067,110.125849 L39.2807155,111.093557 L39.2489016,108.72872 L39.2348209,107.682052 L38.1898879,107.74392 L36.2668181,107.85778 L35.3860628,107.909928 L35.3280838,108.790318 L35.0847349,112.485481 L35.5168912,111.726572 L33.8318679,112.882479 L34.2598067,112.716634 L32.2812021,112.991797 L32.9118127,113.11216 C30.6612846,111.837358 28.5502999,110.465976 26.5912004,108.997456 L26.6762233,110.526333 L28.8716652,108.46317 L29.0209052,108.322922 L29.1029977,108.135297 L30.7880209,104.284135 L30.9236609,103.974126 L30.8431812,103.645452 L30.1449486,100.793917 L30.0685187,100.481782 L29.8245622,100.272606 L27.2269808,98.04535 L27.5750019,98.758467 L27.379374,94.5129787 L27.3680747,94.267764 L27.2445138,94.0556541 L25.5357696,91.1223518 L25.2611437,90.6509173 L24.7160904,90.6266927 L23.1714392,90.5580415 L22.2429656,90.516776 L22.1339427,91.4397495 L21.5043614,96.769703 L22.5727007,95.8898436 L19.6287937,95.6677041 L19.5535502,96.6648693 L20.0708608,95.8090716 L19.2481631,95.3117692 L18.7308525,96.167567 L19.7296611,96.1187674 L19.6264053,94.0053721 L18.4298627,95.0344273 L19.9904209,95.349218 L20.5083587,95.4536948 L20.8865301,95.0846942 L22.1984371,93.8046011 L23.1249491,92.9005571 L22.0162286,92.2323812 L19.2202286,90.547358 L18.9820958,90.403846 L18.7040618,90.403846 L15.4135502,90.403846 L14.8951353,90.403846 L14.5963471,90.8274963 L12.2289982,94.1841475 L13.0462014,94.7604972 L13.0462014,93.7604972 L12.08062,93.7604972 L12.08062,94.7604972 L13.08062,94.7604972 L13.08062,93.7050553 L13.08062,92.6322585 L12.0104663,92.7075192 L11.1057221,92.7711471 L11.1758758,93.7686833 L12.018995,93.2309565 C11.3472827,92.1777571 10.7280993,91.1383963 10.1607739,90.1072099 C10.0440935,89.8974577 9.92653473,89.6785768 9.77809037,89.3964046 C9.73072997,89.3082159 9.69053736,89.2298613 9.62112019,89.0918311 C9.51706415,88.8849243 9.49755445,88.8464442 9.44775015,88.7515963 L9.43558512,88.729131 L8.56238742,89.2164972 L8.26747273,90.1720208 L8.5161239,90.248765 L9.49203954,90.5499735 L9.77257587,89.5679158 L9.98941308,88.8088461 L10.3535388,87.5341716 L9.02787579,87.5341716 L8.21048044,87.5341716 L8.21048044,88.5341716 L9.10600225,88.089154 C9.04338263,87.9632076 9.04338263,87.9632076 8.98095034,87.8376814 C8.763022,87.3993662 8.63767377,87.1437588 8.50825827,86.8707124 L7.60461998,87.2990088 L7.69358165,88.2950439 L8.52158165,88.2210904 L9.43987298,88.1390725 L9.43258877,87.2171544 L9.39547249,82.5195731 L9.38401961,81.070052 L8.03303159,81.5954793 L5.60484555,82.5398514 L5.96731765,83.471846 L6.89809873,83.106269 C6.64811313,82.4697907 6.41491228,81.8420156 6.19439714,81.2110447 C5.57136913,79.4308854 5.03406289,77.6231646 4.58427259,75.7901805 C3.609283,71.788476 3.053839,67.6724406 2.93294807,63.4830943 L1.93336417,63.5119391 L2.28427395,64.4483483 L2.68641349,64.2976507 L2.84553019,64.2380233 L2.97602088,64.1291852 L5.19267204,62.280348 L5.59924507,61.9412386 L5.5473368,61.4143587 L5.21663913,58.0577076 L5.18287955,57.7150407 L4.94531066,57.4657993 L2.90056647,55.32059 L3.1722821,56.1045766 C3.32891939,54.4461857 3.57556627,52.7362854 3.91398756,50.8960643 L2.32419082,51.5104388 L7.15377221,55.1924853 L7.54503376,55.490781 L8.02010883,55.3628374 L9.72885302,54.9026513 L11.1601933,54.5171736 L10.2667595,53.3343363 L9.13987577,51.8424293 L9.02451948,51.6897065 L8.86092145,51.5903736 L5.60222378,49.611769 L6.08101607,50.5329684 L6.27664398,47.5943637 L5.27747672,48.5279381 L9.13143021,48.5332404 L10.0500009,48.5345042 L10.1290923,47.619344 L10.443883,43.9769254 L10.4770268,43.5934213 L10.244471,43.2866777 L8.77656406,41.3504916 L8.71625302,42.6310054 L9.5785786,41.6919356 L8.13537986,41.7231448 L10.0213334,43.6065866 L10.8357553,44.419924 L11.5273318,43.4998573 L12.1278899,42.7008805 L12.6162337,42.0511926 L12.0800816,41.4403613 L9.66780253,38.6920822 L9.41578524,38.4049621 L9.03652369,38.3590125 L6.50508183,38.0523148 L7.30948902,39.4257933 C7.78326001,38.2751646 8.24323642,37.2301328 8.71299351,36.2462383 L7.72155196,36.8114106 L9.2609008,36.948992 L9.61143212,36.9803212 L9.90432434,36.7852113 L15.1179057,33.3121881 L13.7826545,33.1046586 L14.6502824,34.1891237 L14.5895611,33.0242569 L13.4283518,34.8334662 L13.2699223,35.0803055 L13.2699223,35.3736135 L13.2699223,37.1828228 L13.2699223,37.6570019 L13.6370637,37.9570902 L18.4166916,41.8637879 L18.9285047,42.2821256 L19.5139343,41.9751544 L21.0323529,41.1789683 L21.7104263,40.8234191 L21.5440819,40.0760715 L20.9647331,37.4731878 L20.897601,37.1715786 L20.6720266,36.9604128 L17.2729568,33.7784593 L16.653715,35.5064365 L21.1372499,35.2181575 L22.0730851,35.1579858 L22.0730851,34.2202181 L22.0730851,32.9161251 L21.2680605,33.8969333 L23.4369907,33.4657705 L25.7564105,33.0046918 L23.8098677,31.6618319 L22.1460537,30.5140179 L21.5782014,31.3371484 L22.5749277,31.4179982 L22.6463695,30.537254 L21.6496432,30.4564042 L21.4903538,31.4436361 L26.0478422,32.1789849 L26.5024218,32.2523312 L26.8536896,31.9546179 L27.7213175,31.219269 L28.960559,30.168963 L27.4646791,29.5355553 L21.3176093,26.9326715 L21.1552218,26.863911 L20.9791096,26.8548433 L12.8110165,26.4342852 L13.5778653,28.0077985 C24.5668178,12.3652298 42.4187438,2.85231116 61.828713,2.85231116 L61.828713,2.85231116 Z" id="earth" fill="#000000" sketch:type="MSShapeGroup"></path>
    </g>
</svg>