<?xml version="1.0" encoding="UTF-8" standalone="no"?>
<svg width="107px" height="67px" viewBox="0 0 107 67" version="1.1" xmlns="http://www.w3.org/2000/svg" xmlns:xlink="http://www.w3.org/1999/xlink" xmlns:sketch="http://www.bohemiancoding.com/sketch/ns">
    <!-- Generator: Sketch 3.3.2 (12043) - http://www.bohemiancoding.com/sketch -->
    <title>gamepad</title>
    <desc>Created with Sketch.</desc>
    <defs></defs>
    <g id="Page-1" stroke="none" stroke-width="1" fill="none" fill-rule="evenodd" sketch:type="MSPage">
        <path d="M88.117255,27.6515434 C86.6543616,27.6515434 85.4708926,26.4642178 85.4708926,24.9978378 C85.4708926,23.5372897 86.6553585,22.3507411 88.117255,22.3507411 C89.5789521,22.3507411 90.7633971,23.5373229 90.7633971,24.9978378 C90.7633971,26.4643233 89.5800302,27.6515434 88.117255,27.6515434 L88.117255,27.6515434 Z M88.117255,28.6515434 C90.133044,28.6515434 91.7633971,27.0158816 91.7633971,24.9978378 C91.7633971,22.9854413 90.1316408,21.3507411 88.117255,21.3507411 C86.1026801,21.3507411 84.4708926,22.9853979 84.4708926,24.9978378 C84.4708926,27.0157756 86.1013472,28.6515434 88.117255,28.6515434 L88.117255,28.6515434 Z M82.5908571,20.9616003 C82.2589077,21.0920825 81.9413947,21.159402 81.6266312,21.159402 C80.1639826,21.159402 78.9800485,19.9727496 78.9800485,18.5092089 C78.9800485,17.0456788 80.1639842,15.8590281 81.6266312,15.8590281 C81.9407497,15.8590281 82.2580703,15.9264439 82.5911056,16.0571477 C83.5984084,16.452654 84.2727732,17.4167563 84.2727732,18.5092089 C84.2727732,19.600886 83.5993513,20.5629619 82.5899708,20.9619497 L82.5908571,20.9616003 Z M82.9575742,21.8919323 C84.3437301,21.3440128 85.2727732,20.0167469 85.2727732,18.5092089 C85.2727732,17.0006648 84.3422957,15.6704122 82.9565107,15.1262991 C82.5131296,14.9522887 82.0741595,14.8590281 81.6266312,14.8590281 C79.611186,14.8590281 77.9800485,16.4939062 77.9800485,18.5092089 C77.9800485,20.5245217 79.6111838,22.159402 81.6266312,22.159402 C82.0747069,22.159402 82.5141671,22.0662271 82.9566879,21.8922817 L82.9575742,21.8919323 Z M82.5913542,33.94548 C82.2576116,34.0762557 81.9403858,34.1436971 81.6266312,34.1436971 C81.6621506,34.1436971 81.6762439,34.1467097 81.6782637,34.1473175 C81.6761156,34.1466705 81.6761156,34.1466705 81.6737118,34.1459452 C81.5939555,34.1218844 81.5470296,34.1108386 81.4687433,34.106599 C80.2577581,34.0332355 79.2860392,33.1407913 79.0772374,31.9285309 C79.0650961,31.8555481 79.0509432,31.7978877 79.0222192,31.6935939 C79.0210524,31.6893582 79.0210524,31.6893582 79.0199022,31.685185 C78.9883196,31.5705855 78.9800485,31.5296333 78.9800485,31.4937243 C78.9800485,30.0301942 80.1639842,28.8435434 81.6266312,28.8435434 C81.941114,28.8435434 82.2585245,28.9109326 82.5908571,29.0415654 C83.5983598,29.4367702 84.2727732,30.4009946 84.2727732,31.4937243 C84.2727732,32.5847301 83.5993472,33.5466574 82.5898191,33.9460844 L82.5913542,33.94548 Z M82.9577259,34.8759471 C84.3437864,34.3275424 85.2727732,33.0005698 85.2727732,31.4937243 C85.2727732,29.984861 84.3421692,28.6543551 82.9563586,28.1107547 C82.5138468,27.9368128 82.0745381,27.8435434 81.6266312,27.8435434 C79.611186,27.8435434 77.9800485,29.4784216 77.9800485,31.4937243 C77.9800485,31.6483118 78.0008668,31.7513879 78.0558427,31.9508712 C78.0569882,31.9550279 78.0569882,31.9550279 78.058116,31.9591217 C78.0779715,32.0312149 78.0860711,32.0642135 78.0912803,32.0955061 C78.3784551,33.7628309 79.7288183,35.0030288 81.4114739,35.1049526 C81.3877351,35.1036773 81.3800544,35.1018693 81.3848885,35.1033277 C81.3873531,35.1040713 81.3873531,35.1040713 81.3900726,35.1048904 C81.4769203,35.1310281 81.5361871,35.1436971 81.6266312,35.1436971 C82.0737817,35.1436971 82.5124069,35.0504465 82.9561909,34.8765515 L82.9577259,34.8759471 Z M75.1355667,27.6515434 C73.6741142,27.6515434 72.4894247,26.4634533 72.4894247,24.9978378 C72.4894247,23.5379716 73.6749727,22.3507411 75.1355667,22.3507411 C76.5980133,22.3507411 77.7836793,23.5376335 77.7836793,24.9978378 C77.7836793,26.4638491 76.5988148,27.6515434 75.1355667,27.6515434 L75.1355667,27.6515434 Z M75.1355667,28.6515434 C77.1516342,28.6515434 78.7836793,27.0156005 78.7836793,24.9978378 C78.7836793,22.98558 77.1505296,21.3507411 75.1355667,21.3507411 C73.1223702,21.3507411 71.4894247,22.986004 71.4894247,24.9978378 C71.4894247,27.0150974 73.1211868,28.6515434 75.1355667,28.6515434 L75.1355667,28.6515434 Z M67.5112029,52.6735837 C63.2542097,52.6735837 59.8032632,49.2221254 59.8032632,44.9644936 C59.8032632,40.7068157 63.2542559,37.2551832 67.5112029,37.2551832 C71.7680859,37.2551832 75.2191425,40.7067517 75.2191425,44.9644936 C75.2189356,49.222116 71.7679798,52.6735837 67.5112029,52.6735837 L67.5112029,52.6735837 Z M67.5112029,53.6735837 C72.3202896,53.6735837 76.2189088,49.7743863 76.2191425,44.9645179 C76.2191425,40.1545002 72.3204038,36.2551832 67.5112029,36.2551832 C62.7019296,36.2551832 58.8032632,40.1545724 58.8032632,44.9644936 C58.8032632,49.7743769 62.7018918,53.6735837 67.5112029,53.6735837 L67.5112029,53.6735837 Z M39.4888074,52.6735837 C35.2319946,52.6735837 31.781088,49.2220977 31.781088,44.9644936 C31.781088,40.7068434 35.2320408,37.2551832 39.4888074,37.2551832 C43.7456442,37.2551832 47.1965267,40.7067056 47.1965267,44.9644936 C47.1967336,49.2220246 43.7456863,52.6735837 39.4888074,52.6735837 L39.4888074,52.6735837 Z M39.4888074,53.6735837 C44.2980124,53.6735837 48.1967604,49.7742574 48.1965267,44.9644693 C48.1965267,40.1544623 44.2979704,36.2551832 39.4888074,36.2551832 C34.6797101,36.2551832 30.781088,40.1546045 30.781088,44.9644936 C30.781088,49.7743449 34.6796723,53.6735837 39.4888074,53.6735837 L39.4888074,53.6735837 Z M29.6955071,32.721347 C29.6955071,32.7689057 29.6845923,32.8205432 29.6456049,32.955112 C29.6385401,32.9794846 29.6385401,32.9794846 29.6310861,33.0054894 C29.6290186,33.0127583 29.6290186,33.0127583 29.6269314,33.020153 C29.5148196,33.420796 29.2094035,33.7151129 28.8002003,33.8160396 C28.7751475,33.8213099 28.745989,33.8287206 28.691538,33.8433638 C28.6841599,33.8453585 28.6841599,33.8453585 28.6770431,33.8472861 C28.5896273,33.8709602 28.5606053,33.8767108 28.5401923,33.8767108 L27.3380748,33.8767108 L23.0957899,33.8767108 C22.45785,33.8767108 21.9404751,33.3589659 21.9404751,32.721347 L21.9404751,29.3791662 L21.9404751,28.8791662 L21.4404751,28.8791662 L18.0960056,28.8791662 C17.4581908,28.8791662 16.9411314,28.3615466 16.9411314,27.7238024 L16.9411314,22.2784821 C16.9411314,21.640757 17.4583798,21.1228981 18.0960056,21.1228981 L21.4406954,21.1228981 L21.9406954,21.1228981 L21.9406954,20.6228981 L21.9406954,17.2745612 C21.9406954,16.6368723 22.458128,16.1189771 23.0960102,16.1189771 L27.3382951,16.1189771 L28.5404126,16.1189771 C29.1782322,16.1189771 29.6955071,16.6368096 29.6955071,17.2745612 L29.6955071,20.6228981 L29.6955071,21.1228981 L30.1955071,21.1228981 L33.5401969,21.1228981 C34.1780742,21.1228981 34.6955117,21.6408007 34.6955117,22.2784821 L34.6955117,27.7238024 C34.6955117,28.3614213 34.1781367,28.8791662 33.5401969,28.8791662 L30.1955071,28.8791662 L29.6955071,28.8791662 L29.6955071,29.3791662 L29.6955071,32.721347 L29.6955071,32.721347 Z M30.6955071,32.721347 L30.6955071,29.3791662 L30.1955071,29.8791662 L33.5401969,29.8791662 C34.7305816,29.8791662 35.6955117,28.913546 35.6955117,27.7238024 L35.6955117,22.2784821 C35.6955117,21.088717 34.7305602,20.1228981 33.5401969,20.1228981 L30.1955071,20.1228981 L30.6955071,20.6228981 L30.6955071,17.2745612 C30.6955071,16.0847659 29.7307583,15.1189771 28.5404126,15.1189771 L27.3382951,15.1189771 L23.0960102,15.1189771 C21.9056431,15.1189771 20.9406954,16.0847875 20.9406954,17.2745612 L20.9406954,20.6228981 L21.4406954,20.1228981 L18.0960056,20.1228981 C16.9058308,20.1228981 15.9411314,21.0887362 15.9411314,22.2784821 L15.9411314,27.7238024 C15.9411314,28.9135891 16.9056635,29.8791662 18.0960056,29.8791662 L21.4404751,29.8791662 L20.9404751,29.3791662 L20.9404751,32.721347 C20.9404751,33.9110907 21.9054051,34.8767108 23.0957899,34.8767108 L27.3380748,34.8767108 L28.5401923,34.8767108 C28.6771093,34.8767108 28.7676584,34.858769 28.9384491,34.812515 C28.9454947,34.8106068 28.9454947,34.8106068 28.9522767,34.8087733 C28.995471,34.7972258 29.0081669,34.7939991 29.026404,34.7900245 C29.7977385,34.5999719 30.3803822,34.0385022 30.5897123,33.290435 C30.5911272,33.2854262 30.5911272,33.2854262 30.5928165,33.2794868 C30.5991829,33.2572752 30.5991829,33.2572752 30.6061057,33.2333893 C30.6706785,33.0105101 30.6955071,32.8930464 30.6955071,32.721347 L30.6955071,32.721347 Z M97.3553982,16.7370839 C89.7015172,1.06931218 81.0194499,-2.79974545 70.8462186,2.17585656 C68.1267929,3.50608032 65.9696187,5.15418411 64.4033333,7.18307725 L64.7991169,6.98861829 L42.2024354,6.98861829 L42.5984025,7.18331513 C41.0342806,5.15470557 38.8773596,3.50649615 36.1571086,2.1758687 C25.9838876,-2.79972826 17.3020297,1.06928768 9.64813675,16.7370839 C0.22445088,36.0076724 -2.93953628,61.4957734 5.21985115,65.486308 C10.3201684,67.9785572 18.9292941,62.3571594 27.9015164,51.7744815 L27.080721,51.6897055 C29.5320473,56.2048248 34.2576103,59.077109 39.4888074,59.077109 C46.2825945,59.077109 52.0743304,54.2388169 53.3423475,47.6427708 L52.851338,48.0483797 L54.1486722,48.0483797 L53.6576593,47.6427533 C54.9254185,54.2387274 60.7173328,59.077109 67.5112029,59.077109 C72.7168589,59.077109 77.4223536,56.2321429 79.8846615,51.7506308 L79.0714854,51.8406207 C88.3424525,62.350601 96.9621718,67.8403739 101.777017,65.4863364 C109.93976,61.4972937 106.776866,36.0197436 97.3553828,16.7370524 L97.3553982,16.7370839 Z M96.4568953,17.1760515 C105.640868,35.9726373 108.743981,60.9686364 101.337871,64.5879208 C97.1173541,66.6513837 88.7930686,61.3497682 79.8214134,51.1791012 L79.3508062,50.6456 L79.0082373,51.2690911 C76.7198744,55.4340154 72.3482711,58.077109 67.5112029,58.077109 C61.1991553,58.077109 55.8173699,53.5813361 54.639685,47.454006 L54.5617229,47.0483797 L54.1486722,47.0483797 L52.851338,47.0483797 L52.4383024,47.0483797 L52.3603286,47.4539885 C51.182398,53.5814167 45.8007753,58.077109 39.4888074,58.077109 C34.627939,58.077109 30.2376416,55.4086054 27.9595531,51.2125743 L27.6110729,50.5707056 L27.1387577,51.1277983 C18.4607472,61.3634554 10.1566766,66.7856649 5.65903984,64.5879132 C-1.74382587,60.9673728 1.36033449,35.961218 10.546565,17.1762042 C17.9736166,1.97276044 26.0797062,-1.63966793 35.7177296,3.07417045 C38.3081689,4.34129971 40.3436722,5.896728 41.8064682,7.79392145 L41.9565856,7.98861829 L42.2024354,7.98861829 L64.7991169,7.98861829 L65.0447802,7.98861829 L65.1949006,7.79415933 C66.6599592,5.89639056 68.6958475,4.34095048 71.2855977,3.07415832 C80.9236337,-1.63968627 89.029931,1.97278649 96.45688,17.17602 L96.4568953,17.1760515 Z" id="gamepad" fill="#FFFFFF" sketch:type="MSShapeGroup"></path>
    </g>
</svg>