<?xml version="1.0" encoding="UTF-8" standalone="no"?>
<svg width="65px" height="66px" viewBox="0 0 65 66" version="1.1" xmlns="http://www.w3.org/2000/svg" xmlns:xlink="http://www.w3.org/1999/xlink" xmlns:sketch="http://www.bohemiancoding.com/sketch/ns">
    <!-- Generator: Sketch 3.3.2 (12043) - http://www.bohemiancoding.com/sketch -->
    <title>gears</title>
    <desc>Created with Sketch.</desc>
    <defs></defs>
    <g id="Page-1" stroke="none" stroke-width="1" fill="none" fill-rule="evenodd" sketch:type="MSPage">
        <path d="M11.6795441,34.0512195 C11.6305441,34.0512195 11.5805441,34.0412195 11.5335441,34.0212195 L8.37454406,32.6702195 C8.22254406,32.6052195 8.13254406,32.4472195 8.15254406,32.2832195 C8.43454406,30.0312195 8.57154406,28.9472195 8.67854406,28.4152195 C7.52554406,27.5862195 6.51254406,26.5742195 5.66054406,25.4022195 L1.69454406,25.8552195 C1.52954406,25.8732195 1.37054406,25.7802195 1.30854406,25.6242195 L0.0295440601,22.4382195 C-0.0324559399,22.2832195 0.0145440601,22.1072195 0.14754406,22.0062195 L3.25154406,19.6232195 C3.02354406,18.2172195 3.02054406,16.7932195 3.24154406,15.3842195 L0.13754406,12.8802195 C0.00954406013,12.7762195 -0.0354559399,12.5982195 0.0295440601,12.4472195 L1.37954406,9.28821952 C1.44454406,9.13521952 1.60354406,9.04721952 1.76654406,9.06621952 L5.63054406,9.56021952 C6.49254406,8.36621952 7.55054406,7.32321952 8.78054406,6.45621952 L8.20354406,2.63021952 C8.17854406,2.46021952 8.27254406,2.29521952 8.43254406,2.23121952 L11.6235441,0.950219518 C11.7745441,0.889219518 11.9505441,0.935219518 12.0525441,1.06521952 L14.4605441,4.13521952 C15.8595441,3.91521952 17.2725441,3.91521952 18.6695441,4.13521952 L21.1675441,1.05621952 C21.2715441,0.928219518 21.4485441,0.885219518 21.5995441,0.949219518 L24.7605441,2.29921952 C24.9115441,2.36321952 25.0025441,2.52021952 24.9825441,2.68421952 L24.5165441,6.54821952 C25.6535441,7.37221952 26.6525441,8.37821952 27.4925441,9.54021952 L31.4285441,9.12921952 C31.5845441,9.11021952 31.7485441,9.20521952 31.8095441,9.35921952 L33.0915441,12.5462195 C33.1525441,12.6982195 33.1065441,12.8732195 32.9755441,12.9752195 L29.9125441,15.3832195 C30.1295441,16.7702195 30.1265441,18.1772195 29.9035441,19.5742195 L31.6825441,21.0182195 C31.8415441,21.1472195 31.8665441,21.3802195 31.7375441,21.5382195 C31.6095441,21.6972195 31.3755441,21.7212195 31.2165441,21.5932195 L29.3235441,20.0562195 C29.2985441,20.0422195 29.2755441,20.0262195 29.2555441,20.0072195 C29.1625441,19.9212195 29.1145441,19.7962195 29.1365441,19.6732195 C29.3935441,18.2122195 29.3975441,16.7362195 29.1465441,15.2862195 C29.1225441,15.1492195 29.1785441,15.0092195 29.2895441,14.9262195 C29.2995441,14.9192195 29.3095441,14.9122195 29.3205441,14.9062195 L32.3005441,12.5642195 L31.2275441,9.89521952 L27.3545441,10.2992195 C27.2215441,10.3142195 27.0895441,10.2532195 27.0125441,10.1442195 C26.1535441,8.91421952 25.1105441,7.86621952 23.9105441,7.02721952 C23.7985441,6.94821952 23.7385441,6.81521952 23.7555441,6.67921952 L24.2135441,2.87221952 L21.5665441,1.74021952 L19.1275441,4.74721952 C19.0465441,4.86521952 18.9035441,4.92621952 18.7605441,4.90221952 C17.3015441,4.64721952 15.8225441,4.64821952 14.3615441,4.90321952 C14.2435441,4.92221952 14.1235441,4.88621952 14.0375441,4.80321952 C14.0095441,4.77421952 13.9855441,4.74121952 13.9675441,4.70721952 L11.6415441,1.74121952 L8.98054406,2.80921952 L9.54754406,6.57521952 C9.56854406,6.71621952 9.50754406,6.85621952 9.38954406,6.93521952 C8.08954406,7.82221952 6.98554406,8.90921952 6.10854406,10.1682195 C6.02954406,10.2812195 5.89754406,10.3422195 5.75754406,10.3232195 L1.95054406,9.83721952 L0.82154406,12.4812195 L3.87454406,14.9442195 C3.97854406,15.0282195 4.02954406,15.1622195 4.00654406,15.2962195 C3.75254406,16.7632195 3.75754406,18.2512195 4.02054406,19.7162195 C4.04454406,19.8522195 3.99054406,19.9912195 3.88054406,20.0752195 L0.82154406,22.4232195 L1.89054406,25.0872195 L5.79354406,24.6412195 C5.92954406,24.6242195 6.06054406,24.6862195 6.13854406,24.7962195 C7.00854406,26.0352195 8.06654406,27.0922195 9.28154406,27.9352195 C9.40254406,28.0192195 9.46254406,28.1672195 9.43254406,28.3132195 C9.42954406,28.3282195 9.42554406,28.3432195 9.42054406,28.3582195 C9.36654406,28.6282195 9.10154406,30.6742195 8.92154406,32.0982195 L11.5665441,33.2302195 C12.5395441,32.0232195 13.8655441,30.3742195 13.9945441,30.1982195 C14.0115441,30.1722195 14.0315441,30.1482195 14.0545441,30.1262195 C14.1395441,30.0472195 14.2555441,30.0112195 14.3715441,30.0312195 C15.8435441,30.2872195 17.3275441,30.2882195 18.7835441,30.0322195 C18.9195441,30.0082195 19.0585441,30.0622195 19.1425441,30.1732195 L20.5025441,31.9602195 C20.6265441,32.1232195 20.5955441,32.3552195 20.4315441,32.4792195 C20.2695441,32.6042195 20.0365441,32.5712195 19.9125441,32.4092195 L18.6875441,30.7992195 C17.2875441,31.0202195 15.8655441,31.0192195 14.4545441,30.7962195 C14.1585441,31.1962195 13.4855441,32.0302195 11.9665441,33.9122195 C11.8955441,34.0032195 11.7885441,34.0512195 11.6795441,34.0512195 Z M16.5740441,11.7328195 C15.7070441,11.7328195 14.8670441,11.9258195 14.0790441,12.3078195 C12.7000441,12.9738195 11.6630441,14.1368195 11.1600441,15.5818195 C10.6570441,17.0278195 10.7470441,18.5838195 11.4140441,19.9638195 C12.3670441,21.9308195 14.3950441,23.2018195 16.5820441,23.2018195 C17.4480441,23.2018195 18.2850441,23.0098195 19.0710441,22.6288195 C20.4500441,21.9628195 21.4870441,20.7988195 21.9900441,19.3528195 C22.4930441,17.9058195 22.4030441,16.3508195 21.7360441,14.9728195 C20.7860441,13.0048195 18.7600441,11.7328195 16.5740441,11.7328195 Z M16.5820441,23.9428195 C14.1130441,23.9428195 11.8230441,22.5078195 10.7470441,20.2858195 C9.99404406,18.7288195 9.89304406,16.9708195 10.4610441,15.3378195 C11.0290441,13.7048195 12.2000441,12.3918195 13.7570441,11.6398195 C14.6450441,11.2088195 15.5940441,10.9908195 16.5740441,10.9908195 C19.0420441,10.9908195 21.3300441,12.4278195 22.4030441,14.6498195 C23.1570441,16.2058195 23.2590441,17.9618195 22.6900441,19.5958195 C22.1210441,21.2298195 20.9500441,22.5428195 19.3930441,23.2958195 C18.5070441,23.7258195 17.5600441,23.9428195 16.5820441,23.9428195 Z M34.4585353,36.1215108 C32.8572701,37.722776 31.9744441,39.8527201 31.9744441,42.1154195 C31.9744441,44.3794082 32.8571924,46.510122 34.458795,48.1095878 C36.0602355,49.7099592 38.190254,50.5924195 40.4534441,50.5924195 C42.717015,50.5924195 44.8468519,49.7099663 46.4456125,48.1090684 C48.0465908,46.5091592 48.9294441,44.3791495 48.9294441,42.1154195 C48.9305133,39.8518718 48.0479512,37.719972 46.4470929,36.1212511 C44.8466177,34.5207757 42.7158931,33.6384195 40.4524441,33.6384195 C38.1888243,33.6384195 36.0580759,34.5209017 34.4584055,36.1216407 L34.4585353,36.1215108 Z M35.2364826,36.8991984 C36.6297837,35.5049666 38.4806074,34.7384195 40.4524441,34.7384195 C42.4241896,34.7384195 44.2751148,35.5049077 45.6695353,36.8993282 C47.0638346,38.2917662 47.8303755,40.1434072 47.8294441,42.1151597 C47.8294441,44.0872591 47.0626019,45.9373755 45.6676652,47.331381 C44.274913,48.7259947 42.4251153,49.4924195 40.4534441,49.4924195 C38.4819592,49.4924195 36.631591,48.7258175 35.2362229,47.331381 C33.8411717,45.9381911 33.0744441,44.0875195 33.0744441,42.1154195 C33.0744441,40.1445494 33.8413133,38.2943678 35.2363528,36.8993282 L35.2364826,36.8991984 Z M41.4149441,64.9882195 L41.3899441,64.9882195 L36.7621835,64.6693932 C36.8215851,64.6737346 36.8692448,64.7151603 36.881283,64.7725188 C36.0728024,60.9956562 35.8894616,60.0999476 35.8191062,59.5353878 L35.7784749,59.2093465 L35.4630803,59.1172593 C33.6241332,58.5803333 31.8845823,57.7400273 30.2863943,56.6171078 L30.0462089,56.4483487 L29.7817932,56.5758358 L24.8247932,58.9658358 C24.8779753,58.9401368 24.9414724,58.9531017 24.9813614,58.9995779 L21.9109147,55.4757486 C21.9485596,55.5189193 21.9529924,55.5822883 21.9221659,55.6297137 L24.8829534,51.11857 L25.0474891,50.8678781 L24.9038242,50.6046694 C23.982001,48.9157959 23.3465862,47.1051449 23.012318,45.2132259 L22.961789,44.9272375 L22.688337,44.8294289 L17.513337,42.9784289 C17.5666055,42.9970785 17.6016937,43.0506234 17.5978366,43.108479 L17.9207463,38.451808 C17.9165429,38.5099837 17.8748039,38.5577719 17.8186448,38.5695584 L23.0783806,37.4574034 L23.3705244,37.3956305 L23.4546774,37.1091305 C24.0152397,35.2006886 24.8996587,33.4034709 26.0859859,31.7643767 L26.2679138,31.5130152 L26.1234377,31.2384119 L23.6364377,26.5114119 C23.6644011,26.5641884 23.6520914,26.6308485 23.6042986,26.6720239 L27.1283619,23.6022364 C27.0846751,23.6402862 27.0210893,23.6448791 26.9733313,23.6143002 L31.507138,26.5201764 L31.7556866,26.67948 L32.0152253,26.5387898 C33.6899541,25.6309566 35.4886277,25.0045017 37.3695606,24.6736599 L37.6549642,24.6234596 L37.7532851,24.3508642 L39.6082851,19.2078642 C39.5901532,19.2571983 39.5311775,19.2960923 39.4964695,19.294948 L44.1396973,19.6140453 C44.0828465,19.6099148 44.0344081,19.568221 44.0222201,19.511808 L45.1674443,24.7588402 L45.2304038,25.0472993 L45.5134015,25.1314706 C47.3259139,25.6705619 49.0431499,26.5063242 50.6273531,27.6202322 L50.8648203,27.7872037 L51.1275601,27.6637617 L56.0655601,25.3437617 C56.011763,25.3685263 55.9518878,25.3559671 55.9144071,25.3133286 L58.9809734,28.8326904 C58.943152,28.7892658 58.9384623,28.7255476 58.97024,28.6764687 L56.0718777,33.2025844 L55.9132698,33.4502689 L56.0526921,33.7092389 C56.954292,35.383917 57.5759094,37.1820099 57.9023158,39.0617612 L57.9521293,39.3486337 L58.2262149,39.4468898 L63.3812149,41.2948898 C63.3256492,41.274816 63.2909119,41.2217536 63.2952612,41.1619517 L62.9741256,45.8248662 C62.9787757,45.765536 63.0187101,45.719592 63.0737292,45.7076313 L57.8123381,46.8332843 L57.522182,46.8953622 L57.4376589,47.1797916 C56.8980121,48.9957612 56.0587881,50.7179927 54.9412028,52.3042428 L54.7726194,52.5435224 L54.8987398,52.8076602 L57.2627398,57.7586602 C57.2373221,57.7057092 57.2506392,57.6422995 57.2948217,57.6040781 L53.7706401,60.6721035 C53.814164,60.6341504 53.8781838,60.6297529 53.9256949,60.6605155 L49.4092391,57.7125193 L49.1594273,57.5494616 L48.8972857,57.6918538 C47.2175339,58.6042756 45.4069004,59.2334126 43.507316,59.5636062 L43.2048072,59.6161896 L43.1148729,59.9097682 C42.960589,60.4134077 42.6437288,61.3102599 41.2942607,65.075527 C41.3148685,65.020638 41.3612212,64.9882195 41.4149441,64.9882195 L41.4149441,65.9882195 C41.7795441,65.9882195 42.1046179,65.7608672 42.2328447,65.4204835 C43.5971329,61.6140585 43.909482,60.7299746 44.0710152,60.2026709 L43.6785721,60.5488328 C45.6851441,60.2000422 47.5991697,59.5349796 49.3746024,58.5705852 L48.8626491,58.5499197 L53.3806491,61.4989197 C53.7083088,61.7110775 54.134263,61.6818187 54.4275556,61.4260676 L57.950248,58.3593356 C58.2454898,58.1039312 58.3344289,57.6804442 58.1647056,57.326854 L55.8011483,52.3767788 L55.7586853,52.8801963 C56.9383807,51.2057899 57.8254573,49.3853568 58.3962293,47.4646474 L58.02155,47.8111547 L63.28455,46.6851547 C63.6630792,46.6028685 63.9411044,46.2830045 63.9713994,45.8984918 L64.2927625,41.2325728 C64.3208923,40.8458385 64.0853374,40.4860199 63.7198408,40.3539695 L58.5636732,38.5055493 L58.8875723,38.8906779 C58.5427696,36.9049833 57.8857858,35.0045894 56.933196,33.2352001 L56.9140104,33.7418546 L59.8110104,29.2178546 C60.0208167,28.8938323 59.9894772,28.468024 59.7349849,28.1758291 L56.6669147,24.6547486 C56.4103631,24.3628846 55.9946277,24.2756815 55.6439913,24.4369743 L50.702328,26.7586773 L51.2025351,26.8022068 C49.5304061,25.6264751 47.7153072,24.7430839 45.7984866,24.1729684 L46.1444438,24.5455988 L44.9994438,19.2995988 C44.9177252,18.9213532 44.5962142,18.6446095 44.2102119,18.6165366 L39.5471908,18.2963937 C39.1369337,18.2825519 38.8018269,18.5035519 38.6686692,18.8656475 L36.812603,24.0115748 L37.1963275,23.6887791 C35.2093395,24.0382752 33.3082252,24.7004088 31.5386628,25.6596492 L32.0467501,25.6782626 L27.5127501,22.7722626 C27.1867966,22.5635585 26.763211,22.5941546 26.4715537,22.8481787 L22.9495262,25.9162027 C22.644649,26.1788562 22.5629555,26.6212474 22.7521213,26.9782978 L25.2384504,31.7040271 L25.2759022,31.1780624 C24.0230453,32.9090776 23.087983,34.809207 22.4952107,36.8273085 L22.8715076,36.4790356 L17.6125076,37.5910356 C17.2326658,37.6707549 16.9513143,37.9928819 16.9232454,38.381169 L16.6001419,43.040631 C16.5741098,43.4310853 16.8104724,43.7917773 17.179635,43.9211018 L22.3515511,45.7710101 L22.0275701,45.3872132 C22.3807288,47.3860504 23.0523042,49.299743 24.026064,51.0837696 L24.0469347,50.569869 L21.0849347,55.082869 C20.8711383,55.4117775 20.9010364,55.8391848 21.157096,56.132831 L24.2249734,59.6536904 C24.4792078,59.9499299 24.9062242,60.0371182 25.2594876,59.8664137 L30.216095,57.4766032 L29.7114939,57.4353312 C31.3989818,58.6209946 33.2379787,59.509339 35.1828078,60.0771798 L34.826782,59.6590513 C34.9027718,60.2688231 35.0820723,61.1447933 35.9030205,64.9798797 C35.9823997,65.3581176 36.3051104,65.6386172 36.6914562,65.6668864 L41.3557046,65.9870458 L41.4149441,65.9882195 L41.4149441,64.9882195 Z" id="gears" fill="#343558" sketch:type="MSShapeGroup" transform="translate(32.147517, 33.454056) scale(-1, 1) translate(-32.147517, -33.454056) "></path>
    </g>
</svg>