<?xml version="1.0" encoding="UTF-8" standalone="no"?>
<svg width="19px" height="19px" viewBox="0 0 19 19" version="1.1" xmlns="http://www.w3.org/2000/svg" xmlns:xlink="http://www.w3.org/1999/xlink" xmlns:sketch="http://www.bohemiancoding.com/sketch/ns">
    <!-- Generator: Sketch 3.3.2 (12043) - http://www.bohemiancoding.com/sketch -->
    <title>gplus</title>
    <desc>Created with Sketch.</desc>
    <defs></defs>
    <g id="Page-1" stroke="none" stroke-width="1" fill="none" fill-rule="evenodd" sketch:type="MSPage">
        <path d="M9.79318898,10.8771293 L8.90459318,10.1911818 C8.63397638,9.96807692 8.26385827,9.67356079 8.26385827,9.13442773 C8.26385827,8.59307692 8.63397638,8.24888337 8.95523622,7.93019386 C9.99040682,7.1202745 11.024685,6.25823821 11.024685,4.44168579 C11.024685,2.57368176 9.84227034,1.59100031 9.27560367,1.12483096 L10.8035958,1.12483096 L12.4074409,0.123076923 L7.54860892,0.123076923 C6.21538058,0.123076923 4.29406824,0.436665633 2.88744094,1.59100031 C1.82728346,2.5002745 1.31014436,3.75396402 1.31014436,4.88257289 C1.31014436,6.79848015 2.78994751,8.74055676 5.40308399,8.74055676 C5.6498294,8.74055676 5.9197769,8.71638337 6.19150919,8.69132289 C6.06947507,8.98650434 5.94610236,9.23223015 5.94610236,9.64938741 C5.94610236,10.4102947 6.33942257,10.8769076 6.68611549,11.3189035 C5.57576115,11.3947503 3.50296588,11.5169479 1.97497375,12.4506172 C0.519711286,13.3108793 0.0768635171,14.5630164 0.0768635171,15.4467866 C0.0768635171,17.2657785 1.8016273,18.9601334 5.37809711,18.9601334 C9.61917323,18.9601334 11.8644226,16.6272906 11.8644226,14.317956 C11.8646457,12.6211616 10.8785564,11.78596 9.79318898,10.8771293 L9.79318898,10.8771293 Z M6.56296588,8.05216967 C4.44131234,8.05216967 3.48020997,5.32567773 3.48020997,3.68055676 C3.48020997,3.04007289 3.60224409,2.37874225 4.02188976,1.86223015 C4.41744094,1.37033499 5.10636483,1.05120192 5.74955381,1.05120192 C7.79490814,1.05120192 8.85573491,3.80208902 8.85573491,5.57140354 C8.85573491,6.01406483 8.80665354,6.79848015 8.23954068,7.36555676 C7.84287402,7.75898418 7.1791601,8.05216967 6.56296588,8.05216967 L6.56296588,8.05216967 Z M6.58728346,17.9306576 C3.94893701,17.9306576 2.24759843,16.676081 2.24759843,14.9316051 C2.24759843,13.1875729 3.82511811,12.5976535 4.36791339,12.4022705 C5.40308399,12.056081 6.73519685,12.0077342 6.95740157,12.0077342 C7.20392388,12.0077342 7.32729659,12.0077342 7.52362205,12.0323511 C9.39919948,13.3592261 10.2132808,14.0205568 10.2132808,15.2766858 C10.2132808,16.797835 8.95523622,17.9306576 6.58728346,17.9306576 Z M16.0207218,8.01468983 L16.0207218,5.55854063 L14.8003806,5.55854063 L14.8003806,8.01468983 L12.3335958,8.01468983 L12.3335958,9.24132289 L14.8003806,9.24132289 L14.8003806,11.7125527 L16.0207218,11.7125527 L16.0207218,9.24132289 L18.5,9.24132289 L18.5,8.01468983 L16.0207218,8.01468983 Z" id="gplus" fill="#343558" sketch:type="MSShapeGroup"></path>
    </g>
</svg>