<?xml version="1.0" encoding="UTF-8" standalone="no"?>
<svg width="70px" height="70px" viewBox="0 0 70 70" version="1.1" xmlns="http://www.w3.org/2000/svg" xmlns:xlink="http://www.w3.org/1999/xlink" xmlns:sketch="http://www.bohemiancoding.com/sketch/ns">
    <!-- Generator: Sketch 3.3.2 (12043) - http://www.bohemiancoding.com/sketch -->
    <title>graph</title>
    <desc>Created with Sketch.</desc>
    <defs></defs>
    <g id="Page-1" stroke="none" stroke-width="1" fill="none" fill-rule="evenodd" sketch:type="MSPage">
        <path d="M8.11774159,55.1964191 L28.2376327,30.6501081 L27.6331318,30.7832124 L39.3567156,36.4566922 L39.7057266,36.6255916 L39.9561953,36.3296168 L56.7162993,16.5244723 L57.0350336,16.1478291 L56.6626534,15.8241246 L53.5882372,13.1515813 L53.4379466,13.9962789 L64.0415304,9.9635506 L63.3762546,9.3852696 L60.8590869,20.4473736 L61.6747142,20.1810098 L58.8145061,17.6938653 L58.433168,17.3622661 L58.1056446,17.7471105 L39.8629163,39.1825672 L40.4668531,39.0591902 L29.0309108,33.3553212 L28.6755289,33.1780685 L28.4224367,33.4841063 L9.44031498,56.4371989 L10.1592478,56.3834301 L8.06466934,54.5070377 L8.11774159,55.1964191 L8.11774159,55.1964191 Z M7.34434893,54.5624918 L7.04099944,54.9325789 L7.39742119,55.2518732 L9.49199969,57.1282656 L9.87943461,57.4753425 L10.2109326,57.0744968 L29.1930543,34.1214042 L28.5845802,34.2501893 L40.0205226,39.9540584 L40.3707818,40.1287561 L40.6244594,39.8306814 L58.8671878,18.3952247 L58.1583263,18.4484699 L61.0185344,20.9356144 L61.6488341,21.4837027 L61.8341616,20.6692506 L64.3513292,9.60714659 L64.5584108,8.6970928 L63.6860534,9.02886559 L53.0824696,13.0615939 L52.3019469,13.3584403 L52.932179,13.9062916 L56.0065952,16.5788349 L55.9529492,15.8784873 L39.1928452,35.6836318 L39.7923249,35.5565564 L28.0687411,29.8830766 L27.7140405,29.7114238 L27.4642401,30.0161809 L7.34434893,54.5624918 Z M66.4286243,70 L0,70 L0,68.9290405 L0,0 L1.42872832,0 L1.42872832,68.5712717 L70,68.5712717 L70,70 L66.4286243,70 Z" id="graph" fill="#FFFFFF" sketch:type="MSShapeGroup"></path>
    </g>
</svg>