<?xml version="1.0" encoding="UTF-8" standalone="no"?>
<svg width="89px" height="83px" viewBox="0 0 89 83" version="1.1" xmlns="http://www.w3.org/2000/svg" xmlns:xlink="http://www.w3.org/1999/xlink" xmlns:sketch="http://www.bohemiancoding.com/sketch/ns">
    <!-- Generator: Sketch 3.3.2 (12043) - http://www.bohemiancoding.com/sketch -->
    <title>heart-bitcoin</title>
    <desc>Created with Sketch.</desc>
    <defs></defs>
    <g id="Page-1" stroke="none" stroke-width="1" fill="none" fill-rule="evenodd" sketch:type="MSPage">
        <path d="M44.9138616,81.7213327 C46.1632011,80.47231 62.6586662,63.970096 67.3831041,59.2443852 C67.3887833,59.2387044 67.3887833,59.2387044 67.3944626,59.2330236 C72.5279432,54.098161 76.8504608,49.7752312 80.3802437,46.2462006 C91.4084644,35.2179799 91.5720523,18.8114126 81.145806,8.4424584 C70.9185775,-1.73213984 54.3803573,-1.68827554 44.2058733,8.53973489 L44.9148482,8.53975043 C34.7412387,-1.68827772 18.2030065,-1.73214279 7.97571288,8.44252024 C-2.44986125,18.810806 -2.28573341,35.2173808 8.74127161,46.2461349 C14.1984472,51.702535 21.4643152,58.9697702 29.7988786,67.3072418 C35.2579931,72.7682612 40.3255306,77.8380492 44.20671,81.7211982 L44.5601737,82.0748413 L45.2674598,81.3679139 L44.9139961,81.0142708 C41.0327995,77.1311045 35.965244,72.0612986 30.5061087,66.6002584 C22.1714922,58.2627336 14.9055742,50.9954484 9.4483813,45.539031 C-1.19091101,34.8980511 -1.348691,19.12602 8.68093103,9.15151062 C18.516723,-0.633665434 34.4217446,-0.591479863 44.2058579,9.24496859 L44.5603375,9.60134435 L44.9148328,9.24498413 C54.6998223,-0.591482761 70.6048558,-0.63366766 80.4405879,9.15144878 C90.4708836,19.1266282 90.3136231,34.8986077 79.6731746,45.5390561 C76.1433629,49.0681155 71.8207932,53.3910974 66.6872606,58.526012 C66.6815813,58.5316929 66.6815813,58.5316929 66.675902,58.5373737 C61.9513428,63.263206 45.4560465,79.765251 44.2068445,81.0141363 L43.8532463,81.3676449 L44.5602634,82.0748413 L44.9138616,81.7213327 Z M42.2460596,47.8225148 L42.2460596,40.0058481 L41.7460596,40.5058481 C41.9846248,40.5058481 42.0521529,40.5046823 42.7997541,40.4896635 C44.4003975,40.4575078 45.3975776,40.4687791 46.496012,40.5664177 C49.8380552,40.8634883 51.6682819,41.8836701 51.6682819,43.9141814 C51.6682819,45.9446927 49.8380552,46.9648746 46.496012,47.2619451 C45.3975776,47.3595837 44.4003975,47.3708551 42.7997541,47.3386993 C42.0521529,47.3236805 41.9846248,47.3225148 41.7460596,47.3225148 L42.2460596,47.8225148 Z M41.2460596,47.8225148 L41.2460596,48.3225148 L41.7460596,48.3225148 C41.9745167,48.3225148 42.0425031,48.3236884 42.7796689,48.3384976 C44.4144972,48.3713401 45.4400912,48.3597476 46.5845517,48.2580177 C50.3831725,47.9203626 52.6682819,46.6466257 52.6682819,43.9141814 C52.6682819,41.1817372 50.3831725,39.9080003 46.5845517,39.5703451 C45.4400912,39.4686153 44.4144972,39.4570227 42.7796689,39.4898653 C42.0425031,39.5046744 41.9745167,39.5058481 41.7460596,39.5058481 L41.2460596,39.5058481 L41.2460596,40.0058481 L41.2460596,47.8225148 Z M41.7460596,29.432237 C41.9266932,29.432237 41.9409561,29.4319179 42.5639169,29.4159899 C43.8775573,29.3824026 44.7254525,29.3966322 45.6469489,29.5066697 C48.279342,29.8210084 49.7141152,30.8202857 49.7141152,32.8405703 C49.7141152,34.5309439 48.2388986,35.5306201 45.6210278,35.9833577 C44.3934923,36.1956492 43.3126439,36.2489036 41.7460596,36.2489036 L42.2460596,36.7489036 L42.2460596,29.5836259 L42.2460596,28.932237 L41.7460596,29.432237 Z M54.3997986,37.1649288 C56.6210025,35.6841262 57.879393,33.5268854 57.879393,30.8864036 C57.2356914,26.3449588 54.255783,24.5239036 48.9113374,24.5239036 L49.4113374,25.0239036 L49.4113374,19.1614036 L49.4113374,18.6614036 L48.9113374,18.6614036 L45.0030041,18.6614036 L44.5030041,18.6614036 L44.5030041,19.1614036 L44.5030041,25.0239036 L45.0030041,24.5239036 L42.3974485,24.5239036 L42.8974485,25.0239036 L42.8974485,19.1614036 L42.8974485,18.6614036 L42.3974485,18.6614036 L38.4891152,18.6614036 L37.9891152,18.6614036 L37.9891152,19.1614036 L37.9891152,25.0239036 L38.4891152,24.5239036 L35.8835596,24.5239036 L30.6724485,24.5239036 L30.1724485,24.5239036 L30.1724485,25.0239036 L30.1724485,28.932237 L30.1724485,29.432237 L30.6724485,29.432237 L33.2780041,29.432237 C34.222217,29.432237 34.7321707,29.8147023 34.7321707,30.2350148 L34.7321707,36.7489036 L34.7321707,46.519737 C34.7321707,46.8949835 34.3046395,47.3225148 33.929393,47.3225148 L31.3238374,47.3225148 L30.8901897,47.3225148 L30.8288627,47.7518041 L30.1774738,52.3115263 L30.0959437,52.882237 L30.6724485,52.882237 L35.2321707,52.882237 L37.8377263,52.882237 L37.3377263,52.382237 L37.3377263,58.244737 L37.3377263,58.744737 L37.8377263,58.744737 L41.7460596,58.744737 L42.2460596,58.744737 L42.2460596,58.244737 L42.2460596,52.382237 L41.7460596,52.882237 L44.3516152,52.882237 L43.8516152,52.382237 L43.8516152,58.244737 L43.8516152,58.744737 L44.3516152,58.744737 L48.2599485,58.744737 L48.7599485,58.744737 L48.7599485,58.244737 L48.7599485,52.382237 L48.3151643,52.8791788 C55.8198428,52.0453257 59.2263444,50.0581997 59.8305015,44.6207861 C60.4541561,40.256929 58.2815386,37.7222086 54.2205066,36.9100022 L54.6224485,37.4002925 L54.6224485,36.7489036 L54.3997986,37.1649288 Z M41.7460596,28.432237 L41.2460596,28.432237 L41.2460596,28.932237 L41.2460596,29.5836259 L41.2460596,36.7489036 L41.2460596,37.2489036 L41.7460596,37.2489036 C43.3665476,37.2489036 44.4920469,37.1934492 45.7914394,36.9687307 C48.8320634,36.4428816 50.7141152,35.1675147 50.7141152,32.8405703 C50.7141152,30.1872424 48.8380538,28.8806208 45.7655183,28.5137239 C44.7833949,28.3964468 43.8971779,28.3815741 42.5383571,28.4163167 C41.9302953,28.4318637 41.9136079,28.432237 41.7460596,28.432237 Z M53.8450984,36.3328785 L53.6224485,36.4813118 L53.6224485,36.7489036 L53.6224485,37.4002925 L53.6224485,37.8101945 L54.0243905,37.8905829 C57.6003317,38.6057711 59.3828044,40.6853227 58.8385849,44.4948596 C58.2992319,49.346827 55.2988287,51.0970622 48.2047328,51.8852951 L47.7599485,51.9347156 L47.7599485,52.382237 L47.7599485,58.244737 L48.2599485,57.744737 L44.3516152,57.744737 L44.8516152,58.244737 L44.8516152,52.382237 L44.8516152,51.882237 L44.3516152,51.882237 L41.7460596,51.882237 L41.2460596,51.882237 L41.2460596,52.382237 L41.2460596,58.244737 L41.7460596,57.744737 L37.8377263,57.744737 L38.3377263,58.244737 L38.3377263,52.382237 L38.3377263,51.882237 L37.8377263,51.882237 L35.2321707,51.882237 L30.6724485,51.882237 L31.1674233,52.4529477 L31.8188122,47.8932254 L31.3238374,48.3225148 L33.929393,48.3225148 C34.8569242,48.3225148 35.7321707,47.4472682 35.7321707,46.519737 L35.7321707,36.7489036 L35.7321707,30.2350148 C35.7321707,29.1897023 34.722217,28.432237 33.2780041,28.432237 L30.6724485,28.432237 L31.1724485,28.932237 L31.1724485,25.0239036 L30.6724485,25.5239036 L35.8835596,25.5239036 L38.4891152,25.5239036 L38.9891152,25.5239036 L38.9891152,25.0239036 L38.9891152,19.1614036 L38.4891152,19.6614036 L42.3974485,19.6614036 L41.8974485,19.1614036 L41.8974485,25.0239036 L41.8974485,25.5239036 L42.3974485,25.5239036 L45.0030041,25.5239036 L45.5030041,25.5239036 L45.5030041,25.0239036 L45.5030041,19.1614036 L45.0030041,19.6614036 L48.9113374,19.6614036 L48.4113374,19.1614036 L48.4113374,25.0239036 L48.4113374,25.5239036 L48.9113374,25.5239036 C53.8114625,25.5239036 56.3279375,27.0617495 56.8844182,30.9571143 C56.879393,33.1778664 55.7987052,35.030474 53.8450984,36.3328785 L53.8450984,36.3328785 Z" id="heart-bitcoin" fill="#343558" sketch:type="MSShapeGroup"></path>
    </g>
</svg>