<?xml version="1.0" encoding="UTF-8" standalone="no"?>
<svg width="21px" height="20px" viewBox="0 0 21 20" version="1.1" xmlns="http://www.w3.org/2000/svg" xmlns:xlink="http://www.w3.org/1999/xlink" xmlns:sketch="http://www.bohemiancoding.com/sketch/ns">
    <!-- Generator: Sketch 3.3.2 (12043) - http://www.bohemiancoding.com/sketch -->
    <title>in</title>
    <desc>Created with Sketch.</desc>
    <defs>
        <path d="M0.360808769,19.5541164 L4.63848858,19.5541164 L4.63848858,6.68543886 L0.360808769,6.68543886 L0.360808769,19.5541164 L0.360808769,19.5541164 Z M2.52814056,0.482097793 C1.06419624,0.482097793 0.106655637,1.44232981 0.106655637,2.70506763 C0.106655637,3.94028805 1.03649322,4.9296616 2.47134241,4.9296616 L2.4999271,4.9296616 C3.99222408,4.9296616 4.92029833,3.94047366 4.92029833,2.70506763 C4.89217768,1.44232981 3.99222408,0.482097793 2.52814056,0.482097793 L2.52814056,0.482097793 Z M20.0656812,12.1751372 L20.0656812,19.5541164 L15.7878157,19.5541164 L15.7878157,12.6693368 C15.7878157,10.939824 15.1690686,9.75949919 13.6206232,9.75949919 C12.4385814,9.75949919 11.7351475,10.5549516 11.4256812,11.324418 C11.3128273,11.5994992 11.2837786,11.9823762 11.2837786,12.3674342 L11.2837786,19.5541164 L7.00447466,19.5541164 C7.00447466,19.5541164 7.06210807,7.89355951 7.00447466,6.68543886 L11.283361,6.68543886 L11.283361,8.50952239 C11.2746835,8.52316508 11.2634074,8.53787506 11.2552403,8.55110011 L11.283361,8.55110011 L11.283361,8.50952239 C11.8518529,7.63393074 12.8671197,6.38311868 15.1396023,6.38311868 C17.9550547,6.38307227 20.0656812,8.22237622 20.0656812,12.1751372 L20.0656812,12.1751372 Z" id="path-1"></path>
    </defs>
    <g id="Page-1" stroke="none" stroke-width="1" fill="none" fill-rule="evenodd" sketch:type="MSPage">
        <mask id="mask-2" sketch:name="in" fill="white">
            <use xlink:href="#path-1"></use>
        </mask>
        <use id="in" fill="#343558" sketch:type="MSShapeGroup" xlink:href="#path-1"></use>
    </g>
</svg>