<?xml version="1.0" encoding="UTF-8" standalone="no"?>
<svg width="58px" height="170px" viewBox="0 0 58 170" version="1.1" xmlns="http://www.w3.org/2000/svg" xmlns:xlink="http://www.w3.org/1999/xlink" xmlns:sketch="http://www.bohemiancoding.com/sketch/ns">
    <!-- Generator: Sketch 3.3.2 (12043) - http://www.bohemiancoding.com/sketch -->
    <title>london</title>
    <desc>Created with Sketch.</desc>
    <defs></defs>
    <g id="Page-1" stroke="none" stroke-width="1" fill="none" fill-rule="evenodd" sketch:type="MSPage">
        <path d="M55.7990961,166.971841 L2.23114235,166.971841 L2.23114235,160.472642 L9.17638434,160.472642 L48.8562278,160.472642 L55.7981673,160.472642 L55.7981673,166.971841 L55.7990961,166.971841 L55.7990961,166.971841 Z M10.2455658,90.7058663 L47.7874591,90.7058663 L47.7874591,158.334176 L10.2455658,158.334176 L10.2455658,90.7058663 L10.2455658,90.7058663 Z M18.6743488,40.3946848 L39.3592954,40.3946848 L46.6622384,49.7271119 L11.3710961,49.7271119 L18.6743488,40.3946848 L18.6743488,40.3946848 Z M22.2969751,28.8806528 L35.7363594,28.8806528 L38.8104626,28.8806528 L38.8104626,38.2565282 L19.2222527,38.2565282 L19.2222527,28.8806528 L22.2969751,28.8806528 L22.2969751,28.8806528 Z M25.0585801,18.8643005 L32.9743416,18.8643005 L34.6671779,18.8643005 L34.6671779,26.7422898 L23.3652278,26.7422898 L23.3652278,18.8643005 L25.0585801,18.8643005 L25.0585801,18.8643005 Z M31.9052633,11.6112044 L31.9052633,16.7261439 L26.127452,16.7261439 L26.127452,11.6112044 L31.9052633,11.6112044 L31.9052633,11.6112044 Z M10.2455658,51.8655781 L47.7874591,51.8655781 L47.7874591,88.5674001 L10.2455658,88.5674001 L10.2455658,51.8655781 L10.2455658,51.8655781 Z M56.8676584,158.334176 L49.9257189,158.334176 L49.9257189,50.7962934 C49.9257189,50.7863859 49.922726,50.7769944 49.922726,50.7667774 C49.9208683,50.7151759 49.9158114,50.6635745 49.9073488,50.6125923 C49.9037367,50.5959766 49.901363,50.579361 49.8985765,50.5625389 C49.885573,50.5034037 49.8672028,50.4451973 49.844911,50.3887453 C49.8388221,50.3760514 49.8325267,50.3642863 49.8265409,50.3515923 C49.8060036,50.3076279 49.7827829,50.2650051 49.7574982,50.2240336 C49.7469715,50.2077275 49.7358256,50.1914215 49.7246797,50.175425 C49.7159075,50.1627311 49.7080641,50.1492115 49.6987758,50.1371368 L40.948516,38.95645 L40.948516,27.8111617 C40.948516,27.2207382 40.4701708,26.7419802 39.8793345,26.7419802 L36.8052313,26.7419802 L36.8052313,17.795119 C36.8052313,17.2046955 36.3268861,16.7258343 35.736153,16.7258343 L34.0433167,16.7258343 L34.0433167,10.5419197 C34.0433167,9.95149621 33.5649715,9.47304782 32.9742384,9.47304782 L30.0819786,9.47304782 L30.0819786,1.10298732 C30.0819786,0.512254222 29.6036335,0.0338058231 29.0134164,0.0338058231 C28.4231993,0.0338058231 27.9448541,0.512254222 27.9448541,1.10298732 L27.9448541,9.47273821 L25.0593025,9.47273821 C24.4687758,9.47273821 23.9904306,9.95118661 23.9904306,10.5416101 L23.9904306,16.7258343 L22.2969751,16.7258343 C21.706758,16.7258343 21.2284128,17.2046955 21.2284128,17.795119 L21.2284128,26.7422898 L18.154,26.7422898 C17.5634733,26.7422898 17.0851281,27.2210478 17.0851281,27.8114713 L17.0851281,38.9567596 L8.33528114,50.1374464 C8.32558007,50.1501403 8.31783986,50.1633503 8.30875801,50.1763539 C8.2976121,50.1920407 8.28646619,50.2080371 8.27645552,50.2246528 C8.24993238,50.2662435 8.22671174,50.3090727 8.20679359,50.3531403 C8.20101423,50.3655247 8.19409964,50.3766706 8.18935231,50.3890549 C8.16582206,50.4457133 8.14807117,50.5043325 8.13475801,50.5634677 C8.13114591,50.579361 8.12897865,50.595667 8.12660498,50.6122827 C8.11752313,50.6638841 8.11184698,50.7161048 8.11060854,50.7683254 C8.11060854,50.7779233 8.10761566,50.7870051 8.10761566,50.796603 L8.10761566,158.334176 L1.16227046,158.334176 C0.572362989,158.334176 0.0933985765,158.812934 0.0933985765,159.403357 L0.0933985765,168.041023 C0.0933985765,168.631756 0.572362989,169.110204 1.16227046,169.110204 L56.8673488,169.110204 C57.4581851,169.110204 57.936427,168.631756 57.936427,168.041023 L57.936427,159.403357 C57.9365302,158.813037 57.4584947,158.334176 56.8676584,158.334176 Z M29.0130036,82.7875247 C21.7474199,82.7875247 15.8369929,76.8730727 15.8369929,69.603877 C15.8369929,62.3357133 21.7481423,56.4233254 29.0130036,56.4233254 C36.2806512,56.4233254 42.1935552,62.3360229 42.1935552,69.603877 C42.1933488,76.8732791 36.2812705,82.7875247 29.0130036,82.7875247 Z M29.0130036,54.2845496 C20.569153,54.2845496 13.6995587,61.1566208 13.6995587,69.603877 C13.6995587,78.0523717 20.569153,84.9255781 29.0130036,84.9255781 C37.4592278,84.9255781 44.3311957,78.0522685 44.3311957,69.603877 C44.3309893,61.1569304 37.459331,54.2845496 29.0130036,54.2845496 Z M29.0133132,68.5350051 L20.4732776,68.5350051 C19.8833701,68.5350051 19.4044057,69.0135567 19.4044057,69.6041866 C19.4044057,70.1948165 19.8833701,70.6733681 20.4732776,70.6733681 L27.9448541,70.6733681 L27.9448541,78.7000727 C27.9448541,79.2908058 28.4231993,79.7692542 29.0134164,79.7692542 C29.6039431,79.7692542 30.0821851,79.2907026 30.0821851,78.7000727 L30.0821851,69.6041866 C30.0821851,69.0134535 29.6038399,68.5350051 29.0133132,68.5350051 Z M18.312726,97.6639055 C17.7225089,97.6639055 17.2438541,98.1423539 17.2438541,98.7333966 L17.2438541,153.075578 C17.2438541,153.666311 17.7225089,154.14476 18.312726,154.14476 C18.9032527,154.14476 19.3814947,153.666208 19.3814947,153.075578 L19.3814947,98.733087 C19.3814947,98.1424571 18.9029431,97.6639055 18.312726,97.6639055 Z M25.4015231,97.6639055 C24.8109964,97.6639055 24.3327544,98.1423539 24.3327544,98.7333966 L24.3327544,153.075578 C24.3327544,153.666311 24.8110996,154.14476 25.4015231,154.14476 C25.9917402,154.14476 26.470395,153.666208 26.470395,153.075578 L26.470395,98.733087 C26.4702918,98.1424571 25.9917402,97.6639055 25.4015231,97.6639055 Z M32.4890819,97.6639055 C31.8982456,97.6639055 31.4200036,98.1423539 31.4200036,98.7333966 L31.4200036,153.075578 C31.4200036,153.666311 31.8983488,154.14476 32.4890819,154.14476 C33.0786797,154.14476 33.5581601,153.666208 33.5581601,153.075578 L33.5581601,98.733087 C33.5576441,98.1424571 33.0787829,97.6639055 32.4890819,97.6639055 Z M39.577363,97.6639055 C38.9871459,97.6639055 38.5088007,98.1423539 38.5088007,98.7333966 L38.5088007,153.075578 C38.5088007,153.666311 38.9871459,154.14476 39.577363,154.14476 C40.1681993,154.14476 40.6464413,153.666208 40.6464413,153.075578 L40.6464413,98.733087 C40.6464413,98.1424571 40.1681993,97.6639055 39.577363,97.6639055 Z" id="london" fill="#000000" sketch:type="MSShapeGroup"></path>
    </g>
</svg>