<?xml version="1.0" encoding="UTF-8" standalone="no"?>
<svg width="110px" height="130px" viewBox="0 0 110 130" version="1.1" xmlns="http://www.w3.org/2000/svg" xmlns:xlink="http://www.w3.org/1999/xlink" xmlns:sketch="http://www.bohemiancoding.com/sketch/ns">
    <!-- Generator: Sketch 3.3.2 (12043) - http://www.bohemiancoding.com/sketch -->
    <title>luxemburg</title>
    <desc>Created with Sketch.</desc>
    <defs></defs>
    <g id="Page-1" stroke="none" stroke-width="1" fill="none" fill-rule="evenodd" sketch:type="MSPage">
        <path d="M36.6047212,127.928693 C36.5119422,127.857419 36.3197991,127.687348 36.060848,127.417776 C35.6143037,126.952917 35.1644163,126.386395 34.742818,125.717481 C33.8469205,124.296038 33.2074063,122.620735 32.9374596,120.680426 C32.7342959,119.215156 32.3787058,117.488149 31.8570077,115.324344 C31.7240351,114.772825 31.5809702,114.195451 31.4163169,113.543336 C29.8641276,107.395842 29.656867,106.486684 29.7526848,106.235566 C29.7938374,106.125727 29.8349496,106.018161 29.8780573,105.90739 C29.9290568,105.77634 29.9826552,105.6413 30.0385523,105.502869 C30.2032426,105.095007 30.3802652,104.676205 30.5573335,104.270365 C30.6634582,104.027128 30.7456516,103.843075 30.7917932,103.741576 L31.4345316,102.32773 L29.8814464,102.32773 C29.7901399,102.32773 29.6181784,102.32369 29.3937847,102.311388 C29.0203557,102.290916 28.6480869,102.254181 28.3080475,102.198256 C27.8628551,102.125037 27.5180884,102.024052 27.3427862,101.92134 C27.3549362,101.928458 27.4552737,102.121469 27.3942342,102.294351 C28.3092659,99.5298386 29.3813052,94.7435501 29.3813052,92.0953065 C29.3813052,90.6595152 29.2302932,89.2677682 28.9784249,87.9699391 C28.8262349,87.1857334 28.6720899,86.6002342 28.5644906,86.2644012 L28.4365958,85.8652229 L28.0622932,85.6765489 C27.9166904,85.6031552 27.6507216,85.4610062 27.3053517,85.262427 C26.7283717,84.9306776 26.1518151,84.5664661 25.6178675,84.1837377 C24.8130757,83.6068709 24.1841652,83.042661 23.8079013,82.5374129 C23.4721888,82.0959286 23.1256527,81.542967 22.773922,80.9006877 C22.4261174,80.2655776 22.0930344,79.5805001 21.787761,78.8948672 C21.6047288,78.4837834 21.4725854,78.1661236 21.4031136,77.9898219 L20.017473,74.4734181 L19.4827972,78.2149709 C19.4748477,78.2706001 19.456558,78.3847571 19.4270106,78.548908 C19.3767964,78.8278738 19.3134734,79.1400685 19.2361869,79.4768775 C19.0157761,80.4374111 18.7291932,81.3967841 18.371972,82.2840764 C17.8474141,83.5870121 17.2181709,84.60889 16.5067897,85.2408059 C15.361195,86.2479002 14.6167323,87.5555389 13.8160118,89.6096501 C13.7326335,89.823543 13.6502531,90.0402863 13.5417191,90.3298343 C13.5883611,90.2054022 13.3415953,90.8650259 13.2815819,91.0237921 C12.7049385,92.5493073 12.3221428,93.3106532 11.843677,93.7877579 C11.5941406,94.0375871 9.63143172,95.9269869 8.99593026,96.5665489 C8.32673931,97.2400155 7.75123313,97.8522791 7.24413721,98.4387404 C6.28716213,99.5454912 5.60224848,100.527637 5.21008958,101.425721 C4.39744979,103.286748 2.31079619,106.174691 1.23078046,107.245513 C1.2891609,107.187635 1.39869236,107.12382 1.59375622,107.105689 C1.89389695,107.07779 2.15555482,107.214165 2.29820881,107.405285 C2.34568921,107.468897 2.31732237,107.341785 2.30719277,107.115523 C2.27298629,106.351463 2.4280797,105.10829 2.75776983,103.699615 C2.99610512,102.706843 5.18202347,94.0122173 5.26365144,93.6855913 C5.30844603,93.506322 5.30844603,93.506322 5.35322679,93.3269905 C6.73679138,87.7853491 7.5778463,84.284399 7.84046365,82.8816288 C8.64974315,78.5582804 12.6418602,68.9911079 15.5157291,65.8777782 C15.624478,65.7601996 15.734784,65.6455812 15.8459511,65.5345875 C17.0814267,64.3010384 18.3839834,63.5444784 19.6955313,63.1634263 C20.5594239,62.9124343 21.3009771,62.8553029 21.8490441,62.9027483 C21.8974812,62.9069414 21.9235423,62.9102183 21.9255611,62.9105464 L22.5319517,63.0090892 L22.8939364,62.512715 C22.9332675,62.458782 23.0132337,62.3518706 23.1303692,62.199618 C23.3281022,61.9426048 23.5561644,61.6553804 23.8110465,61.3456081 C24.5395499,60.4602178 25.3342192,59.5749326 26.165659,58.7516421 C27.5174709,57.4130798 28.8292571,56.3763924 30.024331,55.7627899 C30.4708867,55.5335089 30.8931335,55.367959 31.2864723,55.2687536 C32.910281,54.8556946 33.9752524,54.7669536 35.8979464,54.7669536 C37.7769184,54.7669536 38.5047015,54.6704114 39.4799577,54.0967179 C39.8911791,53.8576944 40.3545602,53.5511499 40.8596447,53.1885475 C41.0916507,53.0219893 41.3308201,52.8447432 41.5759231,52.6581794 C42.1320677,52.2348617 42.6939616,51.7829124 43.2344281,51.3311163 C43.5589988,51.0597954 43.805385,50.8478843 43.9455593,50.7246546 L44.1550158,50.5405178 L44.2389462,50.274559 C44.2713364,50.1719208 44.335677,49.9743472 44.4296994,49.6954909 C44.587346,49.2279347 44.7701779,48.7062444 44.9758955,48.1441202 C45.5632332,46.5392175 46.2150039,44.934959 46.911632,43.4424231 C47.2907928,42.6300655 47.6734369,41.8729131 48.05729,41.1816881 C48.404091,40.5540415 50.4510483,36.9875204 50.8792375,36.1605052 C51.7387807,34.5003623 52.0800789,33.4090807 51.879568,32.4203255 C51.4811279,30.3506547 48.0628822,24.7404521 46.4378911,24.2100731 L46.1641318,24.1207211 L45.8847791,24.1906499 C45.7349724,24.2281502 45.4452169,24.2958592 45.035784,24.383741 C44.3487305,24.531212 43.5822079,24.6788991 42.756623,24.8167932 C41.2758544,25.0641202 39.7734136,25.2518118 38.2998132,25.3558606 C36.0288021,25.5150488 34.6562849,25.4283856 33.8132189,25.1958058 C33.6221011,25.1430814 33.1436614,24.9612209 33.1516992,24.963816 C33.232741,24.9931448 33.1897784,24.962168 33.1227956,24.899252 C33.0553807,24.8359301 32.9792622,24.755998 32.8982962,24.6638276 C32.723921,24.4653217 32.5685589,24.2607285 32.4799884,24.1341695 L31.6330418,22.9239626 L30.824018,24.1598428 C30.7799863,24.2271063 30.6918535,24.3476719 30.5913175,24.4614317 C30.5261201,24.5352046 30.4695499,24.5889456 30.4397592,24.609945 C30.5041661,24.5645449 30.6147564,24.5226109 30.8145933,24.544053 C31.1216111,24.5769955 31.3285976,24.7658889 31.3983491,24.9404635 C31.3737247,24.8788333 31.3509615,24.5941383 31.3363802,23.9550205 C31.3249696,23.4548746 31.3184708,23.2541757 31.300543,22.9717714 C31.2253223,21.7868704 31.0080378,20.9442293 30.4481107,20.3141163 C29.9045654,19.6725729 29.7969393,19.0484804 29.964557,17.9866164 C30.0212799,17.5723908 29.9072391,17.2080469 29.6814394,16.8933393 C29.4301273,16.5430739 29.0680354,16.2700334 28.4965588,15.932536 C28.2564386,15.790728 27.3152675,15.2731735 27.12534,15.1638101 C26.0171766,14.5257115 25.4376731,14.0117227 25.3025695,13.5346748 C24.8049286,11.7295006 25.0481495,9.98102263 25.8413171,9.08975094 C26.0840623,8.80675179 26.3230272,8.47994115 26.6186017,8.0409714 C26.7857762,7.79269369 27.3893007,6.86781563 27.3809176,6.88054222 C28.1872516,5.65643706 28.7210213,4.99845401 29.1536807,4.73829173 C29.1844248,4.719805 29.2127045,4.70486067 29.2383104,4.69327261 C30.9122093,3.9589006 31.9215915,3.7313443 32.3854673,4.00747887 C32.5510764,4.10030639 32.7041437,4.18776104 32.9167196,4.31068063 C32.8882717,4.29423094 33.3446178,4.55864387 33.4746638,4.63346749 C33.5944662,4.70239727 33.702361,4.76398171 33.8058559,4.82240829 C34.8019972,5.38476522 35.4747199,5.70178474 36.0611589,5.82513914 C36.3002962,5.86562201 36.5117631,5.92994175 36.8031715,6.04275939 C36.9036739,6.0816685 36.8893114,6.07586456 37.2008328,6.20259177 C38.7977238,6.85220872 39.8364094,6.97465168 41.3844657,6.34720519 C42.0777166,6.07187851 42.6663886,5.70304357 43.1806929,5.25133956 C43.5410938,4.93480608 43.7230961,4.73243019 44.1579078,4.20855705 C44.269528,4.074074 44.3262555,4.00982095 44.3616746,3.97645184 C44.3257818,4.01026725 44.2516018,4.05623426 44.1004026,4.08370119 C43.8860053,4.12264868 43.6830123,4.06614284 43.5479381,3.96559085 C43.4417449,3.88556356 43.3895499,3.80515999 43.3694626,3.74511085 C43.3733979,3.75687489 43.3803945,3.80386466 43.3821429,3.87857334 C43.387467,4.10607242 43.3399863,4.43671895 43.2395833,4.82206701 C43.0106035,5.70089506 42.5545393,6.70490542 41.9855824,7.53531894 C41.1265195,8.77508468 40.0993427,9.7958476 38.4747152,11.1329804 C38.3190483,11.2611005 38.1563708,11.393648 37.9584659,11.5538737 C37.8491457,11.6423804 37.6993221,11.763364 37.4399738,11.9728273 C35.2654076,13.7768498 33.564072,16.0161749 34.1930924,17.2449188 C34.2933218,17.4457722 34.2462296,17.7171918 33.8840274,18.4243 C33.0988997,20.0366266 35.0899548,22.1223653 36.7189052,22.1223653 C37.6476959,22.1223653 38.7788602,21.80132 40.4980104,21.1612043 C40.7573772,21.0622471 40.9856972,20.9558153 41.1915467,20.8397715 C41.9579254,20.4077402 42.3565943,19.8845815 42.4747907,19.4230842 C42.5103642,19.2462383 42.5533775,19.0370622 42.6149203,18.7659343 C42.7174628,18.3141805 42.8333433,17.8630829 42.9590195,17.4465669 C43.1865946,16.6923378 43.4310625,16.1373489 43.559703,16.0124289 C44.2635248,15.2796503 45.3013638,14.8884435 46.4200177,15.0869788 C47.1157585,15.2139373 47.8177056,15.3482219 48.4868653,15.4806604 C48.888029,15.5600578 49.1885863,15.621087 49.3545027,15.6554576 L50.3548933,15.8626948 L50.5406783,14.8580991 C50.5682705,14.7088994 50.6079286,14.4649664 50.6473691,14.1637159 C50.6910496,13.8300797 50.7237697,13.5011582 50.7410033,13.1881548 C50.7660575,12.7331077 50.7576463,12.3357887 50.7030813,11.9962908 C50.6586394,11.7395331 50.6907538,11.5288381 50.7679547,11.3501062 C50.7945063,11.288635 50.8131102,11.2584037 50.8053124,11.2683843 L51.3525564,10.5679523 L50.7211313,9.94234595 C50.6078425,9.83010112 50.3997827,9.5653465 50.1831067,9.16754898 C49.8139009,8.48972042 49.5925522,7.70920992 49.5925522,6.83290651 C49.5925522,4.66136244 50.3131618,3.00286693 51.3343795,2.59984177 C52.5228005,2.15377109 54.4233836,2.19287012 55.3755129,2.5919299 C55.5500557,2.6693949 56.1560312,2.92748287 56.0753212,2.89271524 C56.2853101,2.98317268 56.41066,3.04197241 56.4954949,3.08993667 C56.4944856,3.08936604 56.3905287,2.96221348 56.3905287,2.73398886 C56.3905287,3.06082746 56.4923202,3.33004966 56.6848719,3.68986297 C56.7408625,3.79449025 56.8034675,3.9036222 56.8873438,4.04475915 C56.9181887,4.09666132 57.0570729,4.32803132 57.0938498,4.3900068 C57.1764061,4.52912872 57.2395285,4.63936186 57.2947921,4.7420941 C57.4379306,5.00818181 57.5104534,5.19753401 57.51723,5.2783024 C57.5302032,5.42023547 57.5342166,5.50372577 57.5416026,5.73036221 C57.5531528,6.08477221 57.5691902,6.25682503 57.6353458,6.49827907 C57.7393755,6.87796569 57.9394576,7.21273546 58.2702487,7.58639365 C58.3830214,7.71681341 58.50516,7.84773966 58.7042339,8.05480893 C58.7244582,8.07583838 58.7244582,8.07583838 58.7445477,8.09670852 C59.1094539,8.47574859 59.2405409,8.62033896 59.3279301,8.74683891 C59.334443,8.75626678 59.3248005,8.73636282 59.3102246,8.64479542 C59.2666471,8.37103831 59.3870781,8.05979451 59.6375515,7.88494073 L59.5521605,7.95171696 C59.5856066,7.92250656 59.5924725,7.91941266 59.5746539,7.92350641 C59.498458,7.94101212 59.3917431,7.94519175 59.3037062,7.93900904 C59.2855472,7.93748372 59.2855472,7.93748372 59.2984173,7.93889616 L58.2473147,7.81029684 L58.1790555,8.86703482 C58.1748268,8.93249994 58.1687716,9.04340684 58.1627849,9.18699972 C58.1500968,9.49133063 58.1439778,9.80049412 58.1481191,10.0934181 C58.1515973,10.3394406 58.1622436,10.5622805 58.1819079,10.7595386 C58.1943778,10.8636249 58.2069562,10.9578898 58.2307239,11.1345705 C58.2578621,11.3398873 58.2739517,11.4825348 58.2839935,11.6190542 C58.3000196,11.8369297 58.29609,12.0025994 58.2753031,12.1081836 C58.2712063,12.1289925 58.2908444,12.0919494 58.3634732,12.0381875 C58.4017886,12.0111753 58.2406964,12.0483298 58.0102975,12.0644326 C57.7796527,12.0805526 57.5208168,12.0775148 57.2743873,12.0622726 C57.1988114,12.0575981 57.1452924,12.0531407 57.1210231,12.0506957 L55.7641081,11.9139961 L56.041726,13.2492239 C56.0577212,13.3261542 56.0860025,13.4558593 56.1243028,13.6212714 C56.1881786,13.8971404 56.2573787,14.1734482 56.3301113,14.4343285 C56.4323648,14.8010955 56.5334352,15.1090076 56.6384457,15.3528403 C56.6677293,15.4208363 56.6976717,15.4846406 56.728908,15.5447565 C56.9516967,15.9168369 57.1333911,16.0874186 57.5409942,16.410079 C57.5429636,16.411638 57.5429636,16.411638 57.5449265,16.4131918 C57.7933371,16.6098338 57.8484345,16.6694174 57.8461255,16.6604018 C57.9847059,17.2155783 58.3425695,17.4808562 59.2282851,17.9739966 C59.4705898,18.1089047 59.7484788,18.2546621 60.1186592,18.4428375 C60.2901456,18.53001 60.9466387,18.8603564 61.092852,18.934516 C61.35736,19.0686748 61.5761273,19.1814606 61.7788628,19.2887045 C62.6399533,19.7442079 63.1856188,20.0954151 63.3544459,20.2928583 C63.4684558,20.4254417 63.5886266,20.5628151 63.7380433,20.7318847 C63.8188694,20.8233419 64.0959913,21.1356686 64.1272387,21.1709536 C64.2401056,21.2985248 64.2837551,21.3480029 64.3515843,21.4253384 C65.0892572,22.2663971 65.4982599,22.803835 65.6688674,23.1806535 C65.6884445,23.2298899 65.7092628,23.3514852 65.7109296,23.5053018 C65.7134783,23.7405039 65.6714788,24.0162252 65.5985635,24.2960124 C65.5552052,24.4623847 65.5132491,24.5872774 65.4906414,24.6448491 L65.3195813,25.080462 L65.5444632,25.4908865 C65.6321648,25.6509478 65.7857808,25.9305064 65.9839573,26.2897909 C66.3142707,26.888633 66.6463677,27.4875281 66.9589803,28.0468535 C66.9809235,28.086109 66.9809235,28.086109 67.0028749,28.1253576 C67.7333312,29.4312155 68.2248668,30.2849568 68.4294669,30.585535 C69.1682693,31.7144406 69.7822911,32.2644945 70.7173462,31.9200733 L70.3717052,30.9817065 L70.5963596,31.956145 C70.8847461,31.8896582 71.1086664,31.732221 71.2773195,31.5250932 C71.3647887,31.4176697 71.4160027,31.3303683 71.4831124,31.1987274 C71.4936722,31.177943 71.4936722,31.177943 71.5016518,31.1622288 C71.4528263,31.2580431 71.4044183,31.3250866 71.1670794,31.4294425 C70.8140284,31.5846761 70.5481117,31.4971434 70.4155581,31.3860718 C70.3903722,31.3657736 70.4118456,31.4045003 70.4599804,31.5335989 C70.4828461,31.5956591 70.4828461,31.5956591 70.5090878,31.6677328 C70.6148667,31.9566038 70.6885365,32.1204607 70.8281864,32.3104063 C71.0890125,32.6651704 71.4767674,32.8876359 71.9472346,32.8876359 C72.0332536,32.8876359 72.1006607,32.8851678 72.2147599,32.8792885 C72.3442245,32.8726175 72.3416636,32.8724501 72.2864937,32.8473717 C72.249296,32.8304628 72.2748932,32.8567338 72.3581553,32.9942566 C72.4512808,33.1508548 72.566078,33.3154042 72.7017033,33.4904485 C72.8145686,33.6361177 72.9351164,33.7809552 73.0939261,33.9646477 C73.13697,34.0144358 73.3401401,34.2474174 73.3923814,34.3080929 C73.4925397,34.4244216 73.5654072,34.5122954 73.6237718,34.5877894 C73.6927029,34.6769511 73.7183919,34.7227445 73.7058905,34.6175331 C73.7361028,34.777382 73.7511753,34.8486606 73.7672219,34.9268764 C73.7808134,34.9934737 73.7808134,34.9934737 73.7943933,35.0612656 C73.8490752,35.3353762 73.9005042,35.6115509 73.9331917,35.7935689 L74.3622602,38.1828026 L75.7406032,36.1846264 C75.7704702,36.1413284 75.823346,36.0631353 75.8959693,35.9533231 C76.0152148,35.7730146 76.1476194,35.5677253 76.28993,35.3407032 C76.6959112,34.6930584 77.10176,33.9983634 77.4815968,33.281845 C77.8994707,32.4935739 78.2605974,31.7256882 78.5483672,30.9924006 C78.584414,30.9000065 78.584414,30.9000065 78.6196683,30.8074097 C78.7391065,30.493404 78.8609128,30.1621143 79.0041964,29.7637533 C79.0882278,29.5301267 79.3772641,28.7183995 79.4309394,28.5687103 C80.2458421,26.2961165 80.7643431,25.1798071 81.3995536,24.5018646 C82.452939,23.3716823 83.3121919,22.2895211 84.1773368,21.099741 C84.2019128,21.0674828 84.3903407,20.8116799 84.4488501,20.733281 C84.5925179,20.5407755 84.7305484,20.3612612 84.8795925,20.1751056 C85.2834637,19.6706716 85.7080534,19.193705 86.1647995,18.7478625 C87.0698697,17.8643986 88.0088848,17.1954725 88.9600107,16.8114115 C91.41941,15.8100431 92.6100297,15.5375693 93.510425,15.6661972 C93.7928893,15.7089314 94.0561907,15.7846284 94.2904517,15.8822714 C94.5062711,15.9722277 94.640929,16.0532477 94.6835008,16.0861606 L95.7244265,16.8909161 L96.2211421,15.6725437 C96.2411838,15.6233842 96.2809304,15.5299965 96.3358536,15.4078098 C96.4274985,15.2039291 96.5257234,15.0005455 96.624948,14.8144289 C96.7295282,14.6182668 96.8278414,14.4557159 96.9103215,14.3433217 C96.9510581,14.2878106 96.9747202,14.2626496 96.9472836,14.2809977 C96.7379929,14.4209607 96.3990687,14.4632556 96.0861086,14.2525983 C95.9382676,14.1600814 95.8754589,14.0624518 95.8462724,13.9828717 C95.8579556,14.0147273 95.8751222,14.087869 95.8912612,14.1904305 C95.9283121,14.4258843 95.9517121,14.7571264 95.9608959,15.1526183 C95.9703774,15.5609313 95.9644664,16.0036165 95.9487621,16.4345089 C95.9425536,16.6048567 95.9364075,16.7320535 95.9324728,16.8002228 L95.8618077,18.0244788 L97.0752433,17.8473624 C97.0805014,17.8465949 97.10802,17.8434126 97.1548587,17.8395858 C97.6635843,17.7980227 98.2669004,17.8512758 98.8127693,18.0652155 C98.9458548,18.117375 99.0716512,18.1780915 99.1895136,18.2476426 C99.2089799,18.2590465 99.2089799,18.2590465 99.2245695,18.2682508 C100.002781,18.728675 100.413961,19.156717 100.550132,19.3852676 L101.470941,20.930754 L102.297432,19.3328402 C102.35117,19.228946 102.44557,19.0466532 102.567104,18.812335 C102.769654,18.4218203 102.972642,18.0313278 103.16265,17.6670163 C103.16814,17.6564912 103.16814,17.6564912 103.173629,17.645967 C103.326763,17.3523989 103.464649,17.0889285 103.583501,16.8629364 C103.631807,16.7725982 103.680645,16.6738673 103.727511,16.5720135 C103.892278,16.2139258 104.340971,14.9386534 104.206008,15.3009959 C104.253131,15.1744839 104.286559,15.1027778 104.297603,15.0868587 C104.232938,15.1800645 104.09703,15.2808674 103.892003,15.3110741 C103.514973,15.3894472 103.218206,15.198362 103.068236,14.9710701 C103.051412,14.9455711 103.062467,14.9723549 103.079635,15.0304021 C103.140138,15.2349756 103.200275,15.5689975 103.248876,15.9777604 C103.34375,16.7757143 103.381716,17.7508365 103.344142,18.2906722 C103.289634,19.2368314 103.074771,19.8314189 102.568413,20.5271147 C101.823862,21.524081 101.540117,22.2788274 101.610261,23.2766753 C101.627243,23.4263002 101.613451,23.6085758 101.536318,24.3679661 C101.501008,24.7156047 101.479415,24.9604807 101.464159,25.2131488 C101.39328,26.3870642 101.49388,27.2081063 101.969787,27.8348371 C102.5463,28.6068497 102.775279,29.775319 102.43534,30.3087808 C102.290656,30.5291694 102.129741,30.6888824 101.712333,31.0423874 C101.697842,31.0546591 101.697842,31.0546591 101.683213,31.0670496 C100.799489,31.8156436 100.38115,32.3278432 100.077374,33.3047184 C99.9696202,33.6648198 99.8802491,34.004126 99.7927144,34.374333 C99.7586017,34.5186044 99.7257498,34.6631289 99.6867466,34.8391195 C99.6718256,34.9064458 99.6090667,35.1920151 99.5926958,35.2657321 C99.5062545,35.6549694 99.4446968,35.9059496 99.3720616,36.1531768 C99.3044274,36.3833824 99.2306004,36.5950567 99.143941,36.8037307 C98.2979946,38.9287738 97.4412932,42.2294876 97.6617098,43.678706 C97.7187092,44.0851552 97.8170572,44.5353831 97.9658555,45.1084395 C98.0019614,45.2474913 98.0400088,45.3900869 98.0890153,45.5709479 C98.4275634,46.8203776 98.5350889,47.3461143 98.5211074,47.3858299 C98.4427201,47.6282866 98.405012,47.8045763 98.3402343,48.1643049 C98.3290649,48.2263979 98.3290649,48.2263979 98.3182303,48.2859742 C98.2355004,48.7379173 98.1773695,48.8745911 98.1591178,48.8848842 C97.7067262,49.1238089 97.3172997,49.5202162 96.8693186,50.1097637 C96.7963924,50.2057354 96.3289892,50.8527157 96.2491366,50.9454882 C96.1816105,51.0274831 96.158185,51.0524099 96.16443,51.0474851 C96.2544377,50.976505 96.3706308,50.9466294 96.3921898,50.9476083 C96.3389813,50.9451923 96.2551856,50.9361169 96.1130394,50.9168744 C96.0809838,50.912535 95.7055203,50.8597435 95.5636807,50.8408316 C94.4290803,50.6854123 93.8581837,50.5444117 93.8516601,50.5360831 C93.8326305,50.512406 93.8326305,50.512406 93.8256375,50.5036406 C93.7761539,50.4413497 93.7195185,50.3618197 93.6590431,50.2698805 C93.5262177,50.0679496 93.4072702,49.8589497 93.3391516,49.729151 L92.6983364,48.5080909 L91.7368443,49.4966073 C91.7827131,49.4494493 91.8227401,49.417459 91.8649116,49.3941386 C91.9650403,49.3387684 92.0970861,49.3307086 92.1605368,49.3629598 C91.700633,49.1436458 91.1907635,49.1319431 90.7943473,49.6151574 C90.5350078,49.931281 90.5127405,50.2133905 90.5635456,50.5573727 C90.5822599,50.6840802 90.6134168,50.8105506 90.6616766,50.9760208 C90.6853703,51.0572603 90.7751815,51.3494577 90.7751691,51.3494167 C90.8086187,51.4599602 90.8336502,51.5473882 90.8545583,51.6280968 C90.8978507,51.7952128 90.9183405,51.9176411 90.9183405,51.9828359 C90.9183405,53.1707273 92.061281,57.1781735 92.8556134,58.1983633 C93.356169,58.8618887 93.5379114,59.7510051 93.6100606,61.8086084 C93.6339474,62.3696439 93.5135114,63.1472122 93.1461055,65.0346806 C93.1449964,65.0403785 93.1449964,65.0403785 93.1438871,65.0460772 C92.4257289,68.7355067 92.3524914,69.4497508 93.238627,70.1727601 C94.4367078,71.181694 98.215686,73.1604282 99.7712181,73.3776062 C101.040911,73.5663931 101.764176,73.701615 102.627191,73.9537162 C104.025023,74.3620464 104.996841,74.9181416 105.416554,75.5896819 C106.738711,77.7601768 107.213083,79.0380714 106.94632,79.5481679 C106.295239,80.737481 106.486886,84.812872 106.988544,87.9017325 C107.027416,88.1450284 107.073886,88.4019885 107.131919,88.6997305 C107.162444,88.8563372 107.1925,89.0060831 107.240212,89.2407618 C107.63226,91.1690941 107.695392,91.8965557 107.481637,92.3053433 C106.454655,94.2076731 105.795702,95.8733024 105.703429,97.4117171 C105.6418,98.9106826 105.391238,99.7793634 104.762525,100.746279 C104.467712,101.190597 104.213276,101.655098 103.820917,102.431569 C103.849963,102.374088 103.580998,102.907897 103.510874,103.045393 C103.193261,103.668161 102.971853,104.05794 102.753698,104.361117 C102.310378,105.011352 102.326498,105.002911 101.994125,104.93763 C101.722119,104.881569 100.967517,104.426801 100.373751,103.839661 C99.5640874,103.039033 99.0833629,102.0901 99.0540474,101.036986 C99.0240604,99.7135959 99.1157697,98.6092076 99.2983137,97.8196025 C99.3725936,97.4983001 99.4575961,97.2508605 99.5394503,97.0935914 C99.563713,97.0469748 99.5506198,97.061836 99.4338901,97.1126914 C99.4712194,97.0959634 99.7099655,97.0582752 100.155253,97.0134555 C100.441963,96.9851278 100.5958,96.9695596 100.754007,96.9516464 C101.601835,96.8556504 102.146614,96.7355613 102.59872,96.4667841 C103.679433,95.8027354 104.392616,95.0026266 104.498599,94.0580559 C104.548889,93.6155073 104.427275,93.2543691 104.189062,92.8608705 C104.143762,92.7860415 104.128071,92.7619296 104.026835,92.6086815 C103.888186,92.3987962 103.883999,92.3873421 103.869359,92.4375438 C104.15756,91.4618114 104.421072,86.7562646 104.284509,84.4734726 C104.032901,80.6842247 103.409115,78.677103 101.403942,78.1061893 C100.520084,77.8637482 99.4488469,77.8520558 97.9489463,77.9871492 C97.6302901,78.0158499 97.3175761,78.048376 96.8647793,78.0985175 C95.5728994,78.2415768 95.3220088,78.2662594 94.9008313,78.2798248 C94.5461195,78.3007409 94.0502031,78.3231272 93.4113122,78.3475785 C92.9165173,78.366515 92.3436836,78.3864009 91.7082357,78.4069261 C90.9057959,78.4328451 90.0457055,78.4584538 89.1855684,78.4826155 C88.8844836,78.4910731 88.6980851,78.4961884 88.3540508,78.5054904 C88.0961114,78.5123741 88.0961114,78.5123741 88.0390931,78.5138557 L80.9853925,78.6971503 L87.812255,80.4810329 C87.8970161,80.5031813 88.0539106,80.5470451 88.2580543,80.6090918 C88.5983718,80.7125268 88.9380427,80.8273503 89.2504842,80.9489537 C89.6128014,81.0899687 89.9104065,81.2297965 90.1112653,81.3552798 C90.1950092,81.4075974 90.2508456,81.4506837 90.2730475,81.4738605 C90.2363423,81.4355434 90.1911466,81.3577501 90.1696373,81.2215123 C90.1490136,81.0908837 90.1669823,80.954362 90.2198828,80.8354574 C89.9597643,81.3869991 86.9205328,83.2313216 85.4504828,83.4538139 C84.1892269,83.6447052 83.4217606,84.1278206 83.0015534,84.9167561 C82.9091561,85.0902313 82.9002401,85.1125871 82.768291,85.4655668 C82.7371759,85.5488035 82.7259931,85.5722313 82.7403329,85.5539623 C82.8336384,85.4426312 82.7595469,85.4793147 82.6262215,85.521438 C82.4037025,85.5917413 82.102174,85.6615512 81.7541022,85.7242998 C81.1523723,85.8327764 80.4411497,85.9113065 80.1721758,85.9113065 C80.4416292,85.9113065 80.5409834,85.988353 80.5574211,86.012577 C80.4673382,85.8798231 80.3544085,85.6410042 80.2352637,85.3173968 C79.9865355,84.64183 79.7343723,83.6670879 79.5100178,82.5284353 C79.309287,81.5497682 79.1265193,80.580069 78.9643318,79.6582091 C78.9075953,79.3357239 78.8575119,79.0424231 78.814589,78.7840846 C78.788961,78.6298382 78.7714966,78.5220476 78.7627001,78.46648 L78.5736597,77.2723112 L77.4361476,77.6819961 L73.9153476,78.9500432 L73.5027068,79.0986594 L73.3325374,79.5028889 C73.3135653,79.5479563 73.2797246,79.6300551 73.2331307,79.7457874 C73.1564842,79.9361661 73.0713455,80.153317 72.9798281,80.3938596 C72.7188897,81.0797049 72.4581102,81.8178988 72.2143748,82.5818223 C71.920849,83.5018005 71.6720064,84.3975249 71.4819477,85.2483152 C71.1532683,86.7196349 71.0127525,87.993185 71.1099625,89.0346429 C71.1949992,89.9372057 71.1790119,90.8175896 71.0684312,91.7496383 C70.9624164,92.6432026 70.7725605,93.5799003 70.4656814,94.784745 C70.2905472,95.4723429 69.5747047,98.0817514 69.496102,98.3765276 C68.4043625,102.384593 67.9889513,109.192357 68.7759529,111.0048 C69.1760416,111.864091 69.6092088,112.262206 70.4166502,112.727514 C70.7311966,112.908779 70.8156504,112.960925 70.9416567,113.058047 C71.1383223,113.20963 71.3030563,113.393431 71.4675151,113.666528 C71.7309137,114.100271 72.0741284,114.541568 72.6234508,115.186593 C72.7145847,115.293389 72.7145847,115.293389 72.8053076,115.399112 C73.5849466,116.306933 73.7629287,116.522579 73.9703967,116.835175 C74.0668363,116.980482 74.1165487,117.079804 74.1210998,117.099394 C74.0808065,116.925947 74.1462196,116.659683 74.3719829,116.480884 C74.4163076,116.447115 74.1919699,116.529826 73.8769351,116.617927 C73.4989816,116.723623 72.9943816,116.844759 72.3849445,116.977423 C72.0125399,117.058488 71.6050748,117.142976 71.1682253,117.230068 C70.3697556,117.389255 69.5127202,117.54944 68.655472,117.702545 C68.3552702,117.756161 68.0765644,117.805048 67.8265823,117.848212 C67.6769688,117.874045 67.5699006,117.892279 67.5142881,117.901632 L68.5444339,118.384729 C68.450267,118.222946 68.2894985,117.881373 68.1236884,117.394257 C67.9055462,116.7534 67.7533703,116.055106 67.6972508,115.316999 C67.6224362,114.161788 67.2295358,113.419112 66.4133544,112.473612 C66.3825405,112.437915 66.2178794,112.248727 66.1736255,112.197199 C65.7964297,111.758006 65.6589524,111.522705 65.6169345,111.228091 C65.5721202,110.895915 65.4984981,110.59466 65.3769259,110.198672 C65.3527949,110.120072 65.326737,110.037288 65.2783507,109.884062 C64.8526249,108.528924 64.8380117,107.581931 65.5082317,105.379947 C66.601093,101.757037 67.1347567,96.3552574 67.0515453,91.7021792 C67.0303101,90.8100573 67.009371,89.7768216 66.9887859,88.6260345 C66.9636903,87.2230916 66.940394,85.7196222 66.9194956,84.2161085 C66.9121807,83.6898439 66.9056882,83.2011799 66.9000926,82.7626628 C66.894424,82.3117051 66.894424,82.3117051 66.8932343,82.2117782 L66.8748525,80.6678209 L65.4734624,81.3160861 C65.3158572,81.3889923 65.020971,81.5199786 64.6188963,81.689585 C63.946222,81.9733378 63.2258191,82.2572137 62.4883645,82.5216865 C61.7338726,82.7922693 61.0040452,83.0269562 60.3165654,83.2151585 C59.2393518,83.5100529 58.3078818,83.6789474 57.5792652,83.7000553 C55.8627186,83.7332386 54.1059501,83.7332386 52.5082788,83.7131736 C52.1094701,83.708165 51.8209459,83.7031684 51.6662894,83.6998641 L50.9192879,83.6839039 L50.692224,84.3957382 C50.6681947,84.4710689 50.6146483,84.6259141 50.5307574,84.8487558 C50.3880486,85.2278369 50.213275,85.6522205 50.0056993,86.11035 C49.4118721,87.4209551 48.67744,88.7315476 47.7988591,89.9495769 C47.2250209,90.7451231 46.6074384,91.4745238 45.9462169,92.1238163 C45.3482895,92.708405 44.762056,93.3397348 44.1899492,94.0097607 C43.0468393,95.3485199 42.0105795,96.778648 41.097608,98.2087072 C40.7778942,98.7095 40.4960383,99.1751696 40.2543076,99.594215 C40.107568,99.8485913 40.0056973,100.03306 39.9510214,100.136087 L39.3279284,101.310197 L40.6287309,101.583494 C40.7680888,101.612772 41.0242386,101.673075 41.3570878,101.762672 C41.9122176,101.912102 42.46649,102.087499 42.9777071,102.285516 C43.9980497,102.68074 44.6894579,103.120483 44.8355322,103.420413 C45.0769858,103.890156 45.1676856,104.538102 45.2161942,105.843968 C45.2202336,105.954161 45.2202336,105.954161 45.2242011,106.065259 C45.2809053,107.652356 45.3522247,108.307864 45.654761,109.040706 C46.2390501,110.526651 46.276652,110.876991 45.9489162,112.727192 C45.8290861,113.493909 45.5793341,114.200583 45.2354615,114.851947 C45.0631162,115.178404 44.8789555,115.468429 44.6965773,115.716819 C44.5922171,115.858951 44.5165027,115.950556 44.4834421,115.986785 L44.9019058,115.713509 C44.9204335,115.707247 44.9183441,115.707802 44.8983203,115.711522 C44.3561585,115.812253 43.6788569,115.60678 42.9266293,114.709183 C42.8222054,114.584579 42.7189544,114.448139 42.6171192,114.299376 C41.6285728,112.882123 41.4157374,112.128666 41.4845319,111.566446 C41.4966844,111.487556 41.5103405,111.378267 41.5103405,111.278648 C41.5103405,111.435238 41.4979801,111.473705 41.4748616,111.526531 C41.4926351,111.485918 41.5250968,111.41984 41.5748011,111.323637 C41.5406318,111.389772 41.8657287,110.770655 41.9681565,110.565703 C42.0812973,110.339314 42.1786971,110.131155 42.2640615,109.9294 C42.4737088,109.433907 42.6022971,109.000551 42.6310526,108.593661 C42.6376099,108.502022 42.6376099,108.502022 42.6447003,108.408578 C42.7730474,106.721077 42.563983,105.890269 41.2699502,105.237414 C40.9573417,105.088408 40.5706369,104.93325 40.0977469,104.761042 C39.920735,104.696581 39.7328656,104.630208 39.5354655,104.56223 C39.0765029,104.404179 38.5867185,104.244407 38.0972025,104.090647 C37.8035702,103.998416 37.574561,103.928463 37.44201,103.888834 L36.5894466,103.633939 L36.2372326,104.451118 C36.170349,104.606296 36.0547782,104.879769 35.9066509,105.239397 C35.6600014,105.838221 35.4133165,106.458388 35.1825772,107.068292 C35.09351,107.303721 35.0083738,107.533602 34.9277015,107.756905 C34.4183189,109.166893 34.1184324,110.208294 34.0837519,110.87151 C33.9634633,112.743877 34.4738215,117.550387 35.1100368,119.259149 C35.2031567,119.510648 35.2942271,119.783025 35.4249366,120.194074 C35.4240615,120.191323 35.586776,120.705672 35.634855,120.855348 C36.3695099,123.142423 36.9998982,124.280561 38.3259042,124.855092 C38.8419625,125.072667 39.6843631,125.489403 40.7542019,126.049241 C40.8824511,126.11643 40.8824511,126.11643 41.0105239,126.183819 C41.6472095,126.519174 42.3159291,126.87896 42.975191,127.238806 C43.2060073,127.364793 43.4190966,127.481756 43.6093116,127.586669 C43.8043053,127.694406 43.8043053,127.694406 43.8463854,127.7178 L44.1125171,125.868222 L35.7757642,127.746151 L36.6047212,127.928693 L36.6047212,127.928693 Z M35.3863126,129.51472 L35.7580109,129.800264 L36.2152697,129.697262 L44.5520227,127.819333 L47.1090968,127.243328 L44.8181544,125.969754 C44.7733999,125.944875 44.7733999,125.944875 44.5752318,125.835385 C44.3825374,125.729104 44.1668934,125.610738 43.9334051,125.483293 C43.266082,125.119047 42.5889625,124.754741 41.9425757,124.414277 C41.8122132,124.345683 41.8122132,124.345683 41.6814964,124.277201 C40.5643928,123.69263 39.6851476,123.257667 39.1118812,123.016032 C38.5332411,122.765265 38.0946468,121.973403 37.5390276,120.243689 C37.4925516,120.099003 37.331208,119.588987 37.3308938,119.587999 C37.1914705,119.149547 37.0920563,118.852215 36.984968,118.562995 C36.4574426,117.146151 35.9760319,112.612265 36.0803327,110.987805 C36.1015752,110.582921 36.3699181,109.651059 36.8087153,108.436454 C36.8858669,108.222896 36.9675458,108.00235 37.0531857,107.775982 C37.2764326,107.185882 37.5161613,106.583202 37.7559256,106.001095 C37.8996464,105.652164 38.0110687,105.388508 38.0738955,105.242742 L36.869118,105.805026 C36.9933546,105.84217 37.2137236,105.909484 37.4978633,105.998733 C37.9713006,106.147442 38.4444695,106.301794 38.8842633,106.453245 C39.0710501,106.517568 39.2479654,106.58007 39.4133904,106.640312 C39.8319458,106.792733 40.1665353,106.926981 40.3899465,107.033258 C40.6911665,107.185529 40.7224812,107.309971 40.6504601,108.256901 C40.643154,108.353151 40.643154,108.353151 40.6359535,108.453738 C40.6259439,108.595366 40.5533849,108.839897 40.4221482,109.15007 C40.3549364,109.308922 40.2747779,109.480234 40.1791331,109.671614 C40.0873344,109.855298 39.7719709,110.455878 39.7979451,110.405605 C39.5584417,110.869165 39.5103405,110.979077 39.5103405,111.278648 C39.5103405,111.233043 39.5147939,111.197402 39.4993384,111.323533 C39.3677519,112.398918 39.7180606,113.639042 40.9717625,115.436356 C41.1048206,115.630799 41.2472,115.818945 41.3937458,115.993811 C42.6361017,117.476254 44.046267,117.904056 45.2636583,117.677871 C45.3802249,117.656214 45.4737213,117.63139 45.5423046,117.60821 L45.7868004,117.525571 L45.9607683,117.334934 C46.2385614,117.030524 46.6242289,116.505265 47.0041222,115.785671 C47.4459113,114.948833 47.7688519,114.035071 47.9216355,113.055759 C48.3112529,110.857422 48.233555,110.133504 47.5097006,108.293099 C47.3289899,107.854989 47.2700741,107.313485 47.2229258,105.993848 C47.2189441,105.882347 47.2189441,105.882347 47.2148158,105.769725 C47.1550823,104.161682 47.0389086,103.331755 46.6237523,102.524989 C46.1932862,101.640571 45.1705764,100.990118 43.7000971,100.420536 C43.1155685,100.194122 42.4958276,99.9980071 41.8769442,99.8314157 C41.5053854,99.7313993 41.2136624,99.6627221 41.0399501,99.6262254 L41.7176596,101.073632 C41.7615891,100.990854 41.8521092,100.826939 41.9867258,100.593578 C42.2139222,100.199728 42.4803187,99.7596003 42.7833626,99.2849187 C43.6496989,97.9279081 44.6329283,96.5709665 45.7109286,95.3084606 C46.2454174,94.6824912 46.7910451,94.0948909 47.3459464,93.5523654 C48.0931117,92.818683 48.7834214,92.0033872 49.4209169,91.119589 C50.3836973,89.784829 51.1819829,88.3602901 51.8274271,86.9357638 C52.0535964,86.4365973 52.2449052,85.9720631 52.4025159,85.5533976 C52.4988167,85.2975913 52.5634984,85.110545 52.5976334,85.0035336 L51.623568,85.6994078 C51.7838763,85.7028328 52.0782305,85.7079304 52.4831629,85.7130159 C54.1004563,85.7333273 55.8774918,85.7333273 57.6275775,85.6994486 C58.5501059,85.6727693 59.6271523,85.4774789 60.8446483,85.1441811 C61.5855893,84.9413435 62.3634353,84.6912155 63.1635183,84.4042824 C63.9379159,84.1265608 64.6917428,83.8295141 65.3962237,83.5323444 C65.6431783,83.428172 65.8666411,83.3312823 66.0629523,83.2440823 C66.1821557,83.191133 66.2667806,83.1527288 66.3131479,83.1312798 L64.893376,82.2355878 C64.8945751,82.3362932 64.8945751,82.3362932 64.9002554,82.7881813 C64.9058604,83.227431 64.9123629,83.7168499 64.9196888,84.2439053 C64.9406214,85.7498775 64.9639571,87.2558939 64.9891058,88.6618045 C65.0097563,89.8162504 65.0307723,90.8532778 65.0519888,91.7438755 C65.1316785,96.2010091 64.6172057,101.408537 63.5941741,104.799967 C62.8050487,107.392599 62.82601,108.750971 63.3702928,110.483491 C63.4197709,110.640215 63.443296,110.714952 63.4650014,110.785651 C63.5572906,111.086258 63.6072975,111.290881 63.6359415,111.503065 C63.7455938,112.272105 64.052006,112.796548 64.656384,113.500264 C64.7059196,113.557941 64.872852,113.74974 64.8994014,113.780496 C65.4575214,114.427047 65.6602736,114.810297 65.7022227,115.457493 C65.7725889,116.383799 65.9604001,117.245614 66.230369,118.038727 C66.4419193,118.660218 66.658511,119.120395 66.8159176,119.390826 L67.1639002,119.988674 L67.8460634,119.873922 C67.9055624,119.863912 68.0143282,119.84539 68.1668823,119.819048 C68.4205128,119.775255 68.7029754,119.725709 69.0071087,119.671391 C69.8765324,119.516111 70.7461688,119.353571 71.5592596,119.191469 C72.006965,119.102212 72.4257028,119.015387 72.8103453,118.931658 C74.3698035,118.592192 75.2019107,118.35949 75.5947687,118.063358 C76.4143404,117.414642 76.2306765,116.62404 75.6367796,115.729205 C75.3617751,115.314851 75.1771086,115.091107 74.3225758,114.096078 C74.2337768,113.992597 74.2337768,113.992597 74.1461041,113.889856 C73.662681,113.322211 73.3690187,112.944628 73.1789085,112.631579 C72.8870897,112.146977 72.5549097,111.77635 72.1626062,111.473975 C71.9396915,111.30216 71.8114105,111.222953 71.4152518,110.994657 C70.9314541,110.715857 70.7844964,110.580791 70.5996073,110.184078 C70.0524013,108.922999 70.443913,102.506899 71.4271888,98.8969844 C71.5030115,98.612689 72.2232708,95.9871803 72.4038021,95.2783928 C72.7304967,93.9957503 72.9366391,92.9786991 73.054502,91.9852709 C73.1813008,90.9165251 73.1998558,89.8947435 73.1012255,88.8479046 C73.0271057,88.0538191 73.1467391,86.9695341 73.4338375,85.6843495 C73.6098534,84.8964216 73.8431552,84.0566372 74.1197438,83.1897442 C74.3516321,82.4629522 74.6004496,81.7586194 74.849108,81.1050505 C74.9976244,80.7146931 75.1122286,80.4300333 75.1758612,80.278877 L74.593051,80.8317228 L78.113851,79.5636757 L76.7872985,78.7791918 C76.7968726,78.8396713 76.8151501,78.95248 76.841636,79.1118902 C76.8855698,79.3763127 76.9367165,79.6758406 76.9945844,80.0047569 C77.1598381,80.9440441 77.3460175,81.9318448 77.5492808,82.9227068 C78.2021838,86.2365018 78.8188086,87.9113065 80.1721758,87.9113065 C81.4618071,87.9113065 83.7073064,87.5065 84.2903936,86.8172778 C84.4620643,86.5996585 84.5425597,86.4310209 84.6416782,86.165867 C84.7323656,85.9232672 84.7350629,85.9165042 84.7667778,85.8569597 C84.869079,85.6648901 85.0788557,85.5328369 85.7497746,85.4312932 C87.8241295,85.1173392 91.4496656,82.9172246 92.0381637,81.6681539 C92.1512918,81.4144544 92.1847444,81.1602904 92.1451675,80.9096142 C92.008955,80.0468587 91.2853157,79.5947769 89.9758859,79.0851424 C89.6110271,78.9431381 89.225019,78.8126506 88.8396575,78.6955251 C88.6083938,78.6252355 88.4266381,78.5744212 88.3178848,78.5460036 L88.0910467,80.5131808 C88.1488861,80.5116778 88.1488861,80.5116778 88.4078068,80.5047679 C88.7529193,80.4954367 88.9398085,80.490308 89.2417272,80.4818269 C90.104457,80.4575924 90.9672334,80.4319037 91.7728027,80.4058836 C92.4119343,80.3852394 92.9885908,80.3652208 93.487799,80.3461154 C94.140058,80.3211525 94.6481689,80.2982158 94.9929718,80.277508 C95.4636034,80.262736 95.720077,80.2375041 97.0849083,80.0863664 C97.5252412,80.0376051 97.8262826,80.0062931 98.1283564,79.9790859 C99.4028949,79.8642905 100.288017,79.8739515 100.865627,80.0323571 C101.636428,80.2518688 102.098521,81.7387226 102.288491,84.5994492 C102.411982,86.6640786 102.159956,91.1645111 101.950311,91.8742995 C101.745337,92.5771038 101.914196,93.0391244 102.358075,93.7110607 C102.44071,93.8361519 102.452646,93.8544918 102.478145,93.8966131 C102.508365,93.946533 102.500915,93.9244104 102.511229,93.8336439 C102.490612,94.0173867 102.158555,94.389916 101.56411,94.7552451 C101.45259,94.8214181 101.09487,94.9002727 100.528993,94.9643445 C100.384572,94.9806967 100.244353,94.9948869 99.9549589,95.0235103 C99.2360199,95.0958738 98.9370708,95.1430656 98.62387,95.2841079 C97.4897156,95.7781406 96.9839287,97.9659531 97.0546914,101.087476 C97.1355012,103.99092 99.674826,106.501908 101.599686,106.898327 C102.807804,107.135654 103.546896,106.74865 104.391878,105.508158 C104.670182,105.121959 104.93177,104.661445 105.292544,103.954049 C105.365278,103.811433 105.63717,103.271815 105.605963,103.333572 C105.964646,102.623746 106.190129,102.212101 106.434185,101.844217 C107.275252,100.550795 107.626111,99.3343925 107.700795,97.5125486 C107.76935,96.372578 108.347015,94.9124205 109.247777,93.2437329 C109.78539,92.2157858 109.710474,91.3525468 109.200116,88.842295 C109.153398,88.6125084 109.124221,88.4671389 109.094978,88.3171063 C109.04096,88.0399668 108.998359,87.8043987 108.963085,87.5836411 C108.551082,85.0467921 108.366375,81.1189774 108.709683,80.4916688 C109.470305,79.0376181 108.864294,77.4051091 107.118565,74.5394309 C106.371714,73.3443462 105.013732,72.5672791 103.187988,72.0339486 C102.211349,71.748656 101.421667,71.6010171 100.056534,71.3980819 C98.9163334,71.2388515 95.4609388,69.4295509 94.5148973,68.632989 C94.6388393,68.7339605 94.6555316,68.7780819 94.6520784,68.7449317 C94.6344501,68.5757025 94.6416647,68.3167965 94.6761524,67.9804571 C94.7365606,67.3913305 94.8402182,66.7989739 95.1070412,65.4282108 C95.1081499,65.4225152 95.1081499,65.4225152 95.1092587,65.4168189 C95.5169654,63.3223135 95.6419703,62.5152471 95.6085391,61.7309768 C95.5230017,59.2907442 95.2769381,58.0869571 94.4428789,56.981663 C93.9387866,56.334053 92.9183405,52.7561038 92.9183405,51.9828359 C92.9183405,51.7159806 92.8727011,51.4432814 92.7906476,51.1265411 C92.7619475,51.0157541 92.730036,50.9042962 92.6894508,50.770171 C92.5243795,50.2246461 92.5481242,50.3060601 92.5420817,50.265149 C92.5463311,50.2939203 92.5486233,50.3322349 92.5439919,50.3909112 C92.5315158,50.5489741 92.4780637,50.7160992 92.3405996,50.8836619 C92.1480298,51.1183962 91.8682895,51.2342895 91.5962305,51.2280452 C91.4573111,51.2248567 91.3583535,51.1957691 91.2775861,51.157319 C91.813627,51.4301593 92.3782541,51.3956956 92.8327641,51.1443562 C92.9771975,51.0644859 93.087981,50.9759459 93.170519,50.8910881 L92.4536816,50.1938477 L91.5682117,50.6585443 C91.6642461,50.8415358 91.8123246,51.1017212 91.9881182,51.3689756 C92.0791382,51.5073508 92.1693356,51.6340103 92.2596272,51.7476711 C92.2744174,51.766211 92.2744174,51.766211 92.289466,51.7847468 C92.7817656,52.4135735 93.3714814,52.5592221 95.2958084,52.8228083 C97.0336672,53.0545292 96.8592618,53.0466103 97.4028742,52.6179169 C97.5372081,52.5119811 97.6444464,52.3978695 97.7807816,52.2313568 C97.9103378,52.0813029 98.436054,51.3536057 98.4617406,51.3198018 C98.7452204,50.9467396 98.9696026,50.7183352 99.1179718,50.6398419 C99.8620726,50.2206185 100.099507,49.662376 100.285541,48.6460977 C100.297374,48.5810272 100.297374,48.5810272 100.308576,48.5187516 C100.357461,48.2472776 100.383111,48.1273604 100.416318,48.0241345 C100.636562,47.3996344 100.574752,47.0974206 100.019405,45.0478853 C99.9720838,44.8732426 99.9357103,44.7369208 99.9016619,44.6057929 C99.770431,44.1003928 99.6865527,43.7164055 99.6406277,43.3893051 C99.4915582,42.4087514 100.290179,39.3318106 100.996577,37.5570708 C101.106367,37.2929851 101.203759,37.0137462 101.290958,36.7169471 C101.378975,36.4173649 101.449764,36.1287486 101.545129,35.699326 C101.806444,34.5226503 101.828515,34.429304 101.990344,33.8881811 C102.15205,33.3683693 102.357077,33.1173422 102.97593,32.5931172 C102.99034,32.5809121 102.99034,32.5809121 103.004885,32.5685945 C103.562503,32.0963453 103.826231,31.8345876 104.114806,31.3946989 C104.989028,30.0229566 104.59378,28.0060254 103.567422,26.6317161 C103.474416,26.5091829 103.417564,26.0451882 103.460524,25.3336854 C103.473771,25.1142766 103.493305,24.8927535 103.526081,24.5700695 C103.631699,23.5302323 103.640567,23.4130312 103.60038,23.0849667 C103.573118,22.6780804 103.689621,22.3681873 104.178187,21.7139069 C104.91624,20.7000088 105.264151,19.7372388 105.340078,18.4175448 C105.386354,17.7537247 105.34362,16.6561367 105.234887,15.7416291 C105.174109,15.2304476 105.095807,14.7955292 104.997514,14.4631815 C104.929225,14.2322825 104.849574,14.0393109 104.737599,13.8696032 C104.487414,13.4904279 104.085988,13.2319532 103.546542,13.3418973 C102.900269,13.4355963 102.611626,13.8516323 102.331798,14.6029028 C102.285043,14.7284286 102.128011,15.1859171 102.12833,15.1850086 C102.050204,15.4070572 101.983618,15.5773597 101.910619,15.736009 C101.87992,15.8027284 101.848643,15.8659572 101.816492,15.9261148 C101.693355,16.1602069 101.554472,16.4255823 101.400379,16.720989 C101.394863,16.7315648 101.394863,16.7315648 101.389347,16.7421409 C101.198557,17.1079493 100.994901,17.4997282 100.791707,17.8914849 C100.669796,18.1265295 100.57515,18.3092966 100.52099,18.4140081 L101.409211,18.8734242 L102.26829,18.3615807 C101.967789,17.8572199 101.322911,17.1858948 100.242965,16.5469519 C100.222665,16.5349666 100.222665,16.5349666 100.20221,16.5229898 C99.9942177,16.4002419 99.7726033,16.2932781 99.5425701,16.2031224 C98.6686729,15.8606202 97.778048,15.782007 96.9920002,15.8462276 C96.9016826,15.8536066 96.8323016,15.86163 96.7863788,15.868333 L97.9291494,16.9154726 C97.9338583,16.8338907 97.940678,16.6927535 97.9474351,16.5073527 C97.9644718,16.0399014 97.9708853,15.5595855 97.9603569,15.1061883 C97.926253,13.6375379 97.8233299,12.9834743 97.1772575,12.5767529 C96.407002,12.05772 95.8175951,12.4518852 95.2979062,13.1600563 C95.1506166,13.3607653 95.0059041,13.6000327 94.8600942,13.8735298 C94.7374924,14.1034953 94.6204153,14.3459139 94.511671,14.5878355 C94.4463607,14.7331301 94.3975633,14.8477835 94.3691389,14.9175046 L95.2951405,15.2950242 L95.9067801,14.5038877 C95.7321904,14.3689097 95.4482883,14.1980934 95.0599122,14.0362133 C94.6791055,13.8774882 94.2587003,13.7566252 93.8013202,13.687482 C92.452339,13.4947369 90.9679159,13.8344477 88.2084859,14.9579817 C86.9886485,15.4505428 85.844673,16.2654765 84.7677722,17.316669 C84.2478251,17.8242038 83.7701149,18.3608437 83.3183442,18.9251041 C83.1538861,19.1305118 83.0023781,19.327554 82.8460115,19.5370753 C82.7808176,19.6244309 82.5972444,19.8736431 82.5706236,19.908884 C81.7381899,21.0533959 80.9243097,22.0784137 79.9382976,23.1363157 C79.046039,24.0885933 78.4613013,25.3475076 77.5483131,27.8936414 C77.4935047,28.0464906 77.2049133,28.8569682 77.1222314,29.0868428 C76.9827251,29.474702 76.8648825,29.7952113 76.7496934,30.0980503 C76.7182615,30.1806141 76.7182615,30.1806141 76.6865987,30.2617722 C76.4289341,30.9183463 76.0992298,31.6194167 75.7145347,32.3450999 C75.3591004,33.0155857 74.9771589,33.6693584 74.5953498,34.2784424 C74.3672579,34.6423079 74.1914171,34.908193 74.0942895,35.0489983 L74.9174464,35.6168124 L75.901701,35.4400559 C75.8669385,35.2464836 75.8134544,34.9592728 75.7557474,34.669998 C75.7411921,34.5973354 75.7411921,34.5973354 75.726416,34.5249332 C75.7086018,34.4381011 75.6916351,34.3578654 75.6755925,34.284875 C75.6485139,34.0162464 75.4861662,33.7268445 75.2060549,33.3645232 C75.1222684,33.2561461 75.02913,33.1438269 74.9080064,33.0031481 C74.850646,32.936527 74.6456601,32.7014632 74.6068949,32.6566242 C74.4694876,32.4976875 74.3695528,32.3776164 74.2826822,32.2654972 C74.19354,32.1504461 74.1239215,32.0506556 74.0730078,31.965072 C73.7952238,31.5062022 73.4979861,31.2011409 73.1141322,31.0266535 C72.7754187,30.8726855 72.5620639,30.8587393 72.1118406,30.8819384 C72.0300611,30.8861523 71.9895417,30.8876359 71.9472346,30.8876359 C72.1556948,30.8876359 72.3439052,30.9956174 72.4395531,31.1257133 C72.4489797,31.138535 72.4284863,31.0929534 72.3871355,30.9800289 C72.3628511,30.9132912 72.3628511,30.9132912 72.333958,30.8348799 C72.16828,30.3905286 72.0095274,30.1042227 71.6881889,29.8432908 C71.3123906,29.5282402 70.8604498,29.3794732 70.3620751,29.5986044 C70.1457025,29.6937417 69.9906107,29.8350863 69.8681637,30.0046714 C69.808149,30.0877898 69.7705867,30.1542685 69.7196817,30.2541636 C69.7092617,30.2746785 69.7092617,30.2746785 69.7012924,30.2903677 C69.7563321,30.1824028 69.8415938,30.0776904 70.1470508,30.007268 L70.0260641,30.0433397 C70.3134946,29.9374666 70.4872767,30.0039989 70.5405604,30.0517315 C70.4363871,29.9584109 70.2803148,29.7615817 70.0928041,29.4751369 C69.9278084,29.2324525 69.4345698,28.3757533 68.7483564,27.1489896 C68.7265779,27.1100502 68.7265779,27.1100502 68.7048029,27.0710957 C68.3942216,26.5154046 68.06386,25.9196391 67.7352144,25.3238206 C67.5380156,24.9663087 67.3852838,24.688359 67.2984295,24.5298442 L67.3522513,25.3758816 C67.4020415,25.2490886 67.4686822,25.0507158 67.5339207,24.8003856 C67.6480211,24.3625648 67.7155338,23.9193533 67.7108122,23.4836302 C67.7065813,23.093196 67.6437156,22.7260104 67.504732,22.3879553 C67.209823,21.7351019 66.7263972,21.0998705 65.8551893,20.1065617 C65.785002,20.0265375 65.7396777,19.9751611 65.624521,19.8450027 C65.5920828,19.808373 65.3159225,19.4971301 65.2366736,19.4074576 C65.0927303,19.2445812 64.978098,19.1135392 64.8726853,18.9909592 C64.4803691,18.5321396 63.8090277,18.1000434 62.7140479,17.5208163 C62.4998165,17.4074912 62.2714369,17.2897498 61.9975405,17.1508292 C61.8472296,17.0745913 61.1918178,16.7447889 61.0249541,16.6599664 C60.6753045,16.4822274 60.4171031,16.3467966 60.2011931,16.2265842 C59.9657727,16.0955091 59.7927627,15.9886982 59.6858239,15.9094264 C59.7006526,15.9204186 59.7308646,15.9529105 59.7850806,16.1700793 C59.6373598,15.5932297 59.3804578,15.3154104 58.786269,14.84505 C58.7843011,14.8434922 58.7843011,14.8434922 58.7823398,14.8419396 C58.5664637,14.6710512 58.4945921,14.6035753 58.4717021,14.5657682 C58.4961071,14.6081277 58.4864466,14.5875422 58.4753398,14.5617522 C58.4131681,14.4173905 58.3367905,14.1847054 58.2566399,13.8972181 C58.1927481,13.6680486 58.130451,13.4193031 58.0727537,13.1701187 C58.0381101,13.0204988 58.0129654,12.905179 57.9998491,12.842095 L56.920552,14.0406232 C56.9692695,14.0455311 57.0481767,14.0521031 57.150919,14.0584579 C57.4777128,14.0786708 57.819063,14.082677 58.1497392,14.0595657 C58.7062951,14.0206675 59.1539981,13.9174088 59.519434,13.669758 C60.209606,13.159951 60.3502079,12.4457845 60.2786048,11.4723381 C60.2651192,11.2890003 60.2452664,11.1129885 60.2134788,10.8724955 C60.1888632,10.689293 60.1780432,10.6082068 60.1695926,10.5390495 C60.1587164,10.4274565 60.1506564,10.2587501 60.1479192,10.0651453 C60.1443707,9.81415354 60.1497893,9.54037822 60.161049,9.27031134 C60.1663564,9.14301011 60.1715953,9.04705426 60.1748961,8.99595468 L59.1769758,8.93149475 L59.0555342,9.92409333 C59.0890724,9.92803444 59.0890724,9.92803444 59.1635938,9.93409514 C59.4318953,9.9529376 59.7229629,9.94153754 60.0224792,9.87272484 C60.3369236,9.80048248 60.623695,9.67125861 60.8677675,9.45809606 L60.209964,8.70490651 L60.7823766,9.52487229 C61.539731,8.99616826 61.4225764,8.26019304 60.9734567,7.61007068 C60.7978204,7.35582864 60.6415877,7.18350228 60.1853691,6.7096131 C60.165608,6.68908411 60.165608,6.68908411 60.1460085,6.6687043 C59.9698112,6.48543044 59.8662134,6.37437891 59.7751859,6.2691858 C59.6248625,6.09928586 59.57847,6.02166375 59.5642547,5.96978075 C59.5529513,5.92852569 59.5470643,5.8653689 59.5405414,5.66521706 C59.5319088,5.40033217 59.5265586,5.28903317 59.5095587,5.10346586 C59.4749377,4.69047671 59.3189451,4.28319054 59.0561195,3.79461027 C58.9854843,3.66330274 58.9094622,3.53054257 58.8138163,3.36936229 C58.7737015,3.30176178 58.6343696,3.06964607 58.6066457,3.02299556 C58.5367427,2.90537117 58.4873898,2.81934006 58.4482507,2.74620241 C58.4057728,2.6668258 58.3905287,2.62650752 58.3905287,2.73398886 C58.3905287,2.09397542 58.0406275,1.66600153 57.479829,1.34893513 C57.3158661,1.25623316 57.1384209,1.17299635 56.8665743,1.0558923 C56.9355441,1.08560256 56.3443392,0.833805454 56.1667797,0.755219496 C54.7271219,0.1516127 52.298515,0.101651098 50.6157702,0.73347585 C48.6440877,1.51145344 47.5925522,3.93158087 47.5925522,6.83290651 C47.5925522,8.06376781 47.905486,9.16722201 48.4267507,10.124217 C48.7443571,10.7073136 49.0705797,11.1224295 49.3134791,11.3630906 L50.0173052,10.6527183 L49.229298,10.0370522 C49.1378135,10.1541456 49.0308874,10.3279009 48.931909,10.5570511 C48.7084698,11.0743475 48.617241,11.6728777 48.7304534,12.325817 C48.7562498,12.4867977 48.7618986,12.7536279 48.7440279,13.078204 C48.7298262,13.3361406 48.7019141,13.6167294 48.6642925,13.9040865 C48.6298741,14.1669781 48.5956733,14.3773442 48.5740262,14.4943962 L49.7602018,13.6970378 C49.588777,13.661526 49.2824961,13.5993347 48.8751686,13.5187173 C48.196843,13.3844647 47.4853401,13.2483521 46.7742631,13.1186072 C44.9570496,12.7960817 43.2613899,13.4352499 42.1414053,14.6027568 C41.7066222,15.02409 41.3710045,15.7860063 41.0442821,16.8688293 C40.9036618,17.3348729 40.7766315,17.8293748 40.6645345,18.3232205 C40.5972935,18.6194523 40.5495655,18.851556 40.5235645,18.9886809 C40.5571115,18.8496156 40.5737708,18.8143907 40.571867,18.816889 C40.5141763,18.8925945 40.4012343,18.9893921 40.2093955,19.0975376 C40.0916178,19.1639326 39.9532012,19.2284557 39.792488,19.2897954 C38.3170962,19.8391135 37.3190925,20.1223653 36.7189052,20.1223653 C36.3887462,20.1223653 35.6554894,19.3542388 35.6731786,19.3179019 C36.2876191,18.118816 36.4364666,17.2609204 35.9779126,16.3425243 C36.0449717,16.4734083 36.054976,16.584731 36.0429147,16.6586812 C36.0456965,16.6416257 36.0635856,16.5880236 36.0993046,16.5101088 C36.1996038,16.2913231 36.3884545,15.9934343 36.645603,15.6549714 C37.1872515,14.942045 37.9601891,14.1398326 38.7072028,13.5200735 C38.9553352,13.3197806 39.1064327,13.1977684 39.2169432,13.108298 C39.4186899,12.9449619 39.5853086,12.8092032 39.745679,12.677212 C41.5004672,11.2329517 42.6442044,10.0963562 43.6324892,8.67007462 C45.2182965,6.35555514 46.0100043,3.31696941 44.7470174,2.36491201 C44.4542382,2.14693865 44.1058911,2.0499715 43.7429322,2.11590674 C43.1440753,2.22469533 41.9284979,3.68925643 41.860893,3.74863258 C41.5137021,4.05356401 41.1197844,4.30037475 40.6396955,4.49106175 C39.6631743,4.88683156 39.1153077,4.82224762 37.954463,4.35001481 C37.6261102,4.21644054 37.6417518,4.22276137 37.5252396,4.17765413 C37.1169313,4.01957917 36.7848573,3.91857558 36.4300593,3.85993741 C36.1575116,3.80164035 35.6036587,3.54063803 34.78907,3.08077397 C34.6907403,3.02526335 34.5874588,2.96631211 34.4720782,2.89992643 C34.345141,2.82689157 33.8918268,2.56423534 33.9178727,2.57929608 C33.6971191,2.45164785 33.536195,2.35970426 33.3841058,2.27487116 C32.1377047,1.53245673 30.7533983,1.84453638 28.424222,2.86649192 C28.315493,2.91562508 28.2187014,2.96677431 28.1230391,3.02429703 C27.3349106,3.49820629 26.6917236,4.2910692 25.7107112,5.7803555 C25.7118919,5.77856309 25.1172685,6.68980053 24.959626,6.92392187 C24.7036013,7.30415454 24.5046893,7.57618857 24.3349626,7.77424884 C23.0509693,9.2167912 22.7111242,11.6598863 23.3763756,14.072939 C23.7028416,15.225773 24.5872784,16.0102215 26.1273347,16.897011 C26.3440694,17.0218104 27.2720524,17.5321128 27.479532,17.6546442 C27.8219213,17.8568493 28.0164653,18.003548 28.0564392,18.0592615 C28.0046798,17.9871219 27.9639433,17.8569748 27.9859622,17.6955459 C27.738941,19.2590214 27.9450153,20.4539875 28.9378324,21.6250389 C29.1299143,21.8416056 29.2557506,22.3296056 29.3045609,23.0984816 C29.320164,23.3442665 29.3261271,23.528422 29.3369005,24.000638 C29.3589747,24.968178 29.3848145,25.2913524 29.5411083,25.682526 C29.927168,26.6487597 30.8745362,26.7504106 31.592047,26.2446415 C31.7682099,26.1204653 31.930431,25.9663573 32.0899486,25.7858579 C32.2652132,25.5875404 32.4052072,25.3960288 32.4973689,25.2552408 L30.8413985,25.2809141 C30.9684658,25.4624813 31.1640765,25.7200773 31.3957062,25.9837607 C31.5161218,26.1208399 31.6351872,26.2458704 31.7535277,26.3570261 C31.9957931,26.5845828 32.2268335,26.7511667 32.4912586,26.8509957 C32.4450629,26.8373268 32.9799125,27.0406293 33.2813399,27.1237852 C34.3709182,27.4243713 35.9605263,27.5247421 38.4401706,27.3509294 C39.982146,27.2420529 41.5463654,27.0466436 43.0861108,26.789466 C43.9432273,26.6463052 44.7396251,26.492862 45.4555095,26.3392027 C45.8878392,26.2464063 46.1994606,26.1735878 46.370443,26.1307866 L45.817331,26.1113635 C46.0994495,26.2034438 47.0813047,27.4181044 48.0553795,29.0168067 C49.0026427,30.5715043 49.8062822,32.2302228 49.9175524,32.8081364 C49.9986865,33.2084683 49.7594659,33.9733625 49.1031728,35.2409432 C48.6986738,36.0222026 46.6720003,39.5533822 46.3077701,40.2125774 C45.9008391,40.9453553 45.4973268,41.7438004 45.0993175,42.5965411 C44.3759171,44.1464372 43.7033323,45.8019273 43.0977171,47.4567732 C42.8859012,48.0355609 42.6974487,48.5732889 42.5345262,49.0564927 C42.4362071,49.3480924 42.367854,49.5579874 42.3316642,49.6726658 L42.625051,49.2225702 C42.4966531,49.335447 42.2626333,49.5367221 41.9517025,49.7966407 C41.4329998,50.2302437 40.8941057,50.6636936 40.3645819,51.0667485 C40.1337597,51.2424422 39.9094688,51.408662 39.6932785,51.563866 C39.2362796,51.8919476 38.8240294,52.164667 38.4703762,52.3702422 C37.9045816,52.7030547 37.4228802,52.7669536 35.8979464,52.7669536 C33.8230521,52.7669536 32.6120568,52.8678623 30.7953901,53.3299823 C30.2476605,53.4681251 29.6855746,53.6885015 29.1108207,53.983605 C27.7037402,54.7060608 26.2429725,55.8604864 24.7584273,57.330481 C23.8744895,58.205755 23.0355482,59.1403604 22.266637,60.0748606 C21.9974239,60.4020501 21.755851,60.7062901 21.5452121,60.9800783 C21.4173246,61.1463065 21.3271385,61.2668814 21.2779916,61.3342745 L22.2463669,60.9364431 C22.1960176,60.928261 22.1205576,60.9187726 22.0215359,60.9102005 C21.2401591,60.8425579 20.2536965,60.9185578 19.1375326,61.2428437 C17.5077905,61.7163427 15.9100796,62.6443362 14.4328414,64.1192708 C14.3028788,64.2490308 14.1741828,64.3827582 14.0467923,64.5204927 C10.8778191,67.9535152 6.74701599,77.8530511 5.87461281,82.51362 C5.62293416,83.8579611 4.78217942,87.3576617 3.41278981,92.8425276 C3.36806649,93.021629 3.36806649,93.021629 3.32332655,93.2006796 C3.2453862,93.51255 1.05427806,102.227819 0.811706252,103.238307 C0.442320193,104.816522 0.265660042,106.232566 0.30919406,107.204972 C0.335975515,107.803181 0.43682995,108.255112 0.695450082,108.601598 C1.22182798,109.306812 2.07203562,109.227783 2.63890432,108.66579 C3.88818154,107.427148 6.12161486,104.33606 7.04296784,102.226069 C7.33906044,101.547987 7.92018656,100.714669 8.75700883,99.7468763 C9.23040052,99.1993943 9.77556639,98.6194088 10.4146402,97.9762517 C11.0298384,97.3571227 12.9900521,95.4701249 13.2573012,95.2025591 C14.0058647,94.4561281 14.4748997,93.52326 15.1523891,91.7309555 C15.2138187,91.5684432 15.4624372,90.903867 15.4144764,91.0318173 C15.5202155,90.7497254 15.5998017,90.5403339 15.6794385,90.3360392 C16.3727354,88.5575047 16.9835398,87.4846351 17.8311593,86.7394782 C18.8157493,85.8648903 19.5973941,84.5955153 20.2272594,83.0310093 C20.6276186,82.0365673 20.9432962,80.9797964 21.1855239,79.9241861 C21.2701608,79.5553449 21.3397427,79.2122927 21.3953768,78.9032166 C21.4293384,78.7145424 21.4514258,78.5766813 21.4626837,78.4979009 L19.5423673,78.7230499 C19.5632255,78.7759826 19.6013953,78.8703947 19.6554942,79.0004433 C19.7445584,79.2145449 19.8467373,79.4524516 19.96068,79.7083627 C20.2866585,80.4404984 20.6428911,81.1731895 21.0197366,81.8613301 C21.4155525,82.5841115 21.8125363,83.2175713 22.2099238,83.7400622 C22.7255561,84.4325403 23.4949072,85.1227426 24.452697,85.8092769 C25.0461404,86.2346513 25.6775026,86.6334837 26.3084414,86.996258 C26.5291067,87.1231351 26.7343892,87.2366888 26.9193644,87.3355501 C27.0323187,87.3959193 27.1148715,87.4387023 27.1620583,87.4624876 L26.6598609,86.8746354 C26.6786776,86.933365 26.7158172,87.0600623 26.7653046,87.2480338 C26.8500084,87.5697697 26.9352351,87.9396656 27.0150561,88.350968 C27.2438937,89.5301242 27.3813052,90.7965272 27.3813052,92.0953065 C27.3813052,94.4779339 26.3485699,99.0887433 25.5019124,101.647262 C25.2089603,102.476402 25.5922382,103.21368 26.3317204,103.646954 C26.7637475,103.900086 27.3169457,104.062122 27.9834759,104.171743 C28.4027986,104.240708 28.844132,104.284258 29.2843051,104.308389 C29.5480727,104.32285 29.7557922,104.32773 29.8814464,104.32773 L28.9710995,102.913884 C28.9209719,103.024151 28.834694,103.21735 28.7242128,103.470572 C28.5402714,103.892165 28.3562843,104.327444 28.1840321,104.754033 C28.1250704,104.900054 28.0683745,105.042898 28.0142185,105.182059 C27.968093,105.300585 27.9239396,105.416107 27.8818965,105.52838 C27.6497392,106.136761 27.7764004,107.06952 28.1966796,108.913094 C28.3435736,109.557451 28.5231587,110.28875 28.7823829,111.309083 C28.8382474,111.528971 29.3290447,113.446282 29.477174,114.032953 C29.640196,114.678607 29.7815938,115.249253 29.9127204,115.793116 C30.4202843,117.898298 30.7641066,119.568151 30.9564752,120.955563 C31.2670289,123.187746 32.0084519,125.130015 33.0508435,126.783887 C33.9061647,128.140951 34.7738249,129.044198 35.3863126,129.51472 L35.3863126,129.51472 Z" id="luxemburg" fill="#000000" sketch:type="MSShapeGroup"></path>
    </g>
</svg>