<?xml version="1.0" encoding="UTF-8" standalone="no"?>
<svg width="111px" height="116px" viewBox="0 0 111 116" version="1.1" xmlns="http://www.w3.org/2000/svg" xmlns:xlink="http://www.w3.org/1999/xlink" xmlns:sketch="http://www.bohemiancoding.com/sketch/ns">
    <!-- Generator: Sketch 3.3.2 (12043) - http://www.bohemiancoding.com/sketch -->
    <title>moneybox</title>
    <desc>Created with Sketch.</desc>
    <defs></defs>
    <g id="Page-1" stroke="none" stroke-width="1" fill="none" fill-rule="evenodd" sketch:type="MSPage">
        <path d="M31.3009878,56.6801671 C29.1117573,56.6801671 27.3472135,54.9153074 27.3472135,52.7254939 C27.3472135,50.5356398 29.1117122,48.7708635 31.3009878,48.7708635 C33.4902634,48.7708635 35.2547621,50.5356398 35.2547621,52.7254939 C35.254669,54.9154112 33.490229,56.6801671 31.3009878,56.6801671 L31.3009878,56.6801671 Z M31.3009878,59.6801671 C35.1471822,59.6801671 38.2545985,56.5721945 38.2547621,52.7255577 C38.2547621,48.8788912 35.1472233,45.7708635 31.3009878,45.7708635 C27.4547523,45.7708635 24.3472135,48.8788912 24.3472135,52.7254939 C24.3472135,56.5720414 27.4547828,59.6801671 31.3009878,59.6801671 L31.3009878,59.6801671 Z M97.4229307,34.5186184 C93.1227572,30.5598148 88.0659119,27.3665018 82.4688582,25.0148429 L81.3236187,24.5336589 L80.6374363,25.5691613 C79.9831015,26.5566031 79.2552522,27.4547019 78.4516514,28.2584561 C77.3512934,29.3588934 76.12696,30.2898413 74.8057622,31.0275859 L71.8279703,32.6903573 L75.0660248,33.7613645 C76.5727759,34.2597321 77.9925119,34.8213096 79.3347424,35.4523374 C79.9832881,35.7575921 80.2332302,36.5540877 79.8745124,37.1737155 C79.5581447,37.7246768 78.8659642,37.9421546 78.3029747,37.6740292 C70.1234747,33.809185 60.8014944,33.2568615 52.2255474,34.551081 C51.5979733,34.6438582 50.9991289,34.2434543 50.8543895,33.6373555 L49.3954138,33.9857663 L50.8954138,33.9857663 L50.8954138,33.973653 L50.8954138,33.794577 L50.8532571,33.6205338 C50.6853844,32.9274761 51.1539451,32.232332 51.8656611,32.1228164 C52.7652464,31.9834247 53.7795058,31.8577399 54.8437811,31.7579445 L58.3513394,31.4290464 L55.6832753,29.128487 C55.3597843,28.8495542 55.0475256,28.5595491 54.7464401,28.2584242 C53.2042827,26.71603 51.9952769,24.924627 51.1530048,22.9294608 C51.059544,22.7074638 50.9724803,22.4883513 50.899918,22.2913496 L50.4700903,21.1243956 L49.2437003,21.3305532 C47.7820716,21.5762546 46.3131067,21.8857265 44.8594845,22.252324 L45.226293,23.7067831 L45.9809857,22.4104657 C38.8601967,18.2648705 30.2017249,17.1808237 21.4221824,18.0442215 C17.8651415,18.3863085 15.7517926,22.1827782 17.3101013,25.4026941 L22.2205972,35.4677421 L22.5833606,33.6790625 C16.8785991,38.6493217 12.645172,44.6975807 10.2667733,51.3606243 L11.6855512,50.3649043 L5.69849132,50.3406349 C2.8582254,50.3235307 0.544419494,52.6323886 0.544419494,55.4770571 L0.544419494,68.9076425 C0.544419494,70.8211949 1.60371733,72.5695455 3.29792446,73.4597734 L11.0710405,77.5106722 L10.3541056,76.6917939 C13.6906751,85.8935552 20.5866644,93.8824498 29.8411195,99.4081447 L29.1101008,98.1202519 L29.1101008,110.011376 C29.1101008,113.179197 31.6843888,115.753862 34.8519443,115.753862 L45.7352663,115.753862 C48.0118749,115.753862 50.0787114,114.398903 50.9981688,112.313497 L53.7279483,106.040066 L52.1683141,106.930221 C54.5843259,107.229177 57.0336451,107.378082 59.5393956,107.378082 C63.4448415,107.378082 67.2852827,107.013602 71.0205837,106.296648 L69.237835,104.823538 L69.237835,110.011376 C69.237835,113.179188 71.8121141,115.753862 74.9796357,115.753862 L85.8145045,115.753862 C87.9325834,115.753862 89.8825223,114.587367 90.8819799,112.718904 C91.9514106,110.71009 92.1043822,110.426628 94.962866,105.143043 C101.457726,93.1380267 104.597092,86.9126129 107.612468,79.5229748 C110.001615,73.6545322 110.935124,67.3308668 110.396731,61.0341791 C109.528744,50.9242562 104.908907,41.3974604 97.4219035,34.5176736 L97.4229307,34.5186184 Z M95.3920536,36.72668 C102.322257,43.0948249 106.603485,51.9233593 107.407683,61.2902795 C107.905991,67.1181738 107.042663,72.9664326 104.834365,78.3906585 C101.873113,85.6476555 98.768961,91.8032389 92.3242672,103.715529 C89.4612791,109.00744 89.3079689,109.291529 88.2352567,111.306514 C87.7595323,112.195863 86.8267692,112.753862 85.8145045,112.753862 L74.9796357,112.753862 C73.4690713,112.753862 72.237835,111.522437 72.237835,110.011376 L72.237835,104.823538 L72.237835,103.008248 L70.4550863,103.350428 C66.9063515,104.031572 63.2552606,104.378082 59.5393956,104.378082 C57.1559704,104.378082 54.8296704,104.236655 52.5367223,103.952928 L51.4243166,103.815279 L50.9770881,104.843083 L48.2502223,111.109862 C47.8120824,112.103556 46.8201146,112.753862 45.7352663,112.753862 L34.8519443,112.753862 C33.3413413,112.753862 32.1101008,111.522441 32.1101008,110.011376 L32.1101008,98.1202519 L32.1101008,97.2688393 L31.379082,96.8323591 C22.6996541,91.6500042 16.2669152,84.1977779 13.1744223,75.6691437 L12.9753557,75.1201477 L12.4574875,74.8502653 L4.68887131,70.8017213 C3.98454999,70.4316231 3.54441949,69.7051962 3.54441949,68.9076425 L3.54441949,55.4770571 C3.54441949,54.2936953 4.50666217,53.3335104 5.68337953,53.3405954 L11.6733903,53.3648797 L12.7352058,53.3691839 L13.0921682,52.3691597 C15.293327,46.2026509 19.2278321,40.5814589 24.5540626,35.9409939 L25.4209858,35.1856893 L24.916826,34.1523143 L20.0084077,24.0915421 C19.3596895,22.7510855 20.2387775,21.1718712 21.7125839,21.0301311 C29.9257958,20.2224309 37.9953513,21.232745 44.4716003,25.0031006 L45.0001135,25.3107914 L45.5931015,25.1612423 C46.9694576,24.8141311 48.3596434,24.5212559 49.741026,24.2890439 L49.4923632,22.8097985 L48.0848083,23.3282475 C48.1740792,23.570612 48.2777641,23.8315549 48.3886206,24.0948697 C49.3825127,26.4491935 50.8100456,28.5643917 52.624969,30.3795938 C52.9783571,30.7330281 53.3447865,31.0733434 53.7242102,31.4005045 L54.7037428,30.2644957 L54.5637045,28.7710469 C53.4397715,28.8764363 52.3657237,29.0095299 51.407846,29.157955 C48.9647381,29.5338884 47.3550727,31.921945 47.9375706,34.3267721 L49.3954138,33.973653 L47.8954138,33.973653 L47.8954138,33.9857663 L47.8954138,34.1623869 L47.9364382,34.334177 C48.4440414,36.4597737 50.5053331,37.8380105 52.6687656,37.5181566 C60.7142633,36.3039954 69.4804581,36.8233889 77.0171849,40.3845131 C78.9935588,41.3257748 81.3804012,40.5758473 82.4734789,38.672163 C83.710626,36.5352072 82.849469,33.7909405 80.6117254,32.7376893 C79.1575889,32.0540506 77.6263335,31.4483615 76.0080997,30.9131204 L76.2683623,33.646899 C77.8335486,32.7729134 79.2790319,31.6738096 80.5731112,30.379637 C81.5214564,29.4311108 82.3754827,28.3773213 83.1382061,27.2263127 L81.8878212,26.397737 L81.3067842,27.7806311 C86.5906069,30.0006827 91.3522596,33.0075865 95.3910263,36.7257352 L95.3920536,36.72668 Z M60.6739254,31.4054262 C62.5449445,32.1430103 64.5513746,32.5281483 66.605097,32.5281483 C67.6346185,32.5281483 68.6393266,32.4340481 69.6061417,32.2460062 C73.6197576,31.4983156 77.1875531,29.2297865 79.5942094,25.9522042 C81.6139409,23.2038789 82.721118,19.8852469 82.721118,16.3975741 C82.7344637,7.49110733 75.51151,0.267 66.6050113,0.267 C57.6927954,0.267 50.4767486,7.48418464 50.4767486,16.3975741 C50.4767486,18.6704669 50.9432151,20.8679358 51.8414445,22.8960174 C53.5357189,26.765521 56.7262577,29.8395109 60.670965,31.4042555 L60.6739254,31.4054262 Z M61.7771257,28.6156343 C58.5661678,27.3419456 55.9663008,24.8370504 54.5870047,21.6869437 C53.8553859,20.0350135 53.4767486,18.2512977 53.4767486,16.3975741 C53.4767486,9.14093301 59.3497555,3.267 66.6050113,3.267 C73.8537989,3.267 79.7319807,9.14612065 79.7211197,16.3953268 C79.721118,19.24065 78.8211946,21.9380635 77.1764402,24.1761434 C75.2171198,26.8445067 72.3150026,28.6897743 69.04504,29.2989697 C68.2579761,29.4520029 67.4449712,29.5281483 66.605097,29.5281483 C64.929934,29.5281483 63.2965819,29.2146233 61.7741652,28.6144636 L61.7771257,28.6156343 Z" id="moneybox" fill="#000000" sketch:type="MSShapeGroup"></path>
    </g>
</svg>