<?xml version="1.0" encoding="UTF-8" standalone="no"?>
<svg width="101px" height="24px" viewBox="0 0 101 24" version="1.1" xmlns="http://www.w3.org/2000/svg" xmlns:xlink="http://www.w3.org/1999/xlink" xmlns:sketch="http://www.bohemiancoding.com/sketch/ns">
    <!-- Generator: Sketch 3.3.2 (12043) - http://www.bohemiancoding.com/sketch -->
    <title>okpay</title>
    <desc>Created with Sketch.</desc>
    <defs></defs>
    <g id="Page-1" stroke="none" stroke-width="1" fill="none" fill-rule="evenodd" sketch:type="MSPage">
        <path d="M99.0925175,1.83247645 L97.5665981,1.83247645 C96.5902408,1.83247645 95.8653721,2.47888626 95.3035508,3.26767785 L93.7940937,5.3897444 C93.793218,5.39062006 93.793218,5.39149571 93.7923424,5.39237137 L90.5226401,9.98571638 L87.687789,6.00585649 C87.6748292,5.98589151 87.6679991,5.96785298 87.6532881,5.94701235 L85.7436559,3.27275666 C85.1804334,2.48484072 84.4483844,1.83930657 83.4720271,1.83930657 L82.0574912,1.83930657 C81.081134,1.83930657 80.4485595,2.48396507 81.0137084,3.27012969 L82.934549,5.94946419 C82.9387522,5.95471813 82.9441813,5.95997207 82.9483844,5.96592654 L88.4159851,13.579937 L88.4159851,18.8930719 L88.4159851,20.8338775 L88.4159851,22.199902 C88.4159851,23.1650509 89.2152846,23.9529668 90.191817,23.9520912 L90.8536383,23.9503398 C91.8301707,23.9494642 92.6292951,23.1580456 92.6292951,22.1928968 L92.6292951,20.8337024 L92.6292951,18.8928968 L92.6292951,13.5715307 L98.4538135,5.46242391 C98.471852,5.43913144 98.4953196,5.41671463 98.5124825,5.3925465 L100.034899,3.26522601 C100.600223,2.47713494 100.068875,1.83247645 99.0925175,1.83247645 Z M35.3576664,12.1969248 L40.8440061,6.98746769 C40.8694002,6.96505088 44.7222898,3.30655701 44.7222898,3.30655701 C45.4156348,2.64718748 44.6695753,1.83247645 43.7194877,1.83247645 L41.633148,1.83247645 C40.6835858,1.83247645 40.2035508,2.37328205 39.5114317,3.03527855 L35.4503108,6.91846594 C35.4468082,6.92196857 35.4447066,6.92529607 35.4408538,6.92967435 L32.8275438,9.42844843 L32.8275438,6.59517347 L32.8163354,6.59517347 C32.8189623,6.55716997 32.8275438,6.52004212 32.8275438,6.48203862 L32.8275438,3.58834335 C32.8275438,2.62319449 32.0506611,1.83247645 31.1007487,1.83247645 L30.3252671,1.83247645 C29.3757049,1.83247645 28.598472,2.62319449 28.598472,3.58834335 L28.598472,6.48203862 C28.598472,6.52004212 28.6070534,6.55716997 28.6096804,6.59517347 L28.598472,6.59517347 L28.598472,18.8708302 L28.598472,18.989219 L28.598472,22.1965745 C28.598472,23.1617234 29.3757049,23.9522663 30.3252671,23.9522663 L31.1007487,23.9522663 C32.0508362,23.9522663 32.8275438,23.1617234 32.8275438,22.1965745 L32.8275438,18.989219 L32.8275438,18.8708302 L32.8275438,15.210585 L36.5506611,18.989219 L36.5550394,18.989219 L40.219838,22.7125115 C40.8919921,23.3942978 41.3552145,23.9524414 42.3053021,23.9524414 L44.3940937,23.9524414 C45.3436559,23.9524414 45.7485595,22.8102348 45.0762303,22.1284484 L35.3576664,12.1969248 Z M84.8727277,21.7627742 L84.8832355,21.7627742 L77.7564404,4.28378994 L77.7529378,4.28378994 L77.4186121,3.46294931 C77.0539886,2.56610167 75.9522373,1.83247645 74.9706261,1.83247645 L74.2622198,1.83247645 C73.2806086,1.83247645 72.1797329,2.56697733 71.8179115,3.46470062 L71.487789,4.28378994 L71.4757049,4.28378994 L64.37588,21.6703048 L64.378507,21.6703048 L64.1107312,22.3235448 C63.7434807,23.2195167 64.2480341,23.9522663 65.2296453,23.9522663 L66.8186121,23.9522663 C67.8002233,23.9522663 68.2616944,23.211811 68.6028503,22.3062067 L68.8422548,21.6703048 L68.8517119,21.6703048 L70.2867382,17.9056814 L78.9653721,17.9056814 L79.0828853,18.2081332 L79.1701007,18.387818 L80.4497855,21.7627742 L80.4541637,21.7627742 L80.6597679,22.3062067 C81.0019746,23.211811 81.6016243,23.9522663 82.5841112,23.9522663 L83.9890149,23.9522663 C84.9715017,23.9522663 85.4736033,23.2203924 85.1046016,22.3252961 L84.8727277,21.7627742 Z M76.6615193,14.3622488 L72.5736033,14.3622488 C72.0828853,14.3622488 71.833148,13.9967497 72.017211,13.5491139 L74.2750044,8.09079519 C74.4599431,7.64315946 74.7632706,7.64315946 74.9490849,8.08991953 L77.217211,13.5498145 C77.4030254,13.9967497 77.1524124,14.3622488 76.6615193,14.3622488 Z M66.9876138,11.6335272 C67.350486,10.7711805 67.5294702,9.7836148 67.5294702,8.67923652 C67.5294702,7.5836148 67.350486,6.6020036 66.9876138,5.74491078 C66.626493,4.88764283 66.0804334,4.15489326 65.357141,3.56750272 C63.921239,2.40182846 61.8299956,1.83247645 59.170451,1.83247645 L58.0247417,1.83247645 L57.2245665,1.83247645 L53.4149343,1.83247645 C52.4186121,1.83247645 51.6028503,2.62319449 51.6028503,3.58834335 L51.6028503,5.98256402 L51.6028503,7.47573389 L51.6028503,19.0100596 L51.6028503,19.3582208 L51.6028503,22.1965745 C51.6028503,23.1617234 52.4186121,23.9522663 53.4149343,23.9522663 L54.1233406,23.9522663 C55.1196629,23.9522663 55.9354247,23.1617234 55.9354247,22.1965745 L55.9354247,19.3582208 L55.9354247,19.0100596 L55.9354247,15.539832 L59.170451,15.539832 C61.8299956,15.539832 63.9210639,14.9746831 65.3562653,13.811811 C66.0778065,13.2277479 66.626493,12.4941227 66.9876138,11.6335272 Z M5.20298786,15.989219 C5.68289041,17.8076317 6.51586664,19.3836542 7.7159851,20.6802873 C9.72631785,22.8498145 12.4627452,23.9583959 15.7849869,23.9524414 C19.0921672,23.958571 21.8229904,22.8499896 23.8303459,20.6690789 C25.8249168,18.5046306 26.8289448,15.5771349 26.8289448,12.0139125 C26.8289448,8.44438538 25.8284194,5.50988451 23.8303459,3.34631183 C21.8229904,1.16557628 19.0921672,0.0568197078 15.7849869,0.062949305 C12.4627452,0.0568197078 9.72631785,1.16557628 7.7159851,3.34631183 C6.51946638,4.63854072 5.67892249,6.20879626 5.19694441,8.02617172 L5.19694441,8.02617172 L2.5394527,8.02617172 L1.16992556,10.6804624 L4.78955019,10.6804624 L4.73542468,11.2489388 L4.73542468,11.2610229 C4.72334062,11.5004274 4.70897985,11.7449108 4.70897985,12.0137374 C4.70897985,12.4102348 4.72666812,12.7948232 4.75013572,13.1680281 L4.75013572,13.1801122 L4.77017751,13.3347532 L1.7277189,13.3347532 L0.285161987,15.989219 L5.20298786,15.989219 Z M9.24890895,13.3347532 L9.21686076,13.1214432 C9.20827932,13.0109353 9.20214973,12.7776603 9.19917249,12.5270474 C9.19356829,12.2643504 9.19041593,11.9724064 9.19041593,11.7338775 C9.19041593,11.5289738 9.19356829,11.3604975 9.19654552,11.2906201 L9.26763297,10.6804624 L9.26763297,10.6804624 L15.7266681,10.6804624 L17.0961953,8.02617172 L9.7946569,8.02617172 C10.0897807,7.19573424 10.4901712,6.46789393 10.9946191,5.8489388 L10.9911165,5.85489326 L10.9946191,5.85489326 C11.5942688,5.11356226 12.2772811,4.57713494 13.0688748,4.22196857 C13.8573161,3.86592654 14.7550394,3.68536612 15.7849869,3.68536612 C16.8123073,3.68536612 17.7096804,3.86592654 18.4951445,4.22196857 C19.2806086,4.57713494 19.9606436,5.11356226 20.5550394,5.8489388 C21.7440061,7.31881621 22.3613441,9.38291428 22.3613441,12.0140877 C22.3613441,14.6377304 21.7440061,16.6969248 20.5550394,18.1666271 C19.9604685,18.9011279 19.2806086,19.4375553 18.4951445,19.7935973 C17.7096804,20.1496393 16.8124825,20.3301997 15.7849869,20.3301997 C14.7550394,20.3301997 13.8573161,20.1496393 13.0688748,19.7935973 C12.2772811,19.4375553 11.5944439,18.895874 10.9946191,18.1604975 C10.4893433,17.5452151 10.0908356,16.8185617 9.79507925,15.989219 L12.9993476,15.989219 L14.4417294,13.3347532 L9.24890895,13.3347532 Z M62.7832355,10.1300246 C62.6189623,10.5396568 62.3797329,10.8809878 62.0590674,11.1617234 L62.06257,11.1582208 L62.0599431,11.1617234 C61.417211,11.7207427 60.4597679,12.0258215 59.170451,12.0258215 L57.498472,12.0258215 L57.4016243,12.0258215 L56.8417294,12.0258215 C56.3431305,12.0258215 55.9354247,11.6309003 55.9354247,11.147888 L55.9354247,6.22442041 C55.9354247,5.74228381 56.3433056,5.34666209 56.8417294,5.34666209 L57.4016243,5.34666209 L57.498472,5.34666209 L59.170451,5.34666209 C60.4595928,5.34666209 61.4170359,5.65156577 62.0590674,6.21233635 C62.3804334,6.49237137 62.6189623,6.8310754 62.7832355,7.24140815 C62.9455823,7.65104037 63.0303459,8.12879869 63.0303459,8.67923652 C63.0301707,9.23492829 62.9455823,9.71706489 62.7832355,10.1300246 Z" id="okpay" fill="#000000" sketch:type="MSShapeGroup"></path>
    </g>
</svg>