<?xml version="1.0" encoding="UTF-8" standalone="no"?>
<svg width="127px" height="116px" viewBox="0 0 127 116" version="1.1" xmlns="http://www.w3.org/2000/svg" xmlns:xlink="http://www.w3.org/1999/xlink" xmlns:sketch="http://www.bohemiancoding.com/sketch/ns">
    <!-- Generator: Sketch 3.3.2 (12043) - http://www.bohemiancoding.com/sketch -->
    <title>people</title>
    <desc>Created with Sketch.</desc>
    <defs></defs>
    <g id="Page-1" stroke="none" stroke-width="1" fill="none" fill-rule="evenodd" sketch:type="MSPage">
        <path d="M41.3422548,72.3323312 C38.2501344,69.3673981 36.4173523,65.3221176 36.2800887,60.9655456 L36.2376088,59.617287 L34.8924188,59.5169393 C34.8880036,59.5166099 34.8880036,59.5166099 34.8835853,59.5162803 C34.7536626,59.5065823 34.7536626,59.5065823 34.6210216,59.4969165 C34.1317117,59.4617096 33.7844863,59.4450827 33.4172393,59.4450827 L21.0933993,59.4450827 C10.0081869,59.4450827 0.992377709,68.4597729 0.992377709,79.5435775 L0.992377709,94.6197225 L0.992377709,94.7407627 L1.01178562,94.8602367 L1.04990886,95.0949213 L1.19861468,96.0103462 L2.08399841,96.2864111 L3.12291253,96.6103472 C10.5525399,98.9335437 17.6462277,100.218452 24.4293502,100.61137 L26.0160936,100.703284 L26.0160936,99.1138807 L26.0160936,94.5625005 C26.0171149,85.4156783 32.0801225,77.4234882 40.731339,74.8528922 L43.2045378,74.1180134 L41.3422548,72.3323312 L41.3422548,72.3323312 Z M39.2659361,74.4977181 L39.8768519,71.9771572 C29.9622078,74.9231642 23.0172643,84.0779126 23.0160937,94.562333 L23.0160936,99.1138807 L24.6028371,97.6163909 C18.0635471,97.2375967 11.2123168,95.9966057 4.01707989,93.7467021 L2.97700349,93.4224031 L2.53050095,94.8544071 L4.01109304,94.613893 L3.9729698,94.3792084 L2.49237771,94.6197225 L3.99237771,94.6197225 L3.99237771,79.5435775 C3.99237771,70.1167105 11.6649578,62.4450827 21.0933993,62.4450827 L33.4172393,62.4450827 C33.6977298,62.4450827 33.9820756,62.4586986 34.405722,62.4891809 C34.5315783,62.4983519 34.5315783,62.4983519 34.660383,62.5079655 C34.664813,62.508296 34.664813,62.508296 34.6692465,62.5086268 L34.7808326,61.012783 L33.2815766,61.0600205 C33.4437753,66.2079999 35.612333,70.9943977 39.2659361,74.4977181 L39.2659361,74.4977181 Z M27.2582175,61.4538784 C30.308075,61.4538784 33.2362101,60.5859065 35.7838009,58.9794274 L36.3625677,58.6144642 L36.4663543,57.9381524 C37.1078435,53.7579705 39.340003,50.0107637 42.6623026,47.4288361 L43.2021946,47.0092586 L43.2396074,46.3265222 C43.2427867,46.2685046 43.2456558,46.2228861 43.2531262,46.1089352 C43.2550641,46.0794133 43.2550641,46.0794133 43.257033,46.0492155 C43.274218,45.7847409 43.2817613,45.6192477 43.2817613,45.4274364 C43.2817613,36.5766784 36.1064706,29.4015146 27.2582175,29.4015146 C18.4046208,29.4015146 11.2305122,36.574888 11.2305122,45.4274364 C11.2305122,54.2803402 18.404456,61.4538784 27.2582175,61.4538784 L27.2582175,61.4538784 Z M27.2582175,58.4538784 C20.0612723,58.4538784 14.2305122,52.623448 14.2305122,45.4274364 C14.2305122,38.231811 20.0614062,32.4015146 27.2582175,32.4015146 C34.4496282,32.4015146 40.2817613,38.2335445 40.2817613,45.4274364 C40.2817613,45.5374696 40.2765978,45.650752 40.2633462,45.8546929 C40.2614856,45.8832285 40.2614856,45.8832285 40.2595677,45.9124472 C40.2517214,46.0319084 40.2480661,46.0900262 40.2441016,46.1623737 L41.7418545,46.2444479 L40.8214064,45.0600598 C36.8984674,48.1087747 34.2599064,52.5382226 33.5010672,57.4831005 L34.1836206,56.4418255 C32.1091875,57.7499374 29.7344164,58.4538784 27.2582175,58.4538784 L27.2582175,58.4538784 Z M106.89314,44.8284974 L94.6629357,44.8284974 L93.2031058,44.8284974 L93.1634882,46.2877897 C93.0446402,50.6654897 91.2094667,54.7334511 88.0996238,57.7155536 L86.2376959,59.5010006 L88.7104109,60.2360362 C97.3608678,62.8074582 103.424033,70.8003774 103.424033,79.9475502 L103.424033,84.5924921 L103.424033,86.148629 L104.979121,86.0914802 C110.410529,85.8918782 115.244907,85.0990793 119.437093,83.9080998 C120.947262,83.4790683 122.280524,83.023541 123.431196,82.5659373 C124.181392,82.2675962 124.741836,82.0141195 125.095979,81.8347802 L126.066812,81.3420731 L125.387966,80.0044749 L125.387966,81.5044749 L125.492378,81.5044749 L126.992378,81.5044749 L126.992378,80.0044749 L126.992378,64.9251344 C126.993823,53.8438203 117.977307,44.8284974 106.89314,44.8284974 L106.89314,44.8284974 Z M106.89314,47.8284974 C116.320476,47.8284974 123.993607,55.5006125 123.992378,64.9249387 L123.992378,80.0044749 L125.492378,80.0044749 L125.492378,78.5044749 L125.387966,78.5044749 L125.029117,78.5044749 L124.709121,78.6668768 L123.739467,79.1589861 C123.46606,79.2974397 122.987851,79.5137233 122.322591,79.7782865 C121.26503,80.1988619 120.028002,80.6215093 118.61725,81.0222969 C114.650957,82.1491016 110.054077,82.9029525 104.868946,83.093504 L106.424033,84.5924921 L106.424033,79.9475502 C106.424033,69.4628465 99.4789699,60.3073436 89.5652192,57.3603967 L90.1760063,59.8808793 C93.8501162,56.3576878 96.0219073,51.5435586 96.1623832,46.3692052 L94.6629357,47.8284974 L106.89314,47.8284974 L106.89314,47.8284974 Z M85.418149,31.8623942 C89.7137756,34.5563788 92.5747241,39.0565266 93.1005157,44.1175538 L93.1882532,44.9620749 L93.9574852,45.3215133 C96.0792085,46.3129294 98.3716559,46.8369215 100.729288,46.8369215 C109.582038,46.8369215 116.756919,39.6631311 116.756919,30.8125603 C116.756919,21.9602204 109.582424,14.7866385 100.729288,14.7866385 C91.9731288,14.7855743 84.8488888,21.8195829 84.7152822,30.5687203 L84.7023817,31.4135037 L85.418149,31.8623942 L85.418149,31.8623942 Z M87.0120658,29.3208535 L87.7149325,30.6145274 C87.823538,23.5025698 93.6136684,17.7857737 100.729105,17.7866385 C107.925655,17.7866385 113.756919,23.6171601 113.756919,30.8125603 C113.756919,38.0061748 107.925286,43.8369215 100.729288,43.8369215 C98.8169963,43.8369215 96.9571497,43.4118104 95.2274863,42.6035919 L96.0844558,43.8075514 C95.4622134,37.8181332 92.081194,32.4999364 87.0120658,29.3208535 L87.0120658,29.3208535 Z M82.9452775,59.4450827 L70.7125469,59.4450827 L69.2527169,59.4450827 L69.2130993,60.9043749 C69.0942538,65.281986 67.2590025,69.349975 64.1489861,72.3323866 L62.2873464,74.1176428 L64.7596687,74.8528057 C73.4108448,77.4252954 79.4736445,85.4172515 79.4736445,94.5641354 L79.4736445,99.2090773 L79.4736445,100.765324 L81.0288371,100.708062 C86.460457,100.508069 91.2945941,99.7150275 95.4870442,98.5238674 C96.9968045,98.0949139 98.3296298,97.6395655 99.4806149,97.1819907 C100.228658,96.8846056 100.777501,96.6366311 101.141734,96.453422 L102.118584,95.9567147 L101.438692,94.6196482 L101.438692,96.1196482 L101.541766,96.1196482 L103.041766,96.1196482 L103.041766,94.6196482 L103.041766,79.5421656 C103.043212,68.4605929 94.0274029,59.4450827 82.9452775,59.4450827 L82.9452775,59.4450827 Z M82.9452775,62.4450827 C92.3705056,62.4450827 100.042995,70.1173185 100.041766,79.5419699 L100.041766,94.6196482 L101.541766,94.6196482 L101.541766,93.1196482 L101.438692,93.1196482 L101.079223,93.1196482 L100.7588,93.2825817 L99.7878091,93.776326 C99.5059324,93.9180936 99.0368261,94.1300421 98.3723318,94.3942123 C97.3143095,94.8148297 96.077585,95.237346 94.6671345,95.6380836 C90.7005209,96.7650789 86.1038318,97.5191672 80.9184518,97.7100931 L82.4736445,99.2090773 L82.4736445,94.5641354 C82.4736445,84.0797289 75.5289926,74.9253189 65.6147378,71.9772437 L66.2254204,74.4976627 C69.8996539,70.9741839 72.0715208,66.1600582 72.2119944,60.9857904 L70.7125469,62.4450827 L82.9452775,62.4450827 L82.9452775,62.4450827 Z M58.9092786,74.4402251 L46.5841009,74.4402251 C35.499754,74.4402251 26.4830794,83.4565765 26.4830794,94.5412466 L26.4830794,109.61598 L26.4830794,109.739777 L26.5033753,109.861898 L26.5426133,110.097995 L26.6941779,111.009966 L27.5769732,111.284441 L28.6145496,111.607039 C37.736375,114.455828 46.3347611,115.753862 54.350467,115.753862 C60.492318,115.753862 65.9684706,114.997248 70.722636,113.722787 C72.4327411,113.264354 73.9425654,112.765824 75.244389,112.257343 C76.0916393,111.926414 76.7324022,111.638345 77.1152354,111.442791 L78.0809061,110.954165 L77.4036591,109.615757 L77.4036591,111.115757 L77.5066587,111.115757 L79.0066587,111.115757 L79.0066587,109.615757 L79.0066587,94.5410237 C79.00698,83.4555826 69.9940343,74.4402251 58.9092786,74.4402251 L58.9092786,74.4402251 Z M58.9092786,77.4402251 C68.3369858,77.4402251 76.006932,85.1122237 76.0066587,94.5409802 L76.0066587,109.615757 L77.5066587,109.615757 L77.5066587,108.115757 L77.4036591,108.115757 L77.0457576,108.115757 L76.7264121,108.277349 L75.7556442,108.768566 C75.4565206,108.921348 74.9069354,109.168426 74.1529191,109.462939 C72.9524031,109.93185 71.5474617,110.395749 69.9458451,110.825099 C65.4391612,112.033217 60.2233417,112.753862 54.350467,112.753862 C46.6365228,112.753862 38.3397092,111.501354 29.5070512,108.742875 L28.4676615,108.419712 L28.0223173,109.852076 L29.5020213,109.606158 L29.4627834,109.370061 L27.9830794,109.61598 L29.4830794,109.61598 L29.4830794,94.5412466 C29.4830794,85.1134548 37.1565842,77.4402251 46.5841009,77.4402251 L58.9092786,77.4402251 L58.9092786,77.4402251 Z M52.7472843,76.4515474 C61.5971077,76.4515474 68.7729088,69.2750362 68.7729088,60.4256256 C68.7729088,51.5754176 61.5974993,44.3997038 52.7472843,44.3997038 C43.896029,44.3997038 36.7182413,51.5756404 36.7182413,60.4256256 C36.7184872,69.2748033 43.89655,76.4515474 52.7472843,76.4515474 L52.7472843,76.4515474 Z M52.7472843,73.4515474 C45.553267,73.4515474 39.7184412,67.6177935 39.7182413,60.4255839 C39.7182413,53.2326679 45.55271,47.3997038 52.7472843,47.3997038 C59.9406165,47.3997038 65.7729088,53.2322434 65.7729088,60.4256256 C65.7729088,67.6182484 59.940187,73.4515474 52.7472843,73.4515474 L52.7472843,73.4515474 Z M61.4675981,46.4789434 C65.7628841,49.1724272 68.6242543,53.6724122 69.151278,58.7337459 L69.2391849,59.5779702 L70.0081488,59.9373264 C72.1304721,60.9291413 74.4230868,61.4536554 76.7800134,61.4536554 C85.6316132,61.4536554 92.8065297,54.2786375 92.8065297,45.4272877 C92.8065297,36.5753609 85.6320023,29.4013659 76.7800134,29.4013659 C68.0219487,29.4016115 60.8980159,36.4348445 60.7646697,45.1852793 L60.751796,46.0300789 L61.4675981,46.4789434 L61.4675981,46.4789434 Z M63.061393,43.9373262 L63.7643214,45.2309904 C63.8727185,38.1177646 69.6626331,32.4015655 76.7800554,32.4013659 C83.9751979,32.4013659 89.8065297,38.232265 89.8065297,45.4272877 C89.8065297,52.6217928 83.9747495,58.4536554 76.7800134,58.4536554 C74.8686652,58.4536554 73.0086594,58.0281154 71.2782744,57.2194631 L72.1351452,58.4230435 C71.5114803,52.4336037 68.1300901,47.1157999 63.061393,43.9373262 L63.061393,43.9373262 Z M61.0939839,43.8619572 C61.2347637,40.8043152 62.2711911,37.8953673 64.0520169,35.4351606 L65.4081893,33.5616115 L63.1444338,33.0874797 C61.689776,32.7828092 60.2075171,32.6277219 58.7080354,32.6277219 L45.3304184,32.6277219 C43.836581,32.6277219 42.3568407,32.781417 40.9090442,33.0824199 L38.6455585,33.553008 L39.9976538,35.4282837 C41.9023199,38.0699419 42.9504661,41.2097739 42.9679476,44.503496 L42.9813306,47.0250093 L45.1907772,45.8098738 C47.4906032,44.545032 50.0710888,43.8725235 52.7475072,43.8725235 C54.9252462,43.8725235 57.0396892,44.3172046 58.9973914,45.168533 L60.9938538,46.0367166 L61.0939839,43.8619572 L61.0939839,43.8619572 Z M58.0971587,43.7239775 L60.1937512,42.4174017 C57.8605878,41.4027999 55.3391422,40.8725235 52.7475072,40.8725235 C49.5619077,40.8725235 46.4846749,41.6744909 43.7450758,43.1811959 L45.9679054,44.4875737 C45.947069,40.5617714 44.6966106,36.8158921 42.4310891,33.6737488 L41.2143715,34.5510162 L41.5196988,36.0196126 C42.7676044,35.7601678 44.0427628,35.6277219 45.3304184,35.6277219 L58.7080354,35.6277219 C59.9998382,35.6277219 61.2760478,35.7612505 62.5294436,36.0237677 L62.8369387,34.5556237 L61.6218606,33.6760869 C59.5018007,36.6049447 58.2651214,40.0759411 58.0971587,43.7239775 L58.0971587,43.7239775 Z M37.7504725,17.2857945 C37.7504725,9.40689382 44.1382332,3.0197154 52.0183352,3.0197154 C59.8976256,3.0197154 66.2857519,9.40719701 66.2857519,17.2857945 C66.2857519,25.1643429 59.8976747,31.5516506 52.0183352,31.5516506 C44.1382496,31.5518524 37.7504725,25.1647199 37.7504725,17.2857945 L37.7504725,17.2857945 Z M34.7504725,17.2857945 C34.7504725,26.8216548 42.4814928,34.5518948 52.0183736,34.5516506 C61.554448,34.5516506 69.2857519,26.821278 69.2857519,17.2857945 C69.2857519,7.75027498 61.5544121,0.0197154045 52.0183352,0.0197154045 C42.4814402,0.0197154045 34.7504725,7.74997835 34.7504725,17.2857945 L34.7504725,17.2857945 Z" id="people" fill="#000000" sketch:type="MSShapeGroup"></path>
    </g>
</svg>