<?xml version="1.0" encoding="UTF-8" standalone="no"?>
<svg width="112px" height="70px" viewBox="0 0 112 70" version="1.1" xmlns="http://www.w3.org/2000/svg" xmlns:xlink="http://www.w3.org/1999/xlink" xmlns:sketch="http://www.bohemiancoding.com/sketch/ns">
    <!-- Generator: Sketch 3.3.2 (12043) - http://www.bohemiancoding.com/sketch -->
    <title>plane</title>
    <desc>Created with Sketch.</desc>
    <defs></defs>
    <g id="Page-1" stroke="none" stroke-width="1" fill="none" fill-rule="evenodd" sketch:type="MSPage">
        <path d="M3.37589366,2.3728158 L56.4591508,36.5928874 C56.5132315,36.625903 56.5570499,36.676845 56.5805122,36.7405086 L67.2953791,67.5398153 L76.100248,31.5488983 L3.37589366,2.3728158 Z M76.3359781,31.0346511 C76.4209131,30.9521404 76.5269657,30.8904344 76.6457595,30.8572882 L108.145491,22.1781827 L5.6056888,2.65854868 L76.3359781,31.0346511 Z M0.611584064,0.317547871 C0.567402674,0.325874917 0.523374139,0.33856877 0.480034282,0.355859425 C0.117054091,0.498739936 -0.0606072513,0.909991054 0.0822732599,1.27300703 L18.4580739,47.7018735 C18.5681058,47.9780089 18.83458,48.1479054 19.1164765,48.1479054 C19.1168251,48.1479054 19.1171737,48.1479052 19.1175224,48.1479047 L19.1175223,48.1479047 C19.1809238,48.147821 19.2462258,48.1401172 19.3114924,48.1228575 L40.0819778,42.1959979 L40.0819778,42.1959979 L67.0939129,69.7790773 C67.1438412,69.8283338 67.1988612,69.8691042 67.2572535,69.9012198 C67.3109243,69.9311989 67.3693701,69.9546473 67.4318094,69.9702645 C67.4819143,69.9823346 67.5335662,69.9882457 67.5826128,69.9893565 C67.5882651,69.9894807 67.5940363,69.9895514 67.5998094,69.9895514 C67.7793314,69.9895514 67.9550605,69.9219578 68.0960087,69.7887387 C68.1954424,69.691376 68.2600524,69.5721058 68.289757,69.4462278 L77.4200624,32.1084677 L111.454894,22.7323144 C111.771607,22.6435016 111.987843,22.3500115 111.972384,22.0217764 C111.960827,21.6935412 111.723301,21.4174058 111.402759,21.3556447 L0.873930768,0.31724984 C0.784603559,0.300553244 0.695907348,0.301462103 0.611488336,0.317562203 L0.611584064,0.317547871 Z M19.538851,46.5841334 L36.4854286,41.7515184 C36.5317652,41.7234184 36.5825328,41.7010195 36.6370336,41.6855412 L55.1196386,36.4046747 L55.1196386,36.4046747 L1.94059678,2.12169025 L19.538851,46.5841334 L19.538851,46.5841334 Z" id="plane" fill="#FFFFFF" sketch:type="MSShapeGroup" transform="translate(56.003028, 35.147327) scale(-1, 1) translate(-56.003028, -35.147327) "></path>
    </g>
</svg>