<?xml version="1.0" encoding="UTF-8" standalone="no"?>
<svg width="67px" height="68px" viewBox="0 0 67 68" version="1.1" xmlns="http://www.w3.org/2000/svg" xmlns:xlink="http://www.w3.org/1999/xlink" xmlns:sketch="http://www.bohemiancoding.com/sketch/ns">
    <!-- Generator: Sketch 3.3.2 (12043) - http://www.bohemiancoding.com/sketch -->
    <title>safe</title>
    <desc>Created with Sketch.</desc>
    <defs></defs>
    <g id="Page-1" stroke="none" stroke-width="1" fill="none" fill-rule="evenodd" sketch:type="MSPage">
        <g id="safe" sketch:type="MSLayerGroup" transform="translate(0.500000, 0.659367)" fill="#343558">
            <path d="M65.537,0.0551764706 L2.056,0.0551764706 C1.749,0.0551764706 1.5,0.300514706 1.5,0.602014706 L1.5,66.2876324 C1.5,66.5901176 1.749,66.8364412 2.056,66.8364412 L65.537,66.8364412 C65.844,66.8364412 66.093,66.5901176 66.093,66.2876324 L66.093,0.602014706 C66.093,0.300514706 65.844,0.0551764706 65.537,0.0551764706 L65.537,0.0551764706 Z M3.611,2.13513235 L63.981,2.13513235 L63.981,64.7564853 L3.611,64.7564853 L3.611,2.13513235 Z" id="Fill-1" sketch:type="MSShapeGroup"></path>
            <path d="M34.0132871,48.3020404 C42.2907987,48.3020404 49.0265742,41.6665054 49.0265742,33.5107219 C49.0265742,25.3549384 42.2907987,18.7205882 34.0132871,18.7205882 C25.7357755,18.7205882 19,25.3549384 19,33.5107219 C19,41.6676903 25.7345729,48.3020404 34.0132871,48.3020404 L34.0132871,48.3020404 Z M34.0132871,20.0382159 C41.5560087,20.0382159 47.6904831,26.0824774 47.6904831,33.5119068 C47.6904831,40.9413362 41.5560087,46.9855977 34.0132871,46.9855977 C26.4729707,46.9855977 20.3372938,40.9413362 20.3372938,33.5119068 C20.3372938,26.0824774 26.4729707,20.0382159 34.0132871,20.0382159 L34.0132871,20.0382159 Z" id="Fill-2" sketch:type="MSShapeGroup"></path>
            <path d="M41.8142926,33.9759801 C41.8142926,31.3099169 40.2509096,28.9092751 37.8072218,27.7966381 L35.7027159,23.6470588 L35.0917458,23.6470588 L34.6451883,23.6470588 L32.484504,27.6046815 C29.7906748,28.5976419 28,31.1250698 28,33.9759801 C28,37.729797 31.1003087,40.7833281 34.9089502,40.7833281 C38.7187943,40.7833281 41.8142926,37.7309819 41.8142926,33.9759801 Z M33.5331732,28.4578217 L35.0929484,25.6673423 L35.4901115,25.6673423 L36.7441213,28.6237101 C36.8186827,28.7528661 36.9329299,28.8547689 37.0700265,28.9128298 C39.1409077,29.7730796 40.4782015,31.7601853 40.4782015,33.9747951 C40.4782015,37.002258 37.9791939,39.4668853 34.9089502,39.4668853 C31.8350987,39.4668853 29.3360912,37.002258 29.3360912,33.9747951 C29.3360912,31.6061461 30.8718143,29.5112129 33.1579613,28.7659001 C33.3167048,28.7125789 33.4513962,28.6035665 33.5331732,28.4578217 Z" id="Fill-3" sketch:type="MSShapeGroup" transform="translate(34.907146, 32.215193) rotate(46.000000) translate(-34.907146, -32.215193) "></path>
            <path d="M33.6869901,36.5071425 C35.3699901,36.5071425 36.7399901,35.1563042 36.7399901,33.497069 C36.7399901,31.838819 35.3699901,30.488966 33.6869901,30.488966 C32.0029901,30.488966 30.6329901,31.838819 30.6329901,33.497069 C30.6329901,35.1563042 32.1057216,36.5061573 33.7897216,36.5061573 L33.6869901,36.5071425 Z M35.0537246,33.5285548 C35.0537246,34.3060997 34.4283382,34.9391708 33.6609489,34.9391708 C32.8928425,34.9391708 32.2674561,34.3060997 32.2674561,33.5285548 C32.2674561,32.7517359 32.8928425,32.1186648 33.6609489,32.1186648 C34.4283382,32.1186648 35.0537246,32.7517359 35.0537246,33.5285548 Z" id="Fill-4-Copy" sketch:type="MSShapeGroup"></path>
            <path d="M29.8639905,25.781666 L28.9115295,23.5184746 L30.1453994,23.0148849 L31.0978604,25.2780763 L29.8639905,25.781666" id="Fill-13" sketch:type="MSShapeGroup"></path>
            <path d="M37.7266043,41.0433966 L38.6778627,43.307773 L37.4415876,43.8113627 L36.4903292,41.5469863 L37.7266043,41.0433966" id="Fill-14" sketch:type="MSShapeGroup"></path>
            <path d="M37.634675,25.7975657 L36.3897993,25.3156286 L37.3014147,23.0361802 L38.5462904,23.5181172 L37.634675,25.7975657" id="Fill-15" sketch:type="MSShapeGroup"></path>
            <path d="M29.8627879,41.0445816 L31.0978604,41.5493562 L30.1453994,43.8113627 L28.9115295,43.307773 L29.8627879,41.0445816" id="Fill-16" sketch:type="MSShapeGroup"></path>
            <path d="M25.5370274,30.7500229 L23.240057,29.8139385 L23.751163,28.5970288 L26.0481334,29.5331132 L25.5370274,30.7500229" id="Fill-17" sketch:type="MSShapeGroup"></path>
            <path d="M42.0523648,36.071485 L44.3505378,37.0087543 L43.8394318,38.2256641 L41.5400562,37.2883948 L42.0523648,36.071485" id="Fill-18" sketch:type="MSShapeGroup"></path>
            <path d="M44.4061303,29.294698 L44.9172363,30.5092379 L42.6190633,31.4476921 L42.1079573,30.2331523 L44.4061303,29.294698 Z" id="Fill-19" sketch:type="MSShapeGroup"></path>
            <path d="M26.0457282,37.2883948 L23.7487578,38.226849 L23.2376518,37.0123091 L25.5346222,36.0738549 L26.0457282,37.2883948" id="Fill-20" sketch:type="MSShapeGroup"></path>
            <path d="M7.28191405,54.7606769 L7.28191405,60.0063828 C7.28191408,60.7056396 7.53091395,60.8585109 7.83691395,60.8585109 L59.4659999,60.8585105 C59.7719999,60.8585105 60.7468265,60.8585093 60.7468265,60.0063828 L60.7468265,6.88425042 C60.7468265,5.9567476 59.7719999,5.95674718 59.4659999,5.95674718 L7.83691394,5.9567476 C7.15026855,5.9567476 7.28191405,6.58275042 7.28191405,6.88425042 L7.28191405,12.1319269 L7.28191405,20.2714416 L7.28191408,46.7514373 L7.28191405,54.7606769 Z M8.682,12.1329118 L8.682,7.43305882 L58.91,7.43305882 L58.91,59.4625 L8.682,59.4625 L8.682,54.7616618 L8.682,46.6231324 L8.682,20.2724265 L8.682,12.1329118 Z" id="Fill-21" sketch:type="MSShapeGroup"></path>
            <path d="M40.6221417,53.1376967 C40.6374474,54.0145631 41.2420765,54.9724164 41.9700707,54.9597092 L52.9323878,55.2703552 C54.0002847,55.251715 54.8722936,53.9720417 54.8506352,52.7312308 C54.8289942,51.4914196 53.5400847,50.5037637 52.4464073,50.5248542 L42.1833626,51.3620966 C41.0258559,51.3823009 40.5854754,52.5165017 40.6007812,53.3933681 L40.6221417,53.1376967 Z M52.5361868,54.1642166 L42.2254096,53.8172796 C41.9982341,53.8212449 41.8077435,53.4611963 41.8031535,53.1982364 C41.7985461,52.9342766 41.9493806,52.6004752 42.2040925,52.5960292 L52.4706148,51.8870141 C53.0118776,51.8775664 53.4588145,52.381843 53.4697572,53.0087476 C53.4807173,53.6366519 53.0516168,54.1542196 52.5361868,54.1642166 Z" id="Fill-5-Copy" sketch:type="MSShapeGroup"></path>
            <rect id="Rectangle-2" sketch:type="MSShapeGroup" x="0.0213551521" y="18.7205882" width="4.94752407" height="5.41911765"></rect>
            <rect id="Rectangle-2-Copy" sketch:type="MSShapeGroup" x="0.0490825044" y="45.8161765" width="4.91979672" height="5.41911765"></rect>
        </g>
    </g>
</svg>