<?xml version="1.0" encoding="UTF-8" standalone="no"?>
<svg width="101px" height="28px" viewBox="0 0 101 28" version="1.1" xmlns="http://www.w3.org/2000/svg" xmlns:xlink="http://www.w3.org/1999/xlink" xmlns:sketch="http://www.bohemiancoding.com/sketch/ns">
    <!-- Generator: Sketch 3.3.2 (12043) - http://www.bohemiancoding.com/sketch -->
    <title>sepa</title>
    <desc>Created with Sketch.</desc>
    <defs></defs>
    <g id="Page-1" stroke="none" stroke-width="1" fill="none" fill-rule="evenodd" sketch:type="MSPage">
        <path d="M22.4423055,8.8520059 L15.6036525,8.8520059 C15.6036525,7.72950712 15.4717833,6.97694489 15.2088258,6.59305031 C14.8020908,6.02633484 13.6785183,5.74151297 11.840451,5.74151297 C10.0543114,5.74151297 8.87090486,5.90442171 8.29423332,6.23228896 C7.71658568,6.5611323 7.42766426,7.27377261 7.42766426,8.37225968 C7.42766426,9.3667936 7.68349637,10.0224305 8.19730799,10.3353636 C8.56519476,10.5583017 9.0508951,10.6891948 9.65558032,10.7281406 L11.0348873,10.826042 C13.9914515,11.0219425 15.8375227,11.1598634 16.5731987,11.2388287 C18.9111196,11.4747487 20.6052143,12.0953441 21.6567516,13.10286 C22.4842772,13.8894876 22.977103,14.9159395 23.1350337,16.1843631 C23.226981,16.9429771 23.2729546,17.8026159 23.2729546,18.7561543 C23.2729546,20.9550806 23.0630962,22.5652319 22.6432816,23.5858273 C21.8816418,25.4589361 20.1704656,26.641269 17.5097531,27.1380967 C16.3942821,27.3479551 14.6890601,27.452982 12.3941845,27.452982 C8.56412107,27.452982 5.89530701,27.2250659 4.38813278,26.7673792 C2.53903566,26.2066179 1.31863547,25.069185 0.728884367,23.3570327 C0.399064943,22.4034944 0.236156207,20.8153051 0.236156207,18.5933431 L7.07480921,18.5933431 C7.07480921,18.8411713 7.07578529,19.0311177 7.07578529,19.1621084 C7.07578529,20.3485408 7.41663449,21.1101806 8.09735679,21.4499561 C8.56919671,21.6838263 9.13786436,21.8068131 9.8065808,21.8218448 L12.3213685,21.8218448 C13.6047262,21.8218448 14.4232719,21.7558614 14.7762245,21.6238946 C15.4049215,21.3770425 15.8177082,20.9791899 16.0146823,20.4284822 C16.1196116,20.0887067 16.1715393,19.6509322 16.1715393,19.114085 C16.1715393,17.9117424 15.7327887,17.1799708 14.856166,16.9171108 C14.5273226,16.8142314 13.0030669,16.6682089 10.2814466,16.4863641 C8.09550223,16.3304832 6.57720062,16.1804588 5.72673698,16.0346316 C3.48779115,15.6157931 1.99555103,14.7542021 1.2508951,13.4468326 C0.596234294,12.3364373 0.269343127,10.6551294 0.269343127,8.40622747 C0.269343127,6.6940752 0.4463075,5.32072234 0.800138637,4.28821868 C1.15396977,3.25473894 1.72371111,2.47103957 2.51131482,1.93438755 C3.66368183,1.11076627 5.14001175,0.627018097 6.93513132,0.483045428 C8.42942121,0.352152309 10.0865222,0.286168902 11.9107292,0.286168902 C14.7813978,0.286168902 16.8263953,0.451127419 18.0457218,0.777920977 C21.0221982,1.57753054 22.5095579,3.81745246 22.5095579,7.49768672 C22.5095579,7.7975403 22.4874983,8.24927286 22.4425984,8.8520059 L22.4423055,8.8520059 Z M52.5166833,27.4539581 L52.5166833,0.139365584 L66.2129254,0.139365584 C68.0919883,0.139365584 69.5242968,0.292220635 70.5098507,0.599102041 C72.7627545,1.30471453 74.2740283,2.75000492 75.047674,4.93399711 C75.4465027,6.08041 75.6473812,7.8066179 75.6473812,10.1104734 C75.6473812,12.8810933 75.4254193,14.8722109 74.9866687,16.0845096 C74.1080937,18.4813861 72.2999922,19.8626452 69.570368,20.2204783 C69.2495286,20.2744559 67.8832035,20.3214056 65.4713929,20.3614251 L64.2519688,20.401347 L59.8690503,20.401347 L59.8690503,27.4539581 L52.5165857,27.4539581 L52.5166833,27.4539581 Z M59.8679766,14.0655735 L64.4507975,14.0655735 C65.9040918,14.0135481 66.7876447,13.9015911 67.1054583,13.7266765 C67.5403046,13.4878282 67.8320566,13.0090581 67.9770054,12.2923182 C68.0699288,11.8146218 68.1159024,11.1049098 68.1159024,10.1623036 C68.1159024,9.00691073 68.0239551,8.15029775 67.8381084,7.59158618 C67.5742724,6.80798442 66.9404998,6.33116646 65.9380596,6.15722796 C65.7391333,6.13126407 65.2643651,6.11720843 64.5118029,6.11720843 L59.8680742,6.11720843 L59.8680742,14.0652807 L59.8679766,14.0655735 Z M91.3387428,22.7333139 L81.5095579,22.7333139 L80.1892065,27.4540557 L72.5839356,27.4540557 L80.7909634,0.14034167 L91.8794944,0.14034167 L100.18745,27.4540557 L92.7420615,27.4540557 L91.3387428,22.7333139 L91.3387428,22.7333139 Z M89.8793968,17.4118888 L86.4350825,5.57167403 L83.0927692,17.4118888 L89.8793968,17.4118888 L89.8793968,17.4118888 Z M42.3705632,3.98241097 C45.4020908,3.98241097 48.108777,5.37870185 49.8869127,7.56669599 L51.4711001,4.16933142 C48.993306,1.82750614 45.6199532,0.383191841 41.899797,0.383191841 C36.1076057,0.383191841 31.1520176,3.88148369 29.1190259,8.83404592 L26.0285427,8.83404592 L24.2034573,12.7451245 L28.1785671,12.7451245 C28.1486013,13.1079356 28.1295676,13.4707467 28.1295676,13.8415618 C28.1295676,14.2892924 28.1526033,14.7331186 28.1976008,15.1708932 L26.199553,15.1708932 L24.3754437,19.0839239 L29.2131206,19.0839239 C31.3040918,23.910571 36.1976984,27.2989556 41.8989185,27.2989556 C44.7725154,27.2989556 47.438206,26.4383407 49.6461123,24.9670864 L49.6461123,20.1724549 C47.8679766,22.1964666 45.2682694,23.4758224 42.3686111,23.4758224 C38.9802265,23.4758224 35.9996506,21.7287262 34.2635842,19.0839239 L44.3935989,19.0839239 L46.2186843,15.1708932 L32.7752484,15.1708932 C32.7052631,14.7001269 32.6682694,14.219307 32.6682694,13.728531 C32.6682694,13.3967594 32.6852533,13.0688922 32.7172689,12.7450269 L47.3500654,12.7450269 L49.1741748,8.83394831 L33.981593,8.83394831 C35.6628034,5.93341146 38.7893041,3.98231336 42.3705632,3.98231336 L42.3705632,3.98241097 Z" id="sepa" fill="#000000" sketch:type="MSShapeGroup"></path>
    </g>
</svg>