<?xml version="1.0" encoding="UTF-8" standalone="no"?>
<svg width="96px" height="34px" viewBox="0 0 96 34" version="1.1" xmlns="http://www.w3.org/2000/svg" xmlns:xlink="http://www.w3.org/1999/xlink" xmlns:sketch="http://www.bohemiancoding.com/sketch/ns">
    <!-- Generator: Sketch 3.3.2 (12043) - http://www.bohemiancoding.com/sketch -->
    <title>skrill</title>
    <desc>Created with Sketch.</desc>
    <defs></defs>
    <g id="Page-1" stroke="none" stroke-width="1" fill="none" fill-rule="evenodd" sketch:type="MSPage">
        <path d="M24.2476743,23.4771429 C24.2476743,26.073139 23.1797056,28.3381781 21.0536313,30.2831 C18.9225766,32.2271429 15.8186704,33.2000922 11.7476743,33.2000922 C7.48566258,33.2000922 3.96964696,32.8310492 1.19161962,32.0891547 L1.19161962,24.8670843 C3.7836118,25.9781195 6.7476743,26.5340765 10.0805845,26.5340765 C13.4134946,26.5340765 15.0805845,25.6090765 15.0805845,23.7560492 C15.0805845,22.2749945 13.969647,21.5339789 11.7475766,21.5339789 C4.33956883,20.9770453 0.636639147,17.829975 0.636639147,12.0879828 C0.636639147,9.49599059 1.6086118,7.22694762 3.55363133,5.28192809 C5.49865087,3.33690856 8.50665868,2.36493591 12.5816587,2.36493591 C16.2845884,2.36493591 19.803729,2.92099059 23.1377134,4.03192809 L23.1377134,10.9758734 L20.9147641,10.1439398 C18.3187681,9.40595153 16.0067563,9.03300231 13.9707212,9.03300231 C10.8197446,9.03300231 9.24874852,9.86601012 9.24874852,11.5330023 C9.24874852,13.0180609 10.359686,13.754975 12.5817563,13.754975 C20.3588071,14.3110297 24.247772,17.5520453 24.247772,23.4770453 L24.2476743,23.4771429 Z M34.525604,32.9220648 L26.469647,32.9220648 L26.469647,4.03309997 L34.525604,2.36610778 L34.525604,18.4770453 C37.4855649,14.7741156 38.969647,12.1840765 38.969647,10.6991156 L48.4146665,10.6991156 C47.1176938,14.5880804 45.1726743,18.1991156 42.5816587,21.5321234 C45.5416196,26.5321234 47.3036313,30.3291937 47.8595884,32.9211859 L38.1376157,32.9211859 C37.3956235,29.4061468 36.1936704,26.4402289 34.5266782,24.0321234 L34.5266782,32.9221625 L34.525604,32.9220648 Z M57.5816587,32.9220648 L49.525604,32.9220648 L49.525604,20.4220648 C49.525604,13.9411078 53.2285337,10.6081 60.6366391,10.4220648 C61.5616391,10.2401312 62.2076352,10.2401312 62.5806821,10.4220648 L62.5806821,17.089057 C60.5407407,17.089057 59.1997251,17.5060492 58.5527524,18.339057 C57.9017759,19.1720648 57.5807798,20.6080023 57.5807798,22.645014 L57.5807798,32.9220648 L57.5816587,32.9220648 Z M68.9707212,8.47714294 C66.3747251,8.47714294 65.0817563,7.18417419 65.0817563,4.58817809 C65.0817563,1.99618591 66.3747251,0.699115593 68.9707212,0.699115593 C71.5627134,0.699115593 72.859686,1.99608825 72.859686,4.58817809 C72.8587095,7.18417419 71.5616391,8.47714294 68.9707212,8.47714294 L68.9707212,8.47714294 Z M72.8587095,32.9220648 L65.0807798,32.9220648 L65.0807798,10.7000922 L72.8588071,10.7000922 L72.8588071,32.9220648 L72.8587095,32.9220648 Z M76.4706235,4.03309997 L84.2486509,2.36610778 L84.2486509,32.9221625 L76.4706235,32.9221625 L76.4706235,4.03319762 L76.4706235,4.03309997 Z M95.9146665,32.9220648 L87.8586118,32.9220648 L87.8586118,4.03309997 L95.9146665,2.36610778 L95.9146665,32.9221625 L95.9146665,32.9220648 Z" id="skrill" fill="#000000" sketch:type="MSShapeGroup"></path>
    </g>
</svg>