<?xml version="1.0" encoding="UTF-8" standalone="no"?>
<svg width="100px" height="19px" viewBox="0 0 100 19" version="1.1" xmlns="http://www.w3.org/2000/svg" xmlns:xlink="http://www.w3.org/1999/xlink" xmlns:sketch="http://www.bohemiancoding.com/sketch/ns">
    <!-- Generator: Sketch 3.3.2 (12043) - http://www.bohemiancoding.com/sketch -->
    <title>sofort</title>
    <desc>Created with Sketch.</desc>
    <defs></defs>
    <g id="Page-1" stroke="none" stroke-width="1" fill="none" fill-rule="evenodd" sketch:type="MSPage">
        <path d="M27.0140623,0.733494676 C26.7562695,0.922846079 26.4946044,1.10726041 26.2418455,1.303485 C25.268467,2.05982575 24.3920875,2.91829622 23.7081572,3.94520813 C23.3888929,4.4249758 22.9934428,4.58363988 22.4492027,4.57957406 C20.5717584,4.56573088 18.6932492,4.59244918 16.815708,4.56466602 C16.1197739,4.55382381 15.6201611,4.78480155 15.239619,5.3696031 C15.0612066,5.64511133 15.0502676,5.87415295 15.2009936,6.13194579 C15.4369084,6.53533398 15.7730168,6.81190707 16.2279055,6.95266215 C16.9168697,7.16582769 17.5948949,7.41268151 18.283859,7.62381413 C19.9174505,8.12439497 20.5717584,10.0078412 20.1860856,11.3827686 C19.861013,12.5395934 19.5526877,13.6934172 18.8448465,14.6856728 C18.1063179,15.7215876 17.1804709,16.4997096 15.9710807,16.9904163 C14.8380701,17.4503388 13.6960565,17.6327202 12.4856983,17.7189739 C8.73371383,17.9856728 4.98163252,17.7636012 1.23061606,17.8449177 C0.914352751,17.8518877 0.597218191,17.8458858 0.222484406,17.8458858 C0.490151395,17.0747338 0.734004251,16.3480155 0.99470125,15.6273959 C1.18898973,15.0880929 1.42887356,14.5647628 1.5974118,14.0185866 C1.70544665,13.6696031 1.91261025,13.52788 2.2437816,13.5100678 C2.44397521,13.4991288 2.64426563,13.5041626 2.84445924,13.5041626 C6.09983194,13.5041626 9.35520464,13.5090997 12.6096093,13.4962246 C12.9773731,13.4952565 13.3551078,13.4317522 13.7099965,13.3316554 C14.2453305,13.1810261 14.5248077,12.7835431 14.5842463,12.2333011 C14.6466858,11.6583737 14.290829,11.3401742 13.8358436,11.1438529 C13.3581088,10.9376573 12.8574312,10.7632139 12.3509452,10.6442401 C11.5579152,10.4569216 10.8699191,10.1060019 10.2335202,9.59545015 C9.33448828,8.87376573 9.13226175,7.90135528 9.38695682,6.8981607 C9.79828305,5.27938045 10.4168697,3.72207164 11.5420391,2.43543078 C12.1585928,1.73059051 12.9159016,1.26272991 13.8210323,0.94946757 C14.7954757,0.61142304 15.7807613,0.572797677 16.7750497,0.565827686 C20.0304225,0.545014521 23.2848271,0.554888674 26.5401998,0.555856728 C26.6849239,0.555856728 26.8306161,0.582575024 26.9753402,0.596515005 C26.9902482,0.641142304 27.0020585,0.686737657 27.0139655,0.733301065 L27.0140623,0.733494676 Z M64.7811485,17.8441433 C65.2153208,16.6635044 65.6068987,15.6206196 65.9826006,14.5728945 C66.4029297,13.4021297 66.7984767,12.2225557 67.2237429,11.0538238 C67.4953789,10.3083253 67.8125134,9.57976767 68.0890865,8.83630203 C68.3745657,8.06902227 68.6274215,7.28886738 68.9098997,6.52061955 C69.4581088,5.02778316 70.0181282,3.53881897 70.5712743,2.04791868 C70.7090285,1.67618587 70.8537526,1.30648596 70.9668213,0.926718296 C71.0560759,0.628363988 71.2513324,0.550048403 71.5318745,0.554017425 C72.0583024,0.562923524 72.5836654,0.554017425 73.1099965,0.557018393 C74.6633363,0.566892546 76.2166761,0.563988383 77.7690478,0.595643756 C78.851526,0.617521781 79.919193,0.781994192 80.8648852,1.34801549 C81.8701127,1.94878993 82.3458145,2.87366893 82.2695318,4.04336883 C82.0900546,6.77531462 80.6289704,8.63204259 78.2518164,9.85033882 C78.0079636,9.97521781 77.7641107,10.1030978 77.5262598,10.2379477 C77.0504612,10.5076476 77.0822134,10.5264279 77.3002192,11.0428848 C77.6371988,11.8419167 77.9297448,12.6597289 78.2142559,13.4794773 C78.4026393,14.0197483 78.5512356,14.5748306 78.7038978,15.1270087 C78.9150304,15.8933204 79.1143528,16.6625363 79.3115454,17.4327202 C79.3353595,17.5239109 79.3144496,17.6260407 79.3144496,17.7181994 C78.7553982,17.8787996 74.636618,17.8975799 73.9179346,17.7410455 C73.6443624,16.5940949 73.3627555,15.435334 73.0932492,14.2744434 C72.9644012,13.718393 72.8771795,13.1523717 72.7324554,12.6001936 C72.6887961,12.4335915 72.5143528,12.3018393 72.3993479,12.1531462 C72.2635299,12.2760891 72.0603353,12.3732817 72.0018649,12.525847 C71.6063179,13.5468538 71.244556,14.5818006 70.8658532,15.6097773 C70.6339074,16.2372701 70.3851175,16.8588577 70.1541398,17.4872217 C70.0639171,17.7340755 69.8994447,17.8430784 69.644556,17.8430784 C68.0704031,17.8440465 66.4962501,17.8440465 64.7813421,17.8440465 L64.7811485,17.8441433 Z M75.6714679,3.91548887 C75.665466,3.939303 75.6606257,3.96408519 75.6546238,3.98789932 C75.5297448,3.98789932 75.403801,3.99980639 75.2808581,3.98586641 C74.7623682,3.92836399 74.47292,4.11665053 74.2975086,4.64908035 C73.9426199,5.7285576 73.4984767,6.77744434 73.1009936,7.84298161 C72.9790188,8.16911907 73.0703063,8.31674734 73.408254,8.36147144 C75.5940236,8.64898354 77.0274215,7.30280736 77.4100933,5.42526621 C77.5260662,4.85624395 77.3377797,4.45082285 76.8034137,4.19903195 C76.458496,4.0374637 76.051042,4.00571152 75.6713711,3.91548887 L75.6714679,3.91548887 Z M32.7655628,0.270474347 C34.2167729,0.26553727 35.3845367,0.525266215 36.4501708,1.22710552 C37.1133847,1.66321394 37.5812453,2.25401742 37.8033169,2.97279768 C38.1423295,4.07308809 38.2543334,5.18441433 38.0234525,6.37086157 C37.7587864,7.73184898 37.3592705,9.03049371 36.8140623,10.2874153 C36.1667245,11.7783156 35.451042,13.2414327 34.3169665,14.4399806 C33.7013808,15.0911907 33.0907322,15.7643756 32.3888929,16.313456 C31.5681766,16.9568248 30.6233557,17.3939981 29.6083508,17.7191675 C28.8499771,17.9620523 28.0837622,18.0214908 27.3254854,18.0691191 C26.0298416,18.1514037 24.75898,18.0116167 23.5813421,17.3236205 C22.1757274,16.5029042 21.6423295,15.2350436 21.5482346,13.711423 C21.4640139,12.3474347 21.7771795,11.0568248 22.1886025,9.75324298 C22.8310033,7.71810261 23.8569471,5.91297193 25.1664341,4.26350436 C26.464982,2.62691191 28.1075764,1.40067764 30.1000255,0.758276864 C31.0120294,0.465827686 31.9567535,0.104065828 32.7656596,0.270571152 L32.7655628,0.270474347 Z M28.2224844,14.3330106 C28.5387477,14.2378509 28.95898,14.1644724 29.3287768,13.9870281 C30.154527,13.589545 30.682891,12.8629235 31.0595609,12.0748306 C31.6702095,10.796031 32.2303256,9.48654405 32.7140623,8.1552759 C32.9916035,7.3909971 33.1066083,6.56224589 33.2443624,5.75430784 C33.4793092,4.37938045 32.0924747,3.75982575 31.1051562,4.12662149 C30.0762114,4.50822846 29.4040914,5.23581801 28.8143528,6.07754114 C28.1095125,7.08267183 27.657528,8.21374637 27.2312937,9.36166505 C26.8377797,10.4204259 26.5601417,11.4999032 26.4134815,12.6141336 C26.3332298,13.2267183 26.6881185,13.9018393 27.2381669,14.139787 C27.5038978,14.2538238 27.8160952,14.2577928 28.2224844,14.3331075 L28.2224844,14.3330106 Z M67.0442656,5.16844143 C67.1205483,6.73165537 66.5853111,8.15818006 66.0569471,9.58857696 C65.6307129,10.7414327 65.0627555,11.8239109 64.4332298,12.8736689 C63.3874408,14.6192643 62.0432976,16.0745402 60.2281959,17.0440465 C59.2299384,17.5773475 58.1692414,17.8757018 57.0341979,18.0145208 C56.1004128,18.1285576 55.182407,18.0938045 54.2734041,17.9659245 C52.6744689,17.7409487 51.093346,16.7407551 50.6612066,14.6827686 C50.3598513,13.2493708 50.5680798,11.8665053 50.9308097,10.4747338 C51.4156112,8.61897386 52.2372956,6.92487899 53.3030265,5.34878993 C54.4985735,3.57928364 56.0220972,2.15188771 57.9541398,1.2071636 C59.5124166,0.44482091 61.1738881,0.108809293 62.9006064,0.309002904 C63.5587864,0.385285576 64.2358436,0.574733785 64.8307129,0.864181994 C66.2859888,1.57299129 66.9977022,2.80212972 67.0423295,4.41694095 C67.0502676,4.66766699 67.0442656,4.91848984 67.0442656,5.16834463 L67.0442656,5.16844143 Z M55.4531717,12.4425944 C55.4531717,12.6924492 55.4323586,12.9441433 55.4581088,13.192062 C55.5056403,13.6549855 55.9547206,14.1754114 56.3958629,14.2418199 C57.469435,14.4054211 58.4240333,14.1843175 59.172436,13.32788 C59.9535589,12.4337851 60.4442656,11.3680542 60.8704999,10.2876089 C61.3344883,9.11200387 61.686376,7.89060987 62.0492027,6.67831559 C62.1751466,6.25701839 62.218709,5.80406583 62.2464922,5.36185866 C62.2771795,4.86524685 61.9807613,4.52129719 61.5813421,4.27241045 C60.7555919,3.7589545 59.9952821,4.0553727 59.2736945,4.50929332 C58.287344,5.12981607 57.6677893,6.07550823 57.1850207,7.0945789 C56.7389413,8.03533398 56.3642075,9.01277832 56.0043818,9.99119071 C55.7119326,10.7812197 55.4185154,11.5791868 55.4532685,12.4425944 L55.4531717,12.4425944 Z M56.1451369,0.599709584 C55.5493963,1.05769603 55.0655628,1.37086157 54.6512356,1.75953533 C53.8879249,2.47628267 53.1395222,3.21277832 52.4357467,3.98702807 C52.050074,4.41229429 51.6566567,4.60261375 51.0717584,4.58673766 C49.5957661,4.54607938 48.115708,4.60261375 46.6397158,4.56195547 C45.9814389,4.54404647 45.5839558,4.84346563 45.343104,5.37879961 C45.1299384,5.85256534 44.9713711,6.35614714 44.8395222,6.8607938 C44.6947981,7.41393998 44.8415551,7.59138432 45.4312937,7.60125847 C46.40777,7.61713456 47.3851175,7.60425944 48.361497,7.60822846 C48.6023489,7.60919652 48.8442656,7.63010649 49.1932492,7.64685382 C48.7848271,8.78886738 48.4121262,9.83262343 48.0324554,10.8963214 C47.7995415,10.9121975 47.604285,10.9349468 47.4089316,10.9359148 C46.2818261,10.9398838 45.1547206,10.9319458 44.0277119,10.9408519 C43.375437,10.945789 43.3298416,10.9794773 43.1068019,11.5871249 C42.5061243,13.2237173 41.9162889,14.8643756 41.3156112,16.5019361 C41.2560759,16.6645692 41.1392317,16.8062924 41.0836654,16.9688287 C40.7802772,17.8470474 40.7843431,17.8481123 39.8386509,17.8470474 C38.4905386,17.8460794 37.1413615,17.8470474 35.7020585,17.8470474 C35.9498803,17.1164569 36.1827942,16.3968054 36.4375861,15.685092 C36.7389413,14.8444337 37.0620778,14.0118103 37.3733073,13.174153 C37.8054467,12.0113262 38.2406838,10.8495644 38.6639171,9.68276864 C38.9355531,8.93436592 39.1735009,8.17308809 39.4520101,7.42758955 C39.9050594,6.21616651 40.3114486,4.98005808 40.8596577,3.81132623 C41.712223,1.99332043 43.1594641,0.896902227 45.1925715,0.671926428 C45.8130943,0.603484995 46.439619,0.564859632 47.0631427,0.56195547 C49.8427167,0.550048403 52.6232588,0.554017425 55.4028329,0.555953533 C55.6001224,0.555953533 55.7944108,0.577831559 56.1453305,0.599612778 L56.1451369,0.599709584 Z M82.2576248,17.7112294 C82.554043,16.8894482 82.8425231,16.1013553 83.1229684,15.3103582 C83.5472666,14.1168441 83.9615938,12.9193611 84.389861,11.7269119 C84.6416519,11.0250726 84.9102869,10.3291384 85.1709839,9.6303001 C85.5962501,8.49031946 86.0194834,7.34937076 86.4448465,6.20939013 C86.5489123,5.92981607 86.6708871,5.657212 86.767983,5.37570184 C86.9801804,4.76505324 86.8671117,4.58964182 86.2337138,4.57473379 C85.6329394,4.56089061 85.0322618,4.57076476 84.4306161,4.57076476 C84.15898,4.57076476 83.9270343,4.52420136 83.901284,4.18412391 C83.8002192,2.86573088 83.5176441,1.61674734 82.3459113,0.603581801 L99.2661437,0.603581801 C99.2482346,0.798838335 99.2641107,0.948499516 99.2185154,1.07541142 C98.8735977,2.03988383 98.519677,3.00145208 98.1608194,3.96001936 C97.9704999,4.46757018 97.8227748,4.56863504 97.2686606,4.57066796 C95.741071,4.57560503 94.2135783,4.57163601 92.68686,4.57260407 C92.4866664,4.57260407 92.286376,4.57550823 92.0860856,4.58547919 C91.8055435,4.59835431 91.6479442,4.73610842 91.5467826,5.01364956 C90.9926683,6.53136496 90.4018649,8.03610842 89.8546238,9.55566312 C89.3351659,10.9999032 88.8693382,12.4640852 88.3508484,13.9093901 C87.9305193,15.07909 87.4615938,16.2309777 87.0254854,17.3947725 C86.9303256,17.6485963 86.8281959,17.8468538 86.5129975,17.8438529 C85.1618842,17.8339787 83.8098029,17.8309777 82.4586896,17.8210068 C82.4150304,17.8210068 82.372436,17.7763795 82.257528,17.7110358 L82.2576248,17.7112294 Z" id="sofort" fill="#000000" sketch:type="MSShapeGroup"></path>
    </g>
</svg>