<?xml version="1.0" encoding="UTF-8" standalone="no"?>
<svg width="101px" height="25px" viewBox="0 0 101 25" version="1.1" xmlns="http://www.w3.org/2000/svg" xmlns:xlink="http://www.w3.org/1999/xlink" xmlns:sketch="http://www.bohemiancoding.com/sketch/ns">
    <!-- Generator: Sketch 3.3.2 (12043) - http://www.bohemiancoding.com/sketch -->
    <title>swift</title>
    <desc>Created with Sketch.</desc>
    <defs></defs>
    <g id="Page-1" stroke="none" stroke-width="1" fill="none" fill-rule="evenodd" sketch:type="MSPage">
        <path d="M1.67878088,6.54944322 C2.10566845,3.18069041 3.89615691,1.50485176 7.76253866,1.73659073 C10.4653468,1.89758833 11.8338264,3.82468081 11.8460232,5.87374117 C11.85822,7.56421597 10.814175,8.99124015 8.90659736,10.347523 L7.78205352,11.0890877 C5.42319475,12.7454114 3.31071109,14.4993095 3.33022595,17.4850832 C3.35705888,21.7295654 6.82338599,24.4031013 11.4484079,24.6080073 C12.7949333,24.6689913 14.4927262,24.4860394 15.7929038,24.1469687 C16.4710452,23.971335 17.3858043,23.6688546 17.7614653,23.5444474 L16.6710725,19.4024183 L16.3612741,19.3975395 C15.7685102,21.9344714 14.6805567,23.3541775 11.1800786,23.071212 C8.71876683,22.8711847 7.55763262,20.8953051 7.54787519,19.2048303 C7.5356784,17.4436141 8.5821628,16.3385851 10.5653605,15.0603618 L11.6899043,14.3553874 C14.273184,12.6722307 16.4856813,10.8939391 16.4661665,7.74960714 C16.4344548,3.04164703 12.7437068,0.0827062973 7.32101494,0.0778275822 C4.19619789,0.0778275822 1.30555917,1.12675134 0.222484406,2.08785822 C0.2688322,2.52206387 0.868914162,4.52721579 1.38361861,6.53480707 L1.67878088,6.54944322 L1.67878088,6.54944322 Z M81.1686624,24.176485 C80.8491066,23.242211 80.2758575,21.4419651 79.8172583,20.0198197 L79.5367322,20.0198197 C78.4292639,22.8982616 75.755728,22.5201612 73.8627865,22.5201612 L73.6627592,22.5250399 C72.3528242,22.5250399 71.9917992,22.2249989 71.6576073,21.0028808 L69.547563,13.3384193 L70.257416,13.3384193 C73.4700499,13.3384193 75.7142589,13.0456964 76.6314573,14.2995262 L76.9144228,14.2995262 L75.687426,9.96966647 L75.4093392,9.96966647 C74.8068179,11.8918802 72.5430941,11.6845348 69.718318,11.6894136 L69.0474947,11.6894136 L67.1521138,5.16657141 C66.4568969,2.73209255 66.2251579,1.48070212 66.8301186,0.82939365 L66.832558,0.522034596 L59.8730708,0.509837808 L59.8730708,0.800121359 C61.0854315,1.27335673 61.3318067,2.3613102 62.139234,5.08607261 L66.3178535,19.5758566 C67.0813724,22.2103628 67.2277339,23.1421973 66.6398487,23.8959588 L66.6325307,24.176485 L81.1686624,24.176485 L81.1686624,24.176485 Z M100.222484,24.1752653 C99.7590065,22.8311793 99.3565125,21.5066081 98.8466867,20.0186 L98.5588425,20.0210393 C97.4904039,22.8653303 94.611962,22.5238202 93.3581322,22.5238202 L93.0556519,22.5238202 L88.0427721,5.13364008 C87.3743881,2.55523913 87.10118,1.47216437 87.735413,0.815977183 L87.7305343,0.520814917 L80.9320447,0.520814917 L80.9247267,0.815977183 C82.1078151,1.37459007 82.3810231,2.55767849 83.1421027,5.1726698 L88.1744974,22.5238202 L87.6768684,22.5238202 C86.0449382,22.5238202 83.4543405,22.775074 81.5540809,20.0186 L81.2394038,20.0210393 C81.6687307,21.2236426 82.1370874,22.6921359 82.6542312,24.1752653 L100.222484,24.1752653 L100.222484,24.1752653 L100.222484,24.1752653 Z M50.485935,23.8857135 C49.4784803,23.1734211 48.8954739,21.9878933 47.6757951,19.7119727 C45.6169773,15.8773026 38.3916002,1.56803112 37.8451841,0.514228652 L35.2375108,0.514228652 L33.7958505,15.4235821 L33.6812007,15.4235821 L25.5971697,0.514228652 L23.4407776,0.514228652 L21.4527012,19.5582932 C21.2063261,21.7927447 21.0794795,23.2514806 20.3379148,23.9076678 L20.3452329,24.1784364 L27.0729811,24.1784364 L27.0705417,23.9076678 C26.2533569,23.0270597 26.0508902,22.0732709 26.2435995,19.8461374 L27.3681433,8.52263956 L27.4413241,8.52263956 L35.8766225,23.9686517 L37.7720034,23.9686517 L39.2331785,8.49092791 L39.3283135,8.49092791 C41.1505136,11.9865273 43.7289146,16.9823316 45.3340118,20.1388603 C46.7415212,22.9026524 46.1926657,23.5295673 46.0048352,23.8857135 L46.0048352,24.1833152 L50.4908137,24.1735577 L50.485935,23.8857135 L50.485935,23.8857135 Z M60.7824633,23.9020572 C59.6140111,23.5190781 59.2993339,22.0725391 58.5382544,19.5721975 L54.3815891,5.15315494 C53.5790404,2.27959173 53.5961159,1.42581658 54.0620332,0.80865911 L54.0669119,0.525693632 L47.1147429,0.525693632 L47.1123035,0.80865911 C48.2075751,1.35019649 48.4319959,2.1259122 49.2882105,4.95800634 L53.4448758,19.3185044 C54.2352276,22.1262049 54.4279369,23.1531745 53.8302943,23.8922998 L53.8302943,24.1728259 L60.7775846,24.1752653 L60.7824633,23.9020572 L60.7824633,23.9020572 Z" id="swift" fill="#000000" sketch:type="MSShapeGroup" transform="translate(50.222484, 12.348723) scale(1, -1) translate(-50.222484, -12.348723) "></path>
    </g>
</svg>