<?xml version="1.0" encoding="UTF-8" standalone="no"?>
<svg width="21px" height="17px" viewBox="0 0 21 17" version="1.1" xmlns="http://www.w3.org/2000/svg" xmlns:xlink="http://www.w3.org/1999/xlink" xmlns:sketch="http://www.bohemiancoding.com/sketch/ns">
    <!-- Generator: Sketch 3.3.2 (12043) - http://www.bohemiancoding.com/sketch -->
    <title>tw</title>
    <desc>Created with Sketch.</desc>
    <defs></defs>
    <g id="Page-1" stroke="none" stroke-width="1" fill="none" fill-rule="evenodd" sketch:type="MSPage">
        <path d="M20.3344217,2.05546503 C19.5863164,2.38328765 18.7821906,2.60474891 17.9384122,2.70438159 C18.7996788,2.19436657 19.4612595,1.38676178 19.7726817,0.424385336 C18.9665225,0.896734901 18.0737379,1.23962301 17.1234081,1.42442606 C16.3624919,0.623449239 15.2782592,0.123076923 14.078323,0.123076923 C11.7744297,0.123076923 9.90640489,1.96818527 9.90640489,4.24406466 C9.90640489,4.56706652 9.9433116,4.88163204 10.0144822,5.18324146 C6.54725353,5.01139568 3.47329442,3.37067328 1.4156509,0.877351112 C1.05654447,1.48599272 0.850759486,2.19386528 0.850759486,2.94914438 C0.850759486,4.37895007 1.58727395,5.64032527 2.70668478,6.37933253 C2.02283777,6.35794008 1.37955755,6.17253502 0.817106189,5.8638959 C0.816631932,5.88106959 0.816631932,5.898344 0.816631932,5.91572031 C0.816631932,7.91238763 2.25468557,9.57791659 4.16317516,9.95676134 C3.81311756,10.0509701 3.44455562,10.1012883 3.06409693,10.1012883 C2.79527604,10.1012883 2.53397924,10.0753761 2.27918807,10.0273675 C2.81012029,11.6645739 4.35076052,12.8560456 6.17638789,12.889189 C4.74860429,13.9945874 2.94981871,14.6534476 0.995168461,14.6534476 C0.658429184,14.6534476 0.326368455,14.6338624 0,14.5957964 C1.84626704,15.7651729 4.03913435,16.4474343 6.39508452,16.4474343 C14.068596,16.4474343 18.2649158,10.1678783 18.2649158,4.72183818 C18.2649158,4.54316297 18.260849,4.36549151 18.2528175,4.18862468 C19.0678215,3.60770248 19.7750542,2.88195115 20.3343541,2.05546503 L20.3344217,2.05546503 Z" id="tw" fill="#343558" sketch:type="MSShapeGroup"></path>
    </g>
</svg>